M48
; DRILL file {KiCad 8.0.3} date 2024-09-13T09:02:18-0400
; FORMAT={-:-/ absolute / metric / decimal}
; #@! TF.CreationDate,2024-09-13T09:02:18-04:00
; #@! TF.GenerationSoftware,Kicad,Pcbnew,8.0.3
; #@! TF.FileFunction,Plated,1,2,PTH
FMAT,2
METRIC
; #@! TA.AperFunction,Plated,PTH,ViaDrill
T1C0.300
; #@! TA.AperFunction,Plated,PTH,ComponentDrill
T2C0.800
; #@! TA.AperFunction,Plated,PTH,ComponentDrill
T3C1.067
; #@! TA.AperFunction,Plated,PTH,ComponentDrill
T4C2.360
%
G90
G05
T1
X116.0Y-96.0
X116.0Y-98.5
X117.5Y-96.5
X118.0Y-117.5
X118.5Y-62.0
X119.0Y-82.0
X119.0Y-115.5
X121.5Y-88.673
X123.5Y-115.5
X124.0Y-104.0
X124.5Y-81.0
X125.0Y-95.0
X126.0Y-79.5
X126.5Y-96.0
X127.0Y-77.5
X127.5Y-68.0
X128.0Y-60.0
X128.0Y-63.0
X128.5Y-95.0
X128.5Y-111.5
X129.0Y-77.5
X129.5Y-107.0
X131.0Y-77.5
X132.5Y-105.0
X133.0Y-65.5
X133.0Y-77.5
X133.5Y-59.5
X134.5Y-68.0
X134.5Y-77.5
X135.0Y-64.0
X135.0Y-70.0
X135.0Y-90.5
X136.0Y-77.5
X137.5Y-67.0
X137.5Y-112.5
X138.0Y-64.0
X138.0Y-74.0
X138.5Y-82.4
X138.5Y-83.6
X140.0Y-78.0
X140.0Y-118.5
X140.5Y-134.0
X141.0Y-86.5
X141.0Y-112.4
X141.0Y-121.0
X142.5Y-122.5
X143.0Y-113.0
X144.5Y-84.5
X146.5Y-79.5
X146.5Y-129.5
X147.0Y-131.5
X147.5Y-134.0
X148.0Y-95.0
X148.5Y-98.5
X149.5Y-83.5
X149.5Y-129.0
X151.01Y-120.99
X153.0Y-81.0
X153.0Y-131.5
X153.5Y-115.0
X154.0Y-116.5
X154.5Y-81.0
X154.5Y-131.5
X155.0Y-113.0
X157.0Y-75.5
X157.0Y-121.5
X158.0Y-92.0
X158.0Y-123.0
X158.271Y-133.6
X158.5Y-131.5
X159.0Y-90.5
X159.0Y-93.0
X159.0Y-119.0
X159.0Y-124.0
X159.5Y-105.0
X160.0Y-94.0
X160.0Y-131.5
X160.326Y-117.326
X160.39Y-66.89
X160.5Y-92.0
X160.5Y-98.0
X160.5Y-104.5
X160.5Y-110.0
X160.5Y-122.0
X161.0Y-74.5
X161.0Y-106.5
X161.0Y-128.5
X161.5Y-95.5
X161.5Y-111.5
X161.5Y-125.0
X161.5Y-131.5
X162.0Y-94.0
X162.5Y-74.0
X162.5Y-85.5
X162.5Y-102.5
X162.5Y-132.0
X163.0Y-84.6
X163.0Y-91.0
X163.0Y-108.5
X163.5Y-61.5
X163.5Y-68.5
X163.5Y-127.0
X164.0Y-85.5
X164.0Y-109.0
X164.5Y-98.5
X165.0Y-117.5
X166.0Y-85.0
X166.0Y-93.5
X166.0Y-121.0
X166.5Y-63.0
X166.5Y-114.0
X166.5Y-125.5
X167.0Y-84.6
X167.5Y-112.0
X168.0Y-108.0
X170.0Y-116.0
X170.5Y-124.0
X171.0Y-120.5
X172.0Y-117.0
X172.0Y-126.5
X172.5Y-66.5
X172.5Y-132.1
X173.5Y-68.5
X173.5Y-134.5
X174.0Y-126.9
X174.0Y-128.1
X174.0Y-129.5
X174.326Y-134.674
X174.5Y-69.5
X174.5Y-122.5
X176.0Y-115.1
X176.0Y-135.5
X176.5Y-76.0
X176.5Y-113.9
X177.0Y-120.5
X177.243Y-127.894
X177.5Y-71.0
X177.5Y-75.0
X177.5Y-122.5
X178.0Y-72.0
X178.0Y-116.0
X178.4Y-128.125
X178.5Y-74.0
X178.9Y-127.5
X180.0Y-114.5
X180.0Y-121.5
X180.5Y-137.5
X186.5Y-67.5
X187.0Y-119.0
X188.0Y-70.0
X188.0Y-114.5
X188.0Y-116.0
X188.5Y-112.5
X189.0Y-110.5
X189.5Y-107.0
X189.5Y-109.0
T3
X184.5Y-71.48
X184.5Y-74.02
X184.5Y-76.56
X184.5Y-79.1
X184.5Y-81.64
X184.5Y-84.18
X184.5Y-86.72
X184.5Y-89.26
X184.5Y-91.8
X184.5Y-94.34
X184.5Y-96.88
X184.5Y-99.42
X184.5Y-101.96
X184.5Y-104.5
X184.5Y-107.04
X184.5Y-109.58
X184.5Y-112.12
X184.5Y-114.66
X184.5Y-117.2
X192.0Y-71.64
X192.0Y-74.18
X192.0Y-76.72
X192.0Y-79.26
X192.0Y-81.8
X192.0Y-84.34
X192.0Y-86.88
X192.0Y-89.42
X192.0Y-91.96
X192.0Y-94.5
X192.0Y-97.04
X192.0Y-99.58
X192.0Y-102.12
X192.0Y-104.66
X192.0Y-107.2
X192.0Y-109.74
X192.0Y-112.28
X192.0Y-114.82
X192.0Y-117.36
T4
X110.792Y-109.93
X110.792Y-123.07
T2
G00X104.25Y-76.8
M15
G01X102.75Y-76.8
M16
G05
G00X104.25Y-86.7
M15
G01X102.75Y-86.7
M16
G05
G00X111.4Y-77.7
M15
G01X110.2Y-77.7
M16
G05
G00X111.4Y-82.9
M15
G01X110.2Y-82.9
M16
G05
G00X111.4Y-86.3
M15
G01X110.2Y-86.3
M16
G05
M30
