<?xml version="1.0" encoding="UTF-8" standalone="no"?>
<svg width="609.6mm" height="609.6mm"
 viewBox="0 0 7200 7200"
 xmlns="http://www.w3.org/2000/svg" xmlns:xlink="http://www.w3.org/1999/xlink"  version="1.2" baseProfile="tiny">
<defs>
</defs>
<g fill="none" stroke="black" stroke-width="1" fill-rule="evenodd" stroke-linecap="square" stroke-linejoin="bevel" >

<g fill="#ffffff" fill-opacity="1" stroke="none" transform="matrix(1,0,0,1,0,0)"
font-family="Arial" font-size="12" font-weight="400" font-style="normal" 
>
<rect x="0" y="0" width="7200" height="7200"/>
</g>

<g fill="none" stroke="#000000" stroke-opacity="1" stroke-width="1" stroke-linecap="square" stroke-linejoin="bevel" transform="matrix(1,0,0,1,0,0)"
font-family="Arial" font-size="12" font-weight="400" font-style="normal" 
>
</g>

<g fill="#000000" fill-opacity="1" stroke="#000000" stroke-opacity="1" stroke-width="1" stroke-linecap="butt" stroke-linejoin="miter" stroke-miterlimit="2" transform="matrix(1,0,0,1,0,0)"
font-family="Arial" font-size="12" font-weight="400" font-style="normal" 
>
</g>

<g fill="#000000" fill-opacity="1" stroke="#000000" stroke-opacity="1" stroke-width="5" stroke-linecap="round" stroke-linejoin="bevel" transform="matrix(1,0,0,1,0,0)"
font-family="Arial" font-size="12" font-weight="400" font-style="normal" 
>
<polyline fill="none" vector-effect="none" points="1049.5,3663.99 931.392,3663.99 " />
<polyline fill="none" vector-effect="none" points="2159.74,2602.89 2041.63,2602.89 " />
<polyline fill="none" vector-effect="none" points="5607.89,1023.05 5607.89,904.938 " />
<polyline fill="none" vector-effect="none" points="1049.5,3545.88 931.392,3545.88 " />
<polyline fill="none" vector-effect="none" points="6420.13,6548.69 6420.12,6547.99 6420.09,6547.29 6420.05,6546.59 6419.99,6545.89 6419.91,6545.2 6419.82,6544.51 6419.71,6543.82 6419.58,6543.13 6419.44,6542.44 6419.27,6541.76 6419.1,6541.09 6418.9,6540.42 6418.69,6539.75 6418.46,6539.09 6418.22,6538.43 6417.96,6537.78 6417.68,6537.14 6417.39,6536.5 6417.09,6535.87 6416.76,6535.25 6416.43,6534.64 6416.07,6534.04 6415.71,6533.44 6415.33,6532.85 6414.93,6532.28 6414.52,6531.71 6414.1,6531.15 6413.66,6530.61 6413.21,6530.07 6412.75,6529.55 6412.27,6529.04 6411.78,6528.54 6411.28,6528.05 6410.77,6527.57 6410.24,6527.11 6409.71,6526.66 6409.16,6526.22 6408.61,6525.8 6408.04,6525.39 6407.46,6524.99 6406.88,6524.61 6406.28,6524.24 6405.68,6523.89 6405.06,6523.55 6404.44,6523.23 6403.81,6522.92 6403.18,6522.63 6402.54,6522.36 6401.89,6522.1 6401.23,6521.85 6400.57,6521.63 6399.9,6521.42 6399.23,6521.22 6398.55,6521.04 6397.87,6520.88 6397.19,6520.74 6396.5,6520.61 6395.81,6520.5 6395.12,6520.4 6394.42,6520.33 6393.73,6520.27 6393.03,6520.22 6392.33,6520.2 6391.63,6520.19 6390.93,6520.2 6390.23,6520.22 6389.53,6520.27 6388.84,6520.33 6388.14,6520.4 6387.45,6520.5 6386.76,6520.61 6386.07,6520.74 6385.38,6520.88 6384.7,6521.04 6384.03,6521.22 6383.36,6521.42 6382.69,6521.63 6382.03,6521.85 6381.37,6522.1 6380.72,6522.36 6380.08,6522.63 6379.44,6522.92 6378.81,6523.23 6378.19,6523.55 6377.58,6523.89 6376.98,6524.24 6376.38,6524.61 6375.79,6524.99 6375.22,6525.39 6374.65,6525.8 6374.09,6526.22 6373.55,6526.66 6373.01,6527.11 6372.49,6527.57 6371.98,6528.05 6371.48,6528.54 6370.99,6529.04 6370.51,6529.55 6370.05,6530.07 6369.6,6530.61 6369.16,6531.15 6368.74,6531.71 6368.33,6532.28 6367.93,6532.85 6367.55,6533.44 6367.18,6534.04 6366.83,6534.64 6366.49,6535.25 6366.17,6535.87 6365.86,6536.5 6365.57,6537.14 6365.3,6537.78 6365.04,6538.43 6364.79,6539.09 6364.57,6539.75 6364.36,6540.42 6364.16,6541.09 6363.98,6541.76 6363.82,6542.44 6363.68,6543.13 6363.55,6543.82 6363.44,6544.51 6363.34,6545.2 6363.27,6545.89 6363.21,6546.59 6363.16,6547.29 6363.14,6547.99 6363.13,6548.69 6363.14,6549.39 6363.16,6550.09 6363.21,6550.78 6363.27,6551.48 6363.34,6552.18 6363.44,6552.87 6363.55,6553.56 6363.68,6554.25 6363.82,6554.93 6363.98,6555.61 6364.16,6556.29 6364.36,6556.96 6364.57,6557.63 6364.79,6558.29 6365.04,6558.95 6365.3,6559.59 6365.57,6560.24 6365.86,6560.87 6366.17,6561.5 6366.49,6562.12 6366.83,6562.74 6367.18,6563.34 6367.55,6563.94 6367.93,6564.52 6368.33,6565.1 6368.74,6565.67 6369.16,6566.22 6369.6,6566.77 6370.05,6567.3 6370.51,6567.83 6370.99,6568.34 6371.48,6568.84 6371.98,6569.33 6372.49,6569.81 6373.01,6570.27 6373.55,6570.72 6374.09,6571.16 6374.65,6571.58 6375.22,6571.99 6375.79,6572.39 6376.38,6572.77 6376.98,6573.13 6377.58,6573.49 6378.19,6573.82 6378.81,6574.15 6379.44,6574.45 6380.08,6574.74 6380.72,6575.02 6381.37,6575.28 6382.03,6575.52 6382.69,6575.75 6383.36,6575.96 6384.03,6576.16 6384.7,6576.33 6385.38,6576.5 6386.07,6576.64 6386.76,6576.77 6387.45,6576.88 6388.14,6576.97 6388.84,6577.05 6389.53,6577.11 6390.23,6577.15 6390.93,6577.18 6391.63,6577.19 6392.33,6577.18 6393.03,6577.15 6393.73,6577.11 6394.42,6577.05 6395.12,6576.97 6395.81,6576.88 6396.5,6576.77 6397.19,6576.64 6397.87,6576.5 6398.55,6576.33 6399.23,6576.16 6399.9,6575.96 6400.57,6575.75 6401.23,6575.52 6401.89,6575.28 6402.54,6575.02 6403.18,6574.74 6403.81,6574.45 6404.44,6574.15 6405.06,6573.82 6405.68,6573.49 6406.28,6573.13 6406.88,6572.77 6407.46,6572.39 6408.04,6571.99 6408.61,6571.58 6409.16,6571.16 6409.71,6570.72 6410.24,6570.27 6410.77,6569.81 6411.28,6569.33 6411.78,6568.84 6412.27,6568.34 6412.75,6567.83 6413.21,6567.3 6413.66,6566.77 6414.1,6566.22 6414.52,6565.67 6414.93,6565.1 6415.33,6564.52 6415.71,6563.94 6416.07,6563.34 6416.43,6562.74 6416.76,6562.12 6417.09,6561.5 6417.39,6560.87 6417.68,6560.24 6417.96,6559.59 6418.22,6558.95 6418.46,6558.29 6418.69,6557.63 6418.9,6556.96 6419.1,6556.29 6419.27,6555.61 6419.44,6554.93 6419.58,6554.25 6419.71,6553.56 6419.82,6552.87 6419.91,6552.18 6419.99,6551.48 6420.05,6550.78 6420.09,6550.09 6420.12,6549.39 6420.13,6548.69 " />
<polyline fill="none" vector-effect="none" points="1475.44,6304.94 1357.33,6304.94 " />
<polyline fill="none" vector-effect="none" points="5726,1023.05 5726,904.938 " />
<polyline fill="none" vector-effect="none" points="2159.74,2602.89 2159.74,2484.78 " />
<polyline fill="none" vector-effect="none" points="1475.44,6186.83 1357.33,6186.83 " />
<polyline fill="none" vector-effect="none" points="5726,904.938 5607.89,904.938 " />
<polyline fill="none" vector-effect="none" points="931.392,3663.99 931.392,3545.88 " />
<polyline fill="none" vector-effect="none" points="2041.63,2602.89 2041.63,2484.78 " />
<polyline fill="none" vector-effect="none" points="1475.44,6304.94 1475.44,6186.83 " />
<polyline fill="none" vector-effect="none" points="6151.86,3663.99 6033.75,3663.99 " />
<polyline fill="none" vector-effect="none" points="5070.13,6548.69 5070.12,6547.99 5070.09,6547.29 5070.05,6546.59 5069.99,6545.89 5069.91,6545.2 5069.82,6544.51 5069.71,6543.82 5069.58,6543.13 5069.44,6542.44 5069.27,6541.76 5069.1,6541.09 5068.9,6540.42 5068.69,6539.75 5068.46,6539.09 5068.22,6538.43 5067.96,6537.78 5067.68,6537.14 5067.39,6536.5 5067.09,6535.87 5066.76,6535.25 5066.43,6534.64 5066.07,6534.04 5065.71,6533.44 5065.33,6532.85 5064.93,6532.28 5064.52,6531.71 5064.1,6531.15 5063.66,6530.61 5063.21,6530.07 5062.75,6529.55 5062.27,6529.04 5061.78,6528.54 5061.28,6528.05 5060.77,6527.57 5060.24,6527.11 5059.71,6526.66 5059.16,6526.22 5058.61,6525.8 5058.04,6525.39 5057.46,6524.99 5056.88,6524.61 5056.28,6524.24 5055.68,6523.89 5055.06,6523.55 5054.44,6523.23 5053.81,6522.92 5053.18,6522.63 5052.54,6522.36 5051.89,6522.1 5051.23,6521.85 5050.57,6521.63 5049.9,6521.42 5049.23,6521.22 5048.55,6521.04 5047.87,6520.88 5047.19,6520.74 5046.5,6520.61 5045.81,6520.5 5045.12,6520.4 5044.42,6520.33 5043.73,6520.27 5043.03,6520.22 5042.33,6520.2 5041.63,6520.19 5040.93,6520.2 5040.23,6520.22 5039.53,6520.27 5038.84,6520.33 5038.14,6520.4 5037.45,6520.5 5036.76,6520.61 5036.07,6520.74 5035.38,6520.88 5034.7,6521.04 5034.03,6521.22 5033.36,6521.42 5032.69,6521.63 5032.03,6521.85 5031.37,6522.1 5030.72,6522.36 5030.08,6522.63 5029.44,6522.92 5028.81,6523.23 5028.19,6523.55 5027.58,6523.89 5026.98,6524.24 5026.38,6524.61 5025.79,6524.99 5025.22,6525.39 5024.65,6525.8 5024.09,6526.22 5023.55,6526.66 5023.01,6527.11 5022.49,6527.57 5021.98,6528.05 5021.48,6528.54 5020.99,6529.04 5020.51,6529.55 5020.05,6530.07 5019.6,6530.61 5019.16,6531.15 5018.74,6531.71 5018.33,6532.28 5017.93,6532.85 5017.55,6533.44 5017.18,6534.04 5016.83,6534.64 5016.49,6535.25 5016.17,6535.87 5015.86,6536.5 5015.57,6537.14 5015.3,6537.78 5015.04,6538.43 5014.79,6539.09 5014.57,6539.75 5014.36,6540.42 5014.16,6541.09 5013.98,6541.76 5013.82,6542.44 5013.68,6543.13 5013.55,6543.82 5013.44,6544.51 5013.34,6545.2 5013.27,6545.89 5013.21,6546.59 5013.16,6547.29 5013.14,6547.99 5013.13,6548.69 5013.14,6549.39 5013.16,6550.09 5013.21,6550.78 5013.27,6551.48 5013.34,6552.18 5013.44,6552.87 5013.55,6553.56 5013.68,6554.25 5013.82,6554.93 5013.98,6555.61 5014.16,6556.29 5014.36,6556.96 5014.57,6557.63 5014.79,6558.29 5015.04,6558.95 5015.3,6559.59 5015.57,6560.24 5015.86,6560.87 5016.17,6561.5 5016.49,6562.12 5016.83,6562.74 5017.18,6563.34 5017.55,6563.94 5017.93,6564.52 5018.33,6565.1 5018.74,6565.67 5019.16,6566.22 5019.6,6566.77 5020.05,6567.3 5020.51,6567.83 5020.99,6568.34 5021.48,6568.84 5021.98,6569.33 5022.49,6569.81 5023.01,6570.27 5023.55,6570.72 5024.09,6571.16 5024.65,6571.58 5025.22,6571.99 5025.79,6572.39 5026.38,6572.77 5026.98,6573.13 5027.58,6573.49 5028.19,6573.82 5028.81,6574.15 5029.44,6574.45 5030.08,6574.74 5030.72,6575.02 5031.37,6575.28 5032.03,6575.52 5032.69,6575.75 5033.36,6575.96 5034.03,6576.16 5034.7,6576.33 5035.38,6576.5 5036.07,6576.64 5036.76,6576.77 5037.45,6576.88 5038.14,6576.97 5038.84,6577.05 5039.53,6577.11 5040.23,6577.15 5040.93,6577.18 5041.63,6577.19 5042.33,6577.18 5043.03,6577.15 5043.73,6577.11 5044.42,6577.05 5045.12,6576.97 5045.81,6576.88 5046.5,6576.77 5047.19,6576.64 5047.87,6576.5 5048.55,6576.33 5049.23,6576.16 5049.9,6575.96 5050.57,6575.75 5051.23,6575.52 5051.89,6575.28 5052.54,6575.02 5053.18,6574.74 5053.81,6574.45 5054.44,6574.15 5055.06,6573.82 5055.68,6573.49 5056.28,6573.13 5056.88,6572.77 5057.46,6572.39 5058.04,6571.99 5058.61,6571.58 5059.16,6571.16 5059.71,6570.72 5060.24,6570.27 5060.77,6569.81 5061.28,6569.33 5061.78,6568.84 5062.27,6568.34 5062.75,6567.83 5063.21,6567.3 5063.66,6566.77 5064.1,6566.22 5064.52,6565.67 5064.93,6565.1 5065.33,6564.52 5065.71,6563.94 5066.07,6563.34 5066.43,6562.74 5066.76,6562.12 5067.09,6561.5 5067.39,6560.87 5067.68,6560.24 5067.96,6559.59 5068.22,6558.95 5068.46,6558.29 5068.69,6557.63 5068.9,6556.96 5069.1,6556.29 5069.27,6555.61 5069.44,6554.93 5069.58,6554.25 5069.71,6553.56 5069.82,6552.87 5069.91,6552.18 5069.99,6551.48 5070.05,6550.78 5070.09,6550.09 5070.12,6549.39 5070.13,6548.69 " />
<polyline fill="none" vector-effect="none" points="3600.68,904.938 3482.57,904.938 " />
<polyline fill="none" vector-effect="none" points="5041.63,2602.89 4923.52,2602.89 " />
<polyline fill="none" vector-effect="none" points="4923.52,4725.1 5041.63,4725.1 " />
<polyline fill="none" vector-effect="none" points="720.129,6548.69 720.12,6547.99 720.094,6547.29 720.051,6546.59 719.991,6545.89 719.914,6545.2 719.82,6544.51 719.709,6543.82 719.581,6543.13 719.436,6542.44 719.274,6541.76 719.096,6541.09 718.901,6540.42 718.69,6539.75 718.463,6539.09 718.219,6538.43 717.959,6537.78 717.684,6537.14 717.392,6536.5 717.085,6535.87 716.763,6535.25 716.426,6534.64 716.074,6534.04 715.707,6533.44 715.325,6532.85 714.93,6532.28 714.52,6531.71 714.096,6531.15 713.659,6530.61 713.209,6530.07 712.746,6529.55 712.27,6529.04 711.781,6528.54 711.28,6528.05 710.768,6527.57 710.244,6527.11 709.709,6526.66 709.163,6526.22 708.606,6525.8 708.039,6525.39 707.462,6524.99 706.876,6524.61 706.28,6524.24 705.676,6523.89 705.063,6523.55 704.442,6523.23 703.814,6522.92 703.178,6522.63 702.535,6522.36 701.886,6522.1 701.23,6521.85 700.569,6521.63 699.902,6521.42 699.23,6521.22 698.554,6521.04 697.873,6520.88 697.189,6520.74 696.501,6520.61 695.81,6520.5 695.117,6520.4 694.422,6520.33 693.725,6520.27 693.027,6520.22 692.328,6520.2 691.629,6520.19 690.929,6520.2 690.23,6520.22 689.532,6520.27 688.835,6520.33 688.14,6520.4 687.447,6520.5 686.756,6520.61 686.068,6520.74 685.384,6520.88 684.704,6521.04 684.027,6521.22 683.355,6521.42 682.689,6521.63 682.027,6521.85 681.372,6522.1 680.722,6522.36 680.079,6522.63 679.443,6522.92 678.815,6523.23 678.194,6523.55 677.581,6523.89 676.977,6524.24 676.381,6524.61 675.795,6524.99 675.218,6525.39 674.651,6525.8 674.094,6526.22 673.548,6526.66 673.013,6527.11 672.489,6527.57 671.977,6528.05 671.476,6528.54 670.988,6529.04 670.511,6529.55 670.048,6530.07 669.598,6530.61 669.161,6531.15 668.737,6531.71 668.327,6532.28 667.932,6532.85 667.55,6533.44 667.183,6534.04 666.831,6534.64 666.494,6535.25 666.172,6535.87 665.865,6536.5 665.574,6537.14 665.298,6537.78 665.038,6538.43 664.795,6539.09 664.567,6539.75 664.356,6540.42 664.161,6541.09 663.983,6541.76 663.821,6542.44 663.676,6543.13 663.548,6543.82 663.437,6544.51 663.343,6545.2 663.266,6545.89 663.206,6546.59 663.163,6547.29 663.137,6547.99 663.129,6548.69 663.137,6549.39 663.163,6550.09 663.206,6550.78 663.266,6551.48 663.343,6552.18 663.437,6552.87 663.548,6553.56 663.676,6554.25 663.821,6554.93 663.983,6555.61 664.161,6556.29 664.356,6556.96 664.567,6557.63 664.795,6558.29 665.038,6558.95 665.298,6559.59 665.574,6560.24 665.865,6560.87 666.172,6561.5 666.494,6562.12 666.831,6562.74 667.183,6563.34 667.55,6563.94 667.932,6564.52 668.327,6565.1 668.737,6565.67 669.161,6566.22 669.598,6566.77 670.048,6567.3 670.511,6567.83 670.988,6568.34 671.476,6568.84 671.977,6569.33 672.489,6569.81 673.013,6570.27 673.548,6570.72 674.094,6571.16 674.651,6571.58 675.218,6571.99 675.795,6572.39 676.381,6572.77 676.977,6573.13 677.581,6573.49 678.194,6573.82 678.815,6574.15 679.443,6574.45 680.079,6574.74 680.722,6575.02 681.372,6575.28 682.027,6575.52 682.689,6575.75 683.355,6575.96 684.027,6576.16 684.704,6576.33 685.384,6576.5 686.068,6576.64 686.756,6576.77 687.447,6576.88 688.14,6576.97 688.835,6577.05 689.532,6577.11 690.23,6577.15 690.929,6577.18 691.629,6577.19 692.328,6577.18 693.027,6577.15 693.725,6577.11 694.422,6577.05 695.117,6576.97 695.81,6576.88 696.501,6576.77 697.189,6576.64 697.873,6576.5 698.554,6576.33 699.23,6576.16 699.902,6575.96 700.569,6575.75 701.23,6575.52 701.886,6575.28 702.535,6575.02 703.178,6574.74 703.814,6574.45 704.442,6574.15 705.063,6573.82 705.676,6573.49 706.28,6573.13 706.876,6572.77 707.462,6572.39 708.039,6571.99 708.606,6571.58 709.163,6571.16 709.709,6570.72 710.244,6570.27 710.768,6569.81 711.28,6569.33 711.781,6568.84 712.27,6568.34 712.746,6567.83 713.209,6567.3 713.659,6566.77 714.096,6566.22 714.52,6565.67 714.93,6565.1 715.325,6564.52 715.707,6563.94 716.074,6563.34 716.426,6562.74 716.763,6562.12 717.085,6561.5 717.392,6560.87 717.684,6560.24 717.959,6559.59 718.219,6558.95 718.463,6558.29 718.69,6557.63 718.901,6556.96 719.096,6556.29 719.274,6555.61 719.436,6554.93 719.581,6554.25 719.709,6553.56 719.82,6552.87 719.914,6552.18 719.991,6551.48 720.051,6550.78 720.094,6550.09 720.12,6549.39 720.129,6548.69 " />
<polyline fill="none" vector-effect="none" points="1357.33,6304.94 1357.33,6186.83 " />
<polyline fill="none" vector-effect="none" points="6151.86,3545.88 6033.75,3545.88 " />
<polyline fill="none" vector-effect="none" points="3600.68,1023.05 3600.68,904.938 " />
<polyline fill="none" vector-effect="none" points="5041.63,2484.78 4923.52,2484.78 " />
<polyline fill="none" vector-effect="none" points="4923.52,4606.99 4923.52,4725.1 " />
<polyline fill="none" vector-effect="none" points="1049.5,3663.99 1049.5,3545.88 " />
<polyline fill="none" vector-effect="none" points="2070.13,6548.69 2070.12,6547.99 2070.09,6547.29 2070.05,6546.59 2069.99,6545.89 2069.91,6545.2 2069.82,6544.51 2069.71,6543.82 2069.58,6543.13 2069.44,6542.44 2069.27,6541.76 2069.1,6541.09 2068.9,6540.42 2068.69,6539.75 2068.46,6539.09 2068.22,6538.43 2067.96,6537.78 2067.68,6537.14 2067.39,6536.5 2067.09,6535.87 2066.76,6535.25 2066.43,6534.64 2066.07,6534.04 2065.71,6533.44 2065.33,6532.85 2064.93,6532.28 2064.52,6531.71 2064.1,6531.15 2063.66,6530.61 2063.21,6530.07 2062.75,6529.55 2062.27,6529.04 2061.78,6528.54 2061.28,6528.05 2060.77,6527.57 2060.24,6527.11 2059.71,6526.66 2059.16,6526.22 2058.61,6525.8 2058.04,6525.39 2057.46,6524.99 2056.88,6524.61 2056.28,6524.24 2055.68,6523.89 2055.06,6523.55 2054.44,6523.23 2053.81,6522.92 2053.18,6522.63 2052.54,6522.36 2051.89,6522.1 2051.23,6521.85 2050.57,6521.63 2049.9,6521.42 2049.23,6521.22 2048.55,6521.04 2047.87,6520.88 2047.19,6520.74 2046.5,6520.61 2045.81,6520.5 2045.12,6520.4 2044.42,6520.33 2043.73,6520.27 2043.03,6520.22 2042.33,6520.2 2041.63,6520.19 2040.93,6520.2 2040.23,6520.22 2039.53,6520.27 2038.84,6520.33 2038.14,6520.4 2037.45,6520.5 2036.76,6520.61 2036.07,6520.74 2035.38,6520.88 2034.7,6521.04 2034.03,6521.22 2033.36,6521.42 2032.69,6521.63 2032.03,6521.85 2031.37,6522.1 2030.72,6522.36 2030.08,6522.63 2029.44,6522.92 2028.81,6523.23 2028.19,6523.55 2027.58,6523.89 2026.98,6524.24 2026.38,6524.61 2025.79,6524.99 2025.22,6525.39 2024.65,6525.8 2024.09,6526.22 2023.55,6526.66 2023.01,6527.11 2022.49,6527.57 2021.98,6528.05 2021.48,6528.54 2020.99,6529.04 2020.51,6529.55 2020.05,6530.07 2019.6,6530.61 2019.16,6531.15 2018.74,6531.71 2018.33,6532.28 2017.93,6532.85 2017.55,6533.44 2017.18,6534.04 2016.83,6534.64 2016.49,6535.25 2016.17,6535.87 2015.86,6536.5 2015.57,6537.14 2015.3,6537.78 2015.04,6538.43 2014.79,6539.09 2014.57,6539.75 2014.36,6540.42 2014.16,6541.09 2013.98,6541.76 2013.82,6542.44 2013.68,6543.13 2013.55,6543.82 2013.44,6544.51 2013.34,6545.2 2013.27,6545.89 2013.21,6546.59 2013.16,6547.29 2013.14,6547.99 2013.13,6548.69 2013.14,6549.39 2013.16,6550.09 2013.21,6550.78 2013.27,6551.48 2013.34,6552.18 2013.44,6552.87 2013.55,6553.56 2013.68,6554.25 2013.82,6554.93 2013.98,6555.61 2014.16,6556.29 2014.36,6556.96 2014.57,6557.63 2014.79,6558.29 2015.04,6558.95 2015.3,6559.59 2015.57,6560.24 2015.86,6560.87 2016.17,6561.5 2016.49,6562.12 2016.83,6562.74 2017.18,6563.34 2017.55,6563.94 2017.93,6564.52 2018.33,6565.1 2018.74,6565.67 2019.16,6566.22 2019.6,6566.77 2020.05,6567.3 2020.51,6567.83 2020.99,6568.34 2021.48,6568.84 2021.98,6569.33 2022.49,6569.81 2023.01,6570.27 2023.55,6570.72 2024.09,6571.16 2024.65,6571.58 2025.22,6571.99 2025.79,6572.39 2026.38,6572.77 2026.98,6573.13 2027.58,6573.49 2028.19,6573.82 2028.81,6574.15 2029.44,6574.45 2030.08,6574.74 2030.72,6575.02 2031.37,6575.28 2032.03,6575.52 2032.69,6575.75 2033.36,6575.96 2034.03,6576.16 2034.7,6576.33 2035.38,6576.5 2036.07,6576.64 2036.76,6576.77 2037.45,6576.88 2038.14,6576.97 2038.84,6577.05 2039.53,6577.11 2040.23,6577.15 2040.93,6577.18 2041.63,6577.19 2042.33,6577.18 2043.03,6577.15 2043.73,6577.11 2044.42,6577.05 2045.12,6576.97 2045.81,6576.88 2046.5,6576.77 2047.19,6576.64 2047.87,6576.5 2048.55,6576.33 2049.23,6576.16 2049.9,6575.96 2050.57,6575.75 2051.23,6575.52 2051.89,6575.28 2052.54,6575.02 2053.18,6574.74 2053.81,6574.45 2054.44,6574.15 2055.06,6573.82 2055.68,6573.49 2056.28,6573.13 2056.88,6572.77 2057.46,6572.39 2058.04,6571.99 2058.61,6571.58 2059.16,6571.16 2059.71,6570.72 2060.24,6570.27 2060.77,6569.81 2061.28,6569.33 2061.78,6568.84 2062.27,6568.34 2062.75,6567.83 2063.21,6567.3 2063.66,6566.77 2064.1,6566.22 2064.52,6565.67 2064.93,6565.1 2065.33,6564.52 2065.71,6563.94 2066.07,6563.34 2066.43,6562.74 2066.76,6562.12 2067.09,6561.5 2067.39,6560.87 2067.68,6560.24 2067.96,6559.59 2068.22,6558.95 2068.46,6558.29 2068.69,6557.63 2068.9,6556.96 2069.1,6556.29 2069.27,6555.61 2069.44,6554.93 2069.58,6554.25 2069.71,6553.56 2069.82,6552.87 2069.91,6552.18 2069.99,6551.48 2070.05,6550.78 2070.09,6550.09 2070.12,6549.39 2070.13,6548.69 " />
<polyline fill="none" vector-effect="none" points="5607.82,6304.94 5725.93,6304.94 " />
<polyline fill="none" vector-effect="none" points="6151.86,3663.99 6151.86,3545.88 " />
<polyline fill="none" vector-effect="none" points="3482.57,1023.05 3482.57,904.938 " />
<polyline fill="none" vector-effect="none" points="3600.68,1023.05 3482.57,1023.05 " />
<polyline fill="none" vector-effect="none" points="1357.25,1023.05 1357.25,904.938 " />
<polyline fill="none" vector-effect="none" points="1475.36,1023.05 1475.36,904.938 " />
<polyline fill="none" vector-effect="none" points="5041.63,4606.99 5041.63,4725.1 " />
<polyline fill="none" vector-effect="none" points="1475.36,904.938 1357.25,904.938 " />
<polyline fill="none" vector-effect="none" points="5726,1023.05 5607.89,1023.05 " />
<polyline fill="none" vector-effect="none" points="4923.52,2602.89 4923.52,2484.78 " />
<polyline fill="none" vector-effect="none" points="1475.36,1023.05 1357.25,1023.05 " />
<polyline fill="none" vector-effect="none" points="6391.63,6604.94 6395.31,6604.89 6398.99,6604.76 6402.66,6604.53 6406.33,6604.22 6409.99,6603.81 6413.64,6603.31 6417.27,6602.73 6420.89,6602.06 6424.49,6601.29 6428.08,6600.44 6431.64,6599.5 6435.17,6598.48 6438.68,6597.37 6442.16,6596.17 6445.61,6594.89 6449.03,6593.52 6452.41,6592.07 6455.76,6590.54 6459.07,6588.92 6462.34,6587.23 6465.56,6585.45 6468.74,6583.6 6471.88,6581.67 6474.96,6579.66 6478,6577.58 6480.98,6575.42 6483.91,6573.19 6486.79,6570.89 6489.6,6568.52 6492.36,6566.08 6495.06,6563.58 6497.69,6561 6500.27,6558.37 6502.77,6555.67 6505.21,6552.91 6507.58,6550.1 6509.88,6547.22 6512.11,6544.29 6514.27,6541.31 6516.35,6538.27 6518.36,6535.19 6520.29,6532.05 6522.14,6528.87 6523.92,6525.65 6525.61,6522.38 6527.23,6519.07 6528.76,6515.72 6530.21,6512.34 6531.58,6508.92 6532.86,6505.47 6534.06,6501.99 6535.17,6498.48 6536.19,6494.95 6537.13,6491.39 6537.98,6487.8 6538.75,6484.2 6539.42,6480.58 6540.01,6476.95 6540.5,6473.3 6540.91,6469.64 6541.22,6465.97 6541.45,6462.3 6541.58,6458.62 6541.63,6454.94 " />
<polyline fill="none" vector-effect="none" points="2041.63,4725.1 2041.63,4606.99 " />
<polyline fill="none" vector-effect="none" points="6391.63,604.938 691.629,604.938 " />
<polyline fill="none" vector-effect="none" points="2159.74,2484.78 2041.63,2484.78 " />
<polyline fill="none" vector-effect="none" points="720.129,661.188 720.12,660.489 720.094,659.79 720.051,659.092 719.991,658.395 719.914,657.7 719.82,657.006 719.709,656.316 719.581,655.628 719.436,654.944 719.274,654.263 719.096,653.587 718.901,652.915 718.69,652.248 718.463,651.587 718.219,650.931 717.959,650.282 717.684,649.639 717.392,649.003 717.085,648.374 716.763,647.753 716.426,647.141 716.074,646.536 715.707,645.941 715.325,645.354 714.93,644.778 714.52,644.211 714.096,643.654 713.659,643.108 713.209,642.573 712.746,642.049 712.27,641.536 711.781,641.036 711.28,640.547 710.768,640.071 710.244,639.608 709.709,639.157 709.163,638.72 708.606,638.297 708.039,637.887 707.462,637.491 706.876,637.11 706.28,636.743 705.676,636.391 705.063,636.053 704.442,635.731 703.814,635.425 703.178,635.133 702.535,634.858 701.886,634.598 701.23,634.354 700.569,634.127 699.902,633.915 699.23,633.721 698.554,633.542 697.873,633.381 697.189,633.236 696.501,633.108 695.81,632.997 695.117,632.903 694.422,632.825 693.725,632.765 693.027,632.723 692.328,632.697 691.629,632.688 690.929,632.697 690.23,632.723 689.532,632.765 688.835,632.825 688.14,632.903 687.447,632.997 686.756,633.108 686.068,633.236 685.384,633.381 684.704,633.542 684.027,633.721 683.355,633.915 682.689,634.127 682.027,634.354 681.372,634.598 680.722,634.858 680.079,635.133 679.443,635.425 678.815,635.731 678.194,636.053 677.581,636.391 676.977,636.743 676.381,637.11 675.795,637.491 675.218,637.887 674.651,638.297 674.094,638.72 673.548,639.157 673.013,639.608 672.489,640.071 671.977,640.547 671.476,641.036 670.988,641.536 670.511,642.049 670.048,642.573 669.598,643.108 669.161,643.654 668.737,644.211 668.327,644.778 667.932,645.354 667.55,645.941 667.183,646.536 666.831,647.141 666.494,647.753 666.172,648.374 665.865,649.003 665.574,649.639 665.298,650.282 665.038,650.931 664.795,651.587 664.567,652.248 664.356,652.915 664.161,653.587 663.983,654.263 663.821,654.944 663.676,655.628 663.548,656.316 663.437,657.006 663.343,657.7 663.266,658.395 663.206,659.092 663.163,659.79 663.137,660.489 663.129,661.188 663.137,661.888 663.163,662.587 663.206,663.285 663.266,663.982 663.343,664.677 663.437,665.37 663.548,666.061 663.676,666.748 663.821,667.433 663.983,668.113 664.161,668.79 664.356,669.461 664.567,670.128 664.795,670.79 665.038,671.445 665.298,672.095 665.574,672.738 665.865,673.374 666.172,674.002 666.494,674.623 666.831,675.236 667.183,675.84 667.55,676.436 667.932,677.022 668.327,677.599 668.737,678.166 669.161,678.722 669.598,679.268 670.048,679.804 670.511,680.328 670.988,680.84 671.476,681.341 671.977,681.829 672.489,682.305 673.013,682.769 673.548,683.219 674.094,683.656 674.651,684.08 675.218,684.489 675.795,684.885 676.381,685.267 676.977,685.633 677.581,685.986 678.194,686.323 678.815,686.645 679.443,686.952 680.079,687.243 680.722,687.519 681.372,687.779 682.027,688.022 682.689,688.25 683.355,688.461 684.027,688.656 684.704,688.834 685.384,688.996 686.068,689.141 686.756,689.269 687.447,689.38 688.14,689.474 688.835,689.551 689.532,689.611 690.23,689.654 690.929,689.68 691.629,689.688 692.328,689.68 693.027,689.654 693.725,689.611 694.422,689.551 695.117,689.474 695.81,689.38 696.501,689.269 697.189,689.141 697.873,688.996 698.554,688.834 699.23,688.656 699.902,688.461 700.569,688.25 701.23,688.022 701.886,687.779 702.535,687.519 703.178,687.243 703.814,686.952 704.442,686.645 705.063,686.323 705.676,685.986 706.28,685.633 706.876,685.267 707.462,684.885 708.039,684.489 708.606,684.08 709.163,683.656 709.709,683.219 710.244,682.769 710.768,682.305 711.28,681.829 711.781,681.341 712.27,680.84 712.746,680.328 713.209,679.804 713.659,679.268 714.096,678.722 714.52,678.166 714.93,677.599 715.325,677.022 715.707,676.436 716.074,675.84 716.426,675.236 716.763,674.623 717.085,674.002 717.392,673.374 717.684,672.738 717.959,672.095 718.219,671.445 718.463,670.79 718.69,670.128 718.901,669.461 719.096,668.79 719.274,668.113 719.436,667.433 719.581,666.748 719.709,666.061 719.82,665.37 719.914,664.677 719.991,663.982 720.051,663.285 720.094,662.587 720.12,661.888 720.129,661.188 " />
<polyline fill="none" vector-effect="none" points="6391.63,6604.94 691.629,6604.94 " />
<polyline fill="none" vector-effect="none" points="5070.13,661.188 5070.12,660.489 5070.09,659.79 5070.05,659.092 5069.99,658.395 5069.91,657.7 5069.82,657.006 5069.71,656.316 5069.58,655.628 5069.44,654.944 5069.27,654.263 5069.1,653.587 5068.9,652.915 5068.69,652.248 5068.46,651.587 5068.22,650.931 5067.96,650.282 5067.68,649.639 5067.39,649.003 5067.09,648.374 5066.76,647.753 5066.43,647.141 5066.07,646.536 5065.71,645.941 5065.33,645.354 5064.93,644.778 5064.52,644.211 5064.1,643.654 5063.66,643.108 5063.21,642.573 5062.75,642.049 5062.27,641.536 5061.78,641.036 5061.28,640.547 5060.77,640.071 5060.24,639.608 5059.71,639.157 5059.16,638.72 5058.61,638.297 5058.04,637.887 5057.46,637.491 5056.88,637.11 5056.28,636.743 5055.68,636.391 5055.06,636.053 5054.44,635.731 5053.81,635.425 5053.18,635.133 5052.54,634.858 5051.89,634.598 5051.23,634.354 5050.57,634.127 5049.9,633.915 5049.23,633.721 5048.55,633.542 5047.87,633.381 5047.19,633.236 5046.5,633.108 5045.81,632.997 5045.12,632.903 5044.42,632.825 5043.73,632.765 5043.03,632.723 5042.33,632.697 5041.63,632.688 5040.93,632.697 5040.23,632.723 5039.53,632.765 5038.84,632.825 5038.14,632.903 5037.45,632.997 5036.76,633.108 5036.07,633.236 5035.38,633.381 5034.7,633.542 5034.03,633.721 5033.36,633.915 5032.69,634.127 5032.03,634.354 5031.37,634.598 5030.72,634.858 5030.08,635.133 5029.44,635.425 5028.81,635.731 5028.19,636.053 5027.58,636.391 5026.98,636.743 5026.38,637.11 5025.79,637.491 5025.22,637.887 5024.65,638.297 5024.09,638.72 5023.55,639.157 5023.01,639.608 5022.49,640.071 5021.98,640.547 5021.48,641.036 5020.99,641.536 5020.51,642.049 5020.05,642.573 5019.6,643.108 5019.16,643.654 5018.74,644.211 5018.33,644.778 5017.93,645.354 5017.55,645.941 5017.18,646.536 5016.83,647.141 5016.49,647.753 5016.17,648.374 5015.86,649.003 5015.57,649.639 5015.3,650.282 5015.04,650.931 5014.79,651.587 5014.57,652.248 5014.36,652.915 5014.16,653.587 5013.98,654.263 5013.82,654.944 5013.68,655.628 5013.55,656.316 5013.44,657.006 5013.34,657.7 5013.27,658.395 5013.21,659.092 5013.16,659.79 5013.14,660.489 5013.13,661.188 5013.14,661.888 5013.16,662.587 5013.21,663.285 5013.27,663.982 5013.34,664.677 5013.44,665.37 5013.55,666.061 5013.68,666.748 5013.82,667.433 5013.98,668.113 5014.16,668.79 5014.36,669.461 5014.57,670.128 5014.79,670.79 5015.04,671.445 5015.3,672.095 5015.57,672.738 5015.86,673.374 5016.17,674.002 5016.49,674.623 5016.83,675.236 5017.18,675.84 5017.55,676.436 5017.93,677.022 5018.33,677.599 5018.74,678.166 5019.16,678.722 5019.6,679.268 5020.05,679.804 5020.51,680.328 5020.99,680.84 5021.48,681.341 5021.98,681.829 5022.49,682.305 5023.01,682.769 5023.55,683.219 5024.09,683.656 5024.65,684.08 5025.22,684.489 5025.79,684.885 5026.38,685.267 5026.98,685.633 5027.58,685.986 5028.19,686.323 5028.81,686.645 5029.44,686.952 5030.08,687.243 5030.72,687.519 5031.37,687.779 5032.03,688.022 5032.69,688.25 5033.36,688.461 5034.03,688.656 5034.7,688.834 5035.38,688.996 5036.07,689.141 5036.76,689.269 5037.45,689.38 5038.14,689.474 5038.84,689.551 5039.53,689.611 5040.23,689.654 5040.93,689.68 5041.63,689.688 5042.33,689.68 5043.03,689.654 5043.73,689.611 5044.42,689.551 5045.12,689.474 5045.81,689.38 5046.5,689.269 5047.19,689.141 5047.87,688.996 5048.55,688.834 5049.23,688.656 5049.9,688.461 5050.57,688.25 5051.23,688.022 5051.89,687.779 5052.54,687.519 5053.18,687.243 5053.81,686.952 5054.44,686.645 5055.06,686.323 5055.68,685.986 5056.28,685.633 5056.88,685.267 5057.46,684.885 5058.04,684.489 5058.61,684.08 5059.16,683.656 5059.71,683.219 5060.24,682.769 5060.77,682.305 5061.28,681.829 5061.78,681.341 5062.27,680.84 5062.75,680.328 5063.21,679.804 5063.66,679.268 5064.1,678.722 5064.52,678.166 5064.93,677.599 5065.33,677.022 5065.71,676.436 5066.07,675.84 5066.43,675.236 5066.76,674.623 5067.09,674.002 5067.39,673.374 5067.68,672.738 5067.96,672.095 5068.22,671.445 5068.46,670.79 5068.69,670.128 5068.9,669.461 5069.1,668.79 5069.27,668.113 5069.44,667.433 5069.58,666.748 5069.71,666.061 5069.82,665.37 5069.91,664.677 5069.99,663.982 5070.05,663.285 5070.09,662.587 5070.12,661.888 5070.13,661.188 " />
<polyline fill="none" vector-effect="none" points="6033.75,3663.99 6033.75,3545.88 " />
<polyline fill="none" vector-effect="none" points="541.629,6454.94 541.629,754.938 " />
<polyline fill="none" vector-effect="none" points="2159.74,4725.1 2041.63,4725.1 " />
<polyline fill="none" vector-effect="none" points="691.629,604.938 687.947,604.983 684.268,605.119 680.594,605.345 676.926,605.661 673.267,606.066 669.619,606.562 665.984,607.147 662.365,607.82 658.763,608.583 655.182,609.434 651.622,610.372 648.086,611.397 644.576,612.509 641.095,613.707 637.644,614.989 634.226,616.356 630.842,617.807 627.495,619.34 624.187,620.955 620.919,622.65 617.694,624.425 614.513,626.279 611.379,628.21 608.293,630.218 605.257,632.301 602.274,634.457 599.344,636.686 596.47,638.987 593.653,641.357 590.895,643.796 588.197,646.301 585.563,648.872 582.992,651.507 580.486,654.204 578.047,656.962 575.677,659.779 573.377,662.653 571.147,665.583 568.991,668.567 566.908,671.603 564.901,674.689 562.969,677.823 561.116,681.003 559.34,684.229 557.645,687.497 556.03,690.805 554.497,694.152 553.047,697.536 551.68,700.954 550.397,704.405 549.199,707.886 548.088,711.396 547.062,714.931 546.124,718.491 545.273,722.073 544.511,725.675 543.837,729.294 543.252,732.929 542.757,736.577 542.351,740.236 542.035,743.904 541.809,747.578 541.674,751.257 541.629,754.938 " />
<polyline fill="none" vector-effect="none" points="2159.74,4606.99 2041.63,4606.99 " />
<polyline fill="none" vector-effect="none" points="6541.63,754.938 6541.58,751.314 6541.45,747.691 6541.23,744.073 6540.93,740.461 6540.53,736.858 6540.05,733.265 6539.49,729.685 6538.83,726.119 6538.09,722.571 6537.27,719.041 6536.36,715.532 6535.37,712.046 6534.29,708.586 6533.13,705.152 6531.88,701.747 6530.55,698.374 6529.15,695.034 6527.66,691.728 6526.09,688.459 6524.45,685.23 6522.72,682.041 6520.92,678.894 6519.05,675.792 6517.1,672.736 6515.08,669.729 6512.98,666.77 6510.82,663.864 6508.58,661.01 6506.28,658.212 6503.91,655.47 6501.47,652.786 6498.97,650.162 6496.41,647.598 6493.78,645.098 6491.1,642.662 6488.35,640.291 6485.56,637.987 6482.7,635.752 6479.8,633.586 6476.84,631.491 6473.83,629.468 6470.77,627.518 6467.67,625.643 6464.53,623.843 6461.34,622.12 6458.11,620.474 6454.84,618.907 6451.53,617.419 6448.19,616.012 6444.82,614.686 6441.41,613.441 6437.98,612.28 6434.52,611.201 6431.03,610.207 6427.53,609.297 6424,608.472 6420.45,607.733 6416.88,607.079 6413.3,606.512 6409.71,606.032 6406.11,605.638 6402.49,605.332 6398.88,605.113 6395.25,604.982 6391.63,604.938 " />
<polyline fill="none" vector-effect="none" points="2159.74,4725.1 2159.74,4606.99 " />
<polyline fill="none" vector-effect="none" points="6541.63,6454.94 6541.63,754.938 " />
<polyline fill="none" vector-effect="none" points="6420.13,661.188 6420.12,660.489 6420.09,659.79 6420.05,659.092 6419.99,658.395 6419.91,657.7 6419.82,657.006 6419.71,656.316 6419.58,655.628 6419.44,654.944 6419.27,654.263 6419.1,653.587 6418.9,652.915 6418.69,652.248 6418.46,651.587 6418.22,650.931 6417.96,650.282 6417.68,649.639 6417.39,649.003 6417.09,648.374 6416.76,647.753 6416.43,647.141 6416.07,646.536 6415.71,645.941 6415.33,645.354 6414.93,644.778 6414.52,644.211 6414.1,643.654 6413.66,643.108 6413.21,642.573 6412.75,642.049 6412.27,641.536 6411.78,641.036 6411.28,640.547 6410.77,640.071 6410.24,639.608 6409.71,639.157 6409.16,638.72 6408.61,638.297 6408.04,637.887 6407.46,637.491 6406.88,637.11 6406.28,636.743 6405.68,636.391 6405.06,636.053 6404.44,635.731 6403.81,635.425 6403.18,635.133 6402.54,634.858 6401.89,634.598 6401.23,634.354 6400.57,634.127 6399.9,633.915 6399.23,633.721 6398.55,633.542 6397.87,633.381 6397.19,633.236 6396.5,633.108 6395.81,632.997 6395.12,632.903 6394.42,632.825 6393.73,632.765 6393.03,632.723 6392.33,632.697 6391.63,632.688 6390.93,632.697 6390.23,632.723 6389.53,632.765 6388.84,632.825 6388.14,632.903 6387.45,632.997 6386.76,633.108 6386.07,633.236 6385.38,633.381 6384.7,633.542 6384.03,633.721 6383.36,633.915 6382.69,634.127 6382.03,634.354 6381.37,634.598 6380.72,634.858 6380.08,635.133 6379.44,635.425 6378.81,635.731 6378.19,636.053 6377.58,636.391 6376.98,636.743 6376.38,637.11 6375.79,637.491 6375.22,637.887 6374.65,638.297 6374.09,638.72 6373.55,639.157 6373.01,639.608 6372.49,640.071 6371.98,640.547 6371.48,641.036 6370.99,641.536 6370.51,642.049 6370.05,642.573 6369.6,643.108 6369.16,643.654 6368.74,644.211 6368.33,644.778 6367.93,645.354 6367.55,645.941 6367.18,646.536 6366.83,647.141 6366.49,647.753 6366.17,648.374 6365.86,649.003 6365.57,649.639 6365.3,650.282 6365.04,650.931 6364.79,651.587 6364.57,652.248 6364.36,652.915 6364.16,653.587 6363.98,654.263 6363.82,654.944 6363.68,655.628 6363.55,656.316 6363.44,657.006 6363.34,657.7 6363.27,658.395 6363.21,659.092 6363.16,659.79 6363.14,660.489 6363.13,661.188 6363.14,661.888 6363.16,662.587 6363.21,663.285 6363.27,663.982 6363.34,664.677 6363.44,665.37 6363.55,666.061 6363.68,666.748 6363.82,667.433 6363.98,668.113 6364.16,668.79 6364.36,669.461 6364.57,670.128 6364.79,670.79 6365.04,671.445 6365.3,672.095 6365.57,672.738 6365.86,673.374 6366.17,674.002 6366.49,674.623 6366.83,675.236 6367.18,675.84 6367.55,676.436 6367.93,677.022 6368.33,677.599 6368.74,678.166 6369.16,678.722 6369.6,679.268 6370.05,679.804 6370.51,680.328 6370.99,680.84 6371.48,681.341 6371.98,681.829 6372.49,682.305 6373.01,682.769 6373.55,683.219 6374.09,683.656 6374.65,684.08 6375.22,684.489 6375.79,684.885 6376.38,685.267 6376.98,685.633 6377.58,685.986 6378.19,686.323 6378.81,686.645 6379.44,686.952 6380.08,687.243 6380.72,687.519 6381.37,687.779 6382.03,688.022 6382.69,688.25 6383.36,688.461 6384.03,688.656 6384.7,688.834 6385.38,688.996 6386.07,689.141 6386.76,689.269 6387.45,689.38 6388.14,689.474 6388.84,689.551 6389.53,689.611 6390.23,689.654 6390.93,689.68 6391.63,689.688 6392.33,689.68 6393.03,689.654 6393.73,689.611 6394.42,689.551 6395.12,689.474 6395.81,689.38 6396.5,689.269 6397.19,689.141 6397.87,688.996 6398.55,688.834 6399.23,688.656 6399.9,688.461 6400.57,688.25 6401.23,688.022 6401.89,687.779 6402.54,687.519 6403.18,687.243 6403.81,686.952 6404.44,686.645 6405.06,686.323 6405.68,685.986 6406.28,685.633 6406.88,685.267 6407.46,684.885 6408.04,684.489 6408.61,684.08 6409.16,683.656 6409.71,683.219 6410.24,682.769 6410.77,682.305 6411.28,681.829 6411.78,681.341 6412.27,680.84 6412.75,680.328 6413.21,679.804 6413.66,679.268 6414.1,678.722 6414.52,678.166 6414.93,677.599 6415.33,677.022 6415.71,676.436 6416.07,675.84 6416.43,675.236 6416.76,674.623 6417.09,674.002 6417.39,673.374 6417.68,672.738 6417.96,672.095 6418.22,671.445 6418.46,670.79 6418.69,670.128 6418.9,669.461 6419.1,668.79 6419.27,668.113 6419.44,667.433 6419.58,666.748 6419.71,666.061 6419.82,665.37 6419.91,664.677 6419.99,663.982 6420.05,663.285 6420.09,662.587 6420.12,661.888 6420.13,661.188 " />
<polyline fill="none" vector-effect="none" points="3482.57,6304.94 3482.57,6186.83 " />
<polyline fill="none" vector-effect="none" points="4923.52,4606.99 5041.63,4606.99 " />
<polyline fill="none" vector-effect="none" points="3570.13,661.188 3570.12,660.489 3570.09,659.79 3570.05,659.092 3569.99,658.395 3569.91,657.7 3569.82,657.006 3569.71,656.316 3569.58,655.628 3569.44,654.944 3569.27,654.263 3569.1,653.587 3568.9,652.915 3568.69,652.248 3568.46,651.587 3568.22,650.931 3567.96,650.282 3567.68,649.639 3567.39,649.003 3567.09,648.374 3566.76,647.753 3566.43,647.141 3566.07,646.536 3565.71,645.941 3565.33,645.354 3564.93,644.778 3564.52,644.211 3564.1,643.654 3563.66,643.108 3563.21,642.573 3562.75,642.049 3562.27,641.536 3561.78,641.036 3561.28,640.547 3560.77,640.071 3560.24,639.608 3559.71,639.157 3559.16,638.72 3558.61,638.297 3558.04,637.887 3557.46,637.491 3556.88,637.11 3556.28,636.743 3555.68,636.391 3555.06,636.053 3554.44,635.731 3553.81,635.425 3553.18,635.133 3552.54,634.858 3551.89,634.598 3551.23,634.354 3550.57,634.127 3549.9,633.915 3549.23,633.721 3548.55,633.542 3547.87,633.381 3547.19,633.236 3546.5,633.108 3545.81,632.997 3545.12,632.903 3544.42,632.825 3543.73,632.765 3543.03,632.723 3542.33,632.697 3541.63,632.688 3540.93,632.697 3540.23,632.723 3539.53,632.765 3538.84,632.825 3538.14,632.903 3537.45,632.997 3536.76,633.108 3536.07,633.236 3535.38,633.381 3534.7,633.542 3534.03,633.721 3533.36,633.915 3532.69,634.127 3532.03,634.354 3531.37,634.598 3530.72,634.858 3530.08,635.133 3529.44,635.425 3528.81,635.731 3528.19,636.053 3527.58,636.391 3526.98,636.743 3526.38,637.11 3525.79,637.491 3525.22,637.887 3524.65,638.297 3524.09,638.72 3523.55,639.157 3523.01,639.608 3522.49,640.071 3521.98,640.547 3521.48,641.036 3520.99,641.536 3520.51,642.049 3520.05,642.573 3519.6,643.108 3519.16,643.654 3518.74,644.211 3518.33,644.778 3517.93,645.354 3517.55,645.941 3517.18,646.536 3516.83,647.141 3516.49,647.753 3516.17,648.374 3515.86,649.003 3515.57,649.639 3515.3,650.282 3515.04,650.931 3514.79,651.587 3514.57,652.248 3514.36,652.915 3514.16,653.587 3513.98,654.263 3513.82,654.944 3513.68,655.628 3513.55,656.316 3513.44,657.006 3513.34,657.7 3513.27,658.395 3513.21,659.092 3513.16,659.79 3513.14,660.489 3513.13,661.188 3513.14,661.888 3513.16,662.587 3513.21,663.285 3513.27,663.982 3513.34,664.677 3513.44,665.37 3513.55,666.061 3513.68,666.748 3513.82,667.433 3513.98,668.113 3514.16,668.79 3514.36,669.461 3514.57,670.128 3514.79,670.79 3515.04,671.445 3515.3,672.095 3515.57,672.738 3515.86,673.374 3516.17,674.002 3516.49,674.623 3516.83,675.236 3517.18,675.84 3517.55,676.436 3517.93,677.022 3518.33,677.599 3518.74,678.166 3519.16,678.722 3519.6,679.268 3520.05,679.804 3520.51,680.328 3520.99,680.84 3521.48,681.341 3521.98,681.829 3522.49,682.305 3523.01,682.769 3523.55,683.219 3524.09,683.656 3524.65,684.08 3525.22,684.489 3525.79,684.885 3526.38,685.267 3526.98,685.633 3527.58,685.986 3528.19,686.323 3528.81,686.645 3529.44,686.952 3530.08,687.243 3530.72,687.519 3531.37,687.779 3532.03,688.022 3532.69,688.25 3533.36,688.461 3534.03,688.656 3534.7,688.834 3535.38,688.996 3536.07,689.141 3536.76,689.269 3537.45,689.38 3538.14,689.474 3538.84,689.551 3539.53,689.611 3540.23,689.654 3540.93,689.68 3541.63,689.688 3542.33,689.68 3543.03,689.654 3543.73,689.611 3544.42,689.551 3545.12,689.474 3545.81,689.38 3546.5,689.269 3547.19,689.141 3547.87,688.996 3548.55,688.834 3549.23,688.656 3549.9,688.461 3550.57,688.25 3551.23,688.022 3551.89,687.779 3552.54,687.519 3553.18,687.243 3553.81,686.952 3554.44,686.645 3555.06,686.323 3555.68,685.986 3556.28,685.633 3556.88,685.267 3557.46,684.885 3558.04,684.489 3558.61,684.08 3559.16,683.656 3559.71,683.219 3560.24,682.769 3560.77,682.305 3561.28,681.829 3561.78,681.341 3562.27,680.84 3562.75,680.328 3563.21,679.804 3563.66,679.268 3564.1,678.722 3564.52,678.166 3564.93,677.599 3565.33,677.022 3565.71,676.436 3566.07,675.84 3566.43,675.236 3566.76,674.623 3567.09,674.002 3567.39,673.374 3567.68,672.738 3567.96,672.095 3568.22,671.445 3568.46,670.79 3568.69,670.128 3568.9,669.461 3569.1,668.79 3569.27,668.113 3569.44,667.433 3569.58,666.748 3569.71,666.061 3569.82,665.37 3569.91,664.677 3569.99,663.982 3570.05,663.285 3570.09,662.587 3570.12,661.888 3570.13,661.188 " />
<polyline fill="none" vector-effect="none" points="5607.82,6304.94 5607.82,6186.83 " />
<polyline fill="none" vector-effect="none" points="3600.68,6304.94 3600.68,6186.83 " />
<polyline fill="none" vector-effect="none" points="541.629,6454.94 541.674,6458.62 541.809,6462.3 542.035,6465.97 542.351,6469.64 542.757,6473.3 543.252,6476.95 543.837,6480.58 544.511,6484.2 545.273,6487.8 546.124,6491.39 547.062,6494.95 548.088,6498.48 549.199,6501.99 550.397,6505.47 551.68,6508.92 553.047,6512.34 554.497,6515.72 556.03,6519.07 557.645,6522.38 559.34,6525.65 561.116,6528.87 562.969,6532.05 564.901,6535.19 566.908,6538.27 568.991,6541.31 571.147,6544.29 573.377,6547.22 575.677,6550.1 578.047,6552.91 580.486,6555.67 582.992,6558.37 585.563,6561 588.197,6563.58 590.895,6566.08 593.653,6568.52 596.47,6570.89 599.344,6573.19 602.274,6575.42 605.257,6577.58 608.293,6579.66 611.379,6581.67 614.513,6583.6 617.694,6585.45 620.919,6587.23 624.187,6588.92 627.495,6590.54 630.842,6592.07 634.226,6593.52 637.644,6594.89 641.095,6596.17 644.576,6597.37 648.086,6598.48 651.622,6599.5 655.182,6600.44 658.763,6601.29 662.365,6602.06 665.984,6602.73 669.619,6603.31 673.267,6603.81 676.926,6604.22 680.594,6604.53 684.268,6604.76 687.947,6604.89 691.629,6604.94 " />
<polyline fill="none" vector-effect="none" points="2070.13,661.188 2070.12,660.489 2070.09,659.79 2070.05,659.092 2069.99,658.395 2069.91,657.7 2069.82,657.006 2069.71,656.316 2069.58,655.628 2069.44,654.944 2069.27,654.263 2069.1,653.587 2068.9,652.915 2068.69,652.248 2068.46,651.587 2068.22,650.931 2067.96,650.282 2067.68,649.639 2067.39,649.003 2067.09,648.374 2066.76,647.753 2066.43,647.141 2066.07,646.536 2065.71,645.941 2065.33,645.354 2064.93,644.778 2064.52,644.211 2064.1,643.654 2063.66,643.108 2063.21,642.573 2062.75,642.049 2062.27,641.536 2061.78,641.036 2061.28,640.547 2060.77,640.071 2060.24,639.608 2059.71,639.157 2059.16,638.72 2058.61,638.297 2058.04,637.887 2057.46,637.491 2056.88,637.11 2056.28,636.743 2055.68,636.391 2055.06,636.053 2054.44,635.731 2053.81,635.425 2053.18,635.133 2052.54,634.858 2051.89,634.598 2051.23,634.354 2050.57,634.127 2049.9,633.915 2049.23,633.721 2048.55,633.542 2047.87,633.381 2047.19,633.236 2046.5,633.108 2045.81,632.997 2045.12,632.903 2044.42,632.825 2043.73,632.765 2043.03,632.723 2042.33,632.697 2041.63,632.688 2040.93,632.697 2040.23,632.723 2039.53,632.765 2038.84,632.825 2038.14,632.903 2037.45,632.997 2036.76,633.108 2036.07,633.236 2035.38,633.381 2034.7,633.542 2034.03,633.721 2033.36,633.915 2032.69,634.127 2032.03,634.354 2031.37,634.598 2030.72,634.858 2030.08,635.133 2029.44,635.425 2028.81,635.731 2028.19,636.053 2027.58,636.391 2026.98,636.743 2026.38,637.11 2025.79,637.491 2025.22,637.887 2024.65,638.297 2024.09,638.72 2023.55,639.157 2023.01,639.608 2022.49,640.071 2021.98,640.547 2021.48,641.036 2020.99,641.536 2020.51,642.049 2020.05,642.573 2019.6,643.108 2019.16,643.654 2018.74,644.211 2018.33,644.778 2017.93,645.354 2017.55,645.941 2017.18,646.536 2016.83,647.141 2016.49,647.753 2016.17,648.374 2015.86,649.003 2015.57,649.639 2015.3,650.282 2015.04,650.931 2014.79,651.587 2014.57,652.248 2014.36,652.915 2014.16,653.587 2013.98,654.263 2013.82,654.944 2013.68,655.628 2013.55,656.316 2013.44,657.006 2013.34,657.7 2013.27,658.395 2013.21,659.092 2013.16,659.79 2013.14,660.489 2013.13,661.188 2013.14,661.888 2013.16,662.587 2013.21,663.285 2013.27,663.982 2013.34,664.677 2013.44,665.37 2013.55,666.061 2013.68,666.748 2013.82,667.433 2013.98,668.113 2014.16,668.79 2014.36,669.461 2014.57,670.128 2014.79,670.79 2015.04,671.445 2015.3,672.095 2015.57,672.738 2015.86,673.374 2016.17,674.002 2016.49,674.623 2016.83,675.236 2017.18,675.84 2017.55,676.436 2017.93,677.022 2018.33,677.599 2018.74,678.166 2019.16,678.722 2019.6,679.268 2020.05,679.804 2020.51,680.328 2020.99,680.84 2021.48,681.341 2021.98,681.829 2022.49,682.305 2023.01,682.769 2023.55,683.219 2024.09,683.656 2024.65,684.08 2025.22,684.489 2025.79,684.885 2026.38,685.267 2026.98,685.633 2027.58,685.986 2028.19,686.323 2028.81,686.645 2029.44,686.952 2030.08,687.243 2030.72,687.519 2031.37,687.779 2032.03,688.022 2032.69,688.25 2033.36,688.461 2034.03,688.656 2034.7,688.834 2035.38,688.996 2036.07,689.141 2036.76,689.269 2037.45,689.38 2038.14,689.474 2038.84,689.551 2039.53,689.611 2040.23,689.654 2040.93,689.68 2041.63,689.688 2042.33,689.68 2043.03,689.654 2043.73,689.611 2044.42,689.551 2045.12,689.474 2045.81,689.38 2046.5,689.269 2047.19,689.141 2047.87,688.996 2048.55,688.834 2049.23,688.656 2049.9,688.461 2050.57,688.25 2051.23,688.022 2051.89,687.779 2052.54,687.519 2053.18,687.243 2053.81,686.952 2054.44,686.645 2055.06,686.323 2055.68,685.986 2056.28,685.633 2056.88,685.267 2057.46,684.885 2058.04,684.489 2058.61,684.08 2059.16,683.656 2059.71,683.219 2060.24,682.769 2060.77,682.305 2061.28,681.829 2061.78,681.341 2062.27,680.84 2062.75,680.328 2063.21,679.804 2063.66,679.268 2064.1,678.722 2064.52,678.166 2064.93,677.599 2065.33,677.022 2065.71,676.436 2066.07,675.84 2066.43,675.236 2066.76,674.623 2067.09,674.002 2067.39,673.374 2067.68,672.738 2067.96,672.095 2068.22,671.445 2068.46,670.79 2068.69,670.128 2068.9,669.461 2069.1,668.79 2069.27,668.113 2069.44,667.433 2069.58,666.748 2069.71,666.061 2069.82,665.37 2069.91,664.677 2069.99,663.982 2070.05,663.285 2070.09,662.587 2070.12,661.888 2070.13,661.188 " />
<polyline fill="none" vector-effect="none" points="3600.68,6186.83 3482.57,6186.83 " />
<polyline fill="none" vector-effect="none" points="3600.68,6304.94 3482.57,6304.94 " />
<polyline fill="none" vector-effect="none" points="5725.93,6304.94 5725.93,6186.83 " />
<polyline fill="none" vector-effect="none" points="5607.82,6186.83 5725.93,6186.83 " />
<polyline fill="none" vector-effect="none" points="3570.13,6548.69 3570.12,6547.99 3570.09,6547.29 3570.05,6546.59 3569.99,6545.89 3569.91,6545.2 3569.82,6544.51 3569.71,6543.82 3569.58,6543.13 3569.44,6542.44 3569.27,6541.76 3569.1,6541.09 3568.9,6540.42 3568.69,6539.75 3568.46,6539.09 3568.22,6538.43 3567.96,6537.78 3567.68,6537.14 3567.39,6536.5 3567.09,6535.87 3566.76,6535.25 3566.43,6534.64 3566.07,6534.04 3565.71,6533.44 3565.33,6532.85 3564.93,6532.28 3564.52,6531.71 3564.1,6531.15 3563.66,6530.61 3563.21,6530.07 3562.75,6529.55 3562.27,6529.04 3561.78,6528.54 3561.28,6528.05 3560.77,6527.57 3560.24,6527.11 3559.71,6526.66 3559.16,6526.22 3558.61,6525.8 3558.04,6525.39 3557.46,6524.99 3556.88,6524.61 3556.28,6524.24 3555.68,6523.89 3555.06,6523.55 3554.44,6523.23 3553.81,6522.92 3553.18,6522.63 3552.54,6522.36 3551.89,6522.1 3551.23,6521.85 3550.57,6521.63 3549.9,6521.42 3549.23,6521.22 3548.55,6521.04 3547.87,6520.88 3547.19,6520.74 3546.5,6520.61 3545.81,6520.5 3545.12,6520.4 3544.42,6520.33 3543.73,6520.27 3543.03,6520.22 3542.33,6520.2 3541.63,6520.19 3540.93,6520.2 3540.23,6520.22 3539.53,6520.27 3538.84,6520.33 3538.14,6520.4 3537.45,6520.5 3536.76,6520.61 3536.07,6520.74 3535.38,6520.88 3534.7,6521.04 3534.03,6521.22 3533.36,6521.42 3532.69,6521.63 3532.03,6521.85 3531.37,6522.1 3530.72,6522.36 3530.08,6522.63 3529.44,6522.92 3528.81,6523.23 3528.19,6523.55 3527.58,6523.89 3526.98,6524.24 3526.38,6524.61 3525.79,6524.99 3525.22,6525.39 3524.65,6525.8 3524.09,6526.22 3523.55,6526.66 3523.01,6527.11 3522.49,6527.57 3521.98,6528.05 3521.48,6528.54 3520.99,6529.04 3520.51,6529.55 3520.05,6530.07 3519.6,6530.61 3519.16,6531.15 3518.74,6531.71 3518.33,6532.28 3517.93,6532.85 3517.55,6533.44 3517.18,6534.04 3516.83,6534.64 3516.49,6535.25 3516.17,6535.87 3515.86,6536.5 3515.57,6537.14 3515.3,6537.78 3515.04,6538.43 3514.79,6539.09 3514.57,6539.75 3514.36,6540.42 3514.16,6541.09 3513.98,6541.76 3513.82,6542.44 3513.68,6543.13 3513.55,6543.82 3513.44,6544.51 3513.34,6545.2 3513.27,6545.89 3513.21,6546.59 3513.16,6547.29 3513.14,6547.99 3513.13,6548.69 3513.14,6549.39 3513.16,6550.09 3513.21,6550.78 3513.27,6551.48 3513.34,6552.18 3513.44,6552.87 3513.55,6553.56 3513.68,6554.25 3513.82,6554.93 3513.98,6555.61 3514.16,6556.29 3514.36,6556.96 3514.57,6557.63 3514.79,6558.29 3515.04,6558.95 3515.3,6559.59 3515.57,6560.24 3515.86,6560.87 3516.17,6561.5 3516.49,6562.12 3516.83,6562.74 3517.18,6563.34 3517.55,6563.94 3517.93,6564.52 3518.33,6565.1 3518.74,6565.67 3519.16,6566.22 3519.6,6566.77 3520.05,6567.3 3520.51,6567.83 3520.99,6568.34 3521.48,6568.84 3521.98,6569.33 3522.49,6569.81 3523.01,6570.27 3523.55,6570.72 3524.09,6571.16 3524.65,6571.58 3525.22,6571.99 3525.79,6572.39 3526.38,6572.77 3526.98,6573.13 3527.58,6573.49 3528.19,6573.82 3528.81,6574.15 3529.44,6574.45 3530.08,6574.74 3530.72,6575.02 3531.37,6575.28 3532.03,6575.52 3532.69,6575.75 3533.36,6575.96 3534.03,6576.16 3534.7,6576.33 3535.38,6576.5 3536.07,6576.64 3536.76,6576.77 3537.45,6576.88 3538.14,6576.97 3538.84,6577.05 3539.53,6577.11 3540.23,6577.15 3540.93,6577.18 3541.63,6577.19 3542.33,6577.18 3543.03,6577.15 3543.73,6577.11 3544.42,6577.05 3545.12,6576.97 3545.81,6576.88 3546.5,6576.77 3547.19,6576.64 3547.87,6576.5 3548.55,6576.33 3549.23,6576.16 3549.9,6575.96 3550.57,6575.75 3551.23,6575.52 3551.89,6575.28 3552.54,6575.02 3553.18,6574.74 3553.81,6574.45 3554.44,6574.15 3555.06,6573.82 3555.68,6573.49 3556.28,6573.13 3556.88,6572.77 3557.46,6572.39 3558.04,6571.99 3558.61,6571.58 3559.16,6571.16 3559.71,6570.72 3560.24,6570.27 3560.77,6569.81 3561.28,6569.33 3561.78,6568.84 3562.27,6568.34 3562.75,6567.83 3563.21,6567.3 3563.66,6566.77 3564.1,6566.22 3564.52,6565.67 3564.93,6565.1 3565.33,6564.52 3565.71,6563.94 3566.07,6563.34 3566.43,6562.74 3566.76,6562.12 3567.09,6561.5 3567.39,6560.87 3567.68,6560.24 3567.96,6559.59 3568.22,6558.95 3568.46,6558.29 3568.69,6557.63 3568.9,6556.96 3569.1,6556.29 3569.27,6555.61 3569.44,6554.93 3569.58,6554.25 3569.71,6553.56 3569.82,6552.87 3569.91,6552.18 3569.99,6551.48 3570.05,6550.78 3570.09,6550.09 3570.12,6549.39 3570.13,6548.69 " />
<polyline fill="none" vector-effect="none" points="5041.63,2602.89 5041.63,2484.78 " />
<polyline fill="none" vector-effect="none" points="1422.29,6245.88 1422.28,6245.6 1422.26,6245.33 1422.23,6245.05 1422.18,6244.77 1422.13,6244.5 1422.05,6244.23 1421.97,6243.97 1421.87,6243.7 1421.76,6243.45 1421.64,6243.2 1421.51,6242.95 1421.37,6242.71 1421.21,6242.48 1421.04,6242.26 1420.87,6242.04 1420.68,6241.83 1420.48,6241.63 1420.28,6241.45 1420.07,6241.27 1419.84,6241.1 1419.61,6240.94 1419.38,6240.79 1419.13,6240.66 1418.88,6240.53 1418.63,6240.42 1418.37,6240.32 1418.1,6240.23 1417.83,6240.16 1417.56,6240.1 1417.29,6240.05 1417.01,6240.01 1416.73,6239.99 1416.45,6239.98 1416.17,6239.98 1415.9,6240 1415.62,6240.03 1415.34,6240.07 1415.07,6240.13 1414.8,6240.19 1414.53,6240.28 1414.27,6240.37 1414.01,6240.47 1413.76,6240.59 1413.51,6240.72 1413.27,6240.86 1413.04,6241.02 1412.81,6241.18 1412.59,6241.35 1412.38,6241.54 1412.18,6241.73 1411.99,6241.94 1411.81,6242.15 1411.64,6242.37 1411.48,6242.59 1411.33,6242.83 1411.19,6243.07 1411.06,6243.32 1410.95,6243.57 1410.85,6243.83 1410.75,6244.1 1410.68,6244.37 1410.61,6244.64 1410.56,6244.91 1410.52,6245.19 1410.49,6245.46 1410.48,6245.74 1410.48,6246.02 1410.49,6246.3 1410.52,6246.58 1410.56,6246.86 1410.61,6247.13 1410.68,6247.4 1410.75,6247.67 1410.85,6247.93 1410.95,6248.19 1411.06,6248.45 1411.19,6248.69 1411.33,6248.94 1411.48,6249.17 1411.64,6249.4 1411.81,6249.62 1411.99,6249.83 1412.18,6250.03 1412.38,6250.23 1412.59,6250.41 1412.81,6250.59 1413.04,6250.75 1413.27,6250.9 1413.51,6251.04 1413.76,6251.17 1414.01,6251.29 1414.27,6251.4 1414.53,6251.49 1414.8,6251.57 1415.07,6251.64 1415.34,6251.7 1415.62,6251.74 1415.9,6251.77 1416.17,6251.78 1416.45,6251.79 1416.73,6251.78 1417.01,6251.76 1417.29,6251.72 1417.56,6251.67 1417.83,6251.61 1418.1,6251.53 1418.37,6251.45 1418.63,6251.35 1418.88,6251.23 1419.13,6251.11 1419.38,6250.97 1419.61,6250.83 1419.84,6250.67 1420.07,6250.5 1420.28,6250.32 1420.48,6250.13 1420.68,6249.93 1420.87,6249.73 1421.04,6249.51 1421.21,6249.29 1421.37,6249.05 1421.51,6248.82 1421.64,6248.57 1421.76,6248.32 1421.87,6248.06 1421.97,6247.8 1422.05,6247.53 1422.13,6247.27 1422.18,6246.99 1422.23,6246.72 1422.26,6246.44 1422.28,6246.16 1422.29,6245.88 " />
<polyline fill="none" vector-effect="none" points="1422.29,6245.88 1422.28,6245.6 1422.26,6245.33 1422.23,6245.05 1422.18,6244.77 1422.13,6244.5 1422.05,6244.23 1421.97,6243.97 1421.87,6243.7 1421.76,6243.45 1421.64,6243.2 1421.51,6242.95 1421.37,6242.71 1421.21,6242.48 1421.04,6242.26 1420.87,6242.04 1420.68,6241.83 1420.48,6241.63 1420.28,6241.45 1420.07,6241.27 1419.84,6241.1 1419.61,6240.94 1419.38,6240.79 1419.13,6240.66 1418.88,6240.53 1418.63,6240.42 1418.37,6240.32 1418.1,6240.23 1417.83,6240.16 1417.56,6240.1 1417.29,6240.05 1417.01,6240.01 1416.73,6239.99 1416.45,6239.98 1416.17,6239.98 1415.9,6240 1415.62,6240.03 1415.34,6240.07 1415.07,6240.13 1414.8,6240.19 1414.53,6240.28 1414.27,6240.37 1414.01,6240.47 1413.76,6240.59 1413.51,6240.72 1413.27,6240.86 1413.04,6241.02 1412.81,6241.18 1412.59,6241.35 1412.38,6241.54 1412.18,6241.73 1411.99,6241.94 1411.81,6242.15 1411.64,6242.37 1411.48,6242.59 1411.33,6242.83 1411.19,6243.07 1411.06,6243.32 1410.95,6243.57 1410.85,6243.83 1410.75,6244.1 1410.68,6244.37 1410.61,6244.64 1410.56,6244.91 1410.52,6245.19 1410.49,6245.46 1410.48,6245.74 1410.48,6246.02 1410.49,6246.3 1410.52,6246.58 1410.56,6246.86 1410.61,6247.13 1410.68,6247.4 1410.75,6247.67 1410.85,6247.93 1410.95,6248.19 1411.06,6248.45 1411.19,6248.69 1411.33,6248.94 1411.48,6249.17 1411.64,6249.4 1411.81,6249.62 1411.99,6249.83 1412.18,6250.03 1412.38,6250.23 1412.59,6250.41 1412.81,6250.59 1413.04,6250.75 1413.27,6250.9 1413.51,6251.04 1413.76,6251.17 1414.01,6251.29 1414.27,6251.4 1414.53,6251.49 1414.8,6251.57 1415.07,6251.64 1415.34,6251.7 1415.62,6251.74 1415.9,6251.77 1416.17,6251.78 1416.45,6251.79 1416.73,6251.78 1417.01,6251.76 1417.29,6251.72 1417.56,6251.67 1417.83,6251.61 1418.1,6251.53 1418.37,6251.45 1418.63,6251.35 1418.88,6251.23 1419.13,6251.11 1419.38,6250.97 1419.61,6250.83 1419.84,6250.67 1420.07,6250.5 1420.28,6250.32 1420.48,6250.13 1420.68,6249.93 1420.87,6249.73 1421.04,6249.51 1421.21,6249.29 1421.37,6249.05 1421.51,6248.82 1421.64,6248.57 1421.76,6248.32 1421.87,6248.06 1421.97,6247.8 1422.05,6247.53 1422.13,6247.27 1422.18,6246.99 1422.23,6246.72 1422.26,6246.44 1422.28,6246.16 1422.29,6245.88 " />
<polyline fill="none" vector-effect="none" points="5672.78,6245.88 5672.77,6245.6 5672.75,6245.33 5672.72,6245.05 5672.67,6244.77 5672.61,6244.5 5672.54,6244.23 5672.46,6243.97 5672.36,6243.7 5672.25,6243.45 5672.13,6243.2 5672,6242.95 5671.86,6242.71 5671.7,6242.48 5671.53,6242.26 5671.36,6242.04 5671.17,6241.83 5670.97,6241.63 5670.77,6241.45 5670.56,6241.27 5670.33,6241.1 5670.1,6240.94 5669.87,6240.79 5669.62,6240.66 5669.37,6240.53 5669.12,6240.42 5668.86,6240.32 5668.59,6240.23 5668.32,6240.16 5668.05,6240.1 5667.78,6240.05 5667.5,6240.01 5667.22,6239.99 5666.94,6239.98 5666.66,6239.98 5666.39,6240 5666.11,6240.03 5665.83,6240.07 5665.56,6240.13 5665.29,6240.19 5665.02,6240.28 5664.76,6240.37 5664.5,6240.47 5664.25,6240.59 5664,6240.72 5663.76,6240.86 5663.53,6241.02 5663.3,6241.18 5663.08,6241.35 5662.87,6241.54 5662.67,6241.73 5662.48,6241.94 5662.3,6242.15 5662.13,6242.37 5661.97,6242.59 5661.82,6242.83 5661.68,6243.07 5661.55,6243.32 5661.44,6243.57 5661.33,6243.83 5661.24,6244.1 5661.17,6244.37 5661.1,6244.64 5661.05,6244.91 5661.01,6245.19 5660.98,6245.46 5660.97,6245.74 5660.97,6246.02 5660.98,6246.3 5661.01,6246.58 5661.05,6246.86 5661.1,6247.13 5661.17,6247.4 5661.24,6247.67 5661.33,6247.93 5661.44,6248.19 5661.55,6248.45 5661.68,6248.69 5661.82,6248.94 5661.97,6249.17 5662.13,6249.4 5662.3,6249.62 5662.48,6249.83 5662.67,6250.03 5662.87,6250.23 5663.08,6250.41 5663.3,6250.59 5663.53,6250.75 5663.76,6250.9 5664,6251.04 5664.25,6251.17 5664.5,6251.29 5664.76,6251.4 5665.02,6251.49 5665.29,6251.57 5665.56,6251.64 5665.83,6251.7 5666.11,6251.74 5666.39,6251.77 5666.66,6251.78 5666.94,6251.79 5667.22,6251.78 5667.5,6251.76 5667.78,6251.72 5668.05,6251.67 5668.32,6251.61 5668.59,6251.53 5668.86,6251.45 5669.12,6251.35 5669.37,6251.23 5669.62,6251.11 5669.87,6250.97 5670.1,6250.83 5670.33,6250.67 5670.56,6250.5 5670.77,6250.32 5670.97,6250.13 5671.17,6249.93 5671.36,6249.73 5671.53,6249.51 5671.7,6249.29 5671.86,6249.05 5672,6248.82 5672.13,6248.57 5672.25,6248.32 5672.36,6248.06 5672.46,6247.8 5672.54,6247.53 5672.61,6247.27 5672.67,6246.99 5672.72,6246.72 5672.75,6246.44 5672.77,6246.16 5672.78,6245.88 " />
<polyline fill="none" vector-effect="none" points="5672.78,6245.88 5672.77,6245.6 5672.75,6245.33 5672.72,6245.05 5672.67,6244.77 5672.61,6244.5 5672.54,6244.23 5672.46,6243.97 5672.36,6243.7 5672.25,6243.45 5672.13,6243.2 5672,6242.95 5671.86,6242.71 5671.7,6242.48 5671.53,6242.26 5671.36,6242.04 5671.17,6241.83 5670.97,6241.63 5670.77,6241.45 5670.56,6241.27 5670.33,6241.1 5670.1,6240.94 5669.87,6240.79 5669.62,6240.66 5669.37,6240.53 5669.12,6240.42 5668.86,6240.32 5668.59,6240.23 5668.32,6240.16 5668.05,6240.1 5667.78,6240.05 5667.5,6240.01 5667.22,6239.99 5666.94,6239.98 5666.66,6239.98 5666.39,6240 5666.11,6240.03 5665.83,6240.07 5665.56,6240.13 5665.29,6240.19 5665.02,6240.28 5664.76,6240.37 5664.5,6240.47 5664.25,6240.59 5664,6240.72 5663.76,6240.86 5663.53,6241.02 5663.3,6241.18 5663.08,6241.35 5662.87,6241.54 5662.67,6241.73 5662.48,6241.94 5662.3,6242.15 5662.13,6242.37 5661.97,6242.59 5661.82,6242.83 5661.68,6243.07 5661.55,6243.32 5661.44,6243.57 5661.33,6243.83 5661.24,6244.1 5661.17,6244.37 5661.1,6244.64 5661.05,6244.91 5661.01,6245.19 5660.98,6245.46 5660.97,6245.74 5660.97,6246.02 5660.98,6246.3 5661.01,6246.58 5661.05,6246.86 5661.1,6247.13 5661.17,6247.4 5661.24,6247.67 5661.33,6247.93 5661.44,6248.19 5661.55,6248.45 5661.68,6248.69 5661.82,6248.94 5661.97,6249.17 5662.13,6249.4 5662.3,6249.62 5662.48,6249.83 5662.67,6250.03 5662.87,6250.23 5663.08,6250.41 5663.3,6250.59 5663.53,6250.75 5663.76,6250.9 5664,6251.04 5664.25,6251.17 5664.5,6251.29 5664.76,6251.4 5665.02,6251.49 5665.29,6251.57 5665.56,6251.64 5665.83,6251.7 5666.11,6251.74 5666.39,6251.77 5666.66,6251.78 5666.94,6251.79 5667.22,6251.78 5667.5,6251.76 5667.78,6251.72 5668.05,6251.67 5668.32,6251.61 5668.59,6251.53 5668.86,6251.45 5669.12,6251.35 5669.37,6251.23 5669.62,6251.11 5669.87,6250.97 5670.1,6250.83 5670.33,6250.67 5670.56,6250.5 5670.77,6250.32 5670.97,6250.13 5671.17,6249.93 5671.36,6249.73 5671.53,6249.51 5671.7,6249.29 5671.86,6249.05 5672,6248.82 5672.13,6248.57 5672.25,6248.32 5672.36,6248.06 5672.46,6247.8 5672.54,6247.53 5672.61,6247.27 5672.67,6246.99 5672.72,6246.72 5672.75,6246.44 5672.77,6246.16 5672.78,6245.88 " />
<polyline fill="none" vector-effect="none" points="3547.53,6245.88 3547.53,6245.6 3547.51,6245.33 3547.47,6245.05 3547.43,6244.77 3547.37,6244.5 3547.3,6244.23 3547.21,6243.97 3547.12,6243.7 3547.01,6243.45 3546.89,6243.2 3546.75,6242.95 3546.61,6242.71 3546.45,6242.48 3546.29,6242.26 3546.11,6242.04 3545.93,6241.83 3545.73,6241.63 3545.52,6241.45 3545.31,6241.27 3545.09,6241.1 3544.86,6240.94 3544.62,6240.79 3544.38,6240.66 3544.13,6240.53 3543.87,6240.42 3543.61,6240.32 3543.35,6240.23 3543.08,6240.16 3542.81,6240.1 3542.53,6240.05 3542.26,6240.01 3541.98,6239.99 3541.7,6239.98 3541.42,6239.98 3541.14,6240 3540.86,6240.03 3540.59,6240.07 3540.31,6240.13 3540.04,6240.19 3539.78,6240.28 3539.51,6240.37 3539.26,6240.47 3539,6240.59 3538.76,6240.72 3538.52,6240.86 3538.28,6241.02 3538.06,6241.18 3537.84,6241.35 3537.63,6241.54 3537.43,6241.73 3537.24,6241.94 3537.06,6242.15 3536.88,6242.37 3536.72,6242.59 3536.57,6242.83 3536.43,6243.07 3536.31,6243.32 3536.19,6243.57 3536.09,6243.83 3536,6244.1 3535.92,6244.37 3535.86,6244.64 3535.8,6244.91 3535.76,6245.19 3535.74,6245.46 3535.72,6245.74 3535.72,6246.02 3535.74,6246.3 3535.76,6246.58 3535.8,6246.86 3535.86,6247.13 3535.92,6247.4 3536,6247.67 3536.09,6247.93 3536.19,6248.19 3536.31,6248.45 3536.43,6248.69 3536.57,6248.94 3536.72,6249.17 3536.88,6249.4 3537.06,6249.62 3537.24,6249.83 3537.43,6250.03 3537.63,6250.23 3537.84,6250.41 3538.06,6250.59 3538.28,6250.75 3538.52,6250.9 3538.76,6251.04 3539,6251.17 3539.26,6251.29 3539.51,6251.4 3539.78,6251.49 3540.04,6251.57 3540.31,6251.64 3540.59,6251.7 3540.86,6251.74 3541.14,6251.77 3541.42,6251.78 3541.7,6251.79 3541.98,6251.78 3542.26,6251.76 3542.53,6251.72 3542.81,6251.67 3543.08,6251.61 3543.35,6251.53 3543.61,6251.45 3543.87,6251.35 3544.13,6251.23 3544.38,6251.11 3544.62,6250.97 3544.86,6250.83 3545.09,6250.67 3545.31,6250.5 3545.52,6250.32 3545.73,6250.13 3545.93,6249.93 3546.11,6249.73 3546.29,6249.51 3546.45,6249.29 3546.61,6249.05 3546.75,6248.82 3546.89,6248.57 3547.01,6248.32 3547.12,6248.06 3547.21,6247.8 3547.3,6247.53 3547.37,6247.27 3547.43,6246.99 3547.47,6246.72 3547.51,6246.44 3547.53,6246.16 3547.53,6245.88 " />
<polyline fill="none" vector-effect="none" points="2106.59,4666.04 2106.58,4665.76 2106.56,4665.48 2106.53,4665.21 2106.48,4664.93 2106.43,4664.66 2106.35,4664.39 2106.27,4664.12 2106.17,4663.86 2106.06,4663.6 2105.94,4663.35 2105.81,4663.11 2105.67,4662.87 2105.51,4662.64 2105.34,4662.41 2105.17,4662.2 2104.98,4661.99 2104.78,4661.79 2104.58,4661.6 2104.37,4661.42 2104.14,4661.25 2103.91,4661.1 2103.68,4660.95 2103.43,4660.81 2103.18,4660.69 2102.93,4660.58 2102.67,4660.48 2102.4,4660.39 2102.13,4660.32 2101.86,4660.25 2101.59,4660.2 2101.31,4660.17 2101.03,4660.15 2100.75,4660.14 2100.47,4660.14 2100.2,4660.16 2099.92,4660.18 2099.64,4660.23 2099.37,4660.28 2099.1,4660.35 2098.83,4660.43 2098.57,4660.53 2098.31,4660.63 2098.06,4660.75 2097.81,4660.88 2097.57,4661.02 2097.34,4661.17 2097.11,4661.34 2096.89,4661.51 2096.68,4661.7 2096.48,4661.89 2096.29,4662.09 2096.11,4662.3 2095.94,4662.52 2095.78,4662.75 2095.63,4662.99 2095.49,4663.23 2095.36,4663.48 2095.25,4663.73 2095.15,4663.99 2095.05,4664.26 2094.98,4664.52 2094.91,4664.79 2094.86,4665.07 2094.82,4665.34 2094.79,4665.62 2094.78,4665.9 2094.78,4666.18 2094.79,4666.46 2094.82,4666.74 2094.86,4667.01 2094.91,4667.29 2094.98,4667.56 2095.05,4667.83 2095.15,4668.09 2095.25,4668.35 2095.36,4668.6 2095.49,4668.85 2095.63,4669.09 2095.78,4669.33 2095.94,4669.56 2096.11,4669.78 2096.29,4669.99 2096.48,4670.19 2096.68,4670.39 2096.89,4670.57 2097.11,4670.74 2097.34,4670.91 2097.57,4671.06 2097.81,4671.2 2098.06,4671.33 2098.31,4671.45 2098.57,4671.55 2098.83,4671.65 2099.1,4671.73 2099.37,4671.8 2099.64,4671.85 2099.92,4671.9 2100.2,4671.93 2100.47,4671.94 2100.75,4671.95 2101.03,4671.94 2101.31,4671.91 2101.59,4671.88 2101.86,4671.83 2102.13,4671.77 2102.4,4671.69 2102.67,4671.6 2102.93,4671.5 2103.18,4671.39 2103.43,4671.27 2103.68,4671.13 2103.91,4670.98 2104.14,4670.83 2104.37,4670.66 2104.58,4670.48 2104.78,4670.29 2104.98,4670.09 2105.17,4669.88 2105.34,4669.67 2105.51,4669.44 2105.67,4669.21 2105.81,4668.97 2105.94,4668.73 2106.06,4668.48 2106.17,4668.22 2106.27,4667.96 2106.35,4667.69 2106.43,4667.42 2106.48,4667.15 2106.53,4666.87 2106.56,4666.6 2106.58,4666.32 2106.59,4666.04 " />
<polyline fill="none" vector-effect="none" points="5672.85,963.993 5672.85,963.714 5672.83,963.436 5672.79,963.159 5672.75,962.884 5672.69,962.611 5672.62,962.342 5672.53,962.076 5672.44,961.814 5672.33,961.557 5672.21,961.306 5672.07,961.061 5671.93,960.822 5671.77,960.59 5671.61,960.366 5671.43,960.15 5671.25,959.943 5671.05,959.744 5670.84,959.555 5670.63,959.376 5670.41,959.207 5670.18,959.049 5669.94,958.902 5669.7,958.767 5669.45,958.643 5669.19,958.531 5668.93,958.431 5668.67,958.343 5668.4,958.269 5668.13,958.206 5667.85,958.157 5667.57,958.121 5667.3,958.098 5667.02,958.088 5666.74,958.092 5666.46,958.108 5666.18,958.138 5665.91,958.18 5665.63,958.236 5665.36,958.304 5665.1,958.386 5664.83,958.479 5664.58,958.585 5664.32,958.703 5664.08,958.833 5663.84,958.975 5663.6,959.127 5663.38,959.291 5663.16,959.464 5662.95,959.649 5662.75,959.842 5662.56,960.045 5662.38,960.257 5662.2,960.477 5662.04,960.705 5661.89,960.94 5661.75,961.183 5661.63,961.431 5661.51,961.685 5661.41,961.944 5661.32,962.208 5661.24,962.476 5661.18,962.747 5661.12,963.021 5661.08,963.297 5661.06,963.575 5661.04,963.854 5661.04,964.133 5661.06,964.411 5661.08,964.689 5661.12,964.965 5661.18,965.239 5661.24,965.511 5661.32,965.778 5661.41,966.042 5661.51,966.302 5661.63,966.556 5661.75,966.804 5661.89,967.046 5662.04,967.282 5662.2,967.51 5662.38,967.73 5662.56,967.941 5662.75,968.144 5662.95,968.338 5663.16,968.522 5663.38,968.696 5663.6,968.86 5663.84,969.012 5664.08,969.154 5664.32,969.283 5664.58,969.401 5664.83,969.507 5665.1,969.601 5665.36,969.682 5665.63,969.751 5665.91,969.806 5666.18,969.849 5666.46,969.879 5666.74,969.895 5667.02,969.898 5667.3,969.889 5667.57,969.866 5667.85,969.829 5668.13,969.78 5668.4,969.718 5668.67,969.643 5668.93,969.556 5669.19,969.456 5669.45,969.344 5669.7,969.22 5669.94,969.084 5670.18,968.937 5670.41,968.779 5670.63,968.61 5670.84,968.431 5671.05,968.242 5671.25,968.044 5671.43,967.837 5671.61,967.621 5671.77,967.396 5671.93,967.165 5672.07,966.926 5672.21,966.681 5672.33,966.429 5672.44,966.172 5672.53,965.911 5672.62,965.645 5672.69,965.375 5672.75,965.103 5672.79,964.828 5672.83,964.55 5672.85,964.272 5672.85,963.993 " />
<polyline fill="none" vector-effect="none" points="4988.48,4666.04 4988.47,4665.76 4988.45,4665.48 4988.42,4665.21 4988.37,4664.93 4988.31,4664.66 4988.24,4664.39 4988.16,4664.12 4988.06,4663.86 4987.95,4663.6 4987.83,4663.35 4987.7,4663.11 4987.56,4662.87 4987.4,4662.64 4987.23,4662.41 4987.06,4662.2 4986.87,4661.99 4986.67,4661.79 4986.47,4661.6 4986.26,4661.42 4986.03,4661.25 4985.8,4661.1 4985.57,4660.95 4985.32,4660.81 4985.07,4660.69 4984.82,4660.58 4984.56,4660.48 4984.29,4660.39 4984.02,4660.32 4983.75,4660.25 4983.48,4660.2 4983.2,4660.17 4982.92,4660.15 4982.64,4660.14 4982.36,4660.14 4982.09,4660.16 4981.81,4660.18 4981.53,4660.23 4981.26,4660.28 4980.99,4660.35 4980.72,4660.43 4980.46,4660.53 4980.2,4660.63 4979.95,4660.75 4979.7,4660.88 4979.46,4661.02 4979.23,4661.17 4979,4661.34 4978.78,4661.51 4978.57,4661.7 4978.37,4661.89 4978.18,4662.09 4978,4662.3 4977.83,4662.52 4977.67,4662.75 4977.52,4662.99 4977.38,4663.23 4977.25,4663.48 4977.14,4663.73 4977.03,4663.99 4976.94,4664.26 4976.87,4664.52 4976.8,4664.79 4976.75,4665.07 4976.71,4665.34 4976.68,4665.62 4976.67,4665.9 4976.67,4666.18 4976.68,4666.46 4976.71,4666.74 4976.75,4667.01 4976.8,4667.29 4976.87,4667.56 4976.94,4667.83 4977.03,4668.09 4977.14,4668.35 4977.25,4668.6 4977.38,4668.85 4977.52,4669.09 4977.67,4669.33 4977.83,4669.56 4978,4669.78 4978.18,4669.99 4978.37,4670.19 4978.57,4670.39 4978.78,4670.57 4979,4670.74 4979.23,4670.91 4979.46,4671.06 4979.7,4671.2 4979.95,4671.33 4980.2,4671.45 4980.46,4671.55 4980.72,4671.65 4980.99,4671.73 4981.26,4671.8 4981.53,4671.85 4981.81,4671.9 4982.09,4671.93 4982.36,4671.94 4982.64,4671.95 4982.92,4671.94 4983.2,4671.91 4983.48,4671.88 4983.75,4671.83 4984.02,4671.77 4984.29,4671.69 4984.56,4671.6 4984.82,4671.5 4985.07,4671.39 4985.32,4671.27 4985.57,4671.13 4985.8,4670.98 4986.03,4670.83 4986.26,4670.66 4986.47,4670.48 4986.67,4670.29 4986.87,4670.09 4987.06,4669.88 4987.23,4669.67 4987.4,4669.44 4987.56,4669.21 4987.7,4668.97 4987.83,4668.73 4987.95,4668.48 4988.06,4668.22 4988.16,4667.96 4988.24,4667.69 4988.31,4667.42 4988.37,4667.15 4988.42,4666.87 4988.45,4666.6 4988.47,4666.32 4988.48,4666.04 " />
<polyline fill="none" vector-effect="none" points="2106.59,2543.84 2106.58,2543.56 2106.56,2543.28 2106.53,2543 2106.48,2542.73 2106.43,2542.45 2106.35,2542.18 2106.27,2541.92 2106.17,2541.66 2106.06,2541.4 2105.94,2541.15 2105.81,2540.9 2105.67,2540.66 2105.51,2540.43 2105.34,2540.21 2105.17,2539.99 2104.98,2539.79 2104.78,2539.59 2104.58,2539.4 2104.37,2539.22 2104.14,2539.05 2103.91,2538.89 2103.68,2538.75 2103.43,2538.61 2103.18,2538.49 2102.93,2538.37 2102.67,2538.27 2102.4,2538.19 2102.13,2538.11 2101.86,2538.05 2101.59,2538 2101.31,2537.96 2101.03,2537.94 2100.75,2537.93 2100.47,2537.93 2100.2,2537.95 2099.92,2537.98 2099.64,2538.02 2099.37,2538.08 2099.1,2538.15 2098.83,2538.23 2098.57,2538.32 2098.31,2538.43 2098.06,2538.55 2097.81,2538.68 2097.57,2538.82 2097.34,2538.97 2097.11,2539.13 2096.89,2539.31 2096.68,2539.49 2096.48,2539.68 2096.29,2539.89 2096.11,2540.1 2095.94,2540.32 2095.78,2540.55 2095.63,2540.78 2095.49,2541.03 2095.36,2541.27 2095.25,2541.53 2095.15,2541.79 2095.05,2542.05 2094.98,2542.32 2094.91,2542.59 2094.86,2542.86 2094.82,2543.14 2094.79,2543.42 2094.78,2543.7 2094.78,2543.98 2094.79,2544.25 2094.82,2544.53 2094.86,2544.81 2094.91,2545.08 2094.98,2545.35 2095.05,2545.62 2095.15,2545.88 2095.25,2546.14 2095.36,2546.4 2095.49,2546.65 2095.63,2546.89 2095.78,2547.12 2095.94,2547.35 2096.11,2547.57 2096.29,2547.78 2096.48,2547.99 2096.68,2548.18 2096.89,2548.36 2097.11,2548.54 2097.34,2548.7 2097.57,2548.85 2097.81,2549 2098.06,2549.13 2098.31,2549.24 2098.57,2549.35 2098.83,2549.44 2099.1,2549.52 2099.37,2549.59 2099.64,2549.65 2099.92,2549.69 2100.2,2549.72 2100.47,2549.74 2100.75,2549.74 2101.03,2549.73 2101.31,2549.71 2101.59,2549.67 2101.86,2549.62 2102.13,2549.56 2102.4,2549.49 2102.67,2549.4 2102.93,2549.3 2103.18,2549.19 2103.43,2549.06 2103.68,2548.93 2103.91,2548.78 2104.14,2548.62 2104.37,2548.45 2104.58,2548.27 2104.78,2548.09 2104.98,2547.89 2105.17,2547.68 2105.34,2547.46 2105.51,2547.24 2105.67,2547.01 2105.81,2546.77 2105.94,2546.52 2106.06,2546.27 2106.17,2546.02 2106.27,2545.75 2106.35,2545.49 2106.43,2545.22 2106.48,2544.95 2106.53,2544.67 2106.56,2544.39 2106.58,2544.11 2106.59,2543.84 " />
<polyline fill="none" vector-effect="none" points="4988.48,2543.84 4988.47,2543.56 4988.45,2543.28 4988.42,2543 4988.37,2542.73 4988.31,2542.45 4988.24,2542.18 4988.16,2541.92 4988.06,2541.66 4987.95,2541.4 4987.83,2541.15 4987.7,2540.9 4987.56,2540.66 4987.4,2540.43 4987.23,2540.21 4987.06,2539.99 4986.87,2539.79 4986.67,2539.59 4986.47,2539.4 4986.26,2539.22 4986.03,2539.05 4985.8,2538.89 4985.57,2538.75 4985.32,2538.61 4985.07,2538.49 4984.82,2538.37 4984.56,2538.27 4984.29,2538.19 4984.02,2538.11 4983.75,2538.05 4983.48,2538 4983.2,2537.96 4982.92,2537.94 4982.64,2537.93 4982.36,2537.93 4982.09,2537.95 4981.81,2537.98 4981.53,2538.02 4981.26,2538.08 4980.99,2538.15 4980.72,2538.23 4980.46,2538.32 4980.2,2538.43 4979.95,2538.55 4979.7,2538.68 4979.46,2538.82 4979.23,2538.97 4979,2539.13 4978.78,2539.31 4978.57,2539.49 4978.37,2539.68 4978.18,2539.89 4978,2540.1 4977.83,2540.32 4977.67,2540.55 4977.52,2540.78 4977.38,2541.03 4977.25,2541.27 4977.14,2541.53 4977.03,2541.79 4976.94,2542.05 4976.87,2542.32 4976.8,2542.59 4976.75,2542.86 4976.71,2543.14 4976.68,2543.42 4976.67,2543.7 4976.67,2543.98 4976.68,2544.25 4976.71,2544.53 4976.75,2544.81 4976.8,2545.08 4976.87,2545.35 4976.94,2545.62 4977.03,2545.88 4977.14,2546.14 4977.25,2546.4 4977.38,2546.65 4977.52,2546.89 4977.67,2547.12 4977.83,2547.35 4978,2547.57 4978.18,2547.78 4978.37,2547.99 4978.57,2548.18 4978.78,2548.36 4979,2548.54 4979.23,2548.7 4979.46,2548.85 4979.7,2549 4979.95,2549.13 4980.2,2549.24 4980.46,2549.35 4980.72,2549.44 4980.99,2549.52 4981.26,2549.59 4981.53,2549.65 4981.81,2549.69 4982.09,2549.72 4982.36,2549.74 4982.64,2549.74 4982.92,2549.73 4983.2,2549.71 4983.48,2549.67 4983.75,2549.62 4984.02,2549.56 4984.29,2549.49 4984.56,2549.4 4984.82,2549.3 4985.07,2549.19 4985.32,2549.06 4985.57,2548.93 4985.8,2548.78 4986.03,2548.62 4986.26,2548.45 4986.47,2548.27 4986.67,2548.09 4986.87,2547.89 4987.06,2547.68 4987.23,2547.46 4987.4,2547.24 4987.56,2547.01 4987.7,2546.77 4987.83,2546.52 4987.95,2546.27 4988.06,2546.02 4988.16,2545.75 4988.24,2545.49 4988.31,2545.22 4988.37,2544.95 4988.42,2544.67 4988.45,2544.39 4988.47,2544.11 4988.48,2543.84 " />
<polyline fill="none" vector-effect="none" points="1422.21,963.993 1422.21,963.714 1422.19,963.436 1422.15,963.159 1422.11,962.884 1422.05,962.611 1421.98,962.342 1421.89,962.076 1421.8,961.814 1421.69,961.557 1421.57,961.306 1421.43,961.061 1421.29,960.822 1421.14,960.59 1420.97,960.366 1420.79,960.15 1420.61,959.943 1420.41,959.744 1420.2,959.555 1419.99,959.376 1419.77,959.207 1419.54,959.049 1419.3,958.902 1419.06,958.767 1418.81,958.643 1418.55,958.531 1418.29,958.431 1418.03,958.343 1417.76,958.269 1417.49,958.206 1417.21,958.157 1416.94,958.121 1416.66,958.098 1416.38,958.088 1416.1,958.092 1415.82,958.108 1415.54,958.138 1415.27,958.18 1414.99,958.236 1414.72,958.304 1414.46,958.386 1414.19,958.479 1413.94,958.585 1413.68,958.703 1413.44,958.833 1413.2,958.975 1412.96,959.127 1412.74,959.291 1412.52,959.464 1412.31,959.649 1412.11,959.842 1411.92,960.045 1411.74,960.257 1411.56,960.477 1411.4,960.705 1411.25,960.94 1411.11,961.183 1410.99,961.431 1410.87,961.685 1410.77,961.944 1410.68,962.208 1410.6,962.476 1410.54,962.747 1410.48,963.021 1410.44,963.297 1410.42,963.575 1410.4,963.854 1410.4,964.133 1410.42,964.411 1410.44,964.689 1410.48,964.965 1410.54,965.239 1410.6,965.511 1410.68,965.778 1410.77,966.042 1410.87,966.302 1410.99,966.556 1411.11,966.804 1411.25,967.046 1411.4,967.282 1411.56,967.51 1411.74,967.73 1411.92,967.941 1412.11,968.144 1412.31,968.338 1412.52,968.522 1412.74,968.696 1412.96,968.86 1413.2,969.012 1413.44,969.154 1413.68,969.283 1413.94,969.401 1414.19,969.507 1414.46,969.601 1414.72,969.682 1414.99,969.751 1415.27,969.806 1415.54,969.849 1415.82,969.879 1416.1,969.895 1416.38,969.898 1416.66,969.889 1416.94,969.866 1417.21,969.829 1417.49,969.78 1417.76,969.718 1418.03,969.643 1418.29,969.556 1418.55,969.456 1418.81,969.344 1419.06,969.22 1419.3,969.084 1419.54,968.937 1419.77,968.779 1419.99,968.61 1420.2,968.431 1420.41,968.242 1420.61,968.044 1420.79,967.837 1420.97,967.621 1421.14,967.396 1421.29,967.165 1421.43,966.926 1421.57,966.681 1421.69,966.429 1421.8,966.172 1421.89,965.911 1421.98,965.645 1422.05,965.375 1422.11,965.103 1422.15,964.828 1422.19,964.55 1422.21,964.272 1422.21,963.993 " />
<polyline fill="none" vector-effect="none" points="3547.53,963.993 3547.53,963.714 3547.51,963.436 3547.47,963.159 3547.43,962.884 3547.37,962.611 3547.3,962.342 3547.21,962.076 3547.12,961.814 3547.01,961.557 3546.89,961.306 3546.75,961.061 3546.61,960.822 3546.45,960.59 3546.29,960.366 3546.11,960.15 3545.93,959.943 3545.73,959.744 3545.52,959.555 3545.31,959.376 3545.09,959.207 3544.86,959.049 3544.62,958.902 3544.38,958.767 3544.13,958.643 3543.87,958.531 3543.61,958.431 3543.35,958.343 3543.08,958.269 3542.81,958.206 3542.53,958.157 3542.26,958.121 3541.98,958.098 3541.7,958.088 3541.42,958.092 3541.14,958.108 3540.86,958.138 3540.59,958.18 3540.31,958.236 3540.04,958.304 3539.78,958.386 3539.51,958.479 3539.26,958.585 3539,958.703 3538.76,958.833 3538.52,958.975 3538.28,959.127 3538.06,959.291 3537.84,959.464 3537.63,959.649 3537.43,959.842 3537.24,960.045 3537.06,960.257 3536.88,960.477 3536.72,960.705 3536.57,960.94 3536.43,961.183 3536.31,961.431 3536.19,961.685 3536.09,961.944 3536,962.208 3535.92,962.476 3535.86,962.747 3535.8,963.021 3535.76,963.297 3535.74,963.575 3535.72,963.854 3535.72,964.133 3535.74,964.411 3535.76,964.689 3535.8,964.965 3535.86,965.239 3535.92,965.511 3536,965.778 3536.09,966.042 3536.19,966.302 3536.31,966.556 3536.43,966.804 3536.57,967.046 3536.72,967.282 3536.88,967.51 3537.06,967.73 3537.24,967.941 3537.43,968.144 3537.63,968.338 3537.84,968.522 3538.06,968.696 3538.28,968.86 3538.52,969.012 3538.76,969.154 3539,969.283 3539.26,969.401 3539.51,969.507 3539.78,969.601 3540.04,969.682 3540.31,969.751 3540.59,969.806 3540.86,969.849 3541.14,969.879 3541.42,969.895 3541.7,969.898 3541.98,969.889 3542.26,969.866 3542.53,969.829 3542.81,969.78 3543.08,969.718 3543.35,969.643 3543.61,969.556 3543.87,969.456 3544.13,969.344 3544.38,969.22 3544.62,969.084 3544.86,968.937 3545.09,968.779 3545.31,968.61 3545.52,968.431 3545.73,968.242 3545.93,968.044 3546.11,967.837 3546.29,967.621 3546.45,967.396 3546.61,967.165 3546.75,966.926 3546.89,966.681 3547.01,966.429 3547.12,966.172 3547.21,965.911 3547.3,965.645 3547.37,965.375 3547.43,965.103 3547.47,964.828 3547.51,964.55 3547.53,964.272 3547.53,963.993 " />
<polyline fill="none" vector-effect="none" points="6098.72,3604.94 6098.71,3604.66 6098.69,3604.38 6098.66,3604.1 6098.61,3603.83 6098.55,3603.56 6098.48,3603.29 6098.4,3603.02 6098.3,3602.76 6098.19,3602.5 6098.07,3602.25 6097.94,3602.01 6097.79,3601.77 6097.64,3601.54 6097.47,3601.31 6097.29,3601.09 6097.11,3600.89 6096.91,3600.69 6096.71,3600.5 6096.49,3600.32 6096.27,3600.15 6096.04,3599.99 6095.8,3599.85 6095.56,3599.71 6095.31,3599.59 6095.05,3599.48 6094.79,3599.38 6094.53,3599.29 6094.26,3599.21 6093.99,3599.15 6093.71,3599.1 6093.44,3599.07 6093.16,3599.04 6092.88,3599.03 6092.6,3599.04 6092.32,3599.05 6092.04,3599.08 6091.77,3599.13 6091.5,3599.18 6091.23,3599.25 6090.96,3599.33 6090.7,3599.42 6090.44,3599.53 6090.18,3599.65 6089.94,3599.78 6089.7,3599.92 6089.46,3600.07 6089.24,3600.24 6089.02,3600.41 6088.81,3600.59 6088.61,3600.79 6088.42,3600.99 6088.24,3601.2 6088.07,3601.42 6087.9,3601.65 6087.75,3601.89 6087.62,3602.13 6087.49,3602.38 6087.37,3602.63 6087.27,3602.89 6087.18,3603.15 6087.1,3603.42 6087.04,3603.69 6086.98,3603.97 6086.95,3604.24 6086.92,3604.52 6086.91,3604.8 6086.91,3605.08 6086.92,3605.36 6086.95,3605.63 6086.98,3605.91 6087.04,3606.18 6087.1,3606.46 6087.18,3606.72 6087.27,3606.99 6087.37,3607.25 6087.49,3607.5 6087.62,3607.75 6087.75,3607.99 6087.9,3608.23 6088.07,3608.45 6088.24,3608.67 6088.42,3608.89 6088.61,3609.09 6088.81,3609.28 6089.02,3609.47 6089.24,3609.64 6089.46,3609.8 6089.7,3609.96 6089.94,3610.1 6090.18,3610.23 6090.44,3610.35 6090.7,3610.45 6090.96,3610.55 6091.23,3610.63 6091.5,3610.7 6091.77,3610.75 6092.04,3610.79 6092.32,3610.82 6092.6,3610.84 6092.88,3610.84 6093.16,3610.83 6093.44,3610.81 6093.71,3610.77 6093.99,3610.73 6094.26,3610.66 6094.53,3610.59 6094.79,3610.5 6095.05,3610.4 6095.31,3610.29 6095.56,3610.16 6095.8,3610.03 6096.04,3609.88 6096.27,3609.72 6096.49,3609.56 6096.71,3609.38 6096.91,3609.19 6097.11,3608.99 6097.29,3608.78 6097.47,3608.57 6097.64,3608.34 6097.79,3608.11 6097.94,3607.87 6098.07,3607.63 6098.19,3607.37 6098.3,3607.12 6098.4,3606.86 6098.48,3606.59 6098.55,3606.32 6098.61,3606.05 6098.66,3605.77 6098.69,3605.5 6098.71,3605.22 6098.72,3604.94 " />
<polyline fill="none" vector-effect="none" points="996.353,3604.94 996.346,3604.66 996.327,3604.38 996.294,3604.1 996.248,3603.83 996.189,3603.56 996.117,3603.29 996.033,3603.02 995.936,3602.76 995.827,3602.5 995.706,3602.25 995.573,3602.01 995.429,3601.77 995.274,3601.54 995.108,3601.31 994.931,3601.09 994.745,3600.89 994.549,3600.69 994.343,3600.5 994.129,3600.32 993.907,3600.15 993.677,3599.99 993.44,3599.85 993.197,3599.71 992.947,3599.59 992.691,3599.48 992.431,3599.38 992.166,3599.29 991.897,3599.21 991.625,3599.15 991.351,3599.1 991.074,3599.07 990.796,3599.04 990.517,3599.03 990.238,3599.04 989.96,3599.05 989.682,3599.08 989.407,3599.13 989.133,3599.18 988.863,3599.25 988.596,3599.33 988.333,3599.42 988.075,3599.53 987.823,3599.65 987.576,3599.78 987.335,3599.92 987.102,3600.07 986.876,3600.24 986.657,3600.41 986.448,3600.59 986.247,3600.79 986.056,3600.99 985.874,3601.2 985.703,3601.42 985.542,3601.65 985.392,3601.89 985.254,3602.13 985.127,3602.38 985.012,3602.63 984.909,3602.89 984.818,3603.15 984.74,3603.42 984.675,3603.69 984.623,3603.97 984.583,3604.24 984.557,3604.52 984.544,3604.8 984.544,3605.08 984.557,3605.36 984.583,3605.63 984.623,3605.91 984.675,3606.18 984.74,3606.46 984.818,3606.72 984.909,3606.99 985.012,3607.25 985.127,3607.5 985.254,3607.75 985.392,3607.99 985.542,3608.23 985.703,3608.45 985.874,3608.67 986.056,3608.89 986.247,3609.09 986.448,3609.28 986.657,3609.47 986.876,3609.64 987.102,3609.8 987.335,3609.96 987.576,3610.1 987.823,3610.23 988.075,3610.35 988.333,3610.45 988.596,3610.55 988.863,3610.63 989.133,3610.7 989.407,3610.75 989.682,3610.79 989.96,3610.82 990.238,3610.84 990.517,3610.84 990.796,3610.83 991.074,3610.81 991.351,3610.77 991.625,3610.73 991.897,3610.66 992.166,3610.59 992.431,3610.5 992.691,3610.4 992.947,3610.29 993.197,3610.16 993.44,3610.03 993.677,3609.88 993.907,3609.72 994.129,3609.56 994.343,3609.38 994.549,3609.19 994.745,3608.99 994.931,3608.78 995.108,3608.57 995.274,3608.34 995.429,3608.11 995.573,3607.87 995.706,3607.63 995.827,3607.37 995.936,3607.12 996.033,3606.86 996.117,3606.59 996.189,3606.32 996.248,3606.05 996.294,3605.77 996.327,3605.5 996.346,3605.22 996.353,3604.94 " />
<polyline fill="none" vector-effect="none" points="5672.85,963.993 5672.85,963.714 5672.83,963.436 5672.79,963.159 5672.75,962.884 5672.69,962.611 5672.62,962.342 5672.53,962.076 5672.44,961.814 5672.33,961.557 5672.21,961.306 5672.07,961.061 5671.93,960.822 5671.77,960.59 5671.61,960.366 5671.43,960.15 5671.25,959.943 5671.05,959.744 5670.84,959.555 5670.63,959.376 5670.41,959.207 5670.18,959.049 5669.94,958.902 5669.7,958.767 5669.45,958.643 5669.19,958.531 5668.93,958.431 5668.67,958.343 5668.4,958.269 5668.13,958.206 5667.85,958.157 5667.57,958.121 5667.3,958.098 5667.02,958.088 5666.74,958.092 5666.46,958.108 5666.18,958.138 5665.91,958.18 5665.63,958.236 5665.36,958.304 5665.1,958.386 5664.83,958.479 5664.58,958.585 5664.32,958.703 5664.08,958.833 5663.84,958.975 5663.6,959.127 5663.38,959.291 5663.16,959.464 5662.95,959.649 5662.75,959.842 5662.56,960.045 5662.38,960.257 5662.2,960.477 5662.04,960.705 5661.89,960.94 5661.75,961.183 5661.63,961.431 5661.51,961.685 5661.41,961.944 5661.32,962.208 5661.24,962.476 5661.18,962.747 5661.12,963.021 5661.08,963.297 5661.06,963.575 5661.04,963.854 5661.04,964.133 5661.06,964.411 5661.08,964.689 5661.12,964.965 5661.18,965.239 5661.24,965.511 5661.32,965.778 5661.41,966.042 5661.51,966.302 5661.63,966.556 5661.75,966.804 5661.89,967.046 5662.04,967.282 5662.2,967.51 5662.38,967.73 5662.56,967.941 5662.75,968.144 5662.95,968.338 5663.16,968.522 5663.38,968.696 5663.6,968.86 5663.84,969.012 5664.08,969.154 5664.32,969.283 5664.58,969.401 5664.83,969.507 5665.1,969.601 5665.36,969.682 5665.63,969.751 5665.91,969.806 5666.18,969.849 5666.46,969.879 5666.74,969.895 5667.02,969.898 5667.3,969.889 5667.57,969.866 5667.85,969.829 5668.13,969.78 5668.4,969.718 5668.67,969.643 5668.93,969.556 5669.19,969.456 5669.45,969.344 5669.7,969.22 5669.94,969.084 5670.18,968.937 5670.41,968.779 5670.63,968.61 5670.84,968.431 5671.05,968.242 5671.25,968.044 5671.43,967.837 5671.61,967.621 5671.77,967.396 5671.93,967.165 5672.07,966.926 5672.21,966.681 5672.33,966.429 5672.44,966.172 5672.53,965.911 5672.62,965.645 5672.69,965.375 5672.75,965.103 5672.79,964.828 5672.83,964.55 5672.85,964.272 5672.85,963.993 " />
<polyline fill="none" vector-effect="none" points="1422.21,963.993 1422.21,963.714 1422.19,963.436 1422.15,963.159 1422.11,962.884 1422.05,962.611 1421.98,962.342 1421.89,962.076 1421.8,961.814 1421.69,961.557 1421.57,961.306 1421.43,961.061 1421.29,960.822 1421.14,960.59 1420.97,960.366 1420.79,960.15 1420.61,959.943 1420.41,959.744 1420.2,959.555 1419.99,959.376 1419.77,959.207 1419.54,959.049 1419.3,958.902 1419.06,958.767 1418.81,958.643 1418.55,958.531 1418.29,958.431 1418.03,958.343 1417.76,958.269 1417.49,958.206 1417.21,958.157 1416.94,958.121 1416.66,958.098 1416.38,958.088 1416.1,958.092 1415.82,958.108 1415.54,958.138 1415.27,958.18 1414.99,958.236 1414.72,958.304 1414.46,958.386 1414.19,958.479 1413.94,958.585 1413.68,958.703 1413.44,958.833 1413.2,958.975 1412.96,959.127 1412.74,959.291 1412.52,959.464 1412.31,959.649 1412.11,959.842 1411.92,960.045 1411.74,960.257 1411.56,960.477 1411.4,960.705 1411.25,960.94 1411.11,961.183 1410.99,961.431 1410.87,961.685 1410.77,961.944 1410.68,962.208 1410.6,962.476 1410.54,962.747 1410.48,963.021 1410.44,963.297 1410.42,963.575 1410.4,963.854 1410.4,964.133 1410.42,964.411 1410.44,964.689 1410.48,964.965 1410.54,965.239 1410.6,965.511 1410.68,965.778 1410.77,966.042 1410.87,966.302 1410.99,966.556 1411.11,966.804 1411.25,967.046 1411.4,967.282 1411.56,967.51 1411.74,967.73 1411.92,967.941 1412.11,968.144 1412.31,968.338 1412.52,968.522 1412.74,968.696 1412.96,968.86 1413.2,969.012 1413.44,969.154 1413.68,969.283 1413.94,969.401 1414.19,969.507 1414.46,969.601 1414.72,969.682 1414.99,969.751 1415.27,969.806 1415.54,969.849 1415.82,969.879 1416.1,969.895 1416.38,969.898 1416.66,969.889 1416.94,969.866 1417.21,969.829 1417.49,969.78 1417.76,969.718 1418.03,969.643 1418.29,969.556 1418.55,969.456 1418.81,969.344 1419.06,969.22 1419.3,969.084 1419.54,968.937 1419.77,968.779 1419.99,968.61 1420.2,968.431 1420.41,968.242 1420.61,968.044 1420.79,967.837 1420.97,967.621 1421.14,967.396 1421.29,967.165 1421.43,966.926 1421.57,966.681 1421.69,966.429 1421.8,966.172 1421.89,965.911 1421.98,965.645 1422.05,965.375 1422.11,965.103 1422.15,964.828 1422.19,964.55 1422.21,964.272 1422.21,963.993 " />
</g>

<g fill="none" stroke="#000000" stroke-opacity="1" stroke-width="1" stroke-linecap="square" stroke-linejoin="bevel" transform="matrix(1,0,0,1,0,0)"
font-family="Arial" font-size="12" font-weight="400" font-style="normal" 
>
</g>
</g>
</svg>
