%TF.GenerationSoftware,KiCad,Pcbnew,8.0.3*%
%TF.CreationDate,2024-09-12T11:02:19-04:00*%
%TF.ProjectId,G7 Senior Design V2,47372053-656e-4696-9f72-204465736967,rev?*%
%TF.SameCoordinates,Original*%
%TF.FileFunction,Drillmap*%
%TF.FilePolarity,Positive*%
%FSLAX45Y45*%
G04 Gerber Fmt 4.5, Leading zero omitted, Abs format (unit mm)*
G04 Created by KiCad (PCBNEW 8.0.3) date 2024-09-12 11:02:19*
%MOMM*%
%LPD*%
G01*
G04 APERTURE LIST*
%ADD10C,0.050000*%
%ADD11C,0.010000*%
%ADD12C,0.200000*%
%ADD13C,0.130000*%
G04 APERTURE END LIST*
D10*
X19500000Y-14000000D02*
G75*
G02*
X18500000Y-14000000I-500000J0D01*
G01*
X18500000Y-14000000D02*
G75*
G02*
X19500000Y-14000000I500000J0D01*
G01*
X11500000Y-6000000D02*
G75*
G02*
X10500000Y-6000000I-500000J0D01*
G01*
X10500000Y-6000000D02*
G75*
G02*
X11500000Y-6000000I500000J0D01*
G01*
X11500000Y-14000000D02*
G75*
G02*
X10500000Y-14000000I-500000J0D01*
G01*
X10500000Y-14000000D02*
G75*
G02*
X11500000Y-14000000I500000J0D01*
G01*
X19500000Y-6000000D02*
G75*
G02*
X18500000Y-6000000I-500000J0D01*
G01*
X18500000Y-6000000D02*
G75*
G02*
X19500000Y-6000000I500000J0D01*
G01*
X10000000Y-5000000D02*
X20000000Y-5000000D01*
X20000000Y-15000000D01*
X10000000Y-15000000D01*
X10000000Y-5000000D01*
D11*
X10360000Y-8210000D02*
X10540000Y-8210000D01*
X10360000Y-8390000D02*
X10360000Y-8210000D01*
X10540000Y-8210000D02*
X10540000Y-8390000D01*
X10540000Y-8390000D02*
X10360000Y-8390000D01*
D12*
D13*
X10385000Y-8235000D02*
X10515000Y-8365000D01*
X10515000Y-8235000D02*
X10385000Y-8365000D01*
D12*
X10258277Y-15313984D02*
X10258277Y-15113984D01*
X10258277Y-15113984D02*
X10305896Y-15113984D01*
X10305896Y-15113984D02*
X10334467Y-15123508D01*
X10334467Y-15123508D02*
X10353515Y-15142555D01*
X10353515Y-15142555D02*
X10363039Y-15161603D01*
X10363039Y-15161603D02*
X10372563Y-15199698D01*
X10372563Y-15199698D02*
X10372563Y-15228269D01*
X10372563Y-15228269D02*
X10363039Y-15266365D01*
X10363039Y-15266365D02*
X10353515Y-15285412D01*
X10353515Y-15285412D02*
X10334467Y-15304460D01*
X10334467Y-15304460D02*
X10305896Y-15313984D01*
X10305896Y-15313984D02*
X10258277Y-15313984D01*
X10458277Y-15313984D02*
X10458277Y-15180650D01*
X10458277Y-15218746D02*
X10467801Y-15199698D01*
X10467801Y-15199698D02*
X10477324Y-15190174D01*
X10477324Y-15190174D02*
X10496372Y-15180650D01*
X10496372Y-15180650D02*
X10515420Y-15180650D01*
X10582086Y-15313984D02*
X10582086Y-15180650D01*
X10582086Y-15113984D02*
X10572563Y-15123508D01*
X10572563Y-15123508D02*
X10582086Y-15133031D01*
X10582086Y-15133031D02*
X10591610Y-15123508D01*
X10591610Y-15123508D02*
X10582086Y-15113984D01*
X10582086Y-15113984D02*
X10582086Y-15133031D01*
X10705896Y-15313984D02*
X10686848Y-15304460D01*
X10686848Y-15304460D02*
X10677324Y-15285412D01*
X10677324Y-15285412D02*
X10677324Y-15113984D01*
X10810658Y-15313984D02*
X10791610Y-15304460D01*
X10791610Y-15304460D02*
X10782086Y-15285412D01*
X10782086Y-15285412D02*
X10782086Y-15113984D01*
X11039229Y-15313984D02*
X11039229Y-15113984D01*
X11039229Y-15113984D02*
X11105896Y-15256841D01*
X11105896Y-15256841D02*
X11172563Y-15113984D01*
X11172563Y-15113984D02*
X11172563Y-15313984D01*
X11353515Y-15313984D02*
X11353515Y-15209222D01*
X11353515Y-15209222D02*
X11343991Y-15190174D01*
X11343991Y-15190174D02*
X11324943Y-15180650D01*
X11324943Y-15180650D02*
X11286848Y-15180650D01*
X11286848Y-15180650D02*
X11267801Y-15190174D01*
X11353515Y-15304460D02*
X11334467Y-15313984D01*
X11334467Y-15313984D02*
X11286848Y-15313984D01*
X11286848Y-15313984D02*
X11267801Y-15304460D01*
X11267801Y-15304460D02*
X11258277Y-15285412D01*
X11258277Y-15285412D02*
X11258277Y-15266365D01*
X11258277Y-15266365D02*
X11267801Y-15247317D01*
X11267801Y-15247317D02*
X11286848Y-15237793D01*
X11286848Y-15237793D02*
X11334467Y-15237793D01*
X11334467Y-15237793D02*
X11353515Y-15228269D01*
X11448753Y-15180650D02*
X11448753Y-15380650D01*
X11448753Y-15190174D02*
X11467801Y-15180650D01*
X11467801Y-15180650D02*
X11505896Y-15180650D01*
X11505896Y-15180650D02*
X11524943Y-15190174D01*
X11524943Y-15190174D02*
X11534467Y-15199698D01*
X11534467Y-15199698D02*
X11543991Y-15218746D01*
X11543991Y-15218746D02*
X11543991Y-15275888D01*
X11543991Y-15275888D02*
X11534467Y-15294936D01*
X11534467Y-15294936D02*
X11524943Y-15304460D01*
X11524943Y-15304460D02*
X11505896Y-15313984D01*
X11505896Y-15313984D02*
X11467801Y-15313984D01*
X11467801Y-15313984D02*
X11448753Y-15304460D01*
X11629705Y-15294936D02*
X11639229Y-15304460D01*
X11639229Y-15304460D02*
X11629705Y-15313984D01*
X11629705Y-15313984D02*
X11620182Y-15304460D01*
X11620182Y-15304460D02*
X11629705Y-15294936D01*
X11629705Y-15294936D02*
X11629705Y-15313984D01*
X11629705Y-15190174D02*
X11639229Y-15199698D01*
X11639229Y-15199698D02*
X11629705Y-15209222D01*
X11629705Y-15209222D02*
X11620182Y-15199698D01*
X11620182Y-15199698D02*
X11629705Y-15190174D01*
X11629705Y-15190174D02*
X11629705Y-15209222D01*
D13*
X9867500Y-15577500D02*
X9997500Y-15707500D01*
X9997500Y-15577500D02*
X9867500Y-15707500D01*
D12*
X10363039Y-15733984D02*
X10248753Y-15733984D01*
X10305896Y-15733984D02*
X10305896Y-15533984D01*
X10305896Y-15533984D02*
X10286848Y-15562555D01*
X10286848Y-15562555D02*
X10267801Y-15581603D01*
X10267801Y-15581603D02*
X10248753Y-15591127D01*
X10448753Y-15714936D02*
X10458277Y-15724460D01*
X10458277Y-15724460D02*
X10448753Y-15733984D01*
X10448753Y-15733984D02*
X10439229Y-15724460D01*
X10439229Y-15724460D02*
X10448753Y-15714936D01*
X10448753Y-15714936D02*
X10448753Y-15733984D01*
X10524944Y-15533984D02*
X10648753Y-15533984D01*
X10648753Y-15533984D02*
X10582086Y-15610174D01*
X10582086Y-15610174D02*
X10610658Y-15610174D01*
X10610658Y-15610174D02*
X10629705Y-15619698D01*
X10629705Y-15619698D02*
X10639229Y-15629222D01*
X10639229Y-15629222D02*
X10648753Y-15648269D01*
X10648753Y-15648269D02*
X10648753Y-15695888D01*
X10648753Y-15695888D02*
X10639229Y-15714936D01*
X10639229Y-15714936D02*
X10629705Y-15724460D01*
X10629705Y-15724460D02*
X10610658Y-15733984D01*
X10610658Y-15733984D02*
X10553515Y-15733984D01*
X10553515Y-15733984D02*
X10534467Y-15724460D01*
X10534467Y-15724460D02*
X10524944Y-15714936D01*
X10772563Y-15533984D02*
X10791610Y-15533984D01*
X10791610Y-15533984D02*
X10810658Y-15543508D01*
X10810658Y-15543508D02*
X10820182Y-15553031D01*
X10820182Y-15553031D02*
X10829705Y-15572079D01*
X10829705Y-15572079D02*
X10839229Y-15610174D01*
X10839229Y-15610174D02*
X10839229Y-15657793D01*
X10839229Y-15657793D02*
X10829705Y-15695888D01*
X10829705Y-15695888D02*
X10820182Y-15714936D01*
X10820182Y-15714936D02*
X10810658Y-15724460D01*
X10810658Y-15724460D02*
X10791610Y-15733984D01*
X10791610Y-15733984D02*
X10772563Y-15733984D01*
X10772563Y-15733984D02*
X10753515Y-15724460D01*
X10753515Y-15724460D02*
X10743991Y-15714936D01*
X10743991Y-15714936D02*
X10734467Y-15695888D01*
X10734467Y-15695888D02*
X10724944Y-15657793D01*
X10724944Y-15657793D02*
X10724944Y-15610174D01*
X10724944Y-15610174D02*
X10734467Y-15572079D01*
X10734467Y-15572079D02*
X10743991Y-15553031D01*
X10743991Y-15553031D02*
X10753515Y-15543508D01*
X10753515Y-15543508D02*
X10772563Y-15533984D01*
X10963039Y-15533984D02*
X10982086Y-15533984D01*
X10982086Y-15533984D02*
X11001134Y-15543508D01*
X11001134Y-15543508D02*
X11010658Y-15553031D01*
X11010658Y-15553031D02*
X11020182Y-15572079D01*
X11020182Y-15572079D02*
X11029705Y-15610174D01*
X11029705Y-15610174D02*
X11029705Y-15657793D01*
X11029705Y-15657793D02*
X11020182Y-15695888D01*
X11020182Y-15695888D02*
X11010658Y-15714936D01*
X11010658Y-15714936D02*
X11001134Y-15724460D01*
X11001134Y-15724460D02*
X10982086Y-15733984D01*
X10982086Y-15733984D02*
X10963039Y-15733984D01*
X10963039Y-15733984D02*
X10943991Y-15724460D01*
X10943991Y-15724460D02*
X10934467Y-15714936D01*
X10934467Y-15714936D02*
X10924944Y-15695888D01*
X10924944Y-15695888D02*
X10915420Y-15657793D01*
X10915420Y-15657793D02*
X10915420Y-15610174D01*
X10915420Y-15610174D02*
X10924944Y-15572079D01*
X10924944Y-15572079D02*
X10934467Y-15553031D01*
X10934467Y-15553031D02*
X10943991Y-15543508D01*
X10943991Y-15543508D02*
X10963039Y-15533984D01*
X11115420Y-15733984D02*
X11115420Y-15600650D01*
X11115420Y-15619698D02*
X11124944Y-15610174D01*
X11124944Y-15610174D02*
X11143991Y-15600650D01*
X11143991Y-15600650D02*
X11172563Y-15600650D01*
X11172563Y-15600650D02*
X11191610Y-15610174D01*
X11191610Y-15610174D02*
X11201134Y-15629222D01*
X11201134Y-15629222D02*
X11201134Y-15733984D01*
X11201134Y-15629222D02*
X11210658Y-15610174D01*
X11210658Y-15610174D02*
X11229705Y-15600650D01*
X11229705Y-15600650D02*
X11258277Y-15600650D01*
X11258277Y-15600650D02*
X11277324Y-15610174D01*
X11277324Y-15610174D02*
X11286848Y-15629222D01*
X11286848Y-15629222D02*
X11286848Y-15733984D01*
X11382086Y-15733984D02*
X11382086Y-15600650D01*
X11382086Y-15619698D02*
X11391610Y-15610174D01*
X11391610Y-15610174D02*
X11410658Y-15600650D01*
X11410658Y-15600650D02*
X11439229Y-15600650D01*
X11439229Y-15600650D02*
X11458277Y-15610174D01*
X11458277Y-15610174D02*
X11467801Y-15629222D01*
X11467801Y-15629222D02*
X11467801Y-15733984D01*
X11467801Y-15629222D02*
X11477324Y-15610174D01*
X11477324Y-15610174D02*
X11496372Y-15600650D01*
X11496372Y-15600650D02*
X11524943Y-15600650D01*
X11524943Y-15600650D02*
X11543991Y-15610174D01*
X11543991Y-15610174D02*
X11553515Y-15629222D01*
X11553515Y-15629222D02*
X11553515Y-15733984D01*
X11943991Y-15524460D02*
X11772563Y-15781603D01*
X12201134Y-15533984D02*
X12220182Y-15533984D01*
X12220182Y-15533984D02*
X12239229Y-15543508D01*
X12239229Y-15543508D02*
X12248753Y-15553031D01*
X12248753Y-15553031D02*
X12258277Y-15572079D01*
X12258277Y-15572079D02*
X12267801Y-15610174D01*
X12267801Y-15610174D02*
X12267801Y-15657793D01*
X12267801Y-15657793D02*
X12258277Y-15695888D01*
X12258277Y-15695888D02*
X12248753Y-15714936D01*
X12248753Y-15714936D02*
X12239229Y-15724460D01*
X12239229Y-15724460D02*
X12220182Y-15733984D01*
X12220182Y-15733984D02*
X12201134Y-15733984D01*
X12201134Y-15733984D02*
X12182086Y-15724460D01*
X12182086Y-15724460D02*
X12172563Y-15714936D01*
X12172563Y-15714936D02*
X12163039Y-15695888D01*
X12163039Y-15695888D02*
X12153515Y-15657793D01*
X12153515Y-15657793D02*
X12153515Y-15610174D01*
X12153515Y-15610174D02*
X12163039Y-15572079D01*
X12163039Y-15572079D02*
X12172563Y-15553031D01*
X12172563Y-15553031D02*
X12182086Y-15543508D01*
X12182086Y-15543508D02*
X12201134Y-15533984D01*
X12353515Y-15714936D02*
X12363039Y-15724460D01*
X12363039Y-15724460D02*
X12353515Y-15733984D01*
X12353515Y-15733984D02*
X12343991Y-15724460D01*
X12343991Y-15724460D02*
X12353515Y-15714936D01*
X12353515Y-15714936D02*
X12353515Y-15733984D01*
X12486848Y-15533984D02*
X12505896Y-15533984D01*
X12505896Y-15533984D02*
X12524944Y-15543508D01*
X12524944Y-15543508D02*
X12534467Y-15553031D01*
X12534467Y-15553031D02*
X12543991Y-15572079D01*
X12543991Y-15572079D02*
X12553515Y-15610174D01*
X12553515Y-15610174D02*
X12553515Y-15657793D01*
X12553515Y-15657793D02*
X12543991Y-15695888D01*
X12543991Y-15695888D02*
X12534467Y-15714936D01*
X12534467Y-15714936D02*
X12524944Y-15724460D01*
X12524944Y-15724460D02*
X12505896Y-15733984D01*
X12505896Y-15733984D02*
X12486848Y-15733984D01*
X12486848Y-15733984D02*
X12467801Y-15724460D01*
X12467801Y-15724460D02*
X12458277Y-15714936D01*
X12458277Y-15714936D02*
X12448753Y-15695888D01*
X12448753Y-15695888D02*
X12439229Y-15657793D01*
X12439229Y-15657793D02*
X12439229Y-15610174D01*
X12439229Y-15610174D02*
X12448753Y-15572079D01*
X12448753Y-15572079D02*
X12458277Y-15553031D01*
X12458277Y-15553031D02*
X12467801Y-15543508D01*
X12467801Y-15543508D02*
X12486848Y-15533984D01*
X12734467Y-15533984D02*
X12639229Y-15533984D01*
X12639229Y-15533984D02*
X12629706Y-15629222D01*
X12629706Y-15629222D02*
X12639229Y-15619698D01*
X12639229Y-15619698D02*
X12658277Y-15610174D01*
X12658277Y-15610174D02*
X12705896Y-15610174D01*
X12705896Y-15610174D02*
X12724944Y-15619698D01*
X12724944Y-15619698D02*
X12734467Y-15629222D01*
X12734467Y-15629222D02*
X12743991Y-15648269D01*
X12743991Y-15648269D02*
X12743991Y-15695888D01*
X12743991Y-15695888D02*
X12734467Y-15714936D01*
X12734467Y-15714936D02*
X12724944Y-15724460D01*
X12724944Y-15724460D02*
X12705896Y-15733984D01*
X12705896Y-15733984D02*
X12658277Y-15733984D01*
X12658277Y-15733984D02*
X12639229Y-15724460D01*
X12639229Y-15724460D02*
X12629706Y-15714936D01*
X12934467Y-15733984D02*
X12820182Y-15733984D01*
X12877325Y-15733984D02*
X12877325Y-15533984D01*
X12877325Y-15533984D02*
X12858277Y-15562555D01*
X12858277Y-15562555D02*
X12839229Y-15581603D01*
X12839229Y-15581603D02*
X12820182Y-15591127D01*
X13010658Y-15553031D02*
X13020182Y-15543508D01*
X13020182Y-15543508D02*
X13039229Y-15533984D01*
X13039229Y-15533984D02*
X13086848Y-15533984D01*
X13086848Y-15533984D02*
X13105896Y-15543508D01*
X13105896Y-15543508D02*
X13115420Y-15553031D01*
X13115420Y-15553031D02*
X13124944Y-15572079D01*
X13124944Y-15572079D02*
X13124944Y-15591127D01*
X13124944Y-15591127D02*
X13115420Y-15619698D01*
X13115420Y-15619698D02*
X13001134Y-15733984D01*
X13001134Y-15733984D02*
X13124944Y-15733984D01*
X13201134Y-15533984D02*
X13201134Y-15572079D01*
X13277325Y-15533984D02*
X13277325Y-15572079D01*
X13572563Y-15810174D02*
X13563039Y-15800650D01*
X13563039Y-15800650D02*
X13543991Y-15772079D01*
X13543991Y-15772079D02*
X13534468Y-15753031D01*
X13534468Y-15753031D02*
X13524944Y-15724460D01*
X13524944Y-15724460D02*
X13515420Y-15676841D01*
X13515420Y-15676841D02*
X13515420Y-15638746D01*
X13515420Y-15638746D02*
X13524944Y-15591127D01*
X13524944Y-15591127D02*
X13534468Y-15562555D01*
X13534468Y-15562555D02*
X13543991Y-15543508D01*
X13543991Y-15543508D02*
X13563039Y-15514936D01*
X13563039Y-15514936D02*
X13572563Y-15505412D01*
X13753515Y-15733984D02*
X13639229Y-15733984D01*
X13696372Y-15733984D02*
X13696372Y-15533984D01*
X13696372Y-15533984D02*
X13677325Y-15562555D01*
X13677325Y-15562555D02*
X13658277Y-15581603D01*
X13658277Y-15581603D02*
X13639229Y-15591127D01*
X13991610Y-15733984D02*
X13991610Y-15533984D01*
X14077325Y-15733984D02*
X14077325Y-15629222D01*
X14077325Y-15629222D02*
X14067801Y-15610174D01*
X14067801Y-15610174D02*
X14048753Y-15600650D01*
X14048753Y-15600650D02*
X14020182Y-15600650D01*
X14020182Y-15600650D02*
X14001134Y-15610174D01*
X14001134Y-15610174D02*
X13991610Y-15619698D01*
X14201134Y-15733984D02*
X14182087Y-15724460D01*
X14182087Y-15724460D02*
X14172563Y-15714936D01*
X14172563Y-15714936D02*
X14163039Y-15695888D01*
X14163039Y-15695888D02*
X14163039Y-15638746D01*
X14163039Y-15638746D02*
X14172563Y-15619698D01*
X14172563Y-15619698D02*
X14182087Y-15610174D01*
X14182087Y-15610174D02*
X14201134Y-15600650D01*
X14201134Y-15600650D02*
X14229706Y-15600650D01*
X14229706Y-15600650D02*
X14248753Y-15610174D01*
X14248753Y-15610174D02*
X14258277Y-15619698D01*
X14258277Y-15619698D02*
X14267801Y-15638746D01*
X14267801Y-15638746D02*
X14267801Y-15695888D01*
X14267801Y-15695888D02*
X14258277Y-15714936D01*
X14258277Y-15714936D02*
X14248753Y-15724460D01*
X14248753Y-15724460D02*
X14229706Y-15733984D01*
X14229706Y-15733984D02*
X14201134Y-15733984D01*
X14382087Y-15733984D02*
X14363039Y-15724460D01*
X14363039Y-15724460D02*
X14353515Y-15705412D01*
X14353515Y-15705412D02*
X14353515Y-15533984D01*
X14534468Y-15724460D02*
X14515420Y-15733984D01*
X14515420Y-15733984D02*
X14477325Y-15733984D01*
X14477325Y-15733984D02*
X14458277Y-15724460D01*
X14458277Y-15724460D02*
X14448753Y-15705412D01*
X14448753Y-15705412D02*
X14448753Y-15629222D01*
X14448753Y-15629222D02*
X14458277Y-15610174D01*
X14458277Y-15610174D02*
X14477325Y-15600650D01*
X14477325Y-15600650D02*
X14515420Y-15600650D01*
X14515420Y-15600650D02*
X14534468Y-15610174D01*
X14534468Y-15610174D02*
X14543991Y-15629222D01*
X14543991Y-15629222D02*
X14543991Y-15648269D01*
X14543991Y-15648269D02*
X14448753Y-15667317D01*
X14610658Y-15810174D02*
X14620182Y-15800650D01*
X14620182Y-15800650D02*
X14639230Y-15772079D01*
X14639230Y-15772079D02*
X14648753Y-15753031D01*
X14648753Y-15753031D02*
X14658277Y-15724460D01*
X14658277Y-15724460D02*
X14667801Y-15676841D01*
X14667801Y-15676841D02*
X14667801Y-15638746D01*
X14667801Y-15638746D02*
X14658277Y-15591127D01*
X14658277Y-15591127D02*
X14648753Y-15562555D01*
X14648753Y-15562555D02*
X14639230Y-15543508D01*
X14639230Y-15543508D02*
X14620182Y-15514936D01*
X14620182Y-15514936D02*
X14610658Y-15505412D01*
X14972563Y-15810174D02*
X14963039Y-15800650D01*
X14963039Y-15800650D02*
X14943991Y-15772079D01*
X14943991Y-15772079D02*
X14934468Y-15753031D01*
X14934468Y-15753031D02*
X14924944Y-15724460D01*
X14924944Y-15724460D02*
X14915420Y-15676841D01*
X14915420Y-15676841D02*
X14915420Y-15638746D01*
X14915420Y-15638746D02*
X14924944Y-15591127D01*
X14924944Y-15591127D02*
X14934468Y-15562555D01*
X14934468Y-15562555D02*
X14943991Y-15543508D01*
X14943991Y-15543508D02*
X14963039Y-15514936D01*
X14963039Y-15514936D02*
X14972563Y-15505412D01*
X15048753Y-15600650D02*
X15048753Y-15733984D01*
X15048753Y-15619698D02*
X15058277Y-15610174D01*
X15058277Y-15610174D02*
X15077325Y-15600650D01*
X15077325Y-15600650D02*
X15105896Y-15600650D01*
X15105896Y-15600650D02*
X15124944Y-15610174D01*
X15124944Y-15610174D02*
X15134468Y-15629222D01*
X15134468Y-15629222D02*
X15134468Y-15733984D01*
X15258277Y-15733984D02*
X15239230Y-15724460D01*
X15239230Y-15724460D02*
X15229706Y-15714936D01*
X15229706Y-15714936D02*
X15220182Y-15695888D01*
X15220182Y-15695888D02*
X15220182Y-15638746D01*
X15220182Y-15638746D02*
X15229706Y-15619698D01*
X15229706Y-15619698D02*
X15239230Y-15610174D01*
X15239230Y-15610174D02*
X15258277Y-15600650D01*
X15258277Y-15600650D02*
X15286849Y-15600650D01*
X15286849Y-15600650D02*
X15305896Y-15610174D01*
X15305896Y-15610174D02*
X15315420Y-15619698D01*
X15315420Y-15619698D02*
X15324944Y-15638746D01*
X15324944Y-15638746D02*
X15324944Y-15695888D01*
X15324944Y-15695888D02*
X15315420Y-15714936D01*
X15315420Y-15714936D02*
X15305896Y-15724460D01*
X15305896Y-15724460D02*
X15286849Y-15733984D01*
X15286849Y-15733984D02*
X15258277Y-15733984D01*
X15382087Y-15600650D02*
X15458277Y-15600650D01*
X15410658Y-15533984D02*
X15410658Y-15705412D01*
X15410658Y-15705412D02*
X15420182Y-15724460D01*
X15420182Y-15724460D02*
X15439230Y-15733984D01*
X15439230Y-15733984D02*
X15458277Y-15733984D01*
X15677325Y-15600650D02*
X15677325Y-15800650D01*
X15677325Y-15610174D02*
X15696372Y-15600650D01*
X15696372Y-15600650D02*
X15734468Y-15600650D01*
X15734468Y-15600650D02*
X15753515Y-15610174D01*
X15753515Y-15610174D02*
X15763039Y-15619698D01*
X15763039Y-15619698D02*
X15772563Y-15638746D01*
X15772563Y-15638746D02*
X15772563Y-15695888D01*
X15772563Y-15695888D02*
X15763039Y-15714936D01*
X15763039Y-15714936D02*
X15753515Y-15724460D01*
X15753515Y-15724460D02*
X15734468Y-15733984D01*
X15734468Y-15733984D02*
X15696372Y-15733984D01*
X15696372Y-15733984D02*
X15677325Y-15724460D01*
X15886849Y-15733984D02*
X15867801Y-15724460D01*
X15867801Y-15724460D02*
X15858277Y-15705412D01*
X15858277Y-15705412D02*
X15858277Y-15533984D01*
X16048753Y-15733984D02*
X16048753Y-15629222D01*
X16048753Y-15629222D02*
X16039230Y-15610174D01*
X16039230Y-15610174D02*
X16020182Y-15600650D01*
X16020182Y-15600650D02*
X15982087Y-15600650D01*
X15982087Y-15600650D02*
X15963039Y-15610174D01*
X16048753Y-15724460D02*
X16029706Y-15733984D01*
X16029706Y-15733984D02*
X15982087Y-15733984D01*
X15982087Y-15733984D02*
X15963039Y-15724460D01*
X15963039Y-15724460D02*
X15953515Y-15705412D01*
X15953515Y-15705412D02*
X15953515Y-15686365D01*
X15953515Y-15686365D02*
X15963039Y-15667317D01*
X15963039Y-15667317D02*
X15982087Y-15657793D01*
X15982087Y-15657793D02*
X16029706Y-15657793D01*
X16029706Y-15657793D02*
X16048753Y-15648269D01*
X16115420Y-15600650D02*
X16191611Y-15600650D01*
X16143992Y-15533984D02*
X16143992Y-15705412D01*
X16143992Y-15705412D02*
X16153515Y-15724460D01*
X16153515Y-15724460D02*
X16172563Y-15733984D01*
X16172563Y-15733984D02*
X16191611Y-15733984D01*
X16334468Y-15724460D02*
X16315420Y-15733984D01*
X16315420Y-15733984D02*
X16277325Y-15733984D01*
X16277325Y-15733984D02*
X16258277Y-15724460D01*
X16258277Y-15724460D02*
X16248753Y-15705412D01*
X16248753Y-15705412D02*
X16248753Y-15629222D01*
X16248753Y-15629222D02*
X16258277Y-15610174D01*
X16258277Y-15610174D02*
X16277325Y-15600650D01*
X16277325Y-15600650D02*
X16315420Y-15600650D01*
X16315420Y-15600650D02*
X16334468Y-15610174D01*
X16334468Y-15610174D02*
X16343992Y-15629222D01*
X16343992Y-15629222D02*
X16343992Y-15648269D01*
X16343992Y-15648269D02*
X16248753Y-15667317D01*
X16515420Y-15733984D02*
X16515420Y-15533984D01*
X16515420Y-15724460D02*
X16496373Y-15733984D01*
X16496373Y-15733984D02*
X16458277Y-15733984D01*
X16458277Y-15733984D02*
X16439230Y-15724460D01*
X16439230Y-15724460D02*
X16429706Y-15714936D01*
X16429706Y-15714936D02*
X16420182Y-15695888D01*
X16420182Y-15695888D02*
X16420182Y-15638746D01*
X16420182Y-15638746D02*
X16429706Y-15619698D01*
X16429706Y-15619698D02*
X16439230Y-15610174D01*
X16439230Y-15610174D02*
X16458277Y-15600650D01*
X16458277Y-15600650D02*
X16496373Y-15600650D01*
X16496373Y-15600650D02*
X16515420Y-15610174D01*
X16591611Y-15810174D02*
X16601134Y-15800650D01*
X16601134Y-15800650D02*
X16620182Y-15772079D01*
X16620182Y-15772079D02*
X16629706Y-15753031D01*
X16629706Y-15753031D02*
X16639230Y-15724460D01*
X16639230Y-15724460D02*
X16648753Y-15676841D01*
X16648753Y-15676841D02*
X16648753Y-15638746D01*
X16648753Y-15638746D02*
X16639230Y-15591127D01*
X16639230Y-15591127D02*
X16629706Y-15562555D01*
X16629706Y-15562555D02*
X16620182Y-15543508D01*
X16620182Y-15543508D02*
X16601134Y-15514936D01*
X16601134Y-15514936D02*
X16591611Y-15505412D01*
M02*
