%TF.GenerationSoftware,KiCad,Pcbnew,8.0.3*%
%TF.CreationDate,2024-09-12T15:56:22-04:00*%
%TF.ProjectId,G7 Senior Design V2,47372053-656e-4696-9f72-204465736967,rev?*%
%TF.SameCoordinates,Original*%
%TF.FileFunction,Soldermask,Bot*%
%TF.FilePolarity,Negative*%
%FSLAX46Y46*%
G04 Gerber Fmt 4.6, Leading zero omitted, Abs format (unit mm)*
G04 Created by KiCad (PCBNEW 8.0.3) date 2024-09-12 15:56:22*
%MOMM*%
%LPD*%
G01*
G04 APERTURE LIST*
%ADD10C,1.574800*%
%ADD11C,1.300000*%
%ADD12O,3.204000X1.704000*%
%ADD13O,3.404000X1.804000*%
%ADD14C,3.580000*%
G04 APERTURE END LIST*
D10*
%TO.C,J4*%
X184500000Y-117200000D03*
X184500000Y-114660000D03*
X184500000Y-112120000D03*
X184500000Y-109580000D03*
X184500000Y-107040000D03*
X184500000Y-104500000D03*
X184500000Y-101960000D03*
X184500000Y-99420000D03*
X184500000Y-96880000D03*
X184500000Y-94340000D03*
X184500000Y-91800000D03*
X184500000Y-89260000D03*
X184500000Y-86720000D03*
X184500000Y-84180000D03*
X184500000Y-81640000D03*
X184500000Y-79100000D03*
X184500000Y-76560000D03*
X184500000Y-74020000D03*
X184500000Y-71480000D03*
%TD*%
%TO.C,J3*%
X192000000Y-117360000D03*
X192000000Y-114820000D03*
X192000000Y-112280000D03*
X192000000Y-109740000D03*
X192000000Y-107200000D03*
X192000000Y-104660000D03*
X192000000Y-102120000D03*
X192000000Y-99580000D03*
X192000000Y-97040000D03*
X192000000Y-94500000D03*
X192000000Y-91960000D03*
X192000000Y-89420000D03*
X192000000Y-86880000D03*
X192000000Y-84340000D03*
X192000000Y-81800000D03*
X192000000Y-79260000D03*
X192000000Y-76720000D03*
X192000000Y-74180000D03*
X192000000Y-71640000D03*
%TD*%
D11*
%TO.C,J2*%
X104500000Y-83000000D03*
D12*
X110800000Y-86300000D03*
X110800000Y-77700000D03*
X110800000Y-82900000D03*
D13*
X103500000Y-86700000D03*
X103500000Y-76800000D03*
%TD*%
D14*
%TO.C,J1*%
X110792500Y-109930000D03*
X110792500Y-123070000D03*
%TD*%
M02*
