%TF.GenerationSoftware,KiCad,Pcbnew,8.0.3*%
%TF.CreationDate,2024-09-12T11:00:01-04:00*%
%TF.ProjectId,G7 Senior Design V2,47372053-656e-4696-9f72-204465736967,rev?*%
%TF.SameCoordinates,Original*%
%TF.FileFunction,Legend,Top*%
%TF.FilePolarity,Positive*%
%FSLAX46Y46*%
G04 Gerber Fmt 4.6, Leading zero omitted, Abs format (unit mm)*
G04 Created by KiCad (PCBNEW 8.0.3) date 2024-09-12 11:00:01*
%MOMM*%
%LPD*%
G01*
G04 APERTURE LIST*
G04 Aperture macros list*
%AMRoundRect*
0 Rectangle with rounded corners*
0 $1 Rounding radius*
0 $2 $3 $4 $5 $6 $7 $8 $9 X,Y pos of 4 corners*
0 Add a 4 corners polygon primitive as box body*
4,1,4,$2,$3,$4,$5,$6,$7,$8,$9,$2,$3,0*
0 Add four circle primitives for the rounded corners*
1,1,$1+$1,$2,$3*
1,1,$1+$1,$4,$5*
1,1,$1+$1,$6,$7*
1,1,$1+$1,$8,$9*
0 Add four rect primitives between the rounded corners*
20,1,$1+$1,$2,$3,$4,$5,0*
20,1,$1+$1,$4,$5,$6,$7,0*
20,1,$1+$1,$6,$7,$8,$9,0*
20,1,$1+$1,$8,$9,$2,$3,0*%
G04 Aperture macros list end*
%ADD10C,0.100000*%
%ADD11C,0.150000*%
%ADD12C,0.254000*%
%ADD13C,0.098425*%
%ADD14C,0.152400*%
%ADD15C,0.508000*%
%ADD16C,0.200000*%
%ADD17C,0.127000*%
%ADD18C,0.250000*%
%ADD19C,1.574800*%
%ADD20R,1.346200X1.117600*%
%ADD21R,0.812800X1.346200*%
%ADD22R,0.950000X1.400000*%
%ADD23RoundRect,0.102000X-0.775000X-0.500000X0.775000X-0.500000X0.775000X0.500000X-0.775000X0.500000X0*%
%ADD24R,1.005599X1.199998*%
%ADD25R,1.066800X1.219200*%
%ADD26RoundRect,0.102000X0.710000X-0.500000X0.710000X0.500000X-0.710000X0.500000X-0.710000X-0.500000X0*%
%ADD27C,1.300000*%
%ADD28O,3.204000X1.704000*%
%ADD29O,3.404000X1.804000*%
%ADD30R,2.438400X0.990600*%
%ADD31R,0.990600X2.438400*%
%ADD32R,0.910000X1.390000*%
%ADD33R,0.803200X1.450000*%
%ADD34R,1.117600X1.346200*%
%ADD35RoundRect,0.102000X-1.440000X0.560000X-1.440000X-0.560000X1.440000X-0.560000X1.440000X0.560000X0*%
%ADD36C,3.580000*%
%ADD37RoundRect,0.102000X-0.460000X-0.690000X0.460000X-0.690000X0.460000X0.690000X-0.460000X0.690000X0*%
%ADD38R,1.199998X1.005599*%
%ADD39R,0.558800X1.219200*%
%ADD40R,1.450000X0.803200*%
%ADD41R,1.498600X0.889000*%
%ADD42R,0.889000X1.498600*%
%ADD43R,1.041400X1.041400*%
%ADD44RoundRect,0.085050X0.671950X0.481950X-0.671950X0.481950X-0.671950X-0.481950X0.671950X-0.481950X0*%
%ADD45RoundRect,0.113550X0.643450X1.608450X-0.643450X1.608450X-0.643450X-1.608450X0.643450X-1.608450X0*%
%ADD46R,1.000000X0.300000*%
%ADD47R,0.300000X1.000000*%
%ADD48R,3.350000X3.350000*%
G04 APERTURE END LIST*
D10*
X101303884Y-51262475D02*
X101303884Y-52071998D01*
X101303884Y-52071998D02*
X101351503Y-52167236D01*
X101351503Y-52167236D02*
X101399122Y-52214856D01*
X101399122Y-52214856D02*
X101494360Y-52262475D01*
X101494360Y-52262475D02*
X101684836Y-52262475D01*
X101684836Y-52262475D02*
X101780074Y-52214856D01*
X101780074Y-52214856D02*
X101827693Y-52167236D01*
X101827693Y-52167236D02*
X101875312Y-52071998D01*
X101875312Y-52071998D02*
X101875312Y-51262475D01*
X102922931Y-52167236D02*
X102875312Y-52214856D01*
X102875312Y-52214856D02*
X102732455Y-52262475D01*
X102732455Y-52262475D02*
X102637217Y-52262475D01*
X102637217Y-52262475D02*
X102494360Y-52214856D01*
X102494360Y-52214856D02*
X102399122Y-52119617D01*
X102399122Y-52119617D02*
X102351503Y-52024379D01*
X102351503Y-52024379D02*
X102303884Y-51833903D01*
X102303884Y-51833903D02*
X102303884Y-51691046D01*
X102303884Y-51691046D02*
X102351503Y-51500570D01*
X102351503Y-51500570D02*
X102399122Y-51405332D01*
X102399122Y-51405332D02*
X102494360Y-51310094D01*
X102494360Y-51310094D02*
X102637217Y-51262475D01*
X102637217Y-51262475D02*
X102732455Y-51262475D01*
X102732455Y-51262475D02*
X102875312Y-51310094D01*
X102875312Y-51310094D02*
X102922931Y-51357713D01*
X103684836Y-51738665D02*
X103351503Y-51738665D01*
X103351503Y-52262475D02*
X103351503Y-51262475D01*
X103351503Y-51262475D02*
X103827693Y-51262475D01*
X104970551Y-51738665D02*
X105303884Y-51738665D01*
X105446741Y-52262475D02*
X104970551Y-52262475D01*
X104970551Y-52262475D02*
X104970551Y-51262475D01*
X104970551Y-51262475D02*
X105446741Y-51262475D01*
X106446741Y-52167236D02*
X106399122Y-52214856D01*
X106399122Y-52214856D02*
X106256265Y-52262475D01*
X106256265Y-52262475D02*
X106161027Y-52262475D01*
X106161027Y-52262475D02*
X106018170Y-52214856D01*
X106018170Y-52214856D02*
X105922932Y-52119617D01*
X105922932Y-52119617D02*
X105875313Y-52024379D01*
X105875313Y-52024379D02*
X105827694Y-51833903D01*
X105827694Y-51833903D02*
X105827694Y-51691046D01*
X105827694Y-51691046D02*
X105875313Y-51500570D01*
X105875313Y-51500570D02*
X105922932Y-51405332D01*
X105922932Y-51405332D02*
X106018170Y-51310094D01*
X106018170Y-51310094D02*
X106161027Y-51262475D01*
X106161027Y-51262475D02*
X106256265Y-51262475D01*
X106256265Y-51262475D02*
X106399122Y-51310094D01*
X106399122Y-51310094D02*
X106446741Y-51357713D01*
X106875313Y-51738665D02*
X107208646Y-51738665D01*
X107351503Y-52262475D02*
X106875313Y-52262475D01*
X106875313Y-52262475D02*
X106875313Y-51262475D01*
X106875313Y-51262475D02*
X107351503Y-51262475D01*
X108494361Y-52214856D02*
X108637218Y-52262475D01*
X108637218Y-52262475D02*
X108875313Y-52262475D01*
X108875313Y-52262475D02*
X108970551Y-52214856D01*
X108970551Y-52214856D02*
X109018170Y-52167236D01*
X109018170Y-52167236D02*
X109065789Y-52071998D01*
X109065789Y-52071998D02*
X109065789Y-51976760D01*
X109065789Y-51976760D02*
X109018170Y-51881522D01*
X109018170Y-51881522D02*
X108970551Y-51833903D01*
X108970551Y-51833903D02*
X108875313Y-51786284D01*
X108875313Y-51786284D02*
X108684837Y-51738665D01*
X108684837Y-51738665D02*
X108589599Y-51691046D01*
X108589599Y-51691046D02*
X108541980Y-51643427D01*
X108541980Y-51643427D02*
X108494361Y-51548189D01*
X108494361Y-51548189D02*
X108494361Y-51452951D01*
X108494361Y-51452951D02*
X108541980Y-51357713D01*
X108541980Y-51357713D02*
X108589599Y-51310094D01*
X108589599Y-51310094D02*
X108684837Y-51262475D01*
X108684837Y-51262475D02*
X108922932Y-51262475D01*
X108922932Y-51262475D02*
X109065789Y-51310094D01*
X109494361Y-52262475D02*
X109494361Y-51262475D01*
X109494361Y-51262475D02*
X109732456Y-51262475D01*
X109732456Y-51262475D02*
X109875313Y-51310094D01*
X109875313Y-51310094D02*
X109970551Y-51405332D01*
X109970551Y-51405332D02*
X110018170Y-51500570D01*
X110018170Y-51500570D02*
X110065789Y-51691046D01*
X110065789Y-51691046D02*
X110065789Y-51833903D01*
X110065789Y-51833903D02*
X110018170Y-52024379D01*
X110018170Y-52024379D02*
X109970551Y-52119617D01*
X109970551Y-52119617D02*
X109875313Y-52214856D01*
X109875313Y-52214856D02*
X109732456Y-52262475D01*
X109732456Y-52262475D02*
X109494361Y-52262475D01*
X111780075Y-51310094D02*
X111684837Y-51262475D01*
X111684837Y-51262475D02*
X111541980Y-51262475D01*
X111541980Y-51262475D02*
X111399123Y-51310094D01*
X111399123Y-51310094D02*
X111303885Y-51405332D01*
X111303885Y-51405332D02*
X111256266Y-51500570D01*
X111256266Y-51500570D02*
X111208647Y-51691046D01*
X111208647Y-51691046D02*
X111208647Y-51833903D01*
X111208647Y-51833903D02*
X111256266Y-52024379D01*
X111256266Y-52024379D02*
X111303885Y-52119617D01*
X111303885Y-52119617D02*
X111399123Y-52214856D01*
X111399123Y-52214856D02*
X111541980Y-52262475D01*
X111541980Y-52262475D02*
X111637218Y-52262475D01*
X111637218Y-52262475D02*
X111780075Y-52214856D01*
X111780075Y-52214856D02*
X111827694Y-52167236D01*
X111827694Y-52167236D02*
X111827694Y-51833903D01*
X111827694Y-51833903D02*
X111637218Y-51833903D01*
X112256266Y-52262475D02*
X112256266Y-51595808D01*
X112256266Y-51786284D02*
X112303885Y-51691046D01*
X112303885Y-51691046D02*
X112351504Y-51643427D01*
X112351504Y-51643427D02*
X112446742Y-51595808D01*
X112446742Y-51595808D02*
X112541980Y-51595808D01*
X113018171Y-52262475D02*
X112922933Y-52214856D01*
X112922933Y-52214856D02*
X112875314Y-52167236D01*
X112875314Y-52167236D02*
X112827695Y-52071998D01*
X112827695Y-52071998D02*
X112827695Y-51786284D01*
X112827695Y-51786284D02*
X112875314Y-51691046D01*
X112875314Y-51691046D02*
X112922933Y-51643427D01*
X112922933Y-51643427D02*
X113018171Y-51595808D01*
X113018171Y-51595808D02*
X113161028Y-51595808D01*
X113161028Y-51595808D02*
X113256266Y-51643427D01*
X113256266Y-51643427D02*
X113303885Y-51691046D01*
X113303885Y-51691046D02*
X113351504Y-51786284D01*
X113351504Y-51786284D02*
X113351504Y-52071998D01*
X113351504Y-52071998D02*
X113303885Y-52167236D01*
X113303885Y-52167236D02*
X113256266Y-52214856D01*
X113256266Y-52214856D02*
X113161028Y-52262475D01*
X113161028Y-52262475D02*
X113018171Y-52262475D01*
X114208647Y-51595808D02*
X114208647Y-52262475D01*
X113780076Y-51595808D02*
X113780076Y-52119617D01*
X113780076Y-52119617D02*
X113827695Y-52214856D01*
X113827695Y-52214856D02*
X113922933Y-52262475D01*
X113922933Y-52262475D02*
X114065790Y-52262475D01*
X114065790Y-52262475D02*
X114161028Y-52214856D01*
X114161028Y-52214856D02*
X114208647Y-52167236D01*
X114684838Y-51595808D02*
X114684838Y-52595808D01*
X114684838Y-51643427D02*
X114780076Y-51595808D01*
X114780076Y-51595808D02*
X114970552Y-51595808D01*
X114970552Y-51595808D02*
X115065790Y-51643427D01*
X115065790Y-51643427D02*
X115113409Y-51691046D01*
X115113409Y-51691046D02*
X115161028Y-51786284D01*
X115161028Y-51786284D02*
X115161028Y-52071998D01*
X115161028Y-52071998D02*
X115113409Y-52167236D01*
X115113409Y-52167236D02*
X115065790Y-52214856D01*
X115065790Y-52214856D02*
X114970552Y-52262475D01*
X114970552Y-52262475D02*
X114780076Y-52262475D01*
X114780076Y-52262475D02*
X114684838Y-52214856D01*
X116875314Y-52262475D02*
X116303886Y-52262475D01*
X116589600Y-52262475D02*
X116589600Y-51262475D01*
X116589600Y-51262475D02*
X116494362Y-51405332D01*
X116494362Y-51405332D02*
X116399124Y-51500570D01*
X116399124Y-51500570D02*
X116303886Y-51548189D01*
X117208648Y-51262475D02*
X117875314Y-51262475D01*
X117875314Y-51262475D02*
X117446743Y-52262475D01*
X118256267Y-52167236D02*
X118303886Y-52214856D01*
X118303886Y-52214856D02*
X118256267Y-52262475D01*
X118256267Y-52262475D02*
X118208648Y-52214856D01*
X118208648Y-52214856D02*
X118256267Y-52167236D01*
X118256267Y-52167236D02*
X118256267Y-52262475D01*
X118256267Y-51643427D02*
X118303886Y-51691046D01*
X118303886Y-51691046D02*
X118256267Y-51738665D01*
X118256267Y-51738665D02*
X118208648Y-51691046D01*
X118208648Y-51691046D02*
X118256267Y-51643427D01*
X118256267Y-51643427D02*
X118256267Y-51738665D01*
X119684838Y-51786284D02*
X119684838Y-52262475D01*
X119351505Y-51262475D02*
X119684838Y-51786284D01*
X119684838Y-51786284D02*
X120018171Y-51262475D01*
X120256267Y-51595808D02*
X120494362Y-52262475D01*
X120494362Y-52262475D02*
X120732457Y-51595808D01*
X121541981Y-52262475D02*
X121541981Y-51738665D01*
X121541981Y-51738665D02*
X121494362Y-51643427D01*
X121494362Y-51643427D02*
X121399124Y-51595808D01*
X121399124Y-51595808D02*
X121208648Y-51595808D01*
X121208648Y-51595808D02*
X121113410Y-51643427D01*
X121541981Y-52214856D02*
X121446743Y-52262475D01*
X121446743Y-52262475D02*
X121208648Y-52262475D01*
X121208648Y-52262475D02*
X121113410Y-52214856D01*
X121113410Y-52214856D02*
X121065791Y-52119617D01*
X121065791Y-52119617D02*
X121065791Y-52024379D01*
X121065791Y-52024379D02*
X121113410Y-51929141D01*
X121113410Y-51929141D02*
X121208648Y-51881522D01*
X121208648Y-51881522D02*
X121446743Y-51881522D01*
X121446743Y-51881522D02*
X121541981Y-51833903D01*
X122018172Y-51595808D02*
X122018172Y-52262475D01*
X122018172Y-51691046D02*
X122065791Y-51643427D01*
X122065791Y-51643427D02*
X122161029Y-51595808D01*
X122161029Y-51595808D02*
X122303886Y-51595808D01*
X122303886Y-51595808D02*
X122399124Y-51643427D01*
X122399124Y-51643427D02*
X122446743Y-51738665D01*
X122446743Y-51738665D02*
X122446743Y-52262475D01*
X123684839Y-52262475D02*
X123684839Y-51262475D01*
X123684839Y-51262475D02*
X124065791Y-51262475D01*
X124065791Y-51262475D02*
X124161029Y-51310094D01*
X124161029Y-51310094D02*
X124208648Y-51357713D01*
X124208648Y-51357713D02*
X124256267Y-51452951D01*
X124256267Y-51452951D02*
X124256267Y-51595808D01*
X124256267Y-51595808D02*
X124208648Y-51691046D01*
X124208648Y-51691046D02*
X124161029Y-51738665D01*
X124161029Y-51738665D02*
X124065791Y-51786284D01*
X124065791Y-51786284D02*
X123684839Y-51786284D01*
X124684839Y-52262475D02*
X124684839Y-51595808D01*
X124684839Y-51262475D02*
X124637220Y-51310094D01*
X124637220Y-51310094D02*
X124684839Y-51357713D01*
X124684839Y-51357713D02*
X124732458Y-51310094D01*
X124732458Y-51310094D02*
X124684839Y-51262475D01*
X124684839Y-51262475D02*
X124684839Y-51357713D01*
X125541981Y-52214856D02*
X125446743Y-52262475D01*
X125446743Y-52262475D02*
X125256267Y-52262475D01*
X125256267Y-52262475D02*
X125161029Y-52214856D01*
X125161029Y-52214856D02*
X125113410Y-52119617D01*
X125113410Y-52119617D02*
X125113410Y-51738665D01*
X125113410Y-51738665D02*
X125161029Y-51643427D01*
X125161029Y-51643427D02*
X125256267Y-51595808D01*
X125256267Y-51595808D02*
X125446743Y-51595808D01*
X125446743Y-51595808D02*
X125541981Y-51643427D01*
X125541981Y-51643427D02*
X125589600Y-51738665D01*
X125589600Y-51738665D02*
X125589600Y-51833903D01*
X125589600Y-51833903D02*
X125113410Y-51929141D01*
X126018172Y-52262475D02*
X126018172Y-51595808D01*
X126018172Y-51786284D02*
X126065791Y-51691046D01*
X126065791Y-51691046D02*
X126113410Y-51643427D01*
X126113410Y-51643427D02*
X126208648Y-51595808D01*
X126208648Y-51595808D02*
X126303886Y-51595808D01*
X126637220Y-52262475D02*
X126637220Y-51595808D01*
X126637220Y-51786284D02*
X126684839Y-51691046D01*
X126684839Y-51691046D02*
X126732458Y-51643427D01*
X126732458Y-51643427D02*
X126827696Y-51595808D01*
X126827696Y-51595808D02*
X126922934Y-51595808D01*
X127637220Y-52214856D02*
X127541982Y-52262475D01*
X127541982Y-52262475D02*
X127351506Y-52262475D01*
X127351506Y-52262475D02*
X127256268Y-52214856D01*
X127256268Y-52214856D02*
X127208649Y-52119617D01*
X127208649Y-52119617D02*
X127208649Y-51738665D01*
X127208649Y-51738665D02*
X127256268Y-51643427D01*
X127256268Y-51643427D02*
X127351506Y-51595808D01*
X127351506Y-51595808D02*
X127541982Y-51595808D01*
X127541982Y-51595808D02*
X127637220Y-51643427D01*
X127637220Y-51643427D02*
X127684839Y-51738665D01*
X127684839Y-51738665D02*
X127684839Y-51833903D01*
X127684839Y-51833903D02*
X127208649Y-51929141D01*
X128161030Y-52214856D02*
X128161030Y-52262475D01*
X128161030Y-52262475D02*
X128113411Y-52357713D01*
X128113411Y-52357713D02*
X128065792Y-52405332D01*
X129303887Y-51976760D02*
X129780077Y-51976760D01*
X129208649Y-52262475D02*
X129541982Y-51262475D01*
X129541982Y-51262475D02*
X129875315Y-52262475D01*
X130351506Y-52262475D02*
X130256268Y-52214856D01*
X130256268Y-52214856D02*
X130208649Y-52119617D01*
X130208649Y-52119617D02*
X130208649Y-51262475D01*
X131113411Y-52214856D02*
X131018173Y-52262475D01*
X131018173Y-52262475D02*
X130827697Y-52262475D01*
X130827697Y-52262475D02*
X130732459Y-52214856D01*
X130732459Y-52214856D02*
X130684840Y-52119617D01*
X130684840Y-52119617D02*
X130684840Y-51738665D01*
X130684840Y-51738665D02*
X130732459Y-51643427D01*
X130732459Y-51643427D02*
X130827697Y-51595808D01*
X130827697Y-51595808D02*
X131018173Y-51595808D01*
X131018173Y-51595808D02*
X131113411Y-51643427D01*
X131113411Y-51643427D02*
X131161030Y-51738665D01*
X131161030Y-51738665D02*
X131161030Y-51833903D01*
X131161030Y-51833903D02*
X130684840Y-51929141D01*
X132018173Y-52214856D02*
X131922935Y-52262475D01*
X131922935Y-52262475D02*
X131732459Y-52262475D01*
X131732459Y-52262475D02*
X131637221Y-52214856D01*
X131637221Y-52214856D02*
X131589602Y-52167236D01*
X131589602Y-52167236D02*
X131541983Y-52071998D01*
X131541983Y-52071998D02*
X131541983Y-51786284D01*
X131541983Y-51786284D02*
X131589602Y-51691046D01*
X131589602Y-51691046D02*
X131637221Y-51643427D01*
X131637221Y-51643427D02*
X131732459Y-51595808D01*
X131732459Y-51595808D02*
X131922935Y-51595808D01*
X131922935Y-51595808D02*
X132018173Y-51643427D01*
X133208650Y-52262475D02*
X133208650Y-51262475D01*
X133208650Y-51262475D02*
X133446745Y-51262475D01*
X133446745Y-51262475D02*
X133589602Y-51310094D01*
X133589602Y-51310094D02*
X133684840Y-51405332D01*
X133684840Y-51405332D02*
X133732459Y-51500570D01*
X133732459Y-51500570D02*
X133780078Y-51691046D01*
X133780078Y-51691046D02*
X133780078Y-51833903D01*
X133780078Y-51833903D02*
X133732459Y-52024379D01*
X133732459Y-52024379D02*
X133684840Y-52119617D01*
X133684840Y-52119617D02*
X133589602Y-52214856D01*
X133589602Y-52214856D02*
X133446745Y-52262475D01*
X133446745Y-52262475D02*
X133208650Y-52262475D01*
X134637221Y-52262475D02*
X134637221Y-51738665D01*
X134637221Y-51738665D02*
X134589602Y-51643427D01*
X134589602Y-51643427D02*
X134494364Y-51595808D01*
X134494364Y-51595808D02*
X134303888Y-51595808D01*
X134303888Y-51595808D02*
X134208650Y-51643427D01*
X134637221Y-52214856D02*
X134541983Y-52262475D01*
X134541983Y-52262475D02*
X134303888Y-52262475D01*
X134303888Y-52262475D02*
X134208650Y-52214856D01*
X134208650Y-52214856D02*
X134161031Y-52119617D01*
X134161031Y-52119617D02*
X134161031Y-52024379D01*
X134161031Y-52024379D02*
X134208650Y-51929141D01*
X134208650Y-51929141D02*
X134303888Y-51881522D01*
X134303888Y-51881522D02*
X134541983Y-51881522D01*
X134541983Y-51881522D02*
X134637221Y-51833903D01*
X135113412Y-52262475D02*
X135113412Y-51595808D01*
X135113412Y-51691046D02*
X135161031Y-51643427D01*
X135161031Y-51643427D02*
X135256269Y-51595808D01*
X135256269Y-51595808D02*
X135399126Y-51595808D01*
X135399126Y-51595808D02*
X135494364Y-51643427D01*
X135494364Y-51643427D02*
X135541983Y-51738665D01*
X135541983Y-51738665D02*
X135541983Y-52262475D01*
X135541983Y-51738665D02*
X135589602Y-51643427D01*
X135589602Y-51643427D02*
X135684840Y-51595808D01*
X135684840Y-51595808D02*
X135827697Y-51595808D01*
X135827697Y-51595808D02*
X135922936Y-51643427D01*
X135922936Y-51643427D02*
X135970555Y-51738665D01*
X135970555Y-51738665D02*
X135970555Y-52262475D01*
X136446745Y-52262475D02*
X136446745Y-51595808D01*
X136446745Y-51262475D02*
X136399126Y-51310094D01*
X136399126Y-51310094D02*
X136446745Y-51357713D01*
X136446745Y-51357713D02*
X136494364Y-51310094D01*
X136494364Y-51310094D02*
X136446745Y-51262475D01*
X136446745Y-51262475D02*
X136446745Y-51357713D01*
X137303887Y-52214856D02*
X137208649Y-52262475D01*
X137208649Y-52262475D02*
X137018173Y-52262475D01*
X137018173Y-52262475D02*
X136922935Y-52214856D01*
X136922935Y-52214856D02*
X136875316Y-52119617D01*
X136875316Y-52119617D02*
X136875316Y-51738665D01*
X136875316Y-51738665D02*
X136922935Y-51643427D01*
X136922935Y-51643427D02*
X137018173Y-51595808D01*
X137018173Y-51595808D02*
X137208649Y-51595808D01*
X137208649Y-51595808D02*
X137303887Y-51643427D01*
X137303887Y-51643427D02*
X137351506Y-51738665D01*
X137351506Y-51738665D02*
X137351506Y-51833903D01*
X137351506Y-51833903D02*
X136875316Y-51929141D01*
X137780078Y-51595808D02*
X137780078Y-52262475D01*
X137780078Y-51691046D02*
X137827697Y-51643427D01*
X137827697Y-51643427D02*
X137922935Y-51595808D01*
X137922935Y-51595808D02*
X138065792Y-51595808D01*
X138065792Y-51595808D02*
X138161030Y-51643427D01*
X138161030Y-51643427D02*
X138208649Y-51738665D01*
X138208649Y-51738665D02*
X138208649Y-52262475D01*
X138732459Y-52214856D02*
X138732459Y-52262475D01*
X138732459Y-52262475D02*
X138684840Y-52357713D01*
X138684840Y-52357713D02*
X138637221Y-52405332D01*
X101256265Y-53586704D02*
X101732455Y-53586704D01*
X101161027Y-53872419D02*
X101494360Y-52872419D01*
X101494360Y-52872419D02*
X101827693Y-53872419D01*
X102161027Y-53205752D02*
X102161027Y-53872419D01*
X102161027Y-53300990D02*
X102208646Y-53253371D01*
X102208646Y-53253371D02*
X102303884Y-53205752D01*
X102303884Y-53205752D02*
X102446741Y-53205752D01*
X102446741Y-53205752D02*
X102541979Y-53253371D01*
X102541979Y-53253371D02*
X102589598Y-53348609D01*
X102589598Y-53348609D02*
X102589598Y-53872419D01*
X103494360Y-53872419D02*
X103494360Y-52872419D01*
X103494360Y-53824800D02*
X103399122Y-53872419D01*
X103399122Y-53872419D02*
X103208646Y-53872419D01*
X103208646Y-53872419D02*
X103113408Y-53824800D01*
X103113408Y-53824800D02*
X103065789Y-53777180D01*
X103065789Y-53777180D02*
X103018170Y-53681942D01*
X103018170Y-53681942D02*
X103018170Y-53396228D01*
X103018170Y-53396228D02*
X103065789Y-53300990D01*
X103065789Y-53300990D02*
X103113408Y-53253371D01*
X103113408Y-53253371D02*
X103208646Y-53205752D01*
X103208646Y-53205752D02*
X103399122Y-53205752D01*
X103399122Y-53205752D02*
X103494360Y-53253371D01*
X103970551Y-53872419D02*
X103970551Y-53205752D01*
X103970551Y-53396228D02*
X104018170Y-53300990D01*
X104018170Y-53300990D02*
X104065789Y-53253371D01*
X104065789Y-53253371D02*
X104161027Y-53205752D01*
X104161027Y-53205752D02*
X104256265Y-53205752D01*
X104970551Y-53824800D02*
X104875313Y-53872419D01*
X104875313Y-53872419D02*
X104684837Y-53872419D01*
X104684837Y-53872419D02*
X104589599Y-53824800D01*
X104589599Y-53824800D02*
X104541980Y-53729561D01*
X104541980Y-53729561D02*
X104541980Y-53348609D01*
X104541980Y-53348609D02*
X104589599Y-53253371D01*
X104589599Y-53253371D02*
X104684837Y-53205752D01*
X104684837Y-53205752D02*
X104875313Y-53205752D01*
X104875313Y-53205752D02*
X104970551Y-53253371D01*
X104970551Y-53253371D02*
X105018170Y-53348609D01*
X105018170Y-53348609D02*
X105018170Y-53443847D01*
X105018170Y-53443847D02*
X104541980Y-53539085D01*
X105351504Y-53205752D02*
X105541980Y-53872419D01*
X105541980Y-53872419D02*
X105732456Y-53396228D01*
X105732456Y-53396228D02*
X105922932Y-53872419D01*
X105922932Y-53872419D02*
X106113408Y-53205752D01*
X107589599Y-53348609D02*
X107256266Y-53348609D01*
X107256266Y-53872419D02*
X107256266Y-52872419D01*
X107256266Y-52872419D02*
X107732456Y-52872419D01*
X108541980Y-53205752D02*
X108541980Y-53872419D01*
X108113409Y-53205752D02*
X108113409Y-53729561D01*
X108113409Y-53729561D02*
X108161028Y-53824800D01*
X108161028Y-53824800D02*
X108256266Y-53872419D01*
X108256266Y-53872419D02*
X108399123Y-53872419D01*
X108399123Y-53872419D02*
X108494361Y-53824800D01*
X108494361Y-53824800D02*
X108541980Y-53777180D01*
X109446742Y-53205752D02*
X109446742Y-54015276D01*
X109446742Y-54015276D02*
X109399123Y-54110514D01*
X109399123Y-54110514D02*
X109351504Y-54158133D01*
X109351504Y-54158133D02*
X109256266Y-54205752D01*
X109256266Y-54205752D02*
X109113409Y-54205752D01*
X109113409Y-54205752D02*
X109018171Y-54158133D01*
X109446742Y-53824800D02*
X109351504Y-53872419D01*
X109351504Y-53872419D02*
X109161028Y-53872419D01*
X109161028Y-53872419D02*
X109065790Y-53824800D01*
X109065790Y-53824800D02*
X109018171Y-53777180D01*
X109018171Y-53777180D02*
X108970552Y-53681942D01*
X108970552Y-53681942D02*
X108970552Y-53396228D01*
X108970552Y-53396228D02*
X109018171Y-53300990D01*
X109018171Y-53300990D02*
X109065790Y-53253371D01*
X109065790Y-53253371D02*
X109161028Y-53205752D01*
X109161028Y-53205752D02*
X109351504Y-53205752D01*
X109351504Y-53205752D02*
X109446742Y-53253371D01*
X110351504Y-53872419D02*
X110351504Y-53348609D01*
X110351504Y-53348609D02*
X110303885Y-53253371D01*
X110303885Y-53253371D02*
X110208647Y-53205752D01*
X110208647Y-53205752D02*
X110018171Y-53205752D01*
X110018171Y-53205752D02*
X109922933Y-53253371D01*
X110351504Y-53824800D02*
X110256266Y-53872419D01*
X110256266Y-53872419D02*
X110018171Y-53872419D01*
X110018171Y-53872419D02*
X109922933Y-53824800D01*
X109922933Y-53824800D02*
X109875314Y-53729561D01*
X109875314Y-53729561D02*
X109875314Y-53634323D01*
X109875314Y-53634323D02*
X109922933Y-53539085D01*
X109922933Y-53539085D02*
X110018171Y-53491466D01*
X110018171Y-53491466D02*
X110256266Y-53491466D01*
X110256266Y-53491466D02*
X110351504Y-53443847D01*
X110684838Y-53205752D02*
X111065790Y-53205752D01*
X110827695Y-52872419D02*
X110827695Y-53729561D01*
X110827695Y-53729561D02*
X110875314Y-53824800D01*
X110875314Y-53824800D02*
X110970552Y-53872419D01*
X110970552Y-53872419D02*
X111065790Y-53872419D01*
X111780076Y-53824800D02*
X111684838Y-53872419D01*
X111684838Y-53872419D02*
X111494362Y-53872419D01*
X111494362Y-53872419D02*
X111399124Y-53824800D01*
X111399124Y-53824800D02*
X111351505Y-53729561D01*
X111351505Y-53729561D02*
X111351505Y-53348609D01*
X111351505Y-53348609D02*
X111399124Y-53253371D01*
X111399124Y-53253371D02*
X111494362Y-53205752D01*
X111494362Y-53205752D02*
X111684838Y-53205752D01*
X111684838Y-53205752D02*
X111780076Y-53253371D01*
X111780076Y-53253371D02*
X111827695Y-53348609D01*
X111827695Y-53348609D02*
X111827695Y-53443847D01*
X111827695Y-53443847D02*
X111351505Y-53539085D01*
X112303886Y-53824800D02*
X112303886Y-53872419D01*
X112303886Y-53872419D02*
X112256267Y-53967657D01*
X112256267Y-53967657D02*
X112208648Y-54015276D01*
X113494362Y-53348609D02*
X113827695Y-53348609D01*
X113970552Y-53872419D02*
X113494362Y-53872419D01*
X113494362Y-53872419D02*
X113494362Y-52872419D01*
X113494362Y-52872419D02*
X113970552Y-52872419D01*
X114399124Y-53872419D02*
X114399124Y-53205752D01*
X114399124Y-53396228D02*
X114446743Y-53300990D01*
X114446743Y-53300990D02*
X114494362Y-53253371D01*
X114494362Y-53253371D02*
X114589600Y-53205752D01*
X114589600Y-53205752D02*
X114684838Y-53205752D01*
X115018172Y-53872419D02*
X115018172Y-53205752D01*
X115018172Y-52872419D02*
X114970553Y-52920038D01*
X114970553Y-52920038D02*
X115018172Y-52967657D01*
X115018172Y-52967657D02*
X115065791Y-52920038D01*
X115065791Y-52920038D02*
X115018172Y-52872419D01*
X115018172Y-52872419D02*
X115018172Y-52967657D01*
X115494362Y-53872419D02*
X115494362Y-52872419D01*
X115589600Y-53491466D02*
X115875314Y-53872419D01*
X115875314Y-53205752D02*
X115494362Y-53586704D01*
X117399124Y-53348609D02*
X117541981Y-53396228D01*
X117541981Y-53396228D02*
X117589600Y-53443847D01*
X117589600Y-53443847D02*
X117637219Y-53539085D01*
X117637219Y-53539085D02*
X117637219Y-53681942D01*
X117637219Y-53681942D02*
X117589600Y-53777180D01*
X117589600Y-53777180D02*
X117541981Y-53824800D01*
X117541981Y-53824800D02*
X117446743Y-53872419D01*
X117446743Y-53872419D02*
X117065791Y-53872419D01*
X117065791Y-53872419D02*
X117065791Y-52872419D01*
X117065791Y-52872419D02*
X117399124Y-52872419D01*
X117399124Y-52872419D02*
X117494362Y-52920038D01*
X117494362Y-52920038D02*
X117541981Y-52967657D01*
X117541981Y-52967657D02*
X117589600Y-53062895D01*
X117589600Y-53062895D02*
X117589600Y-53158133D01*
X117589600Y-53158133D02*
X117541981Y-53253371D01*
X117541981Y-53253371D02*
X117494362Y-53300990D01*
X117494362Y-53300990D02*
X117399124Y-53348609D01*
X117399124Y-53348609D02*
X117065791Y-53348609D01*
X118494362Y-53872419D02*
X118494362Y-53348609D01*
X118494362Y-53348609D02*
X118446743Y-53253371D01*
X118446743Y-53253371D02*
X118351505Y-53205752D01*
X118351505Y-53205752D02*
X118161029Y-53205752D01*
X118161029Y-53205752D02*
X118065791Y-53253371D01*
X118494362Y-53824800D02*
X118399124Y-53872419D01*
X118399124Y-53872419D02*
X118161029Y-53872419D01*
X118161029Y-53872419D02*
X118065791Y-53824800D01*
X118065791Y-53824800D02*
X118018172Y-53729561D01*
X118018172Y-53729561D02*
X118018172Y-53634323D01*
X118018172Y-53634323D02*
X118065791Y-53539085D01*
X118065791Y-53539085D02*
X118161029Y-53491466D01*
X118161029Y-53491466D02*
X118399124Y-53491466D01*
X118399124Y-53491466D02*
X118494362Y-53443847D01*
X118970553Y-53872419D02*
X118970553Y-53205752D01*
X118970553Y-53396228D02*
X119018172Y-53300990D01*
X119018172Y-53300990D02*
X119065791Y-53253371D01*
X119065791Y-53253371D02*
X119161029Y-53205752D01*
X119161029Y-53205752D02*
X119256267Y-53205752D01*
X120018172Y-53824800D02*
X119922934Y-53872419D01*
X119922934Y-53872419D02*
X119732458Y-53872419D01*
X119732458Y-53872419D02*
X119637220Y-53824800D01*
X119637220Y-53824800D02*
X119589601Y-53777180D01*
X119589601Y-53777180D02*
X119541982Y-53681942D01*
X119541982Y-53681942D02*
X119541982Y-53396228D01*
X119541982Y-53396228D02*
X119589601Y-53300990D01*
X119589601Y-53300990D02*
X119637220Y-53253371D01*
X119637220Y-53253371D02*
X119732458Y-53205752D01*
X119732458Y-53205752D02*
X119922934Y-53205752D01*
X119922934Y-53205752D02*
X120018172Y-53253371D01*
X120827696Y-53824800D02*
X120732458Y-53872419D01*
X120732458Y-53872419D02*
X120541982Y-53872419D01*
X120541982Y-53872419D02*
X120446744Y-53824800D01*
X120446744Y-53824800D02*
X120399125Y-53729561D01*
X120399125Y-53729561D02*
X120399125Y-53348609D01*
X120399125Y-53348609D02*
X120446744Y-53253371D01*
X120446744Y-53253371D02*
X120541982Y-53205752D01*
X120541982Y-53205752D02*
X120732458Y-53205752D01*
X120732458Y-53205752D02*
X120827696Y-53253371D01*
X120827696Y-53253371D02*
X120875315Y-53348609D01*
X120875315Y-53348609D02*
X120875315Y-53443847D01*
X120875315Y-53443847D02*
X120399125Y-53539085D01*
X121446744Y-53872419D02*
X121351506Y-53824800D01*
X121351506Y-53824800D02*
X121303887Y-53729561D01*
X121303887Y-53729561D02*
X121303887Y-52872419D01*
X121970554Y-53872419D02*
X121875316Y-53824800D01*
X121875316Y-53824800D02*
X121827697Y-53777180D01*
X121827697Y-53777180D02*
X121780078Y-53681942D01*
X121780078Y-53681942D02*
X121780078Y-53396228D01*
X121780078Y-53396228D02*
X121827697Y-53300990D01*
X121827697Y-53300990D02*
X121875316Y-53253371D01*
X121875316Y-53253371D02*
X121970554Y-53205752D01*
X121970554Y-53205752D02*
X122113411Y-53205752D01*
X122113411Y-53205752D02*
X122208649Y-53253371D01*
X122208649Y-53253371D02*
X122256268Y-53300990D01*
X122256268Y-53300990D02*
X122303887Y-53396228D01*
X122303887Y-53396228D02*
X122303887Y-53681942D01*
X122303887Y-53681942D02*
X122256268Y-53777180D01*
X122256268Y-53777180D02*
X122208649Y-53824800D01*
X122208649Y-53824800D02*
X122113411Y-53872419D01*
X122113411Y-53872419D02*
X121970554Y-53872419D01*
X130756265Y-99372419D02*
X130756265Y-99562895D01*
X131137217Y-99372419D02*
X131137217Y-99562895D01*
X131899122Y-99848609D02*
X131565789Y-99848609D01*
X131565789Y-100372419D02*
X131565789Y-99372419D01*
X131565789Y-99372419D02*
X132041979Y-99372419D01*
X132565789Y-100372419D02*
X132470551Y-100324800D01*
X132470551Y-100324800D02*
X132422932Y-100277180D01*
X132422932Y-100277180D02*
X132375313Y-100181942D01*
X132375313Y-100181942D02*
X132375313Y-99896228D01*
X132375313Y-99896228D02*
X132422932Y-99800990D01*
X132422932Y-99800990D02*
X132470551Y-99753371D01*
X132470551Y-99753371D02*
X132565789Y-99705752D01*
X132565789Y-99705752D02*
X132708646Y-99705752D01*
X132708646Y-99705752D02*
X132803884Y-99753371D01*
X132803884Y-99753371D02*
X132851503Y-99800990D01*
X132851503Y-99800990D02*
X132899122Y-99896228D01*
X132899122Y-99896228D02*
X132899122Y-100181942D01*
X132899122Y-100181942D02*
X132851503Y-100277180D01*
X132851503Y-100277180D02*
X132803884Y-100324800D01*
X132803884Y-100324800D02*
X132708646Y-100372419D01*
X132708646Y-100372419D02*
X132565789Y-100372419D01*
X133756265Y-99705752D02*
X133756265Y-100372419D01*
X133327694Y-99705752D02*
X133327694Y-100229561D01*
X133327694Y-100229561D02*
X133375313Y-100324800D01*
X133375313Y-100324800D02*
X133470551Y-100372419D01*
X133470551Y-100372419D02*
X133613408Y-100372419D01*
X133613408Y-100372419D02*
X133708646Y-100324800D01*
X133708646Y-100324800D02*
X133756265Y-100277180D01*
X134232456Y-100372419D02*
X134232456Y-99705752D01*
X134232456Y-99896228D02*
X134280075Y-99800990D01*
X134280075Y-99800990D02*
X134327694Y-99753371D01*
X134327694Y-99753371D02*
X134422932Y-99705752D01*
X134422932Y-99705752D02*
X134518170Y-99705752D01*
X135518171Y-99705752D02*
X135756266Y-100372419D01*
X135994361Y-99705752D02*
X135756266Y-100372419D01*
X135756266Y-100372419D02*
X135661028Y-100610514D01*
X135661028Y-100610514D02*
X135613409Y-100658133D01*
X135613409Y-100658133D02*
X135518171Y-100705752D01*
X136756266Y-100324800D02*
X136661028Y-100372419D01*
X136661028Y-100372419D02*
X136470552Y-100372419D01*
X136470552Y-100372419D02*
X136375314Y-100324800D01*
X136375314Y-100324800D02*
X136327695Y-100229561D01*
X136327695Y-100229561D02*
X136327695Y-99848609D01*
X136327695Y-99848609D02*
X136375314Y-99753371D01*
X136375314Y-99753371D02*
X136470552Y-99705752D01*
X136470552Y-99705752D02*
X136661028Y-99705752D01*
X136661028Y-99705752D02*
X136756266Y-99753371D01*
X136756266Y-99753371D02*
X136803885Y-99848609D01*
X136803885Y-99848609D02*
X136803885Y-99943847D01*
X136803885Y-99943847D02*
X136327695Y-100039085D01*
X137661028Y-100372419D02*
X137661028Y-99848609D01*
X137661028Y-99848609D02*
X137613409Y-99753371D01*
X137613409Y-99753371D02*
X137518171Y-99705752D01*
X137518171Y-99705752D02*
X137327695Y-99705752D01*
X137327695Y-99705752D02*
X137232457Y-99753371D01*
X137661028Y-100324800D02*
X137565790Y-100372419D01*
X137565790Y-100372419D02*
X137327695Y-100372419D01*
X137327695Y-100372419D02*
X137232457Y-100324800D01*
X137232457Y-100324800D02*
X137184838Y-100229561D01*
X137184838Y-100229561D02*
X137184838Y-100134323D01*
X137184838Y-100134323D02*
X137232457Y-100039085D01*
X137232457Y-100039085D02*
X137327695Y-99991466D01*
X137327695Y-99991466D02*
X137565790Y-99991466D01*
X137565790Y-99991466D02*
X137661028Y-99943847D01*
X138137219Y-100372419D02*
X138137219Y-99705752D01*
X138137219Y-99896228D02*
X138184838Y-99800990D01*
X138184838Y-99800990D02*
X138232457Y-99753371D01*
X138232457Y-99753371D02*
X138327695Y-99705752D01*
X138327695Y-99705752D02*
X138422933Y-99705752D01*
X138708648Y-100324800D02*
X138803886Y-100372419D01*
X138803886Y-100372419D02*
X138994362Y-100372419D01*
X138994362Y-100372419D02*
X139089600Y-100324800D01*
X139089600Y-100324800D02*
X139137219Y-100229561D01*
X139137219Y-100229561D02*
X139137219Y-100181942D01*
X139137219Y-100181942D02*
X139089600Y-100086704D01*
X139089600Y-100086704D02*
X138994362Y-100039085D01*
X138994362Y-100039085D02*
X138851505Y-100039085D01*
X138851505Y-100039085D02*
X138756267Y-99991466D01*
X138756267Y-99991466D02*
X138708648Y-99896228D01*
X138708648Y-99896228D02*
X138708648Y-99848609D01*
X138708648Y-99848609D02*
X138756267Y-99753371D01*
X138756267Y-99753371D02*
X138851505Y-99705752D01*
X138851505Y-99705752D02*
X138994362Y-99705752D01*
X138994362Y-99705752D02*
X139089600Y-99753371D01*
X140184839Y-99705752D02*
X140565791Y-99705752D01*
X140327696Y-100372419D02*
X140327696Y-99515276D01*
X140327696Y-99515276D02*
X140375315Y-99420038D01*
X140375315Y-99420038D02*
X140470553Y-99372419D01*
X140470553Y-99372419D02*
X140565791Y-99372419D01*
X141041982Y-100372419D02*
X140946744Y-100324800D01*
X140946744Y-100324800D02*
X140899125Y-100277180D01*
X140899125Y-100277180D02*
X140851506Y-100181942D01*
X140851506Y-100181942D02*
X140851506Y-99896228D01*
X140851506Y-99896228D02*
X140899125Y-99800990D01*
X140899125Y-99800990D02*
X140946744Y-99753371D01*
X140946744Y-99753371D02*
X141041982Y-99705752D01*
X141041982Y-99705752D02*
X141184839Y-99705752D01*
X141184839Y-99705752D02*
X141280077Y-99753371D01*
X141280077Y-99753371D02*
X141327696Y-99800990D01*
X141327696Y-99800990D02*
X141375315Y-99896228D01*
X141375315Y-99896228D02*
X141375315Y-100181942D01*
X141375315Y-100181942D02*
X141327696Y-100277180D01*
X141327696Y-100277180D02*
X141280077Y-100324800D01*
X141280077Y-100324800D02*
X141184839Y-100372419D01*
X141184839Y-100372419D02*
X141041982Y-100372419D01*
X141803887Y-100372419D02*
X141803887Y-99705752D01*
X141803887Y-99896228D02*
X141851506Y-99800990D01*
X141851506Y-99800990D02*
X141899125Y-99753371D01*
X141899125Y-99753371D02*
X141994363Y-99705752D01*
X141994363Y-99705752D02*
X142089601Y-99705752D01*
X143041983Y-99705752D02*
X143422935Y-99705752D01*
X143184840Y-99372419D02*
X143184840Y-100229561D01*
X143184840Y-100229561D02*
X143232459Y-100324800D01*
X143232459Y-100324800D02*
X143327697Y-100372419D01*
X143327697Y-100372419D02*
X143422935Y-100372419D01*
X143756269Y-100372419D02*
X143756269Y-99372419D01*
X144184840Y-100372419D02*
X144184840Y-99848609D01*
X144184840Y-99848609D02*
X144137221Y-99753371D01*
X144137221Y-99753371D02*
X144041983Y-99705752D01*
X144041983Y-99705752D02*
X143899126Y-99705752D01*
X143899126Y-99705752D02*
X143803888Y-99753371D01*
X143803888Y-99753371D02*
X143756269Y-99800990D01*
X144661031Y-100372419D02*
X144661031Y-99705752D01*
X144661031Y-99372419D02*
X144613412Y-99420038D01*
X144613412Y-99420038D02*
X144661031Y-99467657D01*
X144661031Y-99467657D02*
X144708650Y-99420038D01*
X144708650Y-99420038D02*
X144661031Y-99372419D01*
X144661031Y-99372419D02*
X144661031Y-99467657D01*
X145089602Y-100324800D02*
X145184840Y-100372419D01*
X145184840Y-100372419D02*
X145375316Y-100372419D01*
X145375316Y-100372419D02*
X145470554Y-100324800D01*
X145470554Y-100324800D02*
X145518173Y-100229561D01*
X145518173Y-100229561D02*
X145518173Y-100181942D01*
X145518173Y-100181942D02*
X145470554Y-100086704D01*
X145470554Y-100086704D02*
X145375316Y-100039085D01*
X145375316Y-100039085D02*
X145232459Y-100039085D01*
X145232459Y-100039085D02*
X145137221Y-99991466D01*
X145137221Y-99991466D02*
X145089602Y-99896228D01*
X145089602Y-99896228D02*
X145089602Y-99848609D01*
X145089602Y-99848609D02*
X145137221Y-99753371D01*
X145137221Y-99753371D02*
X145232459Y-99705752D01*
X145232459Y-99705752D02*
X145375316Y-99705752D01*
X145375316Y-99705752D02*
X145470554Y-99753371D01*
X146089602Y-100277180D02*
X146137221Y-100324800D01*
X146137221Y-100324800D02*
X146089602Y-100372419D01*
X146089602Y-100372419D02*
X146041983Y-100324800D01*
X146041983Y-100324800D02*
X146089602Y-100277180D01*
X146089602Y-100277180D02*
X146089602Y-100372419D01*
X145899126Y-99420038D02*
X145994364Y-99372419D01*
X145994364Y-99372419D02*
X146232459Y-99372419D01*
X146232459Y-99372419D02*
X146327697Y-99420038D01*
X146327697Y-99420038D02*
X146375316Y-99515276D01*
X146375316Y-99515276D02*
X146375316Y-99610514D01*
X146375316Y-99610514D02*
X146327697Y-99705752D01*
X146327697Y-99705752D02*
X146280078Y-99753371D01*
X146280078Y-99753371D02*
X146184840Y-99800990D01*
X146184840Y-99800990D02*
X146137221Y-99848609D01*
X146137221Y-99848609D02*
X146089602Y-99943847D01*
X146089602Y-99943847D02*
X146089602Y-99991466D01*
X146756269Y-99372419D02*
X146756269Y-99562895D01*
X147137221Y-99372419D02*
X147137221Y-99562895D01*
X195824800Y-102743734D02*
X195872419Y-102600877D01*
X195872419Y-102600877D02*
X195872419Y-102362782D01*
X195872419Y-102362782D02*
X195824800Y-102267544D01*
X195824800Y-102267544D02*
X195777180Y-102219925D01*
X195777180Y-102219925D02*
X195681942Y-102172306D01*
X195681942Y-102172306D02*
X195586704Y-102172306D01*
X195586704Y-102172306D02*
X195491466Y-102219925D01*
X195491466Y-102219925D02*
X195443847Y-102267544D01*
X195443847Y-102267544D02*
X195396228Y-102362782D01*
X195396228Y-102362782D02*
X195348609Y-102553258D01*
X195348609Y-102553258D02*
X195300990Y-102648496D01*
X195300990Y-102648496D02*
X195253371Y-102696115D01*
X195253371Y-102696115D02*
X195158133Y-102743734D01*
X195158133Y-102743734D02*
X195062895Y-102743734D01*
X195062895Y-102743734D02*
X194967657Y-102696115D01*
X194967657Y-102696115D02*
X194920038Y-102648496D01*
X194920038Y-102648496D02*
X194872419Y-102553258D01*
X194872419Y-102553258D02*
X194872419Y-102315163D01*
X194872419Y-102315163D02*
X194920038Y-102172306D01*
X195824800Y-101362782D02*
X195872419Y-101458020D01*
X195872419Y-101458020D02*
X195872419Y-101648496D01*
X195872419Y-101648496D02*
X195824800Y-101743734D01*
X195824800Y-101743734D02*
X195729561Y-101791353D01*
X195729561Y-101791353D02*
X195348609Y-101791353D01*
X195348609Y-101791353D02*
X195253371Y-101743734D01*
X195253371Y-101743734D02*
X195205752Y-101648496D01*
X195205752Y-101648496D02*
X195205752Y-101458020D01*
X195205752Y-101458020D02*
X195253371Y-101362782D01*
X195253371Y-101362782D02*
X195348609Y-101315163D01*
X195348609Y-101315163D02*
X195443847Y-101315163D01*
X195443847Y-101315163D02*
X195539085Y-101791353D01*
X195824800Y-100505639D02*
X195872419Y-100600877D01*
X195872419Y-100600877D02*
X195872419Y-100791353D01*
X195872419Y-100791353D02*
X195824800Y-100886591D01*
X195824800Y-100886591D02*
X195729561Y-100934210D01*
X195729561Y-100934210D02*
X195348609Y-100934210D01*
X195348609Y-100934210D02*
X195253371Y-100886591D01*
X195253371Y-100886591D02*
X195205752Y-100791353D01*
X195205752Y-100791353D02*
X195205752Y-100600877D01*
X195205752Y-100600877D02*
X195253371Y-100505639D01*
X195253371Y-100505639D02*
X195348609Y-100458020D01*
X195348609Y-100458020D02*
X195443847Y-100458020D01*
X195443847Y-100458020D02*
X195539085Y-100934210D01*
X195824800Y-99315162D02*
X195872419Y-99172305D01*
X195872419Y-99172305D02*
X195872419Y-98934210D01*
X195872419Y-98934210D02*
X195824800Y-98838972D01*
X195824800Y-98838972D02*
X195777180Y-98791353D01*
X195777180Y-98791353D02*
X195681942Y-98743734D01*
X195681942Y-98743734D02*
X195586704Y-98743734D01*
X195586704Y-98743734D02*
X195491466Y-98791353D01*
X195491466Y-98791353D02*
X195443847Y-98838972D01*
X195443847Y-98838972D02*
X195396228Y-98934210D01*
X195396228Y-98934210D02*
X195348609Y-99124686D01*
X195348609Y-99124686D02*
X195300990Y-99219924D01*
X195300990Y-99219924D02*
X195253371Y-99267543D01*
X195253371Y-99267543D02*
X195158133Y-99315162D01*
X195158133Y-99315162D02*
X195062895Y-99315162D01*
X195062895Y-99315162D02*
X194967657Y-99267543D01*
X194967657Y-99267543D02*
X194920038Y-99219924D01*
X194920038Y-99219924D02*
X194872419Y-99124686D01*
X194872419Y-99124686D02*
X194872419Y-98886591D01*
X194872419Y-98886591D02*
X194920038Y-98743734D01*
X195824800Y-97886591D02*
X195872419Y-97981829D01*
X195872419Y-97981829D02*
X195872419Y-98172305D01*
X195872419Y-98172305D02*
X195824800Y-98267543D01*
X195824800Y-98267543D02*
X195777180Y-98315162D01*
X195777180Y-98315162D02*
X195681942Y-98362781D01*
X195681942Y-98362781D02*
X195396228Y-98362781D01*
X195396228Y-98362781D02*
X195300990Y-98315162D01*
X195300990Y-98315162D02*
X195253371Y-98267543D01*
X195253371Y-98267543D02*
X195205752Y-98172305D01*
X195205752Y-98172305D02*
X195205752Y-97981829D01*
X195205752Y-97981829D02*
X195253371Y-97886591D01*
X195872419Y-97458019D02*
X194872419Y-97458019D01*
X195872419Y-97029448D02*
X195348609Y-97029448D01*
X195348609Y-97029448D02*
X195253371Y-97077067D01*
X195253371Y-97077067D02*
X195205752Y-97172305D01*
X195205752Y-97172305D02*
X195205752Y-97315162D01*
X195205752Y-97315162D02*
X195253371Y-97410400D01*
X195253371Y-97410400D02*
X195300990Y-97458019D01*
X195824800Y-96172305D02*
X195872419Y-96267543D01*
X195872419Y-96267543D02*
X195872419Y-96458019D01*
X195872419Y-96458019D02*
X195824800Y-96553257D01*
X195824800Y-96553257D02*
X195729561Y-96600876D01*
X195729561Y-96600876D02*
X195348609Y-96600876D01*
X195348609Y-96600876D02*
X195253371Y-96553257D01*
X195253371Y-96553257D02*
X195205752Y-96458019D01*
X195205752Y-96458019D02*
X195205752Y-96267543D01*
X195205752Y-96267543D02*
X195253371Y-96172305D01*
X195253371Y-96172305D02*
X195348609Y-96124686D01*
X195348609Y-96124686D02*
X195443847Y-96124686D01*
X195443847Y-96124686D02*
X195539085Y-96600876D01*
X195872419Y-95696114D02*
X195205752Y-95696114D01*
X195300990Y-95696114D02*
X195253371Y-95648495D01*
X195253371Y-95648495D02*
X195205752Y-95553257D01*
X195205752Y-95553257D02*
X195205752Y-95410400D01*
X195205752Y-95410400D02*
X195253371Y-95315162D01*
X195253371Y-95315162D02*
X195348609Y-95267543D01*
X195348609Y-95267543D02*
X195872419Y-95267543D01*
X195348609Y-95267543D02*
X195253371Y-95219924D01*
X195253371Y-95219924D02*
X195205752Y-95124686D01*
X195205752Y-95124686D02*
X195205752Y-94981829D01*
X195205752Y-94981829D02*
X195253371Y-94886590D01*
X195253371Y-94886590D02*
X195348609Y-94838971D01*
X195348609Y-94838971D02*
X195872419Y-94838971D01*
X195872419Y-93934210D02*
X195348609Y-93934210D01*
X195348609Y-93934210D02*
X195253371Y-93981829D01*
X195253371Y-93981829D02*
X195205752Y-94077067D01*
X195205752Y-94077067D02*
X195205752Y-94267543D01*
X195205752Y-94267543D02*
X195253371Y-94362781D01*
X195824800Y-93934210D02*
X195872419Y-94029448D01*
X195872419Y-94029448D02*
X195872419Y-94267543D01*
X195872419Y-94267543D02*
X195824800Y-94362781D01*
X195824800Y-94362781D02*
X195729561Y-94410400D01*
X195729561Y-94410400D02*
X195634323Y-94410400D01*
X195634323Y-94410400D02*
X195539085Y-94362781D01*
X195539085Y-94362781D02*
X195491466Y-94267543D01*
X195491466Y-94267543D02*
X195491466Y-94029448D01*
X195491466Y-94029448D02*
X195443847Y-93934210D01*
X195205752Y-93600876D02*
X195205752Y-93219924D01*
X194872419Y-93458019D02*
X195729561Y-93458019D01*
X195729561Y-93458019D02*
X195824800Y-93410400D01*
X195824800Y-93410400D02*
X195872419Y-93315162D01*
X195872419Y-93315162D02*
X195872419Y-93219924D01*
X195872419Y-92886590D02*
X195205752Y-92886590D01*
X194872419Y-92886590D02*
X194920038Y-92934209D01*
X194920038Y-92934209D02*
X194967657Y-92886590D01*
X194967657Y-92886590D02*
X194920038Y-92838971D01*
X194920038Y-92838971D02*
X194872419Y-92886590D01*
X194872419Y-92886590D02*
X194967657Y-92886590D01*
X195824800Y-91981829D02*
X195872419Y-92077067D01*
X195872419Y-92077067D02*
X195872419Y-92267543D01*
X195872419Y-92267543D02*
X195824800Y-92362781D01*
X195824800Y-92362781D02*
X195777180Y-92410400D01*
X195777180Y-92410400D02*
X195681942Y-92458019D01*
X195681942Y-92458019D02*
X195396228Y-92458019D01*
X195396228Y-92458019D02*
X195300990Y-92410400D01*
X195300990Y-92410400D02*
X195253371Y-92362781D01*
X195253371Y-92362781D02*
X195205752Y-92267543D01*
X195205752Y-92267543D02*
X195205752Y-92077067D01*
X195205752Y-92077067D02*
X195253371Y-91981829D01*
X195205752Y-90934209D02*
X195205752Y-90553257D01*
X195872419Y-90791352D02*
X195015276Y-90791352D01*
X195015276Y-90791352D02*
X194920038Y-90743733D01*
X194920038Y-90743733D02*
X194872419Y-90648495D01*
X194872419Y-90648495D02*
X194872419Y-90553257D01*
X195872419Y-90077066D02*
X195824800Y-90172304D01*
X195824800Y-90172304D02*
X195777180Y-90219923D01*
X195777180Y-90219923D02*
X195681942Y-90267542D01*
X195681942Y-90267542D02*
X195396228Y-90267542D01*
X195396228Y-90267542D02*
X195300990Y-90219923D01*
X195300990Y-90219923D02*
X195253371Y-90172304D01*
X195253371Y-90172304D02*
X195205752Y-90077066D01*
X195205752Y-90077066D02*
X195205752Y-89934209D01*
X195205752Y-89934209D02*
X195253371Y-89838971D01*
X195253371Y-89838971D02*
X195300990Y-89791352D01*
X195300990Y-89791352D02*
X195396228Y-89743733D01*
X195396228Y-89743733D02*
X195681942Y-89743733D01*
X195681942Y-89743733D02*
X195777180Y-89791352D01*
X195777180Y-89791352D02*
X195824800Y-89838971D01*
X195824800Y-89838971D02*
X195872419Y-89934209D01*
X195872419Y-89934209D02*
X195872419Y-90077066D01*
X195872419Y-89315161D02*
X195205752Y-89315161D01*
X195396228Y-89315161D02*
X195300990Y-89267542D01*
X195300990Y-89267542D02*
X195253371Y-89219923D01*
X195253371Y-89219923D02*
X195205752Y-89124685D01*
X195205752Y-89124685D02*
X195205752Y-89029447D01*
X195872419Y-87934208D02*
X194872419Y-87934208D01*
X194872419Y-87934208D02*
X194872419Y-87553256D01*
X194872419Y-87553256D02*
X194920038Y-87458018D01*
X194920038Y-87458018D02*
X194967657Y-87410399D01*
X194967657Y-87410399D02*
X195062895Y-87362780D01*
X195062895Y-87362780D02*
X195205752Y-87362780D01*
X195205752Y-87362780D02*
X195300990Y-87410399D01*
X195300990Y-87410399D02*
X195348609Y-87458018D01*
X195348609Y-87458018D02*
X195396228Y-87553256D01*
X195396228Y-87553256D02*
X195396228Y-87934208D01*
X195872419Y-86934208D02*
X195205752Y-86934208D01*
X194872419Y-86934208D02*
X194920038Y-86981827D01*
X194920038Y-86981827D02*
X194967657Y-86934208D01*
X194967657Y-86934208D02*
X194920038Y-86886589D01*
X194920038Y-86886589D02*
X194872419Y-86934208D01*
X194872419Y-86934208D02*
X194967657Y-86934208D01*
X195205752Y-86458018D02*
X195872419Y-86458018D01*
X195300990Y-86458018D02*
X195253371Y-86410399D01*
X195253371Y-86410399D02*
X195205752Y-86315161D01*
X195205752Y-86315161D02*
X195205752Y-86172304D01*
X195205752Y-86172304D02*
X195253371Y-86077066D01*
X195253371Y-86077066D02*
X195348609Y-86029447D01*
X195348609Y-86029447D02*
X195872419Y-86029447D01*
X195872419Y-85410399D02*
X195824800Y-85505637D01*
X195824800Y-85505637D02*
X195777180Y-85553256D01*
X195777180Y-85553256D02*
X195681942Y-85600875D01*
X195681942Y-85600875D02*
X195396228Y-85600875D01*
X195396228Y-85600875D02*
X195300990Y-85553256D01*
X195300990Y-85553256D02*
X195253371Y-85505637D01*
X195253371Y-85505637D02*
X195205752Y-85410399D01*
X195205752Y-85410399D02*
X195205752Y-85267542D01*
X195205752Y-85267542D02*
X195253371Y-85172304D01*
X195253371Y-85172304D02*
X195300990Y-85124685D01*
X195300990Y-85124685D02*
X195396228Y-85077066D01*
X195396228Y-85077066D02*
X195681942Y-85077066D01*
X195681942Y-85077066D02*
X195777180Y-85124685D01*
X195777180Y-85124685D02*
X195824800Y-85172304D01*
X195824800Y-85172304D02*
X195872419Y-85267542D01*
X195872419Y-85267542D02*
X195872419Y-85410399D01*
X195205752Y-84219923D02*
X195872419Y-84219923D01*
X195205752Y-84648494D02*
X195729561Y-84648494D01*
X195729561Y-84648494D02*
X195824800Y-84600875D01*
X195824800Y-84600875D02*
X195872419Y-84505637D01*
X195872419Y-84505637D02*
X195872419Y-84362780D01*
X195872419Y-84362780D02*
X195824800Y-84267542D01*
X195824800Y-84267542D02*
X195777180Y-84219923D01*
X195205752Y-83886589D02*
X195205752Y-83505637D01*
X194872419Y-83743732D02*
X195729561Y-83743732D01*
X195729561Y-83743732D02*
X195824800Y-83696113D01*
X195824800Y-83696113D02*
X195872419Y-83600875D01*
X195872419Y-83600875D02*
X195872419Y-83505637D01*
X195824800Y-83219922D02*
X195872419Y-83124684D01*
X195872419Y-83124684D02*
X195872419Y-82934208D01*
X195872419Y-82934208D02*
X195824800Y-82838970D01*
X195824800Y-82838970D02*
X195729561Y-82791351D01*
X195729561Y-82791351D02*
X195681942Y-82791351D01*
X195681942Y-82791351D02*
X195586704Y-82838970D01*
X195586704Y-82838970D02*
X195539085Y-82934208D01*
X195539085Y-82934208D02*
X195539085Y-83077065D01*
X195539085Y-83077065D02*
X195491466Y-83172303D01*
X195491466Y-83172303D02*
X195396228Y-83219922D01*
X195396228Y-83219922D02*
X195348609Y-83219922D01*
X195348609Y-83219922D02*
X195253371Y-83172303D01*
X195253371Y-83172303D02*
X195205752Y-83077065D01*
X195205752Y-83077065D02*
X195205752Y-82934208D01*
X195205752Y-82934208D02*
X195253371Y-82838970D01*
D11*
X183954819Y-94673333D02*
X184669104Y-94673333D01*
X184669104Y-94673333D02*
X184811961Y-94720952D01*
X184811961Y-94720952D02*
X184907200Y-94816190D01*
X184907200Y-94816190D02*
X184954819Y-94959047D01*
X184954819Y-94959047D02*
X184954819Y-95054285D01*
X184288152Y-93768571D02*
X184954819Y-93768571D01*
X183907200Y-94006666D02*
X184621485Y-94244761D01*
X184621485Y-94244761D02*
X184621485Y-93625714D01*
X191454819Y-94833333D02*
X192169104Y-94833333D01*
X192169104Y-94833333D02*
X192311961Y-94880952D01*
X192311961Y-94880952D02*
X192407200Y-94976190D01*
X192407200Y-94976190D02*
X192454819Y-95119047D01*
X192454819Y-95119047D02*
X192454819Y-95214285D01*
X191454819Y-94452380D02*
X191454819Y-93833333D01*
X191454819Y-93833333D02*
X191835771Y-94166666D01*
X191835771Y-94166666D02*
X191835771Y-94023809D01*
X191835771Y-94023809D02*
X191883390Y-93928571D01*
X191883390Y-93928571D02*
X191931009Y-93880952D01*
X191931009Y-93880952D02*
X192026247Y-93833333D01*
X192026247Y-93833333D02*
X192264342Y-93833333D01*
X192264342Y-93833333D02*
X192359580Y-93880952D01*
X192359580Y-93880952D02*
X192407200Y-93928571D01*
X192407200Y-93928571D02*
X192454819Y-94023809D01*
X192454819Y-94023809D02*
X192454819Y-94309523D01*
X192454819Y-94309523D02*
X192407200Y-94404761D01*
X192407200Y-94404761D02*
X192359580Y-94452380D01*
X120140419Y-84833333D02*
X120092800Y-84785714D01*
X120092800Y-84785714D02*
X120045180Y-84642857D01*
X120045180Y-84642857D02*
X120045180Y-84547619D01*
X120045180Y-84547619D02*
X120092800Y-84404762D01*
X120092800Y-84404762D02*
X120188038Y-84309524D01*
X120188038Y-84309524D02*
X120283276Y-84261905D01*
X120283276Y-84261905D02*
X120473752Y-84214286D01*
X120473752Y-84214286D02*
X120616609Y-84214286D01*
X120616609Y-84214286D02*
X120807085Y-84261905D01*
X120807085Y-84261905D02*
X120902323Y-84309524D01*
X120902323Y-84309524D02*
X120997561Y-84404762D01*
X120997561Y-84404762D02*
X121045180Y-84547619D01*
X121045180Y-84547619D02*
X121045180Y-84642857D01*
X121045180Y-84642857D02*
X120997561Y-84785714D01*
X120997561Y-84785714D02*
X120949942Y-84833333D01*
X120045180Y-85785714D02*
X120045180Y-85214286D01*
X120045180Y-85500000D02*
X121045180Y-85500000D01*
X121045180Y-85500000D02*
X120902323Y-85404762D01*
X120902323Y-85404762D02*
X120807085Y-85309524D01*
X120807085Y-85309524D02*
X120759466Y-85214286D01*
X119955442Y-118954819D02*
X119622109Y-118478628D01*
X119384014Y-118954819D02*
X119384014Y-117954819D01*
X119384014Y-117954819D02*
X119764966Y-117954819D01*
X119764966Y-117954819D02*
X119860204Y-118002438D01*
X119860204Y-118002438D02*
X119907823Y-118050057D01*
X119907823Y-118050057D02*
X119955442Y-118145295D01*
X119955442Y-118145295D02*
X119955442Y-118288152D01*
X119955442Y-118288152D02*
X119907823Y-118383390D01*
X119907823Y-118383390D02*
X119860204Y-118431009D01*
X119860204Y-118431009D02*
X119764966Y-118478628D01*
X119764966Y-118478628D02*
X119384014Y-118478628D01*
X120336395Y-118050057D02*
X120384014Y-118002438D01*
X120384014Y-118002438D02*
X120479252Y-117954819D01*
X120479252Y-117954819D02*
X120717347Y-117954819D01*
X120717347Y-117954819D02*
X120812585Y-118002438D01*
X120812585Y-118002438D02*
X120860204Y-118050057D01*
X120860204Y-118050057D02*
X120907823Y-118145295D01*
X120907823Y-118145295D02*
X120907823Y-118240533D01*
X120907823Y-118240533D02*
X120860204Y-118383390D01*
X120860204Y-118383390D02*
X120288776Y-118954819D01*
X120288776Y-118954819D02*
X120907823Y-118954819D01*
X121764966Y-117954819D02*
X121574490Y-117954819D01*
X121574490Y-117954819D02*
X121479252Y-118002438D01*
X121479252Y-118002438D02*
X121431633Y-118050057D01*
X121431633Y-118050057D02*
X121336395Y-118192914D01*
X121336395Y-118192914D02*
X121288776Y-118383390D01*
X121288776Y-118383390D02*
X121288776Y-118764342D01*
X121288776Y-118764342D02*
X121336395Y-118859580D01*
X121336395Y-118859580D02*
X121384014Y-118907200D01*
X121384014Y-118907200D02*
X121479252Y-118954819D01*
X121479252Y-118954819D02*
X121669728Y-118954819D01*
X121669728Y-118954819D02*
X121764966Y-118907200D01*
X121764966Y-118907200D02*
X121812585Y-118859580D01*
X121812585Y-118859580D02*
X121860204Y-118764342D01*
X121860204Y-118764342D02*
X121860204Y-118526247D01*
X121860204Y-118526247D02*
X121812585Y-118431009D01*
X121812585Y-118431009D02*
X121764966Y-118383390D01*
X121764966Y-118383390D02*
X121669728Y-118335771D01*
X121669728Y-118335771D02*
X121479252Y-118335771D01*
X121479252Y-118335771D02*
X121384014Y-118383390D01*
X121384014Y-118383390D02*
X121336395Y-118431009D01*
X121336395Y-118431009D02*
X121288776Y-118526247D01*
D12*
X150062618Y-113074318D02*
X150062618Y-111804318D01*
X150062618Y-111804318D02*
X150364999Y-111804318D01*
X150364999Y-111804318D02*
X150546428Y-111864794D01*
X150546428Y-111864794D02*
X150667380Y-111985746D01*
X150667380Y-111985746D02*
X150727857Y-112106699D01*
X150727857Y-112106699D02*
X150788333Y-112348603D01*
X150788333Y-112348603D02*
X150788333Y-112530032D01*
X150788333Y-112530032D02*
X150727857Y-112771937D01*
X150727857Y-112771937D02*
X150667380Y-112892889D01*
X150667380Y-112892889D02*
X150546428Y-113013842D01*
X150546428Y-113013842D02*
X150364999Y-113074318D01*
X150364999Y-113074318D02*
X150062618Y-113074318D01*
X151272142Y-111925270D02*
X151332618Y-111864794D01*
X151332618Y-111864794D02*
X151453571Y-111804318D01*
X151453571Y-111804318D02*
X151755952Y-111804318D01*
X151755952Y-111804318D02*
X151876904Y-111864794D01*
X151876904Y-111864794D02*
X151937380Y-111925270D01*
X151937380Y-111925270D02*
X151997857Y-112046222D01*
X151997857Y-112046222D02*
X151997857Y-112167175D01*
X151997857Y-112167175D02*
X151937380Y-112348603D01*
X151937380Y-112348603D02*
X151211666Y-113074318D01*
X151211666Y-113074318D02*
X151997857Y-113074318D01*
D11*
X121763095Y-57772200D02*
X121905952Y-57819819D01*
X121905952Y-57819819D02*
X122144047Y-57819819D01*
X122144047Y-57819819D02*
X122239285Y-57772200D01*
X122239285Y-57772200D02*
X122286904Y-57724580D01*
X122286904Y-57724580D02*
X122334523Y-57629342D01*
X122334523Y-57629342D02*
X122334523Y-57534104D01*
X122334523Y-57534104D02*
X122286904Y-57438866D01*
X122286904Y-57438866D02*
X122239285Y-57391247D01*
X122239285Y-57391247D02*
X122144047Y-57343628D01*
X122144047Y-57343628D02*
X121953571Y-57296009D01*
X121953571Y-57296009D02*
X121858333Y-57248390D01*
X121858333Y-57248390D02*
X121810714Y-57200771D01*
X121810714Y-57200771D02*
X121763095Y-57105533D01*
X121763095Y-57105533D02*
X121763095Y-57010295D01*
X121763095Y-57010295D02*
X121810714Y-56915057D01*
X121810714Y-56915057D02*
X121858333Y-56867438D01*
X121858333Y-56867438D02*
X121953571Y-56819819D01*
X121953571Y-56819819D02*
X122191666Y-56819819D01*
X122191666Y-56819819D02*
X122334523Y-56867438D01*
X122715476Y-56915057D02*
X122763095Y-56867438D01*
X122763095Y-56867438D02*
X122858333Y-56819819D01*
X122858333Y-56819819D02*
X123096428Y-56819819D01*
X123096428Y-56819819D02*
X123191666Y-56867438D01*
X123191666Y-56867438D02*
X123239285Y-56915057D01*
X123239285Y-56915057D02*
X123286904Y-57010295D01*
X123286904Y-57010295D02*
X123286904Y-57105533D01*
X123286904Y-57105533D02*
X123239285Y-57248390D01*
X123239285Y-57248390D02*
X122667857Y-57819819D01*
X122667857Y-57819819D02*
X123286904Y-57819819D01*
X125004343Y-96454819D02*
X124671010Y-95978628D01*
X124432915Y-96454819D02*
X124432915Y-95454819D01*
X124432915Y-95454819D02*
X124813867Y-95454819D01*
X124813867Y-95454819D02*
X124909105Y-95502438D01*
X124909105Y-95502438D02*
X124956724Y-95550057D01*
X124956724Y-95550057D02*
X125004343Y-95645295D01*
X125004343Y-95645295D02*
X125004343Y-95788152D01*
X125004343Y-95788152D02*
X124956724Y-95883390D01*
X124956724Y-95883390D02*
X124909105Y-95931009D01*
X124909105Y-95931009D02*
X124813867Y-95978628D01*
X124813867Y-95978628D02*
X124432915Y-95978628D01*
X125956724Y-96454819D02*
X125385296Y-96454819D01*
X125671010Y-96454819D02*
X125671010Y-95454819D01*
X125671010Y-95454819D02*
X125575772Y-95597676D01*
X125575772Y-95597676D02*
X125480534Y-95692914D01*
X125480534Y-95692914D02*
X125385296Y-95740533D01*
X126909105Y-96454819D02*
X126337677Y-96454819D01*
X126623391Y-96454819D02*
X126623391Y-95454819D01*
X126623391Y-95454819D02*
X126528153Y-95597676D01*
X126528153Y-95597676D02*
X126432915Y-95692914D01*
X126432915Y-95692914D02*
X126337677Y-95740533D01*
X119857142Y-112454819D02*
X119523809Y-111978628D01*
X119285714Y-112454819D02*
X119285714Y-111454819D01*
X119285714Y-111454819D02*
X119666666Y-111454819D01*
X119666666Y-111454819D02*
X119761904Y-111502438D01*
X119761904Y-111502438D02*
X119809523Y-111550057D01*
X119809523Y-111550057D02*
X119857142Y-111645295D01*
X119857142Y-111645295D02*
X119857142Y-111788152D01*
X119857142Y-111788152D02*
X119809523Y-111883390D01*
X119809523Y-111883390D02*
X119761904Y-111931009D01*
X119761904Y-111931009D02*
X119666666Y-111978628D01*
X119666666Y-111978628D02*
X119285714Y-111978628D01*
X120238095Y-111550057D02*
X120285714Y-111502438D01*
X120285714Y-111502438D02*
X120380952Y-111454819D01*
X120380952Y-111454819D02*
X120619047Y-111454819D01*
X120619047Y-111454819D02*
X120714285Y-111502438D01*
X120714285Y-111502438D02*
X120761904Y-111550057D01*
X120761904Y-111550057D02*
X120809523Y-111645295D01*
X120809523Y-111645295D02*
X120809523Y-111740533D01*
X120809523Y-111740533D02*
X120761904Y-111883390D01*
X120761904Y-111883390D02*
X120190476Y-112454819D01*
X120190476Y-112454819D02*
X120809523Y-112454819D01*
X121714285Y-111454819D02*
X121238095Y-111454819D01*
X121238095Y-111454819D02*
X121190476Y-111931009D01*
X121190476Y-111931009D02*
X121238095Y-111883390D01*
X121238095Y-111883390D02*
X121333333Y-111835771D01*
X121333333Y-111835771D02*
X121571428Y-111835771D01*
X121571428Y-111835771D02*
X121666666Y-111883390D01*
X121666666Y-111883390D02*
X121714285Y-111931009D01*
X121714285Y-111931009D02*
X121761904Y-112026247D01*
X121761904Y-112026247D02*
X121761904Y-112264342D01*
X121761904Y-112264342D02*
X121714285Y-112359580D01*
X121714285Y-112359580D02*
X121666666Y-112407200D01*
X121666666Y-112407200D02*
X121571428Y-112454819D01*
X121571428Y-112454819D02*
X121333333Y-112454819D01*
X121333333Y-112454819D02*
X121238095Y-112407200D01*
X121238095Y-112407200D02*
X121190476Y-112359580D01*
D12*
X155612618Y-113074318D02*
X155612618Y-111804318D01*
X155612618Y-111804318D02*
X155914999Y-111804318D01*
X155914999Y-111804318D02*
X156096428Y-111864794D01*
X156096428Y-111864794D02*
X156217380Y-111985746D01*
X156217380Y-111985746D02*
X156277857Y-112106699D01*
X156277857Y-112106699D02*
X156338333Y-112348603D01*
X156338333Y-112348603D02*
X156338333Y-112530032D01*
X156338333Y-112530032D02*
X156277857Y-112771937D01*
X156277857Y-112771937D02*
X156217380Y-112892889D01*
X156217380Y-112892889D02*
X156096428Y-113013842D01*
X156096428Y-113013842D02*
X155914999Y-113074318D01*
X155914999Y-113074318D02*
X155612618Y-113074318D01*
X157547857Y-113074318D02*
X156822142Y-113074318D01*
X157184999Y-113074318D02*
X157184999Y-111804318D01*
X157184999Y-111804318D02*
X157064047Y-111985746D01*
X157064047Y-111985746D02*
X156943095Y-112106699D01*
X156943095Y-112106699D02*
X156822142Y-112167175D01*
D11*
X173531642Y-118859580D02*
X173484023Y-118907200D01*
X173484023Y-118907200D02*
X173341166Y-118954819D01*
X173341166Y-118954819D02*
X173245928Y-118954819D01*
X173245928Y-118954819D02*
X173103071Y-118907200D01*
X173103071Y-118907200D02*
X173007833Y-118811961D01*
X173007833Y-118811961D02*
X172960214Y-118716723D01*
X172960214Y-118716723D02*
X172912595Y-118526247D01*
X172912595Y-118526247D02*
X172912595Y-118383390D01*
X172912595Y-118383390D02*
X172960214Y-118192914D01*
X172960214Y-118192914D02*
X173007833Y-118097676D01*
X173007833Y-118097676D02*
X173103071Y-118002438D01*
X173103071Y-118002438D02*
X173245928Y-117954819D01*
X173245928Y-117954819D02*
X173341166Y-117954819D01*
X173341166Y-117954819D02*
X173484023Y-118002438D01*
X173484023Y-118002438D02*
X173531642Y-118050057D01*
X174484023Y-118954819D02*
X173912595Y-118954819D01*
X174198309Y-118954819D02*
X174198309Y-117954819D01*
X174198309Y-117954819D02*
X174103071Y-118097676D01*
X174103071Y-118097676D02*
X174007833Y-118192914D01*
X174007833Y-118192914D02*
X173912595Y-118240533D01*
X175341166Y-118288152D02*
X175341166Y-118954819D01*
X175103071Y-117907200D02*
X174864976Y-118621485D01*
X174864976Y-118621485D02*
X175484023Y-118621485D01*
X124857142Y-101359580D02*
X124809523Y-101407200D01*
X124809523Y-101407200D02*
X124666666Y-101454819D01*
X124666666Y-101454819D02*
X124571428Y-101454819D01*
X124571428Y-101454819D02*
X124428571Y-101407200D01*
X124428571Y-101407200D02*
X124333333Y-101311961D01*
X124333333Y-101311961D02*
X124285714Y-101216723D01*
X124285714Y-101216723D02*
X124238095Y-101026247D01*
X124238095Y-101026247D02*
X124238095Y-100883390D01*
X124238095Y-100883390D02*
X124285714Y-100692914D01*
X124285714Y-100692914D02*
X124333333Y-100597676D01*
X124333333Y-100597676D02*
X124428571Y-100502438D01*
X124428571Y-100502438D02*
X124571428Y-100454819D01*
X124571428Y-100454819D02*
X124666666Y-100454819D01*
X124666666Y-100454819D02*
X124809523Y-100502438D01*
X124809523Y-100502438D02*
X124857142Y-100550057D01*
X125238095Y-100550057D02*
X125285714Y-100502438D01*
X125285714Y-100502438D02*
X125380952Y-100454819D01*
X125380952Y-100454819D02*
X125619047Y-100454819D01*
X125619047Y-100454819D02*
X125714285Y-100502438D01*
X125714285Y-100502438D02*
X125761904Y-100550057D01*
X125761904Y-100550057D02*
X125809523Y-100645295D01*
X125809523Y-100645295D02*
X125809523Y-100740533D01*
X125809523Y-100740533D02*
X125761904Y-100883390D01*
X125761904Y-100883390D02*
X125190476Y-101454819D01*
X125190476Y-101454819D02*
X125809523Y-101454819D01*
X126190476Y-100550057D02*
X126238095Y-100502438D01*
X126238095Y-100502438D02*
X126333333Y-100454819D01*
X126333333Y-100454819D02*
X126571428Y-100454819D01*
X126571428Y-100454819D02*
X126666666Y-100502438D01*
X126666666Y-100502438D02*
X126714285Y-100550057D01*
X126714285Y-100550057D02*
X126761904Y-100645295D01*
X126761904Y-100645295D02*
X126761904Y-100740533D01*
X126761904Y-100740533D02*
X126714285Y-100883390D01*
X126714285Y-100883390D02*
X126142857Y-101454819D01*
X126142857Y-101454819D02*
X126761904Y-101454819D01*
D13*
X142377014Y-119505616D02*
X142189538Y-119636850D01*
X142377014Y-119730588D02*
X141983313Y-119730588D01*
X141983313Y-119730588D02*
X141983313Y-119580607D01*
X141983313Y-119580607D02*
X142002061Y-119543112D01*
X142002061Y-119543112D02*
X142020809Y-119524364D01*
X142020809Y-119524364D02*
X142058304Y-119505616D01*
X142058304Y-119505616D02*
X142114547Y-119505616D01*
X142114547Y-119505616D02*
X142152042Y-119524364D01*
X142152042Y-119524364D02*
X142170790Y-119543112D01*
X142170790Y-119543112D02*
X142189538Y-119580607D01*
X142189538Y-119580607D02*
X142189538Y-119730588D01*
X141983313Y-119168158D02*
X141983313Y-119243149D01*
X141983313Y-119243149D02*
X142002061Y-119280644D01*
X142002061Y-119280644D02*
X142020809Y-119299392D01*
X142020809Y-119299392D02*
X142077052Y-119336887D01*
X142077052Y-119336887D02*
X142152042Y-119355635D01*
X142152042Y-119355635D02*
X142302024Y-119355635D01*
X142302024Y-119355635D02*
X142339519Y-119336887D01*
X142339519Y-119336887D02*
X142358267Y-119318140D01*
X142358267Y-119318140D02*
X142377014Y-119280644D01*
X142377014Y-119280644D02*
X142377014Y-119205654D01*
X142377014Y-119205654D02*
X142358267Y-119168158D01*
X142358267Y-119168158D02*
X142339519Y-119149411D01*
X142339519Y-119149411D02*
X142302024Y-119130663D01*
X142302024Y-119130663D02*
X142208285Y-119130663D01*
X142208285Y-119130663D02*
X142170790Y-119149411D01*
X142170790Y-119149411D02*
X142152042Y-119168158D01*
X142152042Y-119168158D02*
X142133295Y-119205654D01*
X142133295Y-119205654D02*
X142133295Y-119280644D01*
X142133295Y-119280644D02*
X142152042Y-119318140D01*
X142152042Y-119318140D02*
X142170790Y-119336887D01*
X142170790Y-119336887D02*
X142208285Y-119355635D01*
D11*
X108986744Y-87977627D02*
X108986744Y-88692261D01*
X108986744Y-88692261D02*
X108939101Y-88835188D01*
X108939101Y-88835188D02*
X108843817Y-88930473D01*
X108843817Y-88930473D02*
X108700890Y-88978115D01*
X108700890Y-88978115D02*
X108605605Y-88978115D01*
X109415525Y-88072911D02*
X109463167Y-88025269D01*
X109463167Y-88025269D02*
X109558452Y-87977627D01*
X109558452Y-87977627D02*
X109796663Y-87977627D01*
X109796663Y-87977627D02*
X109891948Y-88025269D01*
X109891948Y-88025269D02*
X109939590Y-88072911D01*
X109939590Y-88072911D02*
X109987232Y-88168196D01*
X109987232Y-88168196D02*
X109987232Y-88263481D01*
X109987232Y-88263481D02*
X109939590Y-88406407D01*
X109939590Y-88406407D02*
X109367882Y-88978115D01*
X109367882Y-88978115D02*
X109987232Y-88978115D01*
X150958005Y-138840180D02*
X150958005Y-138030657D01*
X150958005Y-138030657D02*
X150910386Y-137935419D01*
X150910386Y-137935419D02*
X150862767Y-137887800D01*
X150862767Y-137887800D02*
X150767529Y-137840180D01*
X150767529Y-137840180D02*
X150577053Y-137840180D01*
X150577053Y-137840180D02*
X150481815Y-137887800D01*
X150481815Y-137887800D02*
X150434196Y-137935419D01*
X150434196Y-137935419D02*
X150386577Y-138030657D01*
X150386577Y-138030657D02*
X150386577Y-138840180D01*
X149958005Y-138744942D02*
X149910386Y-138792561D01*
X149910386Y-138792561D02*
X149815148Y-138840180D01*
X149815148Y-138840180D02*
X149577053Y-138840180D01*
X149577053Y-138840180D02*
X149481815Y-138792561D01*
X149481815Y-138792561D02*
X149434196Y-138744942D01*
X149434196Y-138744942D02*
X149386577Y-138649704D01*
X149386577Y-138649704D02*
X149386577Y-138554466D01*
X149386577Y-138554466D02*
X149434196Y-138411609D01*
X149434196Y-138411609D02*
X150005624Y-137840180D01*
X150005624Y-137840180D02*
X149386577Y-137840180D01*
X158354199Y-139545180D02*
X158354199Y-139307085D01*
X158592294Y-139402323D02*
X158354199Y-139307085D01*
X158354199Y-139307085D02*
X158116104Y-139402323D01*
X158497056Y-139116609D02*
X158354199Y-139307085D01*
X158354199Y-139307085D02*
X158211342Y-139116609D01*
X158354200Y-138454819D02*
X158354200Y-138692914D01*
X158116105Y-138597676D02*
X158354200Y-138692914D01*
X158354200Y-138692914D02*
X158592295Y-138597676D01*
X158211343Y-138883390D02*
X158354200Y-138692914D01*
X158354200Y-138692914D02*
X158497057Y-138883390D01*
D12*
X129863571Y-57953365D02*
X129803095Y-58013842D01*
X129803095Y-58013842D02*
X129621666Y-58074318D01*
X129621666Y-58074318D02*
X129500714Y-58074318D01*
X129500714Y-58074318D02*
X129319285Y-58013842D01*
X129319285Y-58013842D02*
X129198333Y-57892889D01*
X129198333Y-57892889D02*
X129137856Y-57771937D01*
X129137856Y-57771937D02*
X129077380Y-57530032D01*
X129077380Y-57530032D02*
X129077380Y-57348603D01*
X129077380Y-57348603D02*
X129137856Y-57106699D01*
X129137856Y-57106699D02*
X129198333Y-56985746D01*
X129198333Y-56985746D02*
X129319285Y-56864794D01*
X129319285Y-56864794D02*
X129500714Y-56804318D01*
X129500714Y-56804318D02*
X129621666Y-56804318D01*
X129621666Y-56804318D02*
X129803095Y-56864794D01*
X129803095Y-56864794D02*
X129863571Y-56925270D01*
X131073095Y-58074318D02*
X130347380Y-58074318D01*
X130710237Y-58074318D02*
X130710237Y-56804318D01*
X130710237Y-56804318D02*
X130589285Y-56985746D01*
X130589285Y-56985746D02*
X130468333Y-57106699D01*
X130468333Y-57106699D02*
X130347380Y-57167175D01*
X131677857Y-58074318D02*
X131919761Y-58074318D01*
X131919761Y-58074318D02*
X132040714Y-58013842D01*
X132040714Y-58013842D02*
X132101190Y-57953365D01*
X132101190Y-57953365D02*
X132222142Y-57771937D01*
X132222142Y-57771937D02*
X132282619Y-57530032D01*
X132282619Y-57530032D02*
X132282619Y-57046222D01*
X132282619Y-57046222D02*
X132222142Y-56925270D01*
X132222142Y-56925270D02*
X132161666Y-56864794D01*
X132161666Y-56864794D02*
X132040714Y-56804318D01*
X132040714Y-56804318D02*
X131798809Y-56804318D01*
X131798809Y-56804318D02*
X131677857Y-56864794D01*
X131677857Y-56864794D02*
X131617380Y-56925270D01*
X131617380Y-56925270D02*
X131556904Y-57046222D01*
X131556904Y-57046222D02*
X131556904Y-57348603D01*
X131556904Y-57348603D02*
X131617380Y-57469556D01*
X131617380Y-57469556D02*
X131677857Y-57530032D01*
X131677857Y-57530032D02*
X131798809Y-57590508D01*
X131798809Y-57590508D02*
X132040714Y-57590508D01*
X132040714Y-57590508D02*
X132161666Y-57530032D01*
X132161666Y-57530032D02*
X132222142Y-57469556D01*
X132222142Y-57469556D02*
X132282619Y-57348603D01*
D11*
X118857142Y-91454819D02*
X118523809Y-90978628D01*
X118285714Y-91454819D02*
X118285714Y-90454819D01*
X118285714Y-90454819D02*
X118666666Y-90454819D01*
X118666666Y-90454819D02*
X118761904Y-90502438D01*
X118761904Y-90502438D02*
X118809523Y-90550057D01*
X118809523Y-90550057D02*
X118857142Y-90645295D01*
X118857142Y-90645295D02*
X118857142Y-90788152D01*
X118857142Y-90788152D02*
X118809523Y-90883390D01*
X118809523Y-90883390D02*
X118761904Y-90931009D01*
X118761904Y-90931009D02*
X118666666Y-90978628D01*
X118666666Y-90978628D02*
X118285714Y-90978628D01*
X119190476Y-90454819D02*
X119809523Y-90454819D01*
X119809523Y-90454819D02*
X119476190Y-90835771D01*
X119476190Y-90835771D02*
X119619047Y-90835771D01*
X119619047Y-90835771D02*
X119714285Y-90883390D01*
X119714285Y-90883390D02*
X119761904Y-90931009D01*
X119761904Y-90931009D02*
X119809523Y-91026247D01*
X119809523Y-91026247D02*
X119809523Y-91264342D01*
X119809523Y-91264342D02*
X119761904Y-91359580D01*
X119761904Y-91359580D02*
X119714285Y-91407200D01*
X119714285Y-91407200D02*
X119619047Y-91454819D01*
X119619047Y-91454819D02*
X119333333Y-91454819D01*
X119333333Y-91454819D02*
X119238095Y-91407200D01*
X119238095Y-91407200D02*
X119190476Y-91359580D01*
X120190476Y-90550057D02*
X120238095Y-90502438D01*
X120238095Y-90502438D02*
X120333333Y-90454819D01*
X120333333Y-90454819D02*
X120571428Y-90454819D01*
X120571428Y-90454819D02*
X120666666Y-90502438D01*
X120666666Y-90502438D02*
X120714285Y-90550057D01*
X120714285Y-90550057D02*
X120761904Y-90645295D01*
X120761904Y-90645295D02*
X120761904Y-90740533D01*
X120761904Y-90740533D02*
X120714285Y-90883390D01*
X120714285Y-90883390D02*
X120142857Y-91454819D01*
X120142857Y-91454819D02*
X120761904Y-91454819D01*
X169357142Y-132859580D02*
X169309523Y-132907200D01*
X169309523Y-132907200D02*
X169166666Y-132954819D01*
X169166666Y-132954819D02*
X169071428Y-132954819D01*
X169071428Y-132954819D02*
X168928571Y-132907200D01*
X168928571Y-132907200D02*
X168833333Y-132811961D01*
X168833333Y-132811961D02*
X168785714Y-132716723D01*
X168785714Y-132716723D02*
X168738095Y-132526247D01*
X168738095Y-132526247D02*
X168738095Y-132383390D01*
X168738095Y-132383390D02*
X168785714Y-132192914D01*
X168785714Y-132192914D02*
X168833333Y-132097676D01*
X168833333Y-132097676D02*
X168928571Y-132002438D01*
X168928571Y-132002438D02*
X169071428Y-131954819D01*
X169071428Y-131954819D02*
X169166666Y-131954819D01*
X169166666Y-131954819D02*
X169309523Y-132002438D01*
X169309523Y-132002438D02*
X169357142Y-132050057D01*
X169690476Y-131954819D02*
X170309523Y-131954819D01*
X170309523Y-131954819D02*
X169976190Y-132335771D01*
X169976190Y-132335771D02*
X170119047Y-132335771D01*
X170119047Y-132335771D02*
X170214285Y-132383390D01*
X170214285Y-132383390D02*
X170261904Y-132431009D01*
X170261904Y-132431009D02*
X170309523Y-132526247D01*
X170309523Y-132526247D02*
X170309523Y-132764342D01*
X170309523Y-132764342D02*
X170261904Y-132859580D01*
X170261904Y-132859580D02*
X170214285Y-132907200D01*
X170214285Y-132907200D02*
X170119047Y-132954819D01*
X170119047Y-132954819D02*
X169833333Y-132954819D01*
X169833333Y-132954819D02*
X169738095Y-132907200D01*
X169738095Y-132907200D02*
X169690476Y-132859580D01*
X171261904Y-132954819D02*
X170690476Y-132954819D01*
X170976190Y-132954819D02*
X170976190Y-131954819D01*
X170976190Y-131954819D02*
X170880952Y-132097676D01*
X170880952Y-132097676D02*
X170785714Y-132192914D01*
X170785714Y-132192914D02*
X170690476Y-132240533D01*
X116954819Y-111500333D02*
X117669104Y-111500333D01*
X117669104Y-111500333D02*
X117811961Y-111547952D01*
X117811961Y-111547952D02*
X117907200Y-111643190D01*
X117907200Y-111643190D02*
X117954819Y-111786047D01*
X117954819Y-111786047D02*
X117954819Y-111881285D01*
X117954819Y-110500333D02*
X117954819Y-111071761D01*
X117954819Y-110786047D02*
X116954819Y-110786047D01*
X116954819Y-110786047D02*
X117097676Y-110881285D01*
X117097676Y-110881285D02*
X117192914Y-110976523D01*
X117192914Y-110976523D02*
X117240533Y-111071761D01*
D13*
X120069383Y-101407014D02*
X119938149Y-101219538D01*
X119844411Y-101407014D02*
X119844411Y-101013313D01*
X119844411Y-101013313D02*
X119994392Y-101013313D01*
X119994392Y-101013313D02*
X120031888Y-101032061D01*
X120031888Y-101032061D02*
X120050635Y-101050809D01*
X120050635Y-101050809D02*
X120069383Y-101088304D01*
X120069383Y-101088304D02*
X120069383Y-101144547D01*
X120069383Y-101144547D02*
X120050635Y-101182042D01*
X120050635Y-101182042D02*
X120031888Y-101200790D01*
X120031888Y-101200790D02*
X119994392Y-101219538D01*
X119994392Y-101219538D02*
X119844411Y-101219538D01*
X120219364Y-101050809D02*
X120238112Y-101032061D01*
X120238112Y-101032061D02*
X120275607Y-101013313D01*
X120275607Y-101013313D02*
X120369346Y-101013313D01*
X120369346Y-101013313D02*
X120406841Y-101032061D01*
X120406841Y-101032061D02*
X120425589Y-101050809D01*
X120425589Y-101050809D02*
X120444336Y-101088304D01*
X120444336Y-101088304D02*
X120444336Y-101125799D01*
X120444336Y-101125799D02*
X120425589Y-101182042D01*
X120425589Y-101182042D02*
X120200617Y-101407014D01*
X120200617Y-101407014D02*
X120444336Y-101407014D01*
D11*
X186045180Y-124004343D02*
X186521371Y-123671010D01*
X186045180Y-123432915D02*
X187045180Y-123432915D01*
X187045180Y-123432915D02*
X187045180Y-123813867D01*
X187045180Y-123813867D02*
X186997561Y-123909105D01*
X186997561Y-123909105D02*
X186949942Y-123956724D01*
X186949942Y-123956724D02*
X186854704Y-124004343D01*
X186854704Y-124004343D02*
X186711847Y-124004343D01*
X186711847Y-124004343D02*
X186616609Y-123956724D01*
X186616609Y-123956724D02*
X186568990Y-123909105D01*
X186568990Y-123909105D02*
X186521371Y-123813867D01*
X186521371Y-123813867D02*
X186521371Y-123432915D01*
X186949942Y-124385296D02*
X186997561Y-124432915D01*
X186997561Y-124432915D02*
X187045180Y-124528153D01*
X187045180Y-124528153D02*
X187045180Y-124766248D01*
X187045180Y-124766248D02*
X186997561Y-124861486D01*
X186997561Y-124861486D02*
X186949942Y-124909105D01*
X186949942Y-124909105D02*
X186854704Y-124956724D01*
X186854704Y-124956724D02*
X186759466Y-124956724D01*
X186759466Y-124956724D02*
X186616609Y-124909105D01*
X186616609Y-124909105D02*
X186045180Y-124337677D01*
X186045180Y-124337677D02*
X186045180Y-124956724D01*
X186949942Y-125337677D02*
X186997561Y-125385296D01*
X186997561Y-125385296D02*
X187045180Y-125480534D01*
X187045180Y-125480534D02*
X187045180Y-125718629D01*
X187045180Y-125718629D02*
X186997561Y-125813867D01*
X186997561Y-125813867D02*
X186949942Y-125861486D01*
X186949942Y-125861486D02*
X186854704Y-125909105D01*
X186854704Y-125909105D02*
X186759466Y-125909105D01*
X186759466Y-125909105D02*
X186616609Y-125861486D01*
X186616609Y-125861486D02*
X186045180Y-125290058D01*
X186045180Y-125290058D02*
X186045180Y-125909105D01*
D12*
X144562618Y-113074318D02*
X144562618Y-111804318D01*
X144562618Y-111804318D02*
X144864999Y-111804318D01*
X144864999Y-111804318D02*
X145046428Y-111864794D01*
X145046428Y-111864794D02*
X145167380Y-111985746D01*
X145167380Y-111985746D02*
X145227857Y-112106699D01*
X145227857Y-112106699D02*
X145288333Y-112348603D01*
X145288333Y-112348603D02*
X145288333Y-112530032D01*
X145288333Y-112530032D02*
X145227857Y-112771937D01*
X145227857Y-112771937D02*
X145167380Y-112892889D01*
X145167380Y-112892889D02*
X145046428Y-113013842D01*
X145046428Y-113013842D02*
X144864999Y-113074318D01*
X144864999Y-113074318D02*
X144562618Y-113074318D01*
X145711666Y-111804318D02*
X146497857Y-111804318D01*
X146497857Y-111804318D02*
X146074523Y-112288127D01*
X146074523Y-112288127D02*
X146255952Y-112288127D01*
X146255952Y-112288127D02*
X146376904Y-112348603D01*
X146376904Y-112348603D02*
X146437380Y-112409080D01*
X146437380Y-112409080D02*
X146497857Y-112530032D01*
X146497857Y-112530032D02*
X146497857Y-112832413D01*
X146497857Y-112832413D02*
X146437380Y-112953365D01*
X146437380Y-112953365D02*
X146376904Y-113013842D01*
X146376904Y-113013842D02*
X146255952Y-113074318D01*
X146255952Y-113074318D02*
X145893095Y-113074318D01*
X145893095Y-113074318D02*
X145772142Y-113013842D01*
X145772142Y-113013842D02*
X145711666Y-112953365D01*
D11*
X178954760Y-125029058D02*
X178859522Y-124981439D01*
X178859522Y-124981439D02*
X178764284Y-124886201D01*
X178764284Y-124886201D02*
X178621427Y-124743343D01*
X178621427Y-124743343D02*
X178526189Y-124695724D01*
X178526189Y-124695724D02*
X178430951Y-124695724D01*
X178478570Y-124933820D02*
X178383332Y-124886201D01*
X178383332Y-124886201D02*
X178288094Y-124790962D01*
X178288094Y-124790962D02*
X178240475Y-124600486D01*
X178240475Y-124600486D02*
X178240475Y-124267153D01*
X178240475Y-124267153D02*
X178288094Y-124076677D01*
X178288094Y-124076677D02*
X178383332Y-123981439D01*
X178383332Y-123981439D02*
X178478570Y-123933820D01*
X178478570Y-123933820D02*
X178669046Y-123933820D01*
X178669046Y-123933820D02*
X178764284Y-123981439D01*
X178764284Y-123981439D02*
X178859522Y-124076677D01*
X178859522Y-124076677D02*
X178907141Y-124267153D01*
X178907141Y-124267153D02*
X178907141Y-124600486D01*
X178907141Y-124600486D02*
X178859522Y-124790962D01*
X178859522Y-124790962D02*
X178764284Y-124886201D01*
X178764284Y-124886201D02*
X178669046Y-124933820D01*
X178669046Y-124933820D02*
X178478570Y-124933820D01*
X179859522Y-124933820D02*
X179288094Y-124933820D01*
X179573808Y-124933820D02*
X179573808Y-123933820D01*
X179573808Y-123933820D02*
X179478570Y-124076677D01*
X179478570Y-124076677D02*
X179383332Y-124171915D01*
X179383332Y-124171915D02*
X179288094Y-124219534D01*
D13*
X152377014Y-119570616D02*
X152189538Y-119701850D01*
X152377014Y-119795588D02*
X151983313Y-119795588D01*
X151983313Y-119795588D02*
X151983313Y-119645607D01*
X151983313Y-119645607D02*
X152002061Y-119608112D01*
X152002061Y-119608112D02*
X152020809Y-119589364D01*
X152020809Y-119589364D02*
X152058304Y-119570616D01*
X152058304Y-119570616D02*
X152114547Y-119570616D01*
X152114547Y-119570616D02*
X152152042Y-119589364D01*
X152152042Y-119589364D02*
X152170790Y-119608112D01*
X152170790Y-119608112D02*
X152189538Y-119645607D01*
X152189538Y-119645607D02*
X152189538Y-119795588D01*
X151983313Y-119214411D02*
X151983313Y-119401887D01*
X151983313Y-119401887D02*
X152170790Y-119420635D01*
X152170790Y-119420635D02*
X152152042Y-119401887D01*
X152152042Y-119401887D02*
X152133295Y-119364392D01*
X152133295Y-119364392D02*
X152133295Y-119270654D01*
X152133295Y-119270654D02*
X152152042Y-119233158D01*
X152152042Y-119233158D02*
X152170790Y-119214411D01*
X152170790Y-119214411D02*
X152208285Y-119195663D01*
X152208285Y-119195663D02*
X152302024Y-119195663D01*
X152302024Y-119195663D02*
X152339519Y-119214411D01*
X152339519Y-119214411D02*
X152358267Y-119233158D01*
X152358267Y-119233158D02*
X152377014Y-119270654D01*
X152377014Y-119270654D02*
X152377014Y-119364392D01*
X152377014Y-119364392D02*
X152358267Y-119401887D01*
X152358267Y-119401887D02*
X152339519Y-119420635D01*
D11*
X138045180Y-135409105D02*
X138521371Y-135075772D01*
X138045180Y-134837677D02*
X139045180Y-134837677D01*
X139045180Y-134837677D02*
X139045180Y-135218629D01*
X139045180Y-135218629D02*
X138997561Y-135313867D01*
X138997561Y-135313867D02*
X138949942Y-135361486D01*
X138949942Y-135361486D02*
X138854704Y-135409105D01*
X138854704Y-135409105D02*
X138711847Y-135409105D01*
X138711847Y-135409105D02*
X138616609Y-135361486D01*
X138616609Y-135361486D02*
X138568990Y-135313867D01*
X138568990Y-135313867D02*
X138521371Y-135218629D01*
X138521371Y-135218629D02*
X138521371Y-134837677D01*
X138045180Y-136361486D02*
X138045180Y-135790058D01*
X138045180Y-136075772D02*
X139045180Y-136075772D01*
X139045180Y-136075772D02*
X138902323Y-135980534D01*
X138902323Y-135980534D02*
X138807085Y-135885296D01*
X138807085Y-135885296D02*
X138759466Y-135790058D01*
X139045180Y-137266248D02*
X139045180Y-136790058D01*
X139045180Y-136790058D02*
X138568990Y-136742439D01*
X138568990Y-136742439D02*
X138616609Y-136790058D01*
X138616609Y-136790058D02*
X138664228Y-136885296D01*
X138664228Y-136885296D02*
X138664228Y-137123391D01*
X138664228Y-137123391D02*
X138616609Y-137218629D01*
X138616609Y-137218629D02*
X138568990Y-137266248D01*
X138568990Y-137266248D02*
X138473752Y-137313867D01*
X138473752Y-137313867D02*
X138235657Y-137313867D01*
X138235657Y-137313867D02*
X138140419Y-137266248D01*
X138140419Y-137266248D02*
X138092800Y-137218629D01*
X138092800Y-137218629D02*
X138045180Y-137123391D01*
X138045180Y-137123391D02*
X138045180Y-136885296D01*
X138045180Y-136885296D02*
X138092800Y-136790058D01*
X138092800Y-136790058D02*
X138140419Y-136742439D01*
X138426133Y-137742439D02*
X138426133Y-138504344D01*
X138045180Y-139504343D02*
X138045180Y-138932915D01*
X138045180Y-139218629D02*
X139045180Y-139218629D01*
X139045180Y-139218629D02*
X138902323Y-139123391D01*
X138902323Y-139123391D02*
X138807085Y-139028153D01*
X138807085Y-139028153D02*
X138759466Y-138932915D01*
D13*
X173381907Y-137407014D02*
X173250673Y-137219538D01*
X173156935Y-137407014D02*
X173156935Y-137013313D01*
X173156935Y-137013313D02*
X173306916Y-137013313D01*
X173306916Y-137013313D02*
X173344412Y-137032061D01*
X173344412Y-137032061D02*
X173363159Y-137050809D01*
X173363159Y-137050809D02*
X173381907Y-137088304D01*
X173381907Y-137088304D02*
X173381907Y-137144547D01*
X173381907Y-137144547D02*
X173363159Y-137182042D01*
X173363159Y-137182042D02*
X173344412Y-137200790D01*
X173344412Y-137200790D02*
X173306916Y-137219538D01*
X173306916Y-137219538D02*
X173156935Y-137219538D01*
X173531888Y-137050809D02*
X173550636Y-137032061D01*
X173550636Y-137032061D02*
X173588131Y-137013313D01*
X173588131Y-137013313D02*
X173681870Y-137013313D01*
X173681870Y-137013313D02*
X173719365Y-137032061D01*
X173719365Y-137032061D02*
X173738113Y-137050809D01*
X173738113Y-137050809D02*
X173756860Y-137088304D01*
X173756860Y-137088304D02*
X173756860Y-137125799D01*
X173756860Y-137125799D02*
X173738113Y-137182042D01*
X173738113Y-137182042D02*
X173513141Y-137407014D01*
X173513141Y-137407014D02*
X173756860Y-137407014D01*
X174094318Y-137144547D02*
X174094318Y-137407014D01*
X174000580Y-136994566D02*
X173906841Y-137275781D01*
X173906841Y-137275781D02*
X174150561Y-137275781D01*
D11*
X162507833Y-118859580D02*
X162460214Y-118907200D01*
X162460214Y-118907200D02*
X162317357Y-118954819D01*
X162317357Y-118954819D02*
X162222119Y-118954819D01*
X162222119Y-118954819D02*
X162079262Y-118907200D01*
X162079262Y-118907200D02*
X161984024Y-118811961D01*
X161984024Y-118811961D02*
X161936405Y-118716723D01*
X161936405Y-118716723D02*
X161888786Y-118526247D01*
X161888786Y-118526247D02*
X161888786Y-118383390D01*
X161888786Y-118383390D02*
X161936405Y-118192914D01*
X161936405Y-118192914D02*
X161984024Y-118097676D01*
X161984024Y-118097676D02*
X162079262Y-118002438D01*
X162079262Y-118002438D02*
X162222119Y-117954819D01*
X162222119Y-117954819D02*
X162317357Y-117954819D01*
X162317357Y-117954819D02*
X162460214Y-118002438D01*
X162460214Y-118002438D02*
X162507833Y-118050057D01*
X162841167Y-117954819D02*
X163460214Y-117954819D01*
X163460214Y-117954819D02*
X163126881Y-118335771D01*
X163126881Y-118335771D02*
X163269738Y-118335771D01*
X163269738Y-118335771D02*
X163364976Y-118383390D01*
X163364976Y-118383390D02*
X163412595Y-118431009D01*
X163412595Y-118431009D02*
X163460214Y-118526247D01*
X163460214Y-118526247D02*
X163460214Y-118764342D01*
X163460214Y-118764342D02*
X163412595Y-118859580D01*
X163412595Y-118859580D02*
X163364976Y-118907200D01*
X163364976Y-118907200D02*
X163269738Y-118954819D01*
X163269738Y-118954819D02*
X162984024Y-118954819D01*
X162984024Y-118954819D02*
X162888786Y-118907200D01*
X162888786Y-118907200D02*
X162841167Y-118859580D01*
D13*
X148877014Y-119440616D02*
X148689538Y-119571850D01*
X148877014Y-119665588D02*
X148483313Y-119665588D01*
X148483313Y-119665588D02*
X148483313Y-119515607D01*
X148483313Y-119515607D02*
X148502061Y-119478112D01*
X148502061Y-119478112D02*
X148520809Y-119459364D01*
X148520809Y-119459364D02*
X148558304Y-119440616D01*
X148558304Y-119440616D02*
X148614547Y-119440616D01*
X148614547Y-119440616D02*
X148652042Y-119459364D01*
X148652042Y-119459364D02*
X148670790Y-119478112D01*
X148670790Y-119478112D02*
X148689538Y-119515607D01*
X148689538Y-119515607D02*
X148689538Y-119665588D01*
X148614547Y-119103158D02*
X148877014Y-119103158D01*
X148464566Y-119196897D02*
X148745781Y-119290635D01*
X148745781Y-119290635D02*
X148745781Y-119046915D01*
D11*
X178357142Y-118954819D02*
X178023809Y-118478628D01*
X177785714Y-118954819D02*
X177785714Y-117954819D01*
X177785714Y-117954819D02*
X178166666Y-117954819D01*
X178166666Y-117954819D02*
X178261904Y-118002438D01*
X178261904Y-118002438D02*
X178309523Y-118050057D01*
X178309523Y-118050057D02*
X178357142Y-118145295D01*
X178357142Y-118145295D02*
X178357142Y-118288152D01*
X178357142Y-118288152D02*
X178309523Y-118383390D01*
X178309523Y-118383390D02*
X178261904Y-118431009D01*
X178261904Y-118431009D02*
X178166666Y-118478628D01*
X178166666Y-118478628D02*
X177785714Y-118478628D01*
X178738095Y-118050057D02*
X178785714Y-118002438D01*
X178785714Y-118002438D02*
X178880952Y-117954819D01*
X178880952Y-117954819D02*
X179119047Y-117954819D01*
X179119047Y-117954819D02*
X179214285Y-118002438D01*
X179214285Y-118002438D02*
X179261904Y-118050057D01*
X179261904Y-118050057D02*
X179309523Y-118145295D01*
X179309523Y-118145295D02*
X179309523Y-118240533D01*
X179309523Y-118240533D02*
X179261904Y-118383390D01*
X179261904Y-118383390D02*
X178690476Y-118954819D01*
X178690476Y-118954819D02*
X179309523Y-118954819D01*
X179642857Y-117954819D02*
X180261904Y-117954819D01*
X180261904Y-117954819D02*
X179928571Y-118335771D01*
X179928571Y-118335771D02*
X180071428Y-118335771D01*
X180071428Y-118335771D02*
X180166666Y-118383390D01*
X180166666Y-118383390D02*
X180214285Y-118431009D01*
X180214285Y-118431009D02*
X180261904Y-118526247D01*
X180261904Y-118526247D02*
X180261904Y-118764342D01*
X180261904Y-118764342D02*
X180214285Y-118859580D01*
X180214285Y-118859580D02*
X180166666Y-118907200D01*
X180166666Y-118907200D02*
X180071428Y-118954819D01*
X180071428Y-118954819D02*
X179785714Y-118954819D01*
X179785714Y-118954819D02*
X179690476Y-118907200D01*
X179690476Y-118907200D02*
X179642857Y-118859580D01*
X162545180Y-113857142D02*
X163021371Y-113523809D01*
X162545180Y-113285714D02*
X163545180Y-113285714D01*
X163545180Y-113285714D02*
X163545180Y-113666666D01*
X163545180Y-113666666D02*
X163497561Y-113761904D01*
X163497561Y-113761904D02*
X163449942Y-113809523D01*
X163449942Y-113809523D02*
X163354704Y-113857142D01*
X163354704Y-113857142D02*
X163211847Y-113857142D01*
X163211847Y-113857142D02*
X163116609Y-113809523D01*
X163116609Y-113809523D02*
X163068990Y-113761904D01*
X163068990Y-113761904D02*
X163021371Y-113666666D01*
X163021371Y-113666666D02*
X163021371Y-113285714D01*
X163545180Y-114190476D02*
X163545180Y-114809523D01*
X163545180Y-114809523D02*
X163164228Y-114476190D01*
X163164228Y-114476190D02*
X163164228Y-114619047D01*
X163164228Y-114619047D02*
X163116609Y-114714285D01*
X163116609Y-114714285D02*
X163068990Y-114761904D01*
X163068990Y-114761904D02*
X162973752Y-114809523D01*
X162973752Y-114809523D02*
X162735657Y-114809523D01*
X162735657Y-114809523D02*
X162640419Y-114761904D01*
X162640419Y-114761904D02*
X162592800Y-114714285D01*
X162592800Y-114714285D02*
X162545180Y-114619047D01*
X162545180Y-114619047D02*
X162545180Y-114333333D01*
X162545180Y-114333333D02*
X162592800Y-114238095D01*
X162592800Y-114238095D02*
X162640419Y-114190476D01*
X163545180Y-115142857D02*
X163545180Y-115761904D01*
X163545180Y-115761904D02*
X163164228Y-115428571D01*
X163164228Y-115428571D02*
X163164228Y-115571428D01*
X163164228Y-115571428D02*
X163116609Y-115666666D01*
X163116609Y-115666666D02*
X163068990Y-115714285D01*
X163068990Y-115714285D02*
X162973752Y-115761904D01*
X162973752Y-115761904D02*
X162735657Y-115761904D01*
X162735657Y-115761904D02*
X162640419Y-115714285D01*
X162640419Y-115714285D02*
X162592800Y-115666666D01*
X162592800Y-115666666D02*
X162545180Y-115571428D01*
X162545180Y-115571428D02*
X162545180Y-115285714D01*
X162545180Y-115285714D02*
X162592800Y-115190476D01*
X162592800Y-115190476D02*
X162640419Y-115142857D01*
X167531642Y-118859580D02*
X167484023Y-118907200D01*
X167484023Y-118907200D02*
X167341166Y-118954819D01*
X167341166Y-118954819D02*
X167245928Y-118954819D01*
X167245928Y-118954819D02*
X167103071Y-118907200D01*
X167103071Y-118907200D02*
X167007833Y-118811961D01*
X167007833Y-118811961D02*
X166960214Y-118716723D01*
X166960214Y-118716723D02*
X166912595Y-118526247D01*
X166912595Y-118526247D02*
X166912595Y-118383390D01*
X166912595Y-118383390D02*
X166960214Y-118192914D01*
X166960214Y-118192914D02*
X167007833Y-118097676D01*
X167007833Y-118097676D02*
X167103071Y-118002438D01*
X167103071Y-118002438D02*
X167245928Y-117954819D01*
X167245928Y-117954819D02*
X167341166Y-117954819D01*
X167341166Y-117954819D02*
X167484023Y-118002438D01*
X167484023Y-118002438D02*
X167531642Y-118050057D01*
X168484023Y-118954819D02*
X167912595Y-118954819D01*
X168198309Y-118954819D02*
X168198309Y-117954819D01*
X168198309Y-117954819D02*
X168103071Y-118097676D01*
X168103071Y-118097676D02*
X168007833Y-118192914D01*
X168007833Y-118192914D02*
X167912595Y-118240533D01*
X169388785Y-117954819D02*
X168912595Y-117954819D01*
X168912595Y-117954819D02*
X168864976Y-118431009D01*
X168864976Y-118431009D02*
X168912595Y-118383390D01*
X168912595Y-118383390D02*
X169007833Y-118335771D01*
X169007833Y-118335771D02*
X169245928Y-118335771D01*
X169245928Y-118335771D02*
X169341166Y-118383390D01*
X169341166Y-118383390D02*
X169388785Y-118431009D01*
X169388785Y-118431009D02*
X169436404Y-118526247D01*
X169436404Y-118526247D02*
X169436404Y-118764342D01*
X169436404Y-118764342D02*
X169388785Y-118859580D01*
X169388785Y-118859580D02*
X169341166Y-118907200D01*
X169341166Y-118907200D02*
X169245928Y-118954819D01*
X169245928Y-118954819D02*
X169007833Y-118954819D01*
X169007833Y-118954819D02*
X168912595Y-118907200D01*
X168912595Y-118907200D02*
X168864976Y-118859580D01*
D12*
X129863571Y-60953365D02*
X129803095Y-61013842D01*
X129803095Y-61013842D02*
X129621666Y-61074318D01*
X129621666Y-61074318D02*
X129500714Y-61074318D01*
X129500714Y-61074318D02*
X129319285Y-61013842D01*
X129319285Y-61013842D02*
X129198333Y-60892889D01*
X129198333Y-60892889D02*
X129137856Y-60771937D01*
X129137856Y-60771937D02*
X129077380Y-60530032D01*
X129077380Y-60530032D02*
X129077380Y-60348603D01*
X129077380Y-60348603D02*
X129137856Y-60106699D01*
X129137856Y-60106699D02*
X129198333Y-59985746D01*
X129198333Y-59985746D02*
X129319285Y-59864794D01*
X129319285Y-59864794D02*
X129500714Y-59804318D01*
X129500714Y-59804318D02*
X129621666Y-59804318D01*
X129621666Y-59804318D02*
X129803095Y-59864794D01*
X129803095Y-59864794D02*
X129863571Y-59925270D01*
X130347380Y-59925270D02*
X130407856Y-59864794D01*
X130407856Y-59864794D02*
X130528809Y-59804318D01*
X130528809Y-59804318D02*
X130831190Y-59804318D01*
X130831190Y-59804318D02*
X130952142Y-59864794D01*
X130952142Y-59864794D02*
X131012618Y-59925270D01*
X131012618Y-59925270D02*
X131073095Y-60046222D01*
X131073095Y-60046222D02*
X131073095Y-60167175D01*
X131073095Y-60167175D02*
X131012618Y-60348603D01*
X131012618Y-60348603D02*
X130286904Y-61074318D01*
X130286904Y-61074318D02*
X131073095Y-61074318D01*
X131859285Y-59804318D02*
X131980238Y-59804318D01*
X131980238Y-59804318D02*
X132101190Y-59864794D01*
X132101190Y-59864794D02*
X132161666Y-59925270D01*
X132161666Y-59925270D02*
X132222142Y-60046222D01*
X132222142Y-60046222D02*
X132282619Y-60288127D01*
X132282619Y-60288127D02*
X132282619Y-60590508D01*
X132282619Y-60590508D02*
X132222142Y-60832413D01*
X132222142Y-60832413D02*
X132161666Y-60953365D01*
X132161666Y-60953365D02*
X132101190Y-61013842D01*
X132101190Y-61013842D02*
X131980238Y-61074318D01*
X131980238Y-61074318D02*
X131859285Y-61074318D01*
X131859285Y-61074318D02*
X131738333Y-61013842D01*
X131738333Y-61013842D02*
X131677857Y-60953365D01*
X131677857Y-60953365D02*
X131617380Y-60832413D01*
X131617380Y-60832413D02*
X131556904Y-60590508D01*
X131556904Y-60590508D02*
X131556904Y-60288127D01*
X131556904Y-60288127D02*
X131617380Y-60046222D01*
X131617380Y-60046222D02*
X131677857Y-59925270D01*
X131677857Y-59925270D02*
X131738333Y-59864794D01*
X131738333Y-59864794D02*
X131859285Y-59804318D01*
D13*
X145877014Y-119570616D02*
X145689538Y-119701850D01*
X145877014Y-119795588D02*
X145483313Y-119795588D01*
X145483313Y-119795588D02*
X145483313Y-119645607D01*
X145483313Y-119645607D02*
X145502061Y-119608112D01*
X145502061Y-119608112D02*
X145520809Y-119589364D01*
X145520809Y-119589364D02*
X145558304Y-119570616D01*
X145558304Y-119570616D02*
X145614547Y-119570616D01*
X145614547Y-119570616D02*
X145652042Y-119589364D01*
X145652042Y-119589364D02*
X145670790Y-119608112D01*
X145670790Y-119608112D02*
X145689538Y-119645607D01*
X145689538Y-119645607D02*
X145689538Y-119795588D01*
X145483313Y-119439383D02*
X145483313Y-119176915D01*
X145483313Y-119176915D02*
X145877014Y-119345644D01*
D11*
X148763095Y-85772200D02*
X148905952Y-85819819D01*
X148905952Y-85819819D02*
X149144047Y-85819819D01*
X149144047Y-85819819D02*
X149239285Y-85772200D01*
X149239285Y-85772200D02*
X149286904Y-85724580D01*
X149286904Y-85724580D02*
X149334523Y-85629342D01*
X149334523Y-85629342D02*
X149334523Y-85534104D01*
X149334523Y-85534104D02*
X149286904Y-85438866D01*
X149286904Y-85438866D02*
X149239285Y-85391247D01*
X149239285Y-85391247D02*
X149144047Y-85343628D01*
X149144047Y-85343628D02*
X148953571Y-85296009D01*
X148953571Y-85296009D02*
X148858333Y-85248390D01*
X148858333Y-85248390D02*
X148810714Y-85200771D01*
X148810714Y-85200771D02*
X148763095Y-85105533D01*
X148763095Y-85105533D02*
X148763095Y-85010295D01*
X148763095Y-85010295D02*
X148810714Y-84915057D01*
X148810714Y-84915057D02*
X148858333Y-84867438D01*
X148858333Y-84867438D02*
X148953571Y-84819819D01*
X148953571Y-84819819D02*
X149191666Y-84819819D01*
X149191666Y-84819819D02*
X149334523Y-84867438D01*
X150286904Y-85819819D02*
X149715476Y-85819819D01*
X150001190Y-85819819D02*
X150001190Y-84819819D01*
X150001190Y-84819819D02*
X149905952Y-84962676D01*
X149905952Y-84962676D02*
X149810714Y-85057914D01*
X149810714Y-85057914D02*
X149715476Y-85105533D01*
X148893095Y-62714819D02*
X148893095Y-63524342D01*
X148893095Y-63524342D02*
X148940714Y-63619580D01*
X148940714Y-63619580D02*
X148988333Y-63667200D01*
X148988333Y-63667200D02*
X149083571Y-63714819D01*
X149083571Y-63714819D02*
X149274047Y-63714819D01*
X149274047Y-63714819D02*
X149369285Y-63667200D01*
X149369285Y-63667200D02*
X149416904Y-63619580D01*
X149416904Y-63619580D02*
X149464523Y-63524342D01*
X149464523Y-63524342D02*
X149464523Y-62714819D01*
X150464523Y-63714819D02*
X149893095Y-63714819D01*
X150178809Y-63714819D02*
X150178809Y-62714819D01*
X150178809Y-62714819D02*
X150083571Y-62857676D01*
X150083571Y-62857676D02*
X149988333Y-62952914D01*
X149988333Y-62952914D02*
X149893095Y-63000533D01*
X139520700Y-57454819D02*
X139520700Y-57692914D01*
X139282605Y-57597676D02*
X139520700Y-57692914D01*
X139520700Y-57692914D02*
X139758795Y-57597676D01*
X139377843Y-57883390D02*
X139520700Y-57692914D01*
X139520700Y-57692914D02*
X139663557Y-57883390D01*
X139520700Y-57454819D02*
X139520700Y-57692914D01*
X139282605Y-57597676D02*
X139520700Y-57692914D01*
X139520700Y-57692914D02*
X139758795Y-57597676D01*
X139377843Y-57883390D02*
X139520700Y-57692914D01*
X139520700Y-57692914D02*
X139663557Y-57883390D01*
X166209941Y-127954819D02*
X165876608Y-127478628D01*
X165638513Y-127954819D02*
X165638513Y-126954819D01*
X165638513Y-126954819D02*
X166019465Y-126954819D01*
X166019465Y-126954819D02*
X166114703Y-127002438D01*
X166114703Y-127002438D02*
X166162322Y-127050057D01*
X166162322Y-127050057D02*
X166209941Y-127145295D01*
X166209941Y-127145295D02*
X166209941Y-127288152D01*
X166209941Y-127288152D02*
X166162322Y-127383390D01*
X166162322Y-127383390D02*
X166114703Y-127431009D01*
X166114703Y-127431009D02*
X166019465Y-127478628D01*
X166019465Y-127478628D02*
X165638513Y-127478628D01*
X166590894Y-127050057D02*
X166638513Y-127002438D01*
X166638513Y-127002438D02*
X166733751Y-126954819D01*
X166733751Y-126954819D02*
X166971846Y-126954819D01*
X166971846Y-126954819D02*
X167067084Y-127002438D01*
X167067084Y-127002438D02*
X167114703Y-127050057D01*
X167114703Y-127050057D02*
X167162322Y-127145295D01*
X167162322Y-127145295D02*
X167162322Y-127240533D01*
X167162322Y-127240533D02*
X167114703Y-127383390D01*
X167114703Y-127383390D02*
X166543275Y-127954819D01*
X166543275Y-127954819D02*
X167162322Y-127954819D01*
X168114703Y-127954819D02*
X167543275Y-127954819D01*
X167828989Y-127954819D02*
X167828989Y-126954819D01*
X167828989Y-126954819D02*
X167733751Y-127097676D01*
X167733751Y-127097676D02*
X167638513Y-127192914D01*
X167638513Y-127192914D02*
X167543275Y-127240533D01*
D12*
X139112618Y-113074318D02*
X139112618Y-111804318D01*
X139112618Y-111804318D02*
X139414999Y-111804318D01*
X139414999Y-111804318D02*
X139596428Y-111864794D01*
X139596428Y-111864794D02*
X139717380Y-111985746D01*
X139717380Y-111985746D02*
X139777857Y-112106699D01*
X139777857Y-112106699D02*
X139838333Y-112348603D01*
X139838333Y-112348603D02*
X139838333Y-112530032D01*
X139838333Y-112530032D02*
X139777857Y-112771937D01*
X139777857Y-112771937D02*
X139717380Y-112892889D01*
X139717380Y-112892889D02*
X139596428Y-113013842D01*
X139596428Y-113013842D02*
X139414999Y-113074318D01*
X139414999Y-113074318D02*
X139112618Y-113074318D01*
X140926904Y-112227651D02*
X140926904Y-113074318D01*
X140624523Y-111743842D02*
X140322142Y-112650984D01*
X140322142Y-112650984D02*
X141108333Y-112650984D01*
D11*
X109220595Y-102839819D02*
X109220595Y-103649342D01*
X109220595Y-103649342D02*
X109268214Y-103744580D01*
X109268214Y-103744580D02*
X109315833Y-103792200D01*
X109315833Y-103792200D02*
X109411071Y-103839819D01*
X109411071Y-103839819D02*
X109601547Y-103839819D01*
X109601547Y-103839819D02*
X109696785Y-103792200D01*
X109696785Y-103792200D02*
X109744404Y-103744580D01*
X109744404Y-103744580D02*
X109792023Y-103649342D01*
X109792023Y-103649342D02*
X109792023Y-102839819D01*
X110172976Y-102839819D02*
X110792023Y-102839819D01*
X110792023Y-102839819D02*
X110458690Y-103220771D01*
X110458690Y-103220771D02*
X110601547Y-103220771D01*
X110601547Y-103220771D02*
X110696785Y-103268390D01*
X110696785Y-103268390D02*
X110744404Y-103316009D01*
X110744404Y-103316009D02*
X110792023Y-103411247D01*
X110792023Y-103411247D02*
X110792023Y-103649342D01*
X110792023Y-103649342D02*
X110744404Y-103744580D01*
X110744404Y-103744580D02*
X110696785Y-103792200D01*
X110696785Y-103792200D02*
X110601547Y-103839819D01*
X110601547Y-103839819D02*
X110315833Y-103839819D01*
X110315833Y-103839819D02*
X110220595Y-103792200D01*
X110220595Y-103792200D02*
X110172976Y-103744580D01*
D12*
X119128809Y-105574318D02*
X118524047Y-105574318D01*
X118524047Y-105574318D02*
X118524047Y-104304318D01*
X119552142Y-104909080D02*
X119975476Y-104909080D01*
X120156904Y-105574318D02*
X119552142Y-105574318D01*
X119552142Y-105574318D02*
X119552142Y-104304318D01*
X119552142Y-104304318D02*
X120156904Y-104304318D01*
X120701190Y-105574318D02*
X120701190Y-104304318D01*
X120701190Y-104304318D02*
X121003571Y-104304318D01*
X121003571Y-104304318D02*
X121185000Y-104364794D01*
X121185000Y-104364794D02*
X121305952Y-104485746D01*
X121305952Y-104485746D02*
X121366429Y-104606699D01*
X121366429Y-104606699D02*
X121426905Y-104848603D01*
X121426905Y-104848603D02*
X121426905Y-105030032D01*
X121426905Y-105030032D02*
X121366429Y-105271937D01*
X121366429Y-105271937D02*
X121305952Y-105392889D01*
X121305952Y-105392889D02*
X121185000Y-105513842D01*
X121185000Y-105513842D02*
X121003571Y-105574318D01*
X121003571Y-105574318D02*
X120701190Y-105574318D01*
X122636429Y-105574318D02*
X121910714Y-105574318D01*
X122273571Y-105574318D02*
X122273571Y-104304318D01*
X122273571Y-104304318D02*
X122152619Y-104485746D01*
X122152619Y-104485746D02*
X122031667Y-104606699D01*
X122031667Y-104606699D02*
X121910714Y-104667175D01*
D11*
X172904761Y-125050057D02*
X172809523Y-125002438D01*
X172809523Y-125002438D02*
X172714285Y-124907200D01*
X172714285Y-124907200D02*
X172571428Y-124764342D01*
X172571428Y-124764342D02*
X172476190Y-124716723D01*
X172476190Y-124716723D02*
X172380952Y-124716723D01*
X172428571Y-124954819D02*
X172333333Y-124907200D01*
X172333333Y-124907200D02*
X172238095Y-124811961D01*
X172238095Y-124811961D02*
X172190476Y-124621485D01*
X172190476Y-124621485D02*
X172190476Y-124288152D01*
X172190476Y-124288152D02*
X172238095Y-124097676D01*
X172238095Y-124097676D02*
X172333333Y-124002438D01*
X172333333Y-124002438D02*
X172428571Y-123954819D01*
X172428571Y-123954819D02*
X172619047Y-123954819D01*
X172619047Y-123954819D02*
X172714285Y-124002438D01*
X172714285Y-124002438D02*
X172809523Y-124097676D01*
X172809523Y-124097676D02*
X172857142Y-124288152D01*
X172857142Y-124288152D02*
X172857142Y-124621485D01*
X172857142Y-124621485D02*
X172809523Y-124811961D01*
X172809523Y-124811961D02*
X172714285Y-124907200D01*
X172714285Y-124907200D02*
X172619047Y-124954819D01*
X172619047Y-124954819D02*
X172428571Y-124954819D01*
X173238095Y-124050057D02*
X173285714Y-124002438D01*
X173285714Y-124002438D02*
X173380952Y-123954819D01*
X173380952Y-123954819D02*
X173619047Y-123954819D01*
X173619047Y-123954819D02*
X173714285Y-124002438D01*
X173714285Y-124002438D02*
X173761904Y-124050057D01*
X173761904Y-124050057D02*
X173809523Y-124145295D01*
X173809523Y-124145295D02*
X173809523Y-124240533D01*
X173809523Y-124240533D02*
X173761904Y-124383390D01*
X173761904Y-124383390D02*
X173190476Y-124954819D01*
X173190476Y-124954819D02*
X173809523Y-124954819D01*
X167504343Y-137454819D02*
X167171010Y-136978628D01*
X166932915Y-137454819D02*
X166932915Y-136454819D01*
X166932915Y-136454819D02*
X167313867Y-136454819D01*
X167313867Y-136454819D02*
X167409105Y-136502438D01*
X167409105Y-136502438D02*
X167456724Y-136550057D01*
X167456724Y-136550057D02*
X167504343Y-136645295D01*
X167504343Y-136645295D02*
X167504343Y-136788152D01*
X167504343Y-136788152D02*
X167456724Y-136883390D01*
X167456724Y-136883390D02*
X167409105Y-136931009D01*
X167409105Y-136931009D02*
X167313867Y-136978628D01*
X167313867Y-136978628D02*
X166932915Y-136978628D01*
X167837677Y-136454819D02*
X168456724Y-136454819D01*
X168456724Y-136454819D02*
X168123391Y-136835771D01*
X168123391Y-136835771D02*
X168266248Y-136835771D01*
X168266248Y-136835771D02*
X168361486Y-136883390D01*
X168361486Y-136883390D02*
X168409105Y-136931009D01*
X168409105Y-136931009D02*
X168456724Y-137026247D01*
X168456724Y-137026247D02*
X168456724Y-137264342D01*
X168456724Y-137264342D02*
X168409105Y-137359580D01*
X168409105Y-137359580D02*
X168361486Y-137407200D01*
X168361486Y-137407200D02*
X168266248Y-137454819D01*
X168266248Y-137454819D02*
X167980534Y-137454819D01*
X167980534Y-137454819D02*
X167885296Y-137407200D01*
X167885296Y-137407200D02*
X167837677Y-137359580D01*
X169313867Y-136788152D02*
X169313867Y-137454819D01*
X169075772Y-136407200D02*
X168837677Y-137121485D01*
X168837677Y-137121485D02*
X169456724Y-137121485D01*
D12*
X177760237Y-132574318D02*
X177760237Y-131304318D01*
X179090714Y-132453365D02*
X179030238Y-132513842D01*
X179030238Y-132513842D02*
X178848809Y-132574318D01*
X178848809Y-132574318D02*
X178727857Y-132574318D01*
X178727857Y-132574318D02*
X178546428Y-132513842D01*
X178546428Y-132513842D02*
X178425476Y-132392889D01*
X178425476Y-132392889D02*
X178364999Y-132271937D01*
X178364999Y-132271937D02*
X178304523Y-132030032D01*
X178304523Y-132030032D02*
X178304523Y-131848603D01*
X178304523Y-131848603D02*
X178364999Y-131606699D01*
X178364999Y-131606699D02*
X178425476Y-131485746D01*
X178425476Y-131485746D02*
X178546428Y-131364794D01*
X178546428Y-131364794D02*
X178727857Y-131304318D01*
X178727857Y-131304318D02*
X178848809Y-131304318D01*
X178848809Y-131304318D02*
X179030238Y-131364794D01*
X179030238Y-131364794D02*
X179090714Y-131425270D01*
X179514047Y-131304318D02*
X180300238Y-131304318D01*
X180300238Y-131304318D02*
X179876904Y-131788127D01*
X179876904Y-131788127D02*
X180058333Y-131788127D01*
X180058333Y-131788127D02*
X180179285Y-131848603D01*
X180179285Y-131848603D02*
X180239761Y-131909080D01*
X180239761Y-131909080D02*
X180300238Y-132030032D01*
X180300238Y-132030032D02*
X180300238Y-132332413D01*
X180300238Y-132332413D02*
X180239761Y-132453365D01*
X180239761Y-132453365D02*
X180179285Y-132513842D01*
X180179285Y-132513842D02*
X180058333Y-132574318D01*
X180058333Y-132574318D02*
X179695476Y-132574318D01*
X179695476Y-132574318D02*
X179574523Y-132513842D01*
X179574523Y-132513842D02*
X179514047Y-132453365D01*
D11*
X118836395Y-96454819D02*
X118503062Y-95978628D01*
X118264967Y-96454819D02*
X118264967Y-95454819D01*
X118264967Y-95454819D02*
X118645919Y-95454819D01*
X118645919Y-95454819D02*
X118741157Y-95502438D01*
X118741157Y-95502438D02*
X118788776Y-95550057D01*
X118788776Y-95550057D02*
X118836395Y-95645295D01*
X118836395Y-95645295D02*
X118836395Y-95788152D01*
X118836395Y-95788152D02*
X118788776Y-95883390D01*
X118788776Y-95883390D02*
X118741157Y-95931009D01*
X118741157Y-95931009D02*
X118645919Y-95978628D01*
X118645919Y-95978628D02*
X118264967Y-95978628D01*
X119455443Y-95454819D02*
X119550681Y-95454819D01*
X119550681Y-95454819D02*
X119645919Y-95502438D01*
X119645919Y-95502438D02*
X119693538Y-95550057D01*
X119693538Y-95550057D02*
X119741157Y-95645295D01*
X119741157Y-95645295D02*
X119788776Y-95835771D01*
X119788776Y-95835771D02*
X119788776Y-96073866D01*
X119788776Y-96073866D02*
X119741157Y-96264342D01*
X119741157Y-96264342D02*
X119693538Y-96359580D01*
X119693538Y-96359580D02*
X119645919Y-96407200D01*
X119645919Y-96407200D02*
X119550681Y-96454819D01*
X119550681Y-96454819D02*
X119455443Y-96454819D01*
X119455443Y-96454819D02*
X119360205Y-96407200D01*
X119360205Y-96407200D02*
X119312586Y-96359580D01*
X119312586Y-96359580D02*
X119264967Y-96264342D01*
X119264967Y-96264342D02*
X119217348Y-96073866D01*
X119217348Y-96073866D02*
X119217348Y-95835771D01*
X119217348Y-95835771D02*
X119264967Y-95645295D01*
X119264967Y-95645295D02*
X119312586Y-95550057D01*
X119312586Y-95550057D02*
X119360205Y-95502438D01*
X119360205Y-95502438D02*
X119455443Y-95454819D01*
X120217348Y-96073866D02*
X120979253Y-96073866D01*
X121979252Y-96454819D02*
X121407824Y-96454819D01*
X121693538Y-96454819D02*
X121693538Y-95454819D01*
X121693538Y-95454819D02*
X121598300Y-95597676D01*
X121598300Y-95597676D02*
X121503062Y-95692914D01*
X121503062Y-95692914D02*
X121407824Y-95740533D01*
X169357142Y-129859580D02*
X169309523Y-129907200D01*
X169309523Y-129907200D02*
X169166666Y-129954819D01*
X169166666Y-129954819D02*
X169071428Y-129954819D01*
X169071428Y-129954819D02*
X168928571Y-129907200D01*
X168928571Y-129907200D02*
X168833333Y-129811961D01*
X168833333Y-129811961D02*
X168785714Y-129716723D01*
X168785714Y-129716723D02*
X168738095Y-129526247D01*
X168738095Y-129526247D02*
X168738095Y-129383390D01*
X168738095Y-129383390D02*
X168785714Y-129192914D01*
X168785714Y-129192914D02*
X168833333Y-129097676D01*
X168833333Y-129097676D02*
X168928571Y-129002438D01*
X168928571Y-129002438D02*
X169071428Y-128954819D01*
X169071428Y-128954819D02*
X169166666Y-128954819D01*
X169166666Y-128954819D02*
X169309523Y-129002438D01*
X169309523Y-129002438D02*
X169357142Y-129050057D01*
X169738095Y-129050057D02*
X169785714Y-129002438D01*
X169785714Y-129002438D02*
X169880952Y-128954819D01*
X169880952Y-128954819D02*
X170119047Y-128954819D01*
X170119047Y-128954819D02*
X170214285Y-129002438D01*
X170214285Y-129002438D02*
X170261904Y-129050057D01*
X170261904Y-129050057D02*
X170309523Y-129145295D01*
X170309523Y-129145295D02*
X170309523Y-129240533D01*
X170309523Y-129240533D02*
X170261904Y-129383390D01*
X170261904Y-129383390D02*
X169690476Y-129954819D01*
X169690476Y-129954819D02*
X170309523Y-129954819D01*
X171261904Y-129954819D02*
X170690476Y-129954819D01*
X170976190Y-129954819D02*
X170976190Y-128954819D01*
X170976190Y-128954819D02*
X170880952Y-129097676D01*
X170880952Y-129097676D02*
X170785714Y-129192914D01*
X170785714Y-129192914D02*
X170690476Y-129240533D01*
X122404761Y-91359580D02*
X122357142Y-91407200D01*
X122357142Y-91407200D02*
X122214285Y-91454819D01*
X122214285Y-91454819D02*
X122119047Y-91454819D01*
X122119047Y-91454819D02*
X121976190Y-91407200D01*
X121976190Y-91407200D02*
X121880952Y-91311961D01*
X121880952Y-91311961D02*
X121833333Y-91216723D01*
X121833333Y-91216723D02*
X121785714Y-91026247D01*
X121785714Y-91026247D02*
X121785714Y-90883390D01*
X121785714Y-90883390D02*
X121833333Y-90692914D01*
X121833333Y-90692914D02*
X121880952Y-90597676D01*
X121880952Y-90597676D02*
X121976190Y-90502438D01*
X121976190Y-90502438D02*
X122119047Y-90454819D01*
X122119047Y-90454819D02*
X122214285Y-90454819D01*
X122214285Y-90454819D02*
X122357142Y-90502438D01*
X122357142Y-90502438D02*
X122404761Y-90550057D01*
X122738095Y-90454819D02*
X123357142Y-90454819D01*
X123357142Y-90454819D02*
X123023809Y-90835771D01*
X123023809Y-90835771D02*
X123166666Y-90835771D01*
X123166666Y-90835771D02*
X123261904Y-90883390D01*
X123261904Y-90883390D02*
X123309523Y-90931009D01*
X123309523Y-90931009D02*
X123357142Y-91026247D01*
X123357142Y-91026247D02*
X123357142Y-91264342D01*
X123357142Y-91264342D02*
X123309523Y-91359580D01*
X123309523Y-91359580D02*
X123261904Y-91407200D01*
X123261904Y-91407200D02*
X123166666Y-91454819D01*
X123166666Y-91454819D02*
X122880952Y-91454819D01*
X122880952Y-91454819D02*
X122785714Y-91407200D01*
X122785714Y-91407200D02*
X122738095Y-91359580D01*
X123785714Y-91073866D02*
X124547619Y-91073866D01*
X124976190Y-90550057D02*
X125023809Y-90502438D01*
X125023809Y-90502438D02*
X125119047Y-90454819D01*
X125119047Y-90454819D02*
X125357142Y-90454819D01*
X125357142Y-90454819D02*
X125452380Y-90502438D01*
X125452380Y-90502438D02*
X125499999Y-90550057D01*
X125499999Y-90550057D02*
X125547618Y-90645295D01*
X125547618Y-90645295D02*
X125547618Y-90740533D01*
X125547618Y-90740533D02*
X125499999Y-90883390D01*
X125499999Y-90883390D02*
X124928571Y-91454819D01*
X124928571Y-91454819D02*
X125547618Y-91454819D01*
X125928571Y-90550057D02*
X125976190Y-90502438D01*
X125976190Y-90502438D02*
X126071428Y-90454819D01*
X126071428Y-90454819D02*
X126309523Y-90454819D01*
X126309523Y-90454819D02*
X126404761Y-90502438D01*
X126404761Y-90502438D02*
X126452380Y-90550057D01*
X126452380Y-90550057D02*
X126499999Y-90645295D01*
X126499999Y-90645295D02*
X126499999Y-90740533D01*
X126499999Y-90740533D02*
X126452380Y-90883390D01*
X126452380Y-90883390D02*
X125880952Y-91454819D01*
X125880952Y-91454819D02*
X126499999Y-91454819D01*
X127357142Y-90788152D02*
X127357142Y-91454819D01*
X126928571Y-90788152D02*
X126928571Y-91311961D01*
X126928571Y-91311961D02*
X126976190Y-91407200D01*
X126976190Y-91407200D02*
X127071428Y-91454819D01*
X127071428Y-91454819D02*
X127214285Y-91454819D01*
X127214285Y-91454819D02*
X127309523Y-91407200D01*
X127309523Y-91407200D02*
X127357142Y-91359580D01*
X128166666Y-90931009D02*
X127833333Y-90931009D01*
X127833333Y-91454819D02*
X127833333Y-90454819D01*
X127833333Y-90454819D02*
X128309523Y-90454819D01*
X129214285Y-91454819D02*
X128642857Y-91454819D01*
X128928571Y-91454819D02*
X128928571Y-90454819D01*
X128928571Y-90454819D02*
X128833333Y-90597676D01*
X128833333Y-90597676D02*
X128738095Y-90692914D01*
X128738095Y-90692914D02*
X128642857Y-90740533D01*
X165545180Y-113955542D02*
X166021371Y-113622209D01*
X165545180Y-113384114D02*
X166545180Y-113384114D01*
X166545180Y-113384114D02*
X166545180Y-113765066D01*
X166545180Y-113765066D02*
X166497561Y-113860304D01*
X166497561Y-113860304D02*
X166449942Y-113907923D01*
X166449942Y-113907923D02*
X166354704Y-113955542D01*
X166354704Y-113955542D02*
X166211847Y-113955542D01*
X166211847Y-113955542D02*
X166116609Y-113907923D01*
X166116609Y-113907923D02*
X166068990Y-113860304D01*
X166068990Y-113860304D02*
X166021371Y-113765066D01*
X166021371Y-113765066D02*
X166021371Y-113384114D01*
X166545180Y-114288876D02*
X166545180Y-114907923D01*
X166545180Y-114907923D02*
X166164228Y-114574590D01*
X166164228Y-114574590D02*
X166164228Y-114717447D01*
X166164228Y-114717447D02*
X166116609Y-114812685D01*
X166116609Y-114812685D02*
X166068990Y-114860304D01*
X166068990Y-114860304D02*
X165973752Y-114907923D01*
X165973752Y-114907923D02*
X165735657Y-114907923D01*
X165735657Y-114907923D02*
X165640419Y-114860304D01*
X165640419Y-114860304D02*
X165592800Y-114812685D01*
X165592800Y-114812685D02*
X165545180Y-114717447D01*
X165545180Y-114717447D02*
X165545180Y-114431733D01*
X165545180Y-114431733D02*
X165592800Y-114336495D01*
X165592800Y-114336495D02*
X165640419Y-114288876D01*
X165545180Y-115860304D02*
X165545180Y-115288876D01*
X165545180Y-115574590D02*
X166545180Y-115574590D01*
X166545180Y-115574590D02*
X166402323Y-115479352D01*
X166402323Y-115479352D02*
X166307085Y-115384114D01*
X166307085Y-115384114D02*
X166259466Y-115288876D01*
D14*
%TO.C,J4*%
X183103000Y-118851000D02*
X185897000Y-118851000D01*
X185897000Y-118851000D02*
X185897000Y-69829000D01*
X183103000Y-69829000D02*
X183103000Y-118851000D01*
X185897000Y-69829000D02*
X183103000Y-69829000D01*
D15*
X184881000Y-119486000D02*
G75*
G02*
X184119000Y-119486000I-381000J0D01*
G01*
X184119000Y-119486000D02*
G75*
G02*
X184881000Y-119486000I381000J0D01*
G01*
D14*
%TO.C,J3*%
X190603000Y-119011000D02*
X193397000Y-119011000D01*
X193397000Y-119011000D02*
X193397000Y-69989000D01*
X190603000Y-69989000D02*
X190603000Y-119011000D01*
X193397000Y-69989000D02*
X190603000Y-69989000D01*
D15*
X192381000Y-119646000D02*
G75*
G02*
X191619000Y-119646000I-381000J0D01*
G01*
X191619000Y-119646000D02*
G75*
G02*
X192381000Y-119646000I381000J0D01*
G01*
D14*
%TO.C,C1*%
X119076200Y-82752100D02*
G75*
G02*
X118923800Y-82752100I-76200J0D01*
G01*
X118923800Y-82752100D02*
G75*
G02*
X119076200Y-82752100I76200J0D01*
G01*
%TO.C,R26*%
X120410550Y-120800100D02*
X120786050Y-120800100D01*
X120786050Y-119199900D02*
X120410550Y-119199900D01*
D16*
%TO.C,D2*%
X149275000Y-113450000D02*
X149275000Y-115550000D01*
X149275000Y-115550000D02*
X152000000Y-115550000D01*
X152000000Y-113450000D02*
X149275000Y-113450000D01*
D17*
%TO.C,S2*%
X120750000Y-60220000D02*
X120750000Y-61780000D01*
X121470000Y-58750000D02*
X124530000Y-58750000D01*
X121470000Y-63250000D02*
X124530000Y-63250000D01*
X125250000Y-60220000D02*
X125250000Y-61780000D01*
D16*
X118850000Y-59400000D02*
G75*
G02*
X118650000Y-59400000I-100000J0D01*
G01*
X118650000Y-59400000D02*
G75*
G02*
X118850000Y-59400000I100000J0D01*
G01*
D14*
%TO.C,R25*%
X120410550Y-114300100D02*
X120786050Y-114300100D01*
X120786050Y-112699900D02*
X120410550Y-112699900D01*
D16*
%TO.C,D1*%
X154775000Y-113450000D02*
X154775000Y-115550000D01*
X154775000Y-115550000D02*
X157500000Y-115550000D01*
X157500000Y-113450000D02*
X154775000Y-113450000D01*
D17*
%TO.C,R6*%
X142800000Y-119120000D02*
X142800000Y-118880000D01*
X144200000Y-119120000D02*
X144200000Y-118880000D01*
%TO.C,J2*%
X100500000Y-76700000D02*
X101380000Y-76700000D01*
X100500000Y-86800000D02*
X100500000Y-76700000D01*
X100500000Y-86800000D02*
X101480000Y-86800000D01*
X105470000Y-86800000D02*
X109030000Y-86800000D01*
X105480000Y-76700000D02*
X109500000Y-76700000D01*
X112000000Y-78770000D02*
X112000000Y-81830000D01*
X112000000Y-83920000D02*
X112000000Y-85230000D01*
D16*
X113000000Y-86260000D02*
G75*
G02*
X112800000Y-86260000I-100000J0D01*
G01*
X112800000Y-86260000D02*
G75*
G02*
X113000000Y-86260000I100000J0D01*
G01*
D14*
%TO.C,U2*%
X143465101Y-126572900D02*
X144468061Y-126572900D01*
X143465101Y-128371960D02*
X143465101Y-126572900D01*
X143465101Y-150017100D02*
X143465101Y-139828040D01*
X155924141Y-126572900D02*
X156927101Y-126572900D01*
X156927101Y-126572900D02*
X156927101Y-128371960D01*
X156927101Y-139828040D02*
X156927101Y-150017100D01*
X156927101Y-150017100D02*
X143465101Y-150017100D01*
D16*
%TO.C,C19*%
X130680000Y-58475000D02*
X130680000Y-59525000D01*
D14*
%TO.C,R32*%
X119307550Y-93352000D02*
X119692450Y-93352000D01*
X119692450Y-91648000D02*
X119307550Y-91648000D01*
%TO.C,C31*%
X167853600Y-133894900D02*
G75*
G02*
X167701200Y-133894900I-76200J0D01*
G01*
X167701200Y-133894900D02*
G75*
G02*
X167853600Y-133894900I76200J0D01*
G01*
D17*
%TO.C,J1*%
X114512500Y-109250000D02*
X112800500Y-109250000D01*
X114512500Y-109250000D02*
X114512500Y-112120000D01*
X100512500Y-109250000D02*
X108784500Y-109250000D01*
X100512500Y-109250000D02*
X100512500Y-123750000D01*
X114512500Y-120880000D02*
X114512500Y-123750000D01*
X114512500Y-123750000D02*
X112800500Y-123750000D01*
X100512500Y-123750000D02*
X108784500Y-123750000D01*
D16*
X116662500Y-113000000D02*
G75*
G02*
X116462500Y-113000000I-100000J0D01*
G01*
X116462500Y-113000000D02*
G75*
G02*
X116662500Y-113000000I100000J0D01*
G01*
D17*
%TO.C,R2*%
X120375000Y-101820000D02*
X120715000Y-101820000D01*
X120375000Y-103180000D02*
X120715000Y-103180000D01*
D16*
%TO.C,D3*%
X143775000Y-113450000D02*
X143775000Y-115550000D01*
X143775000Y-115550000D02*
X146500000Y-115550000D01*
X146500000Y-113450000D02*
X143775000Y-113450000D01*
D14*
%TO.C,Q1*%
X177424399Y-123653501D02*
X177424399Y-125304501D01*
X178437859Y-123653501D02*
X177424399Y-123653501D01*
X178712138Y-125304501D02*
X179387860Y-125304501D01*
X180675599Y-123653501D02*
X179662139Y-123653501D01*
X180675599Y-125304501D02*
X180675599Y-123653501D01*
D17*
%TO.C,R5*%
X152800000Y-119185000D02*
X152800000Y-118945000D01*
X154200000Y-119185000D02*
X154200000Y-118945000D01*
%TO.C,R24*%
X173875000Y-137820000D02*
X174215000Y-137820000D01*
X173875000Y-139180000D02*
X174215000Y-139180000D01*
%TO.C,R4*%
X149300000Y-119055000D02*
X149300000Y-118815000D01*
X150700000Y-119055000D02*
X150700000Y-118815000D01*
D14*
%TO.C,R33*%
X160549600Y-114405950D02*
X160549600Y-114790850D01*
X162253600Y-114790850D02*
X162253600Y-114405950D01*
D16*
%TO.C,C20*%
X130680000Y-61475000D02*
X130680000Y-62525000D01*
D17*
%TO.C,R7*%
X146300000Y-119185000D02*
X146300000Y-118945000D01*
X147700000Y-119185000D02*
X147700000Y-118945000D01*
%TO.C,S1*%
X147750000Y-88220000D02*
X147750000Y-89780000D01*
X148470000Y-86750000D02*
X151530000Y-86750000D01*
X148470000Y-91250000D02*
X151530000Y-91250000D01*
X152250000Y-88220000D02*
X152250000Y-89780000D01*
D16*
X145850000Y-87400000D02*
G75*
G02*
X145650000Y-87400000I-100000J0D01*
G01*
X145650000Y-87400000D02*
G75*
G02*
X145850000Y-87400000I100000J0D01*
G01*
D14*
%TO.C,U1*%
X140523700Y-50382200D02*
X158786300Y-50382200D01*
X140523700Y-57222760D02*
X140523700Y-50382200D01*
X140523700Y-76137800D02*
X140523700Y-75287240D01*
X143162760Y-76137800D02*
X140523700Y-76137800D01*
X158786300Y-50382200D02*
X158786300Y-57222760D01*
X158786300Y-75287240D02*
X158786300Y-76137800D01*
X158786300Y-76137800D02*
X156147240Y-76137800D01*
D16*
%TO.C,D4*%
X138275000Y-113450000D02*
X138275000Y-115550000D01*
X138275000Y-115550000D02*
X141000000Y-115550000D01*
X141000000Y-113450000D02*
X138275000Y-113450000D01*
D17*
%TO.C,U3*%
X111407500Y-100752500D02*
X107902500Y-100752500D01*
X111407500Y-94247500D02*
X111407500Y-100752500D01*
X107902500Y-100752500D02*
X107902500Y-94247500D01*
X107902500Y-94247500D02*
X111407500Y-94247500D01*
D16*
X114755000Y-99790000D02*
G75*
G02*
X114555000Y-99790000I-100000J0D01*
G01*
X114555000Y-99790000D02*
G75*
G02*
X114755000Y-99790000I100000J0D01*
G01*
%TO.C,LED1*%
X118775000Y-105450000D02*
X118775000Y-107550000D01*
X118775000Y-107550000D02*
X121500000Y-107550000D01*
X121500000Y-105450000D02*
X118775000Y-105450000D01*
D14*
%TO.C,Q2*%
X171374400Y-123674500D02*
X171374400Y-125325500D01*
X172387860Y-123674500D02*
X171374400Y-123674500D01*
X172662139Y-125325500D02*
X173337861Y-125325500D01*
X174625600Y-123674500D02*
X173612140Y-123674500D01*
X174625600Y-125325500D02*
X174625600Y-123674500D01*
D18*
%TO.C,IC3*%
X176275000Y-129750000D02*
G75*
G02*
X176025000Y-129750000I-125000J0D01*
G01*
X176025000Y-129750000D02*
G75*
G02*
X176275000Y-129750000I125000J0D01*
G01*
D14*
%TO.C,R0-1*%
X119910550Y-98300100D02*
X120286050Y-98300100D01*
X120286050Y-96699900D02*
X119910550Y-96699900D01*
%TO.C,C21*%
X167853600Y-130888300D02*
G75*
G02*
X167701200Y-130888300I-76200J0D01*
G01*
X167701200Y-130888300D02*
G75*
G02*
X167853600Y-130888300I76200J0D01*
G01*
%TO.C,C3-22uF1*%
X123477400Y-92500000D02*
G75*
G02*
X123325000Y-92500000I-76200J0D01*
G01*
X123325000Y-92500000D02*
G75*
G02*
X123477400Y-92500000I76200J0D01*
G01*
%TO.C,R31*%
X163648000Y-114405950D02*
X163648000Y-114790850D01*
X165352000Y-114790850D02*
X165352000Y-114405950D01*
%TD*%
%LPC*%
D19*
%TO.C,J4*%
X184500000Y-117200000D03*
X184500000Y-114660000D03*
X184500000Y-112120000D03*
X184500000Y-109580000D03*
X184500000Y-107040000D03*
X184500000Y-104500000D03*
X184500000Y-101960000D03*
X184500000Y-99420000D03*
X184500000Y-96880000D03*
X184500000Y-94340000D03*
X184500000Y-91800000D03*
X184500000Y-89260000D03*
X184500000Y-86720000D03*
X184500000Y-84180000D03*
X184500000Y-81640000D03*
X184500000Y-79100000D03*
X184500000Y-76560000D03*
X184500000Y-74020000D03*
X184500000Y-71480000D03*
%TD*%
%TO.C,J3*%
X192000000Y-117360000D03*
X192000000Y-114820000D03*
X192000000Y-112280000D03*
X192000000Y-109740000D03*
X192000000Y-107200000D03*
X192000000Y-104660000D03*
X192000000Y-102120000D03*
X192000000Y-99580000D03*
X192000000Y-97040000D03*
X192000000Y-94500000D03*
X192000000Y-91960000D03*
X192000000Y-89420000D03*
X192000000Y-86880000D03*
X192000000Y-84340000D03*
X192000000Y-81800000D03*
X192000000Y-79260000D03*
X192000000Y-76720000D03*
X192000000Y-74180000D03*
X192000000Y-71640000D03*
%TD*%
D20*
%TO.C,C1*%
X119000000Y-84149100D03*
X119000000Y-85850900D03*
%TD*%
D21*
%TO.C,R26*%
X119696600Y-120000000D03*
X121500000Y-120000000D03*
%TD*%
D22*
%TO.C,D2*%
X150100000Y-114500000D03*
X152000000Y-114500000D03*
%TD*%
D23*
%TO.C,S2*%
X120375000Y-59400000D03*
X125625000Y-59400000D03*
X120375000Y-62600000D03*
X125625000Y-62600000D03*
%TD*%
D24*
%TO.C,R11*%
X124794402Y-97500000D03*
X126500000Y-97500000D03*
%TD*%
D21*
%TO.C,R25*%
X119696600Y-113500000D03*
X121500000Y-113500000D03*
%TD*%
D22*
%TO.C,D1*%
X155600000Y-114500000D03*
X157500000Y-114500000D03*
%TD*%
D25*
%TO.C,C14*%
X173349000Y-120000000D03*
X175000000Y-120000000D03*
%TD*%
%TO.C,C22*%
X124849000Y-102500000D03*
X126500000Y-102500000D03*
%TD*%
D26*
%TO.C,R6*%
X143500000Y-119935000D03*
X143500000Y-118065000D03*
%TD*%
D27*
%TO.C,J2*%
X104500000Y-83000000D03*
D28*
X110800000Y-86300000D03*
X110800000Y-77700000D03*
X110800000Y-82900000D03*
D29*
X103500000Y-86700000D03*
X103500000Y-76800000D03*
%TD*%
D30*
%TO.C,U2*%
X156500000Y-139000000D03*
X156500000Y-137600001D03*
X156500000Y-136200001D03*
X156500000Y-134800001D03*
X156500000Y-133399999D03*
X156500000Y-131999999D03*
X156500000Y-130599999D03*
X156500000Y-129200000D03*
D31*
X155096101Y-126999998D03*
X153696102Y-126999998D03*
X152296102Y-126999998D03*
X150896102Y-126999998D03*
X149496100Y-126999998D03*
X148096100Y-126999998D03*
X146696100Y-126999998D03*
X145296101Y-126999998D03*
D30*
X143892202Y-129200000D03*
X143892202Y-130599999D03*
X143892202Y-131999999D03*
X143892202Y-133399999D03*
X143892202Y-134800001D03*
X143892202Y-136200001D03*
X143892202Y-137600001D03*
X143892202Y-139000000D03*
%TD*%
D32*
%TO.C,C19*%
X129860000Y-59000000D03*
X131500000Y-59000000D03*
%TD*%
D33*
%TO.C,R32*%
X118598400Y-92500000D03*
X120401600Y-92500000D03*
%TD*%
D34*
%TO.C,C31*%
X169174400Y-133894900D03*
X170876200Y-133894900D03*
%TD*%
D35*
%TO.C,J1*%
X114372500Y-113000000D03*
X114372500Y-115500000D03*
X114372500Y-117500000D03*
X114372500Y-120000000D03*
D36*
X110792500Y-109930000D03*
X110792500Y-123070000D03*
%TD*%
D37*
%TO.C,R2*%
X119590000Y-102500000D03*
X121500000Y-102500000D03*
%TD*%
D38*
%TO.C,R22*%
X185000000Y-123794402D03*
X185000000Y-125500000D03*
%TD*%
D22*
%TO.C,D3*%
X144600000Y-114500000D03*
X146500000Y-114500000D03*
%TD*%
D39*
%TO.C,Q1*%
X178099998Y-125500000D03*
X180000000Y-125500000D03*
X179049999Y-123458001D03*
%TD*%
D26*
%TO.C,R5*%
X153500000Y-120000000D03*
X153500000Y-118130000D03*
%TD*%
D38*
%TO.C,R15-1*%
X137000000Y-136294402D03*
X137000000Y-138000000D03*
%TD*%
D37*
%TO.C,R24*%
X173090000Y-138500000D03*
X175000000Y-138500000D03*
%TD*%
D25*
%TO.C,C3*%
X161849000Y-120000000D03*
X163500000Y-120000000D03*
%TD*%
D26*
%TO.C,R4*%
X150000000Y-119870000D03*
X150000000Y-118000000D03*
%TD*%
D24*
%TO.C,R23*%
X178294402Y-120000000D03*
X180000000Y-120000000D03*
%TD*%
D40*
%TO.C,R33*%
X161401600Y-113696800D03*
X161401600Y-115500000D03*
%TD*%
D25*
%TO.C,C15*%
X167349000Y-120000000D03*
X169000000Y-120000000D03*
%TD*%
D32*
%TO.C,C20*%
X129860000Y-62000000D03*
X131500000Y-62000000D03*
%TD*%
D26*
%TO.C,R7*%
X147000000Y-120000000D03*
X147000000Y-118130000D03*
%TD*%
D23*
%TO.C,S1*%
X147375000Y-87400000D03*
X152625000Y-87400000D03*
X147375000Y-90600000D03*
X152625000Y-90600000D03*
%TD*%
D41*
%TO.C,U1*%
X140905000Y-58000000D03*
X140905000Y-59270000D03*
X140905000Y-60540000D03*
X140905000Y-61810000D03*
X140905000Y-63080000D03*
X140905000Y-64350000D03*
X140905000Y-65620000D03*
X140905000Y-66890000D03*
X140905000Y-68160000D03*
X140905000Y-69430000D03*
X140905000Y-70700000D03*
X140905000Y-71970000D03*
X140905000Y-73240000D03*
X140905000Y-74510000D03*
D42*
X143940000Y-75760000D03*
X145210000Y-75760000D03*
X146480000Y-75760000D03*
X147750000Y-75760000D03*
X149020000Y-75760000D03*
X150290000Y-75760000D03*
X151560000Y-75760000D03*
X152830000Y-75760000D03*
X154100000Y-75760000D03*
X155370000Y-75760000D03*
D41*
X158405000Y-74510000D03*
X158405000Y-73240000D03*
X158405000Y-71970000D03*
X158405000Y-70700000D03*
X158405000Y-69430000D03*
X158405000Y-68160000D03*
X158405000Y-66890000D03*
X158405000Y-65620000D03*
X158405000Y-64350000D03*
X158405000Y-63080000D03*
X158405000Y-61810000D03*
X158405000Y-60540000D03*
X158405000Y-59270000D03*
X158405000Y-58000000D03*
D43*
X148975000Y-65340000D03*
X147450000Y-63815000D03*
X147450000Y-65340000D03*
X147450000Y-66865000D03*
X148975000Y-66865000D03*
X150500000Y-66865000D03*
X150500000Y-65340000D03*
X150500000Y-63815000D03*
X148975000Y-63815000D03*
%TD*%
D24*
%TO.C,R21*%
X166000000Y-127500000D03*
X167705598Y-127500000D03*
%TD*%
D22*
%TO.C,D4*%
X139100000Y-114500000D03*
X141000000Y-114500000D03*
%TD*%
D44*
%TO.C,U3*%
X113000000Y-99790000D03*
X113000000Y-97500000D03*
X113000000Y-95210000D03*
D45*
X106310000Y-97500000D03*
%TD*%
D22*
%TO.C,LED1*%
X119600000Y-106500000D03*
X121500000Y-106500000D03*
%TD*%
D39*
%TO.C,Q2*%
X172049999Y-125520999D03*
X173950001Y-125520999D03*
X173000000Y-123479000D03*
%TD*%
D24*
%TO.C,R34*%
X167294402Y-138500000D03*
X169000000Y-138500000D03*
%TD*%
D46*
%TO.C,IC3*%
X176650000Y-130500000D03*
X176650000Y-131000000D03*
X176650000Y-131500000D03*
X176650000Y-132000000D03*
X176650000Y-132500000D03*
X176650000Y-133000000D03*
X176650000Y-133500000D03*
D47*
X177500000Y-134350000D03*
X178000000Y-134350000D03*
X178500000Y-134350000D03*
X179000000Y-134350000D03*
X179500000Y-134350000D03*
X180000000Y-134350000D03*
X180500000Y-134350000D03*
D46*
X181350000Y-133500000D03*
X181350000Y-133000000D03*
X181350000Y-132500000D03*
X181350000Y-132000000D03*
X181350000Y-131500000D03*
X181350000Y-131000000D03*
X181350000Y-130500000D03*
D47*
X180500000Y-129650000D03*
X180000000Y-129650000D03*
X179500000Y-129650000D03*
X179000000Y-129650000D03*
X178500000Y-129650000D03*
X178000000Y-129650000D03*
X177500000Y-129650000D03*
D48*
X179000000Y-132000000D03*
%TD*%
D21*
%TO.C,R0-1*%
X119196600Y-97500000D03*
X121000000Y-97500000D03*
%TD*%
D34*
%TO.C,C21*%
X169174400Y-130888300D03*
X170876200Y-130888300D03*
%TD*%
%TO.C,C3-22uF1*%
X124798200Y-92500000D03*
X126500000Y-92500000D03*
%TD*%
D40*
%TO.C,R31*%
X164500000Y-113696800D03*
X164500000Y-115500000D03*
%TD*%
%LPD*%
M02*
