%TF.GenerationSoftware,KiCad,Pcbnew,8.0.3*%
%TF.CreationDate,2024-09-12T11:00:01-04:00*%
%TF.ProjectId,G7 Senior Design V2,47372053-656e-4696-9f72-204465736967,rev?*%
%TF.SameCoordinates,Original*%
%TF.FileFunction,Paste,Top*%
%TF.FilePolarity,Positive*%
%FSLAX46Y46*%
G04 Gerber Fmt 4.6, Leading zero omitted, Abs format (unit mm)*
G04 Created by KiCad (PCBNEW 8.0.3) date 2024-09-12 11:00:01*
%MOMM*%
%LPD*%
G01*
G04 APERTURE LIST*
G04 Aperture macros list*
%AMRoundRect*
0 Rectangle with rounded corners*
0 $1 Rounding radius*
0 $2 $3 $4 $5 $6 $7 $8 $9 X,Y pos of 4 corners*
0 Add a 4 corners polygon primitive as box body*
4,1,4,$2,$3,$4,$5,$6,$7,$8,$9,$2,$3,0*
0 Add four circle primitives for the rounded corners*
1,1,$1+$1,$2,$3*
1,1,$1+$1,$4,$5*
1,1,$1+$1,$6,$7*
1,1,$1+$1,$8,$9*
0 Add four rect primitives between the rounded corners*
20,1,$1+$1,$2,$3,$4,$5,0*
20,1,$1+$1,$4,$5,$6,$7,0*
20,1,$1+$1,$6,$7,$8,$9,0*
20,1,$1+$1,$8,$9,$2,$3,0*%
G04 Aperture macros list end*
%ADD10R,1.346200X1.117600*%
%ADD11R,0.812800X1.346200*%
%ADD12R,0.950000X1.400000*%
%ADD13R,1.550000X1.000000*%
%ADD14R,1.005599X1.199998*%
%ADD15R,1.066800X1.219200*%
%ADD16R,1.420000X1.000000*%
%ADD17R,2.438400X0.990600*%
%ADD18R,0.990600X2.438400*%
%ADD19R,0.910000X1.390000*%
%ADD20R,0.803200X1.450000*%
%ADD21R,1.117600X1.346200*%
%ADD22R,2.880000X1.120000*%
%ADD23R,0.920000X1.380000*%
%ADD24R,1.199998X1.005599*%
%ADD25R,0.558800X1.219200*%
%ADD26R,1.450000X0.803200*%
%ADD27R,1.498600X0.889000*%
%ADD28R,0.889000X1.498600*%
%ADD29R,1.041400X1.041400*%
%ADD30RoundRect,0.069750X0.585250X0.395250X-0.585250X0.395250X-0.585250X-0.395250X0.585250X-0.395250X0*%
%ADD31RoundRect,0.098250X0.556750X1.521750X-0.556750X1.521750X-0.556750X-1.521750X0.556750X-1.521750X0*%
%ADD32R,1.000000X0.300000*%
%ADD33R,0.300000X1.000000*%
%ADD34R,3.350000X3.350000*%
G04 APERTURE END LIST*
D10*
%TO.C,C1*%
X119000000Y-84149100D03*
X119000000Y-85850900D03*
%TD*%
D11*
%TO.C,R26*%
X119696600Y-120000000D03*
X121500000Y-120000000D03*
%TD*%
D12*
%TO.C,D2*%
X150100000Y-114500000D03*
X152000000Y-114500000D03*
%TD*%
D13*
%TO.C,S2*%
X120375000Y-59400000D03*
X125625000Y-59400000D03*
X120375000Y-62600000D03*
X125625000Y-62600000D03*
%TD*%
D14*
%TO.C,R11*%
X124794402Y-97500000D03*
X126500000Y-97500000D03*
%TD*%
D11*
%TO.C,R25*%
X119696600Y-113500000D03*
X121500000Y-113500000D03*
%TD*%
D12*
%TO.C,D1*%
X155600000Y-114500000D03*
X157500000Y-114500000D03*
%TD*%
D15*
%TO.C,C14*%
X173349000Y-120000000D03*
X175000000Y-120000000D03*
%TD*%
%TO.C,C22*%
X124849000Y-102500000D03*
X126500000Y-102500000D03*
%TD*%
D16*
%TO.C,R6*%
X143500000Y-119935000D03*
X143500000Y-118065000D03*
%TD*%
D17*
%TO.C,U2*%
X156500000Y-139000000D03*
X156500000Y-137600001D03*
X156500000Y-136200001D03*
X156500000Y-134800001D03*
X156500000Y-133399999D03*
X156500000Y-131999999D03*
X156500000Y-130599999D03*
X156500000Y-129200000D03*
D18*
X155096101Y-126999998D03*
X153696102Y-126999998D03*
X152296102Y-126999998D03*
X150896102Y-126999998D03*
X149496100Y-126999998D03*
X148096100Y-126999998D03*
X146696100Y-126999998D03*
X145296101Y-126999998D03*
D17*
X143892202Y-129200000D03*
X143892202Y-130599999D03*
X143892202Y-131999999D03*
X143892202Y-133399999D03*
X143892202Y-134800001D03*
X143892202Y-136200001D03*
X143892202Y-137600001D03*
X143892202Y-139000000D03*
%TD*%
D19*
%TO.C,C19*%
X129860000Y-59000000D03*
X131500000Y-59000000D03*
%TD*%
D20*
%TO.C,R32*%
X118598400Y-92500000D03*
X120401600Y-92500000D03*
%TD*%
D21*
%TO.C,C31*%
X169174400Y-133894900D03*
X170876200Y-133894900D03*
%TD*%
D22*
%TO.C,J1*%
X114372500Y-113000000D03*
X114372500Y-115500000D03*
X114372500Y-117500000D03*
X114372500Y-120000000D03*
%TD*%
D23*
%TO.C,R2*%
X119590000Y-102500000D03*
X121500000Y-102500000D03*
%TD*%
D24*
%TO.C,R22*%
X185000000Y-123794402D03*
X185000000Y-125500000D03*
%TD*%
D12*
%TO.C,D3*%
X144600000Y-114500000D03*
X146500000Y-114500000D03*
%TD*%
D25*
%TO.C,Q1*%
X178099998Y-125500000D03*
X180000000Y-125500000D03*
X179049999Y-123458001D03*
%TD*%
D16*
%TO.C,R5*%
X153500000Y-120000000D03*
X153500000Y-118130000D03*
%TD*%
D24*
%TO.C,R15-1*%
X137000000Y-136294402D03*
X137000000Y-138000000D03*
%TD*%
D23*
%TO.C,R24*%
X173090000Y-138500000D03*
X175000000Y-138500000D03*
%TD*%
D15*
%TO.C,C3*%
X161849000Y-120000000D03*
X163500000Y-120000000D03*
%TD*%
D16*
%TO.C,R4*%
X150000000Y-119870000D03*
X150000000Y-118000000D03*
%TD*%
D14*
%TO.C,R23*%
X178294402Y-120000000D03*
X180000000Y-120000000D03*
%TD*%
D26*
%TO.C,R33*%
X161401600Y-113696800D03*
X161401600Y-115500000D03*
%TD*%
D15*
%TO.C,C15*%
X167349000Y-120000000D03*
X169000000Y-120000000D03*
%TD*%
D19*
%TO.C,C20*%
X129860000Y-62000000D03*
X131500000Y-62000000D03*
%TD*%
D16*
%TO.C,R7*%
X147000000Y-120000000D03*
X147000000Y-118130000D03*
%TD*%
D13*
%TO.C,S1*%
X147375000Y-87400000D03*
X152625000Y-87400000D03*
X147375000Y-90600000D03*
X152625000Y-90600000D03*
%TD*%
D27*
%TO.C,U1*%
X140905000Y-58000000D03*
X140905000Y-59270000D03*
X140905000Y-60540000D03*
X140905000Y-61810000D03*
X140905000Y-63080000D03*
X140905000Y-64350000D03*
X140905000Y-65620000D03*
X140905000Y-66890000D03*
X140905000Y-68160000D03*
X140905000Y-69430000D03*
X140905000Y-70700000D03*
X140905000Y-71970000D03*
X140905000Y-73240000D03*
X140905000Y-74510000D03*
D28*
X143940000Y-75760000D03*
X145210000Y-75760000D03*
X146480000Y-75760000D03*
X147750000Y-75760000D03*
X149020000Y-75760000D03*
X150290000Y-75760000D03*
X151560000Y-75760000D03*
X152830000Y-75760000D03*
X154100000Y-75760000D03*
X155370000Y-75760000D03*
D27*
X158405000Y-74510000D03*
X158405000Y-73240000D03*
X158405000Y-71970000D03*
X158405000Y-70700000D03*
X158405000Y-69430000D03*
X158405000Y-68160000D03*
X158405000Y-66890000D03*
X158405000Y-65620000D03*
X158405000Y-64350000D03*
X158405000Y-63080000D03*
X158405000Y-61810000D03*
X158405000Y-60540000D03*
X158405000Y-59270000D03*
X158405000Y-58000000D03*
D29*
X148975000Y-65340000D03*
X147450000Y-63815000D03*
X147450000Y-65340000D03*
X147450000Y-66865000D03*
X148975000Y-66865000D03*
X150500000Y-66865000D03*
X150500000Y-65340000D03*
X150500000Y-63815000D03*
X148975000Y-63815000D03*
%TD*%
D14*
%TO.C,R21*%
X166000000Y-127500000D03*
X167705598Y-127500000D03*
%TD*%
D12*
%TO.C,D4*%
X139100000Y-114500000D03*
X141000000Y-114500000D03*
%TD*%
D30*
%TO.C,U3*%
X113000000Y-99790000D03*
X113000000Y-97500000D03*
X113000000Y-95210000D03*
D31*
X106310000Y-97500000D03*
%TD*%
D12*
%TO.C,LED1*%
X119600000Y-106500000D03*
X121500000Y-106500000D03*
%TD*%
D25*
%TO.C,Q2*%
X172049999Y-125520999D03*
X173950001Y-125520999D03*
X173000000Y-123479000D03*
%TD*%
D14*
%TO.C,R34*%
X167294402Y-138500000D03*
X169000000Y-138500000D03*
%TD*%
D32*
%TO.C,IC3*%
X176650000Y-130500000D03*
X176650000Y-131000000D03*
X176650000Y-131500000D03*
X176650000Y-132000000D03*
X176650000Y-132500000D03*
X176650000Y-133000000D03*
X176650000Y-133500000D03*
D33*
X177500000Y-134350000D03*
X178000000Y-134350000D03*
X178500000Y-134350000D03*
X179000000Y-134350000D03*
X179500000Y-134350000D03*
X180000000Y-134350000D03*
X180500000Y-134350000D03*
D32*
X181350000Y-133500000D03*
X181350000Y-133000000D03*
X181350000Y-132500000D03*
X181350000Y-132000000D03*
X181350000Y-131500000D03*
X181350000Y-131000000D03*
X181350000Y-130500000D03*
D33*
X180500000Y-129650000D03*
X180000000Y-129650000D03*
X179500000Y-129650000D03*
X179000000Y-129650000D03*
X178500000Y-129650000D03*
X178000000Y-129650000D03*
X177500000Y-129650000D03*
D34*
X179000000Y-132000000D03*
%TD*%
D11*
%TO.C,R0-1*%
X119196600Y-97500000D03*
X121000000Y-97500000D03*
%TD*%
D21*
%TO.C,C21*%
X169174400Y-130888300D03*
X170876200Y-130888300D03*
%TD*%
%TO.C,C3-22uF1*%
X124798200Y-92500000D03*
X126500000Y-92500000D03*
%TD*%
D26*
%TO.C,R31*%
X164500000Y-113696800D03*
X164500000Y-115500000D03*
%TD*%
M02*
