%TF.GenerationSoftware,KiCad,Pcbnew,8.0.3*%
%TF.CreationDate,2024-09-12T11:02:19-04:00*%
%TF.ProjectId,G7 Senior Design V2,47372053-656e-4696-9f72-204465736967,rev?*%
%TF.SameCoordinates,Original*%
%TF.FileFunction,Drillmap*%
%TF.FilePolarity,Positive*%
%FSLAX45Y45*%
G04 Gerber Fmt 4.5, Leading zero omitted, Abs format (unit mm)*
G04 Created by KiCad (PCBNEW 8.0.3) date 2024-09-12 11:02:19*
%MOMM*%
%LPD*%
G01*
G04 APERTURE LIST*
%ADD10C,0.050000*%
%ADD11C,0.010000*%
%ADD12C,0.200000*%
%ADD13C,0.100000*%
%ADD14C,0.106680*%
%ADD15C,0.236000*%
G04 APERTURE END LIST*
D10*
X19500000Y-14000000D02*
G75*
G02*
X18500000Y-14000000I-500000J0D01*
G01*
X18500000Y-14000000D02*
G75*
G02*
X19500000Y-14000000I500000J0D01*
G01*
X11500000Y-6000000D02*
G75*
G02*
X10500000Y-6000000I-500000J0D01*
G01*
X10500000Y-6000000D02*
G75*
G02*
X11500000Y-6000000I500000J0D01*
G01*
X11500000Y-14000000D02*
G75*
G02*
X10500000Y-14000000I-500000J0D01*
G01*
X10500000Y-14000000D02*
G75*
G02*
X11500000Y-14000000I500000J0D01*
G01*
X19500000Y-6000000D02*
G75*
G02*
X18500000Y-6000000I-500000J0D01*
G01*
X18500000Y-6000000D02*
G75*
G02*
X19500000Y-6000000I500000J0D01*
G01*
X10000000Y-5000000D02*
X20000000Y-5000000D01*
X20000000Y-15000000D01*
X10000000Y-15000000D01*
X10000000Y-5000000D01*
D11*
X10360000Y-8210000D02*
X10540000Y-8210000D01*
X10360000Y-8390000D02*
X10360000Y-8210000D01*
X10540000Y-8210000D02*
X10540000Y-8390000D01*
X10540000Y-8390000D02*
X10360000Y-8390000D01*
D12*
D13*
X11585000Y-9585000D02*
X11615000Y-9615000D01*
X11615000Y-9585000D02*
X11585000Y-9615000D01*
X11585000Y-9835000D02*
X11615000Y-9865000D01*
X11615000Y-9835000D02*
X11585000Y-9865000D01*
X11735000Y-9635000D02*
X11765000Y-9665000D01*
X11765000Y-9635000D02*
X11735000Y-9665000D01*
X11785000Y-11735000D02*
X11815000Y-11765000D01*
X11815000Y-11735000D02*
X11785000Y-11765000D01*
X11835000Y-6185000D02*
X11865000Y-6215000D01*
X11865000Y-6185000D02*
X11835000Y-6215000D01*
X11885000Y-8185000D02*
X11915000Y-8215000D01*
X11915000Y-8185000D02*
X11885000Y-8215000D01*
X11885000Y-11535000D02*
X11915000Y-11565000D01*
X11915000Y-11535000D02*
X11885000Y-11565000D01*
X12135000Y-8852340D02*
X12165000Y-8882340D01*
X12165000Y-8852340D02*
X12135000Y-8882340D01*
X12335000Y-11535000D02*
X12365000Y-11565000D01*
X12365000Y-11535000D02*
X12335000Y-11565000D01*
X12385000Y-10385000D02*
X12415000Y-10415000D01*
X12415000Y-10385000D02*
X12385000Y-10415000D01*
X12435000Y-8085000D02*
X12465000Y-8115000D01*
X12465000Y-8085000D02*
X12435000Y-8115000D01*
X12485000Y-9485000D02*
X12515000Y-9515000D01*
X12515000Y-9485000D02*
X12485000Y-9515000D01*
X12585000Y-7935000D02*
X12615000Y-7965000D01*
X12615000Y-7935000D02*
X12585000Y-7965000D01*
X12635000Y-9585000D02*
X12665000Y-9615000D01*
X12665000Y-9585000D02*
X12635000Y-9615000D01*
X12685000Y-7735000D02*
X12715000Y-7765000D01*
X12715000Y-7735000D02*
X12685000Y-7765000D01*
X12735000Y-6785000D02*
X12765000Y-6815000D01*
X12765000Y-6785000D02*
X12735000Y-6815000D01*
X12785000Y-5985000D02*
X12815000Y-6015000D01*
X12815000Y-5985000D02*
X12785000Y-6015000D01*
X12785000Y-6285000D02*
X12815000Y-6315000D01*
X12815000Y-6285000D02*
X12785000Y-6315000D01*
X12785000Y-11135000D02*
X12815000Y-11165000D01*
X12815000Y-11135000D02*
X12785000Y-11165000D01*
X12835000Y-9485000D02*
X12865000Y-9515000D01*
X12865000Y-9485000D02*
X12835000Y-9515000D01*
X12885000Y-7735000D02*
X12915000Y-7765000D01*
X12915000Y-7735000D02*
X12885000Y-7765000D01*
X12935000Y-10685000D02*
X12965000Y-10715000D01*
X12965000Y-10685000D02*
X12935000Y-10715000D01*
X13085000Y-7735000D02*
X13115000Y-7765000D01*
X13115000Y-7735000D02*
X13085000Y-7765000D01*
X13235000Y-10485000D02*
X13265000Y-10515000D01*
X13265000Y-10485000D02*
X13235000Y-10515000D01*
X13285000Y-6535000D02*
X13315000Y-6565000D01*
X13315000Y-6535000D02*
X13285000Y-6565000D01*
X13285000Y-7735000D02*
X13315000Y-7765000D01*
X13315000Y-7735000D02*
X13285000Y-7765000D01*
X13335000Y-5935000D02*
X13365000Y-5965000D01*
X13365000Y-5935000D02*
X13335000Y-5965000D01*
X13435000Y-6785000D02*
X13465000Y-6815000D01*
X13465000Y-6785000D02*
X13435000Y-6815000D01*
X13435000Y-7735000D02*
X13465000Y-7765000D01*
X13465000Y-7735000D02*
X13435000Y-7765000D01*
X13485000Y-6385000D02*
X13515000Y-6415000D01*
X13515000Y-6385000D02*
X13485000Y-6415000D01*
X13485000Y-6985000D02*
X13515000Y-7015000D01*
X13515000Y-6985000D02*
X13485000Y-7015000D01*
X13485000Y-9035000D02*
X13515000Y-9065000D01*
X13515000Y-9035000D02*
X13485000Y-9065000D01*
X13585000Y-7735000D02*
X13615000Y-7765000D01*
X13615000Y-7735000D02*
X13585000Y-7765000D01*
X13735000Y-6685000D02*
X13765000Y-6715000D01*
X13765000Y-6685000D02*
X13735000Y-6715000D01*
X13735000Y-11235000D02*
X13765000Y-11265000D01*
X13765000Y-11235000D02*
X13735000Y-11265000D01*
X13785000Y-6385000D02*
X13815000Y-6415000D01*
X13815000Y-6385000D02*
X13785000Y-6415000D01*
X13785000Y-7385000D02*
X13815000Y-7415000D01*
X13815000Y-7385000D02*
X13785000Y-7415000D01*
X13835000Y-8225000D02*
X13865000Y-8255000D01*
X13865000Y-8225000D02*
X13835000Y-8255000D01*
X13835000Y-8345000D02*
X13865000Y-8375000D01*
X13865000Y-8345000D02*
X13835000Y-8375000D01*
X13985000Y-7785000D02*
X14015000Y-7815000D01*
X14015000Y-7785000D02*
X13985000Y-7815000D01*
X13985000Y-11835000D02*
X14015000Y-11865000D01*
X14015000Y-11835000D02*
X13985000Y-11865000D01*
X14035000Y-13385000D02*
X14065000Y-13415000D01*
X14065000Y-13385000D02*
X14035000Y-13415000D01*
X14085000Y-11225000D02*
X14115000Y-11255000D01*
X14115000Y-11225000D02*
X14085000Y-11255000D01*
X14085000Y-12085000D02*
X14115000Y-12115000D01*
X14115000Y-12085000D02*
X14085000Y-12115000D01*
X14235000Y-12235000D02*
X14265000Y-12265000D01*
X14265000Y-12235000D02*
X14235000Y-12265000D01*
X14285000Y-11285000D02*
X14315000Y-11315000D01*
X14315000Y-11285000D02*
X14285000Y-11315000D01*
X14435000Y-8435000D02*
X14465000Y-8465000D01*
X14465000Y-8435000D02*
X14435000Y-8465000D01*
X14635000Y-7935000D02*
X14665000Y-7965000D01*
X14665000Y-7935000D02*
X14635000Y-7965000D01*
X14635000Y-12935000D02*
X14665000Y-12965000D01*
X14665000Y-12935000D02*
X14635000Y-12965000D01*
X14685000Y-13135000D02*
X14715000Y-13165000D01*
X14715000Y-13135000D02*
X14685000Y-13165000D01*
X14735000Y-13385000D02*
X14765000Y-13415000D01*
X14765000Y-13385000D02*
X14735000Y-13415000D01*
X14785000Y-9485000D02*
X14815000Y-9515000D01*
X14815000Y-9485000D02*
X14785000Y-9515000D01*
X14835000Y-9835000D02*
X14865000Y-9865000D01*
X14865000Y-9835000D02*
X14835000Y-9865000D01*
X14935000Y-8335000D02*
X14965000Y-8365000D01*
X14965000Y-8335000D02*
X14935000Y-8365000D01*
X14935000Y-12885000D02*
X14965000Y-12915000D01*
X14965000Y-12885000D02*
X14935000Y-12915000D01*
X15086000Y-12084000D02*
X15116000Y-12114000D01*
X15116000Y-12084000D02*
X15086000Y-12114000D01*
X15285000Y-8085000D02*
X15315000Y-8115000D01*
X15315000Y-8085000D02*
X15285000Y-8115000D01*
X15285000Y-13135000D02*
X15315000Y-13165000D01*
X15315000Y-13135000D02*
X15285000Y-13165000D01*
X15335000Y-11485000D02*
X15365000Y-11515000D01*
X15365000Y-11485000D02*
X15335000Y-11515000D01*
X15385000Y-11635000D02*
X15415000Y-11665000D01*
X15415000Y-11635000D02*
X15385000Y-11665000D01*
X15435000Y-8085000D02*
X15465000Y-8115000D01*
X15465000Y-8085000D02*
X15435000Y-8115000D01*
X15435000Y-13135000D02*
X15465000Y-13165000D01*
X15465000Y-13135000D02*
X15435000Y-13165000D01*
X15485000Y-11285000D02*
X15515000Y-11315000D01*
X15515000Y-11285000D02*
X15485000Y-11315000D01*
X15685000Y-7535000D02*
X15715000Y-7565000D01*
X15715000Y-7535000D02*
X15685000Y-7565000D01*
X15685000Y-12135000D02*
X15715000Y-12165000D01*
X15715000Y-12135000D02*
X15685000Y-12165000D01*
X15785000Y-9185000D02*
X15815000Y-9215000D01*
X15815000Y-9185000D02*
X15785000Y-9215000D01*
X15785000Y-12285000D02*
X15815000Y-12315000D01*
X15815000Y-12285000D02*
X15785000Y-12315000D01*
X15812067Y-13345000D02*
X15842067Y-13375000D01*
X15842067Y-13345000D02*
X15812067Y-13375000D01*
X15835000Y-13135000D02*
X15865000Y-13165000D01*
X15865000Y-13135000D02*
X15835000Y-13165000D01*
X15885000Y-9035000D02*
X15915000Y-9065000D01*
X15915000Y-9035000D02*
X15885000Y-9065000D01*
X15885000Y-9285000D02*
X15915000Y-9315000D01*
X15915000Y-9285000D02*
X15885000Y-9315000D01*
X15885000Y-11885000D02*
X15915000Y-11915000D01*
X15915000Y-11885000D02*
X15885000Y-11915000D01*
X15885000Y-12385000D02*
X15915000Y-12415000D01*
X15915000Y-12385000D02*
X15885000Y-12415000D01*
X15935000Y-10485000D02*
X15965000Y-10515000D01*
X15965000Y-10485000D02*
X15935000Y-10515000D01*
X15985000Y-9385000D02*
X16015000Y-9415000D01*
X16015000Y-9385000D02*
X15985000Y-9415000D01*
X15985000Y-13135000D02*
X16015000Y-13165000D01*
X16015000Y-13135000D02*
X15985000Y-13165000D01*
X16017573Y-11717573D02*
X16047573Y-11747573D01*
X16047573Y-11717573D02*
X16017573Y-11747573D01*
X16024000Y-6674000D02*
X16054000Y-6704000D01*
X16054000Y-6674000D02*
X16024000Y-6704000D01*
X16035000Y-9185000D02*
X16065000Y-9215000D01*
X16065000Y-9185000D02*
X16035000Y-9215000D01*
X16035000Y-9785000D02*
X16065000Y-9815000D01*
X16065000Y-9785000D02*
X16035000Y-9815000D01*
X16035000Y-10435000D02*
X16065000Y-10465000D01*
X16065000Y-10435000D02*
X16035000Y-10465000D01*
X16035000Y-10985000D02*
X16065000Y-11015000D01*
X16065000Y-10985000D02*
X16035000Y-11015000D01*
X16035000Y-12185000D02*
X16065000Y-12215000D01*
X16065000Y-12185000D02*
X16035000Y-12215000D01*
X16085000Y-7435000D02*
X16115000Y-7465000D01*
X16115000Y-7435000D02*
X16085000Y-7465000D01*
X16085000Y-10635000D02*
X16115000Y-10665000D01*
X16115000Y-10635000D02*
X16085000Y-10665000D01*
X16085000Y-12835000D02*
X16115000Y-12865000D01*
X16115000Y-12835000D02*
X16085000Y-12865000D01*
X16135000Y-9535000D02*
X16165000Y-9565000D01*
X16165000Y-9535000D02*
X16135000Y-9565000D01*
X16135000Y-11135000D02*
X16165000Y-11165000D01*
X16165000Y-11135000D02*
X16135000Y-11165000D01*
X16135000Y-12485000D02*
X16165000Y-12515000D01*
X16165000Y-12485000D02*
X16135000Y-12515000D01*
X16135000Y-13135000D02*
X16165000Y-13165000D01*
X16165000Y-13135000D02*
X16135000Y-13165000D01*
X16185000Y-9385000D02*
X16215000Y-9415000D01*
X16215000Y-9385000D02*
X16185000Y-9415000D01*
X16235000Y-7385000D02*
X16265000Y-7415000D01*
X16265000Y-7385000D02*
X16235000Y-7415000D01*
X16235000Y-8535000D02*
X16265000Y-8565000D01*
X16265000Y-8535000D02*
X16235000Y-8565000D01*
X16235000Y-10235000D02*
X16265000Y-10265000D01*
X16265000Y-10235000D02*
X16235000Y-10265000D01*
X16235000Y-13185000D02*
X16265000Y-13215000D01*
X16265000Y-13185000D02*
X16235000Y-13215000D01*
X16285000Y-8445000D02*
X16315000Y-8475000D01*
X16315000Y-8445000D02*
X16285000Y-8475000D01*
X16285000Y-9085000D02*
X16315000Y-9115000D01*
X16315000Y-9085000D02*
X16285000Y-9115000D01*
X16285000Y-10835000D02*
X16315000Y-10865000D01*
X16315000Y-10835000D02*
X16285000Y-10865000D01*
X16335000Y-6135000D02*
X16365000Y-6165000D01*
X16365000Y-6135000D02*
X16335000Y-6165000D01*
X16335000Y-6835000D02*
X16365000Y-6865000D01*
X16365000Y-6835000D02*
X16335000Y-6865000D01*
X16335000Y-12685000D02*
X16365000Y-12715000D01*
X16365000Y-12685000D02*
X16335000Y-12715000D01*
X16385000Y-8535000D02*
X16415000Y-8565000D01*
X16415000Y-8535000D02*
X16385000Y-8565000D01*
X16435000Y-9835000D02*
X16465000Y-9865000D01*
X16465000Y-9835000D02*
X16435000Y-9865000D01*
X16485000Y-11735000D02*
X16515000Y-11765000D01*
X16515000Y-11735000D02*
X16485000Y-11765000D01*
X16585000Y-8485000D02*
X16615000Y-8515000D01*
X16615000Y-8485000D02*
X16585000Y-8515000D01*
X16585000Y-9335000D02*
X16615000Y-9365000D01*
X16615000Y-9335000D02*
X16585000Y-9365000D01*
X16585000Y-12085000D02*
X16615000Y-12115000D01*
X16615000Y-12085000D02*
X16585000Y-12115000D01*
X16635000Y-6285000D02*
X16665000Y-6315000D01*
X16665000Y-6285000D02*
X16635000Y-6315000D01*
X16635000Y-11385000D02*
X16665000Y-11415000D01*
X16665000Y-11385000D02*
X16635000Y-11415000D01*
X16635000Y-12535000D02*
X16665000Y-12565000D01*
X16665000Y-12535000D02*
X16635000Y-12565000D01*
X16685000Y-8445000D02*
X16715000Y-8475000D01*
X16715000Y-8445000D02*
X16685000Y-8475000D01*
X16785000Y-10785000D02*
X16815000Y-10815000D01*
X16815000Y-10785000D02*
X16785000Y-10815000D01*
X16985000Y-11985000D02*
X17015000Y-12015000D01*
X17015000Y-11985000D02*
X16985000Y-12015000D01*
X17035000Y-12385000D02*
X17065000Y-12415000D01*
X17065000Y-12385000D02*
X17035000Y-12415000D01*
X17185000Y-11685000D02*
X17215000Y-11715000D01*
X17215000Y-11685000D02*
X17185000Y-11715000D01*
X17235000Y-6635000D02*
X17265000Y-6665000D01*
X17265000Y-6635000D02*
X17235000Y-6665000D01*
X17235000Y-13195000D02*
X17265000Y-13225000D01*
X17265000Y-13195000D02*
X17235000Y-13225000D01*
X17335000Y-6835000D02*
X17365000Y-6865000D01*
X17365000Y-6835000D02*
X17335000Y-6865000D01*
X17335000Y-13435000D02*
X17365000Y-13465000D01*
X17365000Y-13435000D02*
X17335000Y-13465000D01*
X17385000Y-12795000D02*
X17415000Y-12825000D01*
X17415000Y-12795000D02*
X17385000Y-12825000D01*
X17385000Y-12935000D02*
X17415000Y-12965000D01*
X17415000Y-12935000D02*
X17385000Y-12965000D01*
X17417574Y-13452426D02*
X17447574Y-13482426D01*
X17447574Y-13452426D02*
X17417574Y-13482426D01*
X17435000Y-6935000D02*
X17465000Y-6965000D01*
X17465000Y-6935000D02*
X17435000Y-6965000D01*
X17435000Y-12235000D02*
X17465000Y-12265000D01*
X17465000Y-12235000D02*
X17435000Y-12265000D01*
X17485000Y-12635000D02*
X17515000Y-12665000D01*
X17515000Y-12635000D02*
X17485000Y-12665000D01*
X17585000Y-11495000D02*
X17615000Y-11525000D01*
X17615000Y-11495000D02*
X17585000Y-11525000D01*
X17585000Y-13535000D02*
X17615000Y-13565000D01*
X17615000Y-13535000D02*
X17585000Y-13565000D01*
X17635000Y-7585000D02*
X17665000Y-7615000D01*
X17665000Y-7585000D02*
X17635000Y-7615000D01*
X17635000Y-11375000D02*
X17665000Y-11405000D01*
X17665000Y-11375000D02*
X17635000Y-11405000D01*
X17685000Y-12035000D02*
X17715000Y-12065000D01*
X17715000Y-12035000D02*
X17685000Y-12065000D01*
X17735000Y-7085000D02*
X17765000Y-7115000D01*
X17765000Y-7085000D02*
X17735000Y-7115000D01*
X17735000Y-7485000D02*
X17765000Y-7515000D01*
X17765000Y-7485000D02*
X17735000Y-7515000D01*
X17735000Y-12235000D02*
X17765000Y-12265000D01*
X17765000Y-12235000D02*
X17735000Y-12265000D01*
X17785000Y-7185000D02*
X17815000Y-7215000D01*
X17815000Y-7185000D02*
X17785000Y-7215000D01*
X17785000Y-11585000D02*
X17815000Y-11615000D01*
X17815000Y-11585000D02*
X17785000Y-11615000D01*
X17825000Y-12797470D02*
X17855000Y-12827470D01*
X17855000Y-12797470D02*
X17825000Y-12827470D01*
X17835000Y-7385000D02*
X17865000Y-7415000D01*
X17865000Y-7385000D02*
X17835000Y-7415000D01*
X17875000Y-12735000D02*
X17905000Y-12765000D01*
X17905000Y-12735000D02*
X17875000Y-12765000D01*
X17985000Y-11435000D02*
X18015000Y-11465000D01*
X18015000Y-11435000D02*
X17985000Y-11465000D01*
X17985000Y-12135000D02*
X18015000Y-12165000D01*
X18015000Y-12135000D02*
X17985000Y-12165000D01*
X18035000Y-13735000D02*
X18065000Y-13765000D01*
X18065000Y-13735000D02*
X18035000Y-13765000D01*
X18635000Y-6735000D02*
X18665000Y-6765000D01*
X18665000Y-6735000D02*
X18635000Y-6765000D01*
X18685000Y-11885000D02*
X18715000Y-11915000D01*
X18715000Y-11885000D02*
X18685000Y-11915000D01*
X18785000Y-6985000D02*
X18815000Y-7015000D01*
X18815000Y-6985000D02*
X18785000Y-7015000D01*
X18785000Y-11435000D02*
X18815000Y-11465000D01*
X18815000Y-11435000D02*
X18785000Y-11465000D01*
X18785000Y-11585000D02*
X18815000Y-11615000D01*
X18815000Y-11585000D02*
X18785000Y-11615000D01*
X18835000Y-11235000D02*
X18865000Y-11265000D01*
X18865000Y-11235000D02*
X18835000Y-11265000D01*
X18885000Y-11035000D02*
X18915000Y-11065000D01*
X18915000Y-11035000D02*
X18885000Y-11065000D01*
X18935000Y-10685000D02*
X18965000Y-10715000D01*
X18965000Y-10685000D02*
X18935000Y-10715000D01*
X18935000Y-10885000D02*
X18965000Y-10915000D01*
X18965000Y-10885000D02*
X18935000Y-10915000D01*
X10390000Y-7680000D02*
G75*
G02*
X10310000Y-7680000I-40000J0D01*
G01*
X10310000Y-7680000D02*
G75*
G02*
X10390000Y-7680000I40000J0D01*
G01*
X10425000Y-7640000D02*
X10275000Y-7640000D01*
X10275000Y-7720000D02*
G75*
G02*
X10275000Y-7640000I0J40000D01*
G01*
X10275000Y-7720000D02*
X10425000Y-7720000D01*
X10425000Y-7720000D02*
G75*
G03*
X10425000Y-7640000I0J40000D01*
G01*
X10390000Y-8670000D02*
G75*
G02*
X10310000Y-8670000I-40000J0D01*
G01*
X10310000Y-8670000D02*
G75*
G02*
X10390000Y-8670000I40000J0D01*
G01*
X10425000Y-8630000D02*
X10275000Y-8630000D01*
X10275000Y-8710000D02*
G75*
G02*
X10275000Y-8630000I0J40000D01*
G01*
X10275000Y-8710000D02*
X10425000Y-8710000D01*
X10425000Y-8710000D02*
G75*
G03*
X10425000Y-8630000I0J40000D01*
G01*
X11120000Y-7770000D02*
G75*
G02*
X11040000Y-7770000I-40000J0D01*
G01*
X11040000Y-7770000D02*
G75*
G02*
X11120000Y-7770000I40000J0D01*
G01*
X11140000Y-7730000D02*
X11020000Y-7730000D01*
X11020000Y-7810000D02*
G75*
G02*
X11020000Y-7730000I0J40000D01*
G01*
X11020000Y-7810000D02*
X11140000Y-7810000D01*
X11140000Y-7810000D02*
G75*
G03*
X11140000Y-7730000I0J40000D01*
G01*
X11120000Y-8290000D02*
G75*
G02*
X11040000Y-8290000I-40000J0D01*
G01*
X11040000Y-8290000D02*
G75*
G02*
X11120000Y-8290000I40000J0D01*
G01*
X11140000Y-8250000D02*
X11020000Y-8250000D01*
X11020000Y-8330000D02*
G75*
G02*
X11020000Y-8250000I0J40000D01*
G01*
X11020000Y-8330000D02*
X11140000Y-8330000D01*
X11140000Y-8330000D02*
G75*
G03*
X11140000Y-8250000I0J40000D01*
G01*
X11120000Y-8630000D02*
G75*
G02*
X11040000Y-8630000I-40000J0D01*
G01*
X11040000Y-8630000D02*
G75*
G02*
X11120000Y-8630000I40000J0D01*
G01*
X11140000Y-8590000D02*
X11020000Y-8590000D01*
X11020000Y-8670000D02*
G75*
G02*
X11020000Y-8590000I0J40000D01*
G01*
X11020000Y-8670000D02*
X11140000Y-8670000D01*
X11140000Y-8670000D02*
G75*
G03*
X11140000Y-8590000I0J40000D01*
G01*
D14*
X18450000Y-7094660D02*
X18450000Y-7201340D01*
X18396660Y-7148000D02*
X18503340Y-7148000D01*
X18450000Y-7348660D02*
X18450000Y-7455340D01*
X18396660Y-7402000D02*
X18503340Y-7402000D01*
X18450000Y-7602660D02*
X18450000Y-7709340D01*
X18396660Y-7656000D02*
X18503340Y-7656000D01*
X18450000Y-7856660D02*
X18450000Y-7963340D01*
X18396660Y-7910000D02*
X18503340Y-7910000D01*
X18450000Y-8110660D02*
X18450000Y-8217340D01*
X18396660Y-8164000D02*
X18503340Y-8164000D01*
X18450000Y-8364660D02*
X18450000Y-8471340D01*
X18396660Y-8418000D02*
X18503340Y-8418000D01*
X18450000Y-8618660D02*
X18450000Y-8725340D01*
X18396660Y-8672000D02*
X18503340Y-8672000D01*
X18450000Y-8872660D02*
X18450000Y-8979340D01*
X18396660Y-8926000D02*
X18503340Y-8926000D01*
X18450000Y-9126660D02*
X18450000Y-9233340D01*
X18396660Y-9180000D02*
X18503340Y-9180000D01*
X18450000Y-9380660D02*
X18450000Y-9487340D01*
X18396660Y-9434000D02*
X18503340Y-9434000D01*
X18450000Y-9634660D02*
X18450000Y-9741340D01*
X18396660Y-9688000D02*
X18503340Y-9688000D01*
X18450000Y-9888660D02*
X18450000Y-9995340D01*
X18396660Y-9942000D02*
X18503340Y-9942000D01*
X18450000Y-10142660D02*
X18450000Y-10249340D01*
X18396660Y-10196000D02*
X18503340Y-10196000D01*
X18450000Y-10396660D02*
X18450000Y-10503340D01*
X18396660Y-10450000D02*
X18503340Y-10450000D01*
X18450000Y-10650660D02*
X18450000Y-10757340D01*
X18396660Y-10704000D02*
X18503340Y-10704000D01*
X18450000Y-10904660D02*
X18450000Y-11011340D01*
X18396660Y-10958000D02*
X18503340Y-10958000D01*
X18450000Y-11158660D02*
X18450000Y-11265340D01*
X18396660Y-11212000D02*
X18503340Y-11212000D01*
X18450000Y-11412660D02*
X18450000Y-11519340D01*
X18396660Y-11466000D02*
X18503340Y-11466000D01*
X18450000Y-11666660D02*
X18450000Y-11773340D01*
X18396660Y-11720000D02*
X18503340Y-11720000D01*
X19200000Y-7110660D02*
X19200000Y-7217340D01*
X19146660Y-7164000D02*
X19253340Y-7164000D01*
X19200000Y-7364660D02*
X19200000Y-7471340D01*
X19146660Y-7418000D02*
X19253340Y-7418000D01*
X19200000Y-7618660D02*
X19200000Y-7725340D01*
X19146660Y-7672000D02*
X19253340Y-7672000D01*
X19200000Y-7872660D02*
X19200000Y-7979340D01*
X19146660Y-7926000D02*
X19253340Y-7926000D01*
X19200000Y-8126660D02*
X19200000Y-8233340D01*
X19146660Y-8180000D02*
X19253340Y-8180000D01*
X19200000Y-8380660D02*
X19200000Y-8487340D01*
X19146660Y-8434000D02*
X19253340Y-8434000D01*
X19200000Y-8634660D02*
X19200000Y-8741340D01*
X19146660Y-8688000D02*
X19253340Y-8688000D01*
X19200000Y-8888660D02*
X19200000Y-8995340D01*
X19146660Y-8942000D02*
X19253340Y-8942000D01*
X19200000Y-9142660D02*
X19200000Y-9249340D01*
X19146660Y-9196000D02*
X19253340Y-9196000D01*
X19200000Y-9396660D02*
X19200000Y-9503340D01*
X19146660Y-9450000D02*
X19253340Y-9450000D01*
X19200000Y-9650660D02*
X19200000Y-9757340D01*
X19146660Y-9704000D02*
X19253340Y-9704000D01*
X19200000Y-9904660D02*
X19200000Y-10011340D01*
X19146660Y-9958000D02*
X19253340Y-9958000D01*
X19200000Y-10158660D02*
X19200000Y-10265340D01*
X19146660Y-10212000D02*
X19253340Y-10212000D01*
X19200000Y-10412660D02*
X19200000Y-10519340D01*
X19146660Y-10466000D02*
X19253340Y-10466000D01*
X19200000Y-10666660D02*
X19200000Y-10773340D01*
X19146660Y-10720000D02*
X19253340Y-10720000D01*
X19200000Y-10920660D02*
X19200000Y-11027340D01*
X19146660Y-10974000D02*
X19253340Y-10974000D01*
X19200000Y-11174660D02*
X19200000Y-11281340D01*
X19146660Y-11228000D02*
X19253340Y-11228000D01*
X19200000Y-11428660D02*
X19200000Y-11535340D01*
X19146660Y-11482000D02*
X19253340Y-11482000D01*
X19200000Y-11682660D02*
X19200000Y-11789340D01*
X19146660Y-11736000D02*
X19253340Y-11736000D01*
D15*
X11162689Y-11076439D02*
X11162689Y-10909561D01*
X10995811Y-10909561D01*
X10995811Y-11076439D01*
X11162689Y-11076439D01*
X11162689Y-12390439D02*
X11162689Y-12223561D01*
X10995811Y-12223561D01*
X10995811Y-12390439D01*
X11162689Y-12390439D01*
D12*
X10258277Y-15313984D02*
X10258277Y-15113984D01*
X10258277Y-15113984D02*
X10305896Y-15113984D01*
X10305896Y-15113984D02*
X10334467Y-15123508D01*
X10334467Y-15123508D02*
X10353515Y-15142555D01*
X10353515Y-15142555D02*
X10363039Y-15161603D01*
X10363039Y-15161603D02*
X10372563Y-15199698D01*
X10372563Y-15199698D02*
X10372563Y-15228269D01*
X10372563Y-15228269D02*
X10363039Y-15266365D01*
X10363039Y-15266365D02*
X10353515Y-15285412D01*
X10353515Y-15285412D02*
X10334467Y-15304460D01*
X10334467Y-15304460D02*
X10305896Y-15313984D01*
X10305896Y-15313984D02*
X10258277Y-15313984D01*
X10458277Y-15313984D02*
X10458277Y-15180650D01*
X10458277Y-15218746D02*
X10467801Y-15199698D01*
X10467801Y-15199698D02*
X10477324Y-15190174D01*
X10477324Y-15190174D02*
X10496372Y-15180650D01*
X10496372Y-15180650D02*
X10515420Y-15180650D01*
X10582086Y-15313984D02*
X10582086Y-15180650D01*
X10582086Y-15113984D02*
X10572563Y-15123508D01*
X10572563Y-15123508D02*
X10582086Y-15133031D01*
X10582086Y-15133031D02*
X10591610Y-15123508D01*
X10591610Y-15123508D02*
X10582086Y-15113984D01*
X10582086Y-15113984D02*
X10582086Y-15133031D01*
X10705896Y-15313984D02*
X10686848Y-15304460D01*
X10686848Y-15304460D02*
X10677324Y-15285412D01*
X10677324Y-15285412D02*
X10677324Y-15113984D01*
X10810658Y-15313984D02*
X10791610Y-15304460D01*
X10791610Y-15304460D02*
X10782086Y-15285412D01*
X10782086Y-15285412D02*
X10782086Y-15113984D01*
X11039229Y-15313984D02*
X11039229Y-15113984D01*
X11039229Y-15113984D02*
X11105896Y-15256841D01*
X11105896Y-15256841D02*
X11172563Y-15113984D01*
X11172563Y-15113984D02*
X11172563Y-15313984D01*
X11353515Y-15313984D02*
X11353515Y-15209222D01*
X11353515Y-15209222D02*
X11343991Y-15190174D01*
X11343991Y-15190174D02*
X11324943Y-15180650D01*
X11324943Y-15180650D02*
X11286848Y-15180650D01*
X11286848Y-15180650D02*
X11267801Y-15190174D01*
X11353515Y-15304460D02*
X11334467Y-15313984D01*
X11334467Y-15313984D02*
X11286848Y-15313984D01*
X11286848Y-15313984D02*
X11267801Y-15304460D01*
X11267801Y-15304460D02*
X11258277Y-15285412D01*
X11258277Y-15285412D02*
X11258277Y-15266365D01*
X11258277Y-15266365D02*
X11267801Y-15247317D01*
X11267801Y-15247317D02*
X11286848Y-15237793D01*
X11286848Y-15237793D02*
X11334467Y-15237793D01*
X11334467Y-15237793D02*
X11353515Y-15228269D01*
X11448753Y-15180650D02*
X11448753Y-15380650D01*
X11448753Y-15190174D02*
X11467801Y-15180650D01*
X11467801Y-15180650D02*
X11505896Y-15180650D01*
X11505896Y-15180650D02*
X11524943Y-15190174D01*
X11524943Y-15190174D02*
X11534467Y-15199698D01*
X11534467Y-15199698D02*
X11543991Y-15218746D01*
X11543991Y-15218746D02*
X11543991Y-15275888D01*
X11543991Y-15275888D02*
X11534467Y-15294936D01*
X11534467Y-15294936D02*
X11524943Y-15304460D01*
X11524943Y-15304460D02*
X11505896Y-15313984D01*
X11505896Y-15313984D02*
X11467801Y-15313984D01*
X11467801Y-15313984D02*
X11448753Y-15304460D01*
X11629705Y-15294936D02*
X11639229Y-15304460D01*
X11639229Y-15304460D02*
X11629705Y-15313984D01*
X11629705Y-15313984D02*
X11620182Y-15304460D01*
X11620182Y-15304460D02*
X11629705Y-15294936D01*
X11629705Y-15294936D02*
X11629705Y-15313984D01*
X11629705Y-15190174D02*
X11639229Y-15199698D01*
X11639229Y-15199698D02*
X11629705Y-15209222D01*
X11629705Y-15209222D02*
X11620182Y-15199698D01*
X11620182Y-15199698D02*
X11629705Y-15190174D01*
X11629705Y-15190174D02*
X11629705Y-15209222D01*
D13*
X9967500Y-15627500D02*
X9997500Y-15657500D01*
X9997500Y-15627500D02*
X9967500Y-15657500D01*
D12*
X10296372Y-15533984D02*
X10315420Y-15533984D01*
X10315420Y-15533984D02*
X10334467Y-15543508D01*
X10334467Y-15543508D02*
X10343991Y-15553031D01*
X10343991Y-15553031D02*
X10353515Y-15572079D01*
X10353515Y-15572079D02*
X10363039Y-15610174D01*
X10363039Y-15610174D02*
X10363039Y-15657793D01*
X10363039Y-15657793D02*
X10353515Y-15695888D01*
X10353515Y-15695888D02*
X10343991Y-15714936D01*
X10343991Y-15714936D02*
X10334467Y-15724460D01*
X10334467Y-15724460D02*
X10315420Y-15733984D01*
X10315420Y-15733984D02*
X10296372Y-15733984D01*
X10296372Y-15733984D02*
X10277324Y-15724460D01*
X10277324Y-15724460D02*
X10267801Y-15714936D01*
X10267801Y-15714936D02*
X10258277Y-15695888D01*
X10258277Y-15695888D02*
X10248753Y-15657793D01*
X10248753Y-15657793D02*
X10248753Y-15610174D01*
X10248753Y-15610174D02*
X10258277Y-15572079D01*
X10258277Y-15572079D02*
X10267801Y-15553031D01*
X10267801Y-15553031D02*
X10277324Y-15543508D01*
X10277324Y-15543508D02*
X10296372Y-15533984D01*
X10448753Y-15714936D02*
X10458277Y-15724460D01*
X10458277Y-15724460D02*
X10448753Y-15733984D01*
X10448753Y-15733984D02*
X10439229Y-15724460D01*
X10439229Y-15724460D02*
X10448753Y-15714936D01*
X10448753Y-15714936D02*
X10448753Y-15733984D01*
X10524944Y-15533984D02*
X10648753Y-15533984D01*
X10648753Y-15533984D02*
X10582086Y-15610174D01*
X10582086Y-15610174D02*
X10610658Y-15610174D01*
X10610658Y-15610174D02*
X10629705Y-15619698D01*
X10629705Y-15619698D02*
X10639229Y-15629222D01*
X10639229Y-15629222D02*
X10648753Y-15648269D01*
X10648753Y-15648269D02*
X10648753Y-15695888D01*
X10648753Y-15695888D02*
X10639229Y-15714936D01*
X10639229Y-15714936D02*
X10629705Y-15724460D01*
X10629705Y-15724460D02*
X10610658Y-15733984D01*
X10610658Y-15733984D02*
X10553515Y-15733984D01*
X10553515Y-15733984D02*
X10534467Y-15724460D01*
X10534467Y-15724460D02*
X10524944Y-15714936D01*
X10772563Y-15533984D02*
X10791610Y-15533984D01*
X10791610Y-15533984D02*
X10810658Y-15543508D01*
X10810658Y-15543508D02*
X10820182Y-15553031D01*
X10820182Y-15553031D02*
X10829705Y-15572079D01*
X10829705Y-15572079D02*
X10839229Y-15610174D01*
X10839229Y-15610174D02*
X10839229Y-15657793D01*
X10839229Y-15657793D02*
X10829705Y-15695888D01*
X10829705Y-15695888D02*
X10820182Y-15714936D01*
X10820182Y-15714936D02*
X10810658Y-15724460D01*
X10810658Y-15724460D02*
X10791610Y-15733984D01*
X10791610Y-15733984D02*
X10772563Y-15733984D01*
X10772563Y-15733984D02*
X10753515Y-15724460D01*
X10753515Y-15724460D02*
X10743991Y-15714936D01*
X10743991Y-15714936D02*
X10734467Y-15695888D01*
X10734467Y-15695888D02*
X10724944Y-15657793D01*
X10724944Y-15657793D02*
X10724944Y-15610174D01*
X10724944Y-15610174D02*
X10734467Y-15572079D01*
X10734467Y-15572079D02*
X10743991Y-15553031D01*
X10743991Y-15553031D02*
X10753515Y-15543508D01*
X10753515Y-15543508D02*
X10772563Y-15533984D01*
X10963039Y-15533984D02*
X10982086Y-15533984D01*
X10982086Y-15533984D02*
X11001134Y-15543508D01*
X11001134Y-15543508D02*
X11010658Y-15553031D01*
X11010658Y-15553031D02*
X11020182Y-15572079D01*
X11020182Y-15572079D02*
X11029705Y-15610174D01*
X11029705Y-15610174D02*
X11029705Y-15657793D01*
X11029705Y-15657793D02*
X11020182Y-15695888D01*
X11020182Y-15695888D02*
X11010658Y-15714936D01*
X11010658Y-15714936D02*
X11001134Y-15724460D01*
X11001134Y-15724460D02*
X10982086Y-15733984D01*
X10982086Y-15733984D02*
X10963039Y-15733984D01*
X10963039Y-15733984D02*
X10943991Y-15724460D01*
X10943991Y-15724460D02*
X10934467Y-15714936D01*
X10934467Y-15714936D02*
X10924944Y-15695888D01*
X10924944Y-15695888D02*
X10915420Y-15657793D01*
X10915420Y-15657793D02*
X10915420Y-15610174D01*
X10915420Y-15610174D02*
X10924944Y-15572079D01*
X10924944Y-15572079D02*
X10934467Y-15553031D01*
X10934467Y-15553031D02*
X10943991Y-15543508D01*
X10943991Y-15543508D02*
X10963039Y-15533984D01*
X11115420Y-15733984D02*
X11115420Y-15600650D01*
X11115420Y-15619698D02*
X11124944Y-15610174D01*
X11124944Y-15610174D02*
X11143991Y-15600650D01*
X11143991Y-15600650D02*
X11172563Y-15600650D01*
X11172563Y-15600650D02*
X11191610Y-15610174D01*
X11191610Y-15610174D02*
X11201134Y-15629222D01*
X11201134Y-15629222D02*
X11201134Y-15733984D01*
X11201134Y-15629222D02*
X11210658Y-15610174D01*
X11210658Y-15610174D02*
X11229705Y-15600650D01*
X11229705Y-15600650D02*
X11258277Y-15600650D01*
X11258277Y-15600650D02*
X11277324Y-15610174D01*
X11277324Y-15610174D02*
X11286848Y-15629222D01*
X11286848Y-15629222D02*
X11286848Y-15733984D01*
X11382086Y-15733984D02*
X11382086Y-15600650D01*
X11382086Y-15619698D02*
X11391610Y-15610174D01*
X11391610Y-15610174D02*
X11410658Y-15600650D01*
X11410658Y-15600650D02*
X11439229Y-15600650D01*
X11439229Y-15600650D02*
X11458277Y-15610174D01*
X11458277Y-15610174D02*
X11467801Y-15629222D01*
X11467801Y-15629222D02*
X11467801Y-15733984D01*
X11467801Y-15629222D02*
X11477324Y-15610174D01*
X11477324Y-15610174D02*
X11496372Y-15600650D01*
X11496372Y-15600650D02*
X11524943Y-15600650D01*
X11524943Y-15600650D02*
X11543991Y-15610174D01*
X11543991Y-15610174D02*
X11553515Y-15629222D01*
X11553515Y-15629222D02*
X11553515Y-15733984D01*
X11943991Y-15524460D02*
X11772563Y-15781603D01*
X12201134Y-15533984D02*
X12220182Y-15533984D01*
X12220182Y-15533984D02*
X12239229Y-15543508D01*
X12239229Y-15543508D02*
X12248753Y-15553031D01*
X12248753Y-15553031D02*
X12258277Y-15572079D01*
X12258277Y-15572079D02*
X12267801Y-15610174D01*
X12267801Y-15610174D02*
X12267801Y-15657793D01*
X12267801Y-15657793D02*
X12258277Y-15695888D01*
X12258277Y-15695888D02*
X12248753Y-15714936D01*
X12248753Y-15714936D02*
X12239229Y-15724460D01*
X12239229Y-15724460D02*
X12220182Y-15733984D01*
X12220182Y-15733984D02*
X12201134Y-15733984D01*
X12201134Y-15733984D02*
X12182086Y-15724460D01*
X12182086Y-15724460D02*
X12172563Y-15714936D01*
X12172563Y-15714936D02*
X12163039Y-15695888D01*
X12163039Y-15695888D02*
X12153515Y-15657793D01*
X12153515Y-15657793D02*
X12153515Y-15610174D01*
X12153515Y-15610174D02*
X12163039Y-15572079D01*
X12163039Y-15572079D02*
X12172563Y-15553031D01*
X12172563Y-15553031D02*
X12182086Y-15543508D01*
X12182086Y-15543508D02*
X12201134Y-15533984D01*
X12353515Y-15714936D02*
X12363039Y-15724460D01*
X12363039Y-15724460D02*
X12353515Y-15733984D01*
X12353515Y-15733984D02*
X12343991Y-15724460D01*
X12343991Y-15724460D02*
X12353515Y-15714936D01*
X12353515Y-15714936D02*
X12353515Y-15733984D01*
X12486848Y-15533984D02*
X12505896Y-15533984D01*
X12505896Y-15533984D02*
X12524944Y-15543508D01*
X12524944Y-15543508D02*
X12534467Y-15553031D01*
X12534467Y-15553031D02*
X12543991Y-15572079D01*
X12543991Y-15572079D02*
X12553515Y-15610174D01*
X12553515Y-15610174D02*
X12553515Y-15657793D01*
X12553515Y-15657793D02*
X12543991Y-15695888D01*
X12543991Y-15695888D02*
X12534467Y-15714936D01*
X12534467Y-15714936D02*
X12524944Y-15724460D01*
X12524944Y-15724460D02*
X12505896Y-15733984D01*
X12505896Y-15733984D02*
X12486848Y-15733984D01*
X12486848Y-15733984D02*
X12467801Y-15724460D01*
X12467801Y-15724460D02*
X12458277Y-15714936D01*
X12458277Y-15714936D02*
X12448753Y-15695888D01*
X12448753Y-15695888D02*
X12439229Y-15657793D01*
X12439229Y-15657793D02*
X12439229Y-15610174D01*
X12439229Y-15610174D02*
X12448753Y-15572079D01*
X12448753Y-15572079D02*
X12458277Y-15553031D01*
X12458277Y-15553031D02*
X12467801Y-15543508D01*
X12467801Y-15543508D02*
X12486848Y-15533984D01*
X12743991Y-15733984D02*
X12629706Y-15733984D01*
X12686848Y-15733984D02*
X12686848Y-15533984D01*
X12686848Y-15533984D02*
X12667801Y-15562555D01*
X12667801Y-15562555D02*
X12648753Y-15581603D01*
X12648753Y-15581603D02*
X12629706Y-15591127D01*
X12934467Y-15733984D02*
X12820182Y-15733984D01*
X12877325Y-15733984D02*
X12877325Y-15533984D01*
X12877325Y-15533984D02*
X12858277Y-15562555D01*
X12858277Y-15562555D02*
X12839229Y-15581603D01*
X12839229Y-15581603D02*
X12820182Y-15591127D01*
X13048753Y-15619698D02*
X13029706Y-15610174D01*
X13029706Y-15610174D02*
X13020182Y-15600650D01*
X13020182Y-15600650D02*
X13010658Y-15581603D01*
X13010658Y-15581603D02*
X13010658Y-15572079D01*
X13010658Y-15572079D02*
X13020182Y-15553031D01*
X13020182Y-15553031D02*
X13029706Y-15543508D01*
X13029706Y-15543508D02*
X13048753Y-15533984D01*
X13048753Y-15533984D02*
X13086848Y-15533984D01*
X13086848Y-15533984D02*
X13105896Y-15543508D01*
X13105896Y-15543508D02*
X13115420Y-15553031D01*
X13115420Y-15553031D02*
X13124944Y-15572079D01*
X13124944Y-15572079D02*
X13124944Y-15581603D01*
X13124944Y-15581603D02*
X13115420Y-15600650D01*
X13115420Y-15600650D02*
X13105896Y-15610174D01*
X13105896Y-15610174D02*
X13086848Y-15619698D01*
X13086848Y-15619698D02*
X13048753Y-15619698D01*
X13048753Y-15619698D02*
X13029706Y-15629222D01*
X13029706Y-15629222D02*
X13020182Y-15638746D01*
X13020182Y-15638746D02*
X13010658Y-15657793D01*
X13010658Y-15657793D02*
X13010658Y-15695888D01*
X13010658Y-15695888D02*
X13020182Y-15714936D01*
X13020182Y-15714936D02*
X13029706Y-15724460D01*
X13029706Y-15724460D02*
X13048753Y-15733984D01*
X13048753Y-15733984D02*
X13086848Y-15733984D01*
X13086848Y-15733984D02*
X13105896Y-15724460D01*
X13105896Y-15724460D02*
X13115420Y-15714936D01*
X13115420Y-15714936D02*
X13124944Y-15695888D01*
X13124944Y-15695888D02*
X13124944Y-15657793D01*
X13124944Y-15657793D02*
X13115420Y-15638746D01*
X13115420Y-15638746D02*
X13105896Y-15629222D01*
X13105896Y-15629222D02*
X13086848Y-15619698D01*
X13201134Y-15533984D02*
X13201134Y-15572079D01*
X13277325Y-15533984D02*
X13277325Y-15572079D01*
X13572563Y-15810174D02*
X13563039Y-15800650D01*
X13563039Y-15800650D02*
X13543991Y-15772079D01*
X13543991Y-15772079D02*
X13534468Y-15753031D01*
X13534468Y-15753031D02*
X13524944Y-15724460D01*
X13524944Y-15724460D02*
X13515420Y-15676841D01*
X13515420Y-15676841D02*
X13515420Y-15638746D01*
X13515420Y-15638746D02*
X13524944Y-15591127D01*
X13524944Y-15591127D02*
X13534468Y-15562555D01*
X13534468Y-15562555D02*
X13543991Y-15543508D01*
X13543991Y-15543508D02*
X13563039Y-15514936D01*
X13563039Y-15514936D02*
X13572563Y-15505412D01*
X13753515Y-15733984D02*
X13639229Y-15733984D01*
X13696372Y-15733984D02*
X13696372Y-15533984D01*
X13696372Y-15533984D02*
X13677325Y-15562555D01*
X13677325Y-15562555D02*
X13658277Y-15581603D01*
X13658277Y-15581603D02*
X13639229Y-15591127D01*
X13934468Y-15533984D02*
X13839229Y-15533984D01*
X13839229Y-15533984D02*
X13829706Y-15629222D01*
X13829706Y-15629222D02*
X13839229Y-15619698D01*
X13839229Y-15619698D02*
X13858277Y-15610174D01*
X13858277Y-15610174D02*
X13905896Y-15610174D01*
X13905896Y-15610174D02*
X13924944Y-15619698D01*
X13924944Y-15619698D02*
X13934468Y-15629222D01*
X13934468Y-15629222D02*
X13943991Y-15648269D01*
X13943991Y-15648269D02*
X13943991Y-15695888D01*
X13943991Y-15695888D02*
X13934468Y-15714936D01*
X13934468Y-15714936D02*
X13924944Y-15724460D01*
X13924944Y-15724460D02*
X13905896Y-15733984D01*
X13905896Y-15733984D02*
X13858277Y-15733984D01*
X13858277Y-15733984D02*
X13839229Y-15724460D01*
X13839229Y-15724460D02*
X13829706Y-15714936D01*
X14067801Y-15533984D02*
X14086849Y-15533984D01*
X14086849Y-15533984D02*
X14105896Y-15543508D01*
X14105896Y-15543508D02*
X14115420Y-15553031D01*
X14115420Y-15553031D02*
X14124944Y-15572079D01*
X14124944Y-15572079D02*
X14134468Y-15610174D01*
X14134468Y-15610174D02*
X14134468Y-15657793D01*
X14134468Y-15657793D02*
X14124944Y-15695888D01*
X14124944Y-15695888D02*
X14115420Y-15714936D01*
X14115420Y-15714936D02*
X14105896Y-15724460D01*
X14105896Y-15724460D02*
X14086849Y-15733984D01*
X14086849Y-15733984D02*
X14067801Y-15733984D01*
X14067801Y-15733984D02*
X14048753Y-15724460D01*
X14048753Y-15724460D02*
X14039229Y-15714936D01*
X14039229Y-15714936D02*
X14029706Y-15695888D01*
X14029706Y-15695888D02*
X14020182Y-15657793D01*
X14020182Y-15657793D02*
X14020182Y-15610174D01*
X14020182Y-15610174D02*
X14029706Y-15572079D01*
X14029706Y-15572079D02*
X14039229Y-15553031D01*
X14039229Y-15553031D02*
X14048753Y-15543508D01*
X14048753Y-15543508D02*
X14067801Y-15533984D01*
X14372563Y-15733984D02*
X14372563Y-15533984D01*
X14458277Y-15733984D02*
X14458277Y-15629222D01*
X14458277Y-15629222D02*
X14448753Y-15610174D01*
X14448753Y-15610174D02*
X14429706Y-15600650D01*
X14429706Y-15600650D02*
X14401134Y-15600650D01*
X14401134Y-15600650D02*
X14382087Y-15610174D01*
X14382087Y-15610174D02*
X14372563Y-15619698D01*
X14582087Y-15733984D02*
X14563039Y-15724460D01*
X14563039Y-15724460D02*
X14553515Y-15714936D01*
X14553515Y-15714936D02*
X14543991Y-15695888D01*
X14543991Y-15695888D02*
X14543991Y-15638746D01*
X14543991Y-15638746D02*
X14553515Y-15619698D01*
X14553515Y-15619698D02*
X14563039Y-15610174D01*
X14563039Y-15610174D02*
X14582087Y-15600650D01*
X14582087Y-15600650D02*
X14610658Y-15600650D01*
X14610658Y-15600650D02*
X14629706Y-15610174D01*
X14629706Y-15610174D02*
X14639230Y-15619698D01*
X14639230Y-15619698D02*
X14648753Y-15638746D01*
X14648753Y-15638746D02*
X14648753Y-15695888D01*
X14648753Y-15695888D02*
X14639230Y-15714936D01*
X14639230Y-15714936D02*
X14629706Y-15724460D01*
X14629706Y-15724460D02*
X14610658Y-15733984D01*
X14610658Y-15733984D02*
X14582087Y-15733984D01*
X14763039Y-15733984D02*
X14743991Y-15724460D01*
X14743991Y-15724460D02*
X14734468Y-15705412D01*
X14734468Y-15705412D02*
X14734468Y-15533984D01*
X14915420Y-15724460D02*
X14896372Y-15733984D01*
X14896372Y-15733984D02*
X14858277Y-15733984D01*
X14858277Y-15733984D02*
X14839230Y-15724460D01*
X14839230Y-15724460D02*
X14829706Y-15705412D01*
X14829706Y-15705412D02*
X14829706Y-15629222D01*
X14829706Y-15629222D02*
X14839230Y-15610174D01*
X14839230Y-15610174D02*
X14858277Y-15600650D01*
X14858277Y-15600650D02*
X14896372Y-15600650D01*
X14896372Y-15600650D02*
X14915420Y-15610174D01*
X14915420Y-15610174D02*
X14924944Y-15629222D01*
X14924944Y-15629222D02*
X14924944Y-15648269D01*
X14924944Y-15648269D02*
X14829706Y-15667317D01*
X15001134Y-15724460D02*
X15020182Y-15733984D01*
X15020182Y-15733984D02*
X15058277Y-15733984D01*
X15058277Y-15733984D02*
X15077325Y-15724460D01*
X15077325Y-15724460D02*
X15086849Y-15705412D01*
X15086849Y-15705412D02*
X15086849Y-15695888D01*
X15086849Y-15695888D02*
X15077325Y-15676841D01*
X15077325Y-15676841D02*
X15058277Y-15667317D01*
X15058277Y-15667317D02*
X15029706Y-15667317D01*
X15029706Y-15667317D02*
X15010658Y-15657793D01*
X15010658Y-15657793D02*
X15001134Y-15638746D01*
X15001134Y-15638746D02*
X15001134Y-15629222D01*
X15001134Y-15629222D02*
X15010658Y-15610174D01*
X15010658Y-15610174D02*
X15029706Y-15600650D01*
X15029706Y-15600650D02*
X15058277Y-15600650D01*
X15058277Y-15600650D02*
X15077325Y-15610174D01*
X15153515Y-15810174D02*
X15163039Y-15800650D01*
X15163039Y-15800650D02*
X15182087Y-15772079D01*
X15182087Y-15772079D02*
X15191611Y-15753031D01*
X15191611Y-15753031D02*
X15201134Y-15724460D01*
X15201134Y-15724460D02*
X15210658Y-15676841D01*
X15210658Y-15676841D02*
X15210658Y-15638746D01*
X15210658Y-15638746D02*
X15201134Y-15591127D01*
X15201134Y-15591127D02*
X15191611Y-15562555D01*
X15191611Y-15562555D02*
X15182087Y-15543508D01*
X15182087Y-15543508D02*
X15163039Y-15514936D01*
X15163039Y-15514936D02*
X15153515Y-15505412D01*
D13*
X9997500Y-15906500D02*
G75*
G02*
X9917500Y-15906500I-40000J0D01*
G01*
X9917500Y-15906500D02*
G75*
G02*
X9997500Y-15906500I40000J0D01*
G01*
D12*
X10296372Y-15797984D02*
X10315420Y-15797984D01*
X10315420Y-15797984D02*
X10334467Y-15807508D01*
X10334467Y-15807508D02*
X10343991Y-15817031D01*
X10343991Y-15817031D02*
X10353515Y-15836079D01*
X10353515Y-15836079D02*
X10363039Y-15874174D01*
X10363039Y-15874174D02*
X10363039Y-15921793D01*
X10363039Y-15921793D02*
X10353515Y-15959888D01*
X10353515Y-15959888D02*
X10343991Y-15978936D01*
X10343991Y-15978936D02*
X10334467Y-15988460D01*
X10334467Y-15988460D02*
X10315420Y-15997984D01*
X10315420Y-15997984D02*
X10296372Y-15997984D01*
X10296372Y-15997984D02*
X10277324Y-15988460D01*
X10277324Y-15988460D02*
X10267801Y-15978936D01*
X10267801Y-15978936D02*
X10258277Y-15959888D01*
X10258277Y-15959888D02*
X10248753Y-15921793D01*
X10248753Y-15921793D02*
X10248753Y-15874174D01*
X10248753Y-15874174D02*
X10258277Y-15836079D01*
X10258277Y-15836079D02*
X10267801Y-15817031D01*
X10267801Y-15817031D02*
X10277324Y-15807508D01*
X10277324Y-15807508D02*
X10296372Y-15797984D01*
X10448753Y-15978936D02*
X10458277Y-15988460D01*
X10458277Y-15988460D02*
X10448753Y-15997984D01*
X10448753Y-15997984D02*
X10439229Y-15988460D01*
X10439229Y-15988460D02*
X10448753Y-15978936D01*
X10448753Y-15978936D02*
X10448753Y-15997984D01*
X10572563Y-15883698D02*
X10553515Y-15874174D01*
X10553515Y-15874174D02*
X10543991Y-15864650D01*
X10543991Y-15864650D02*
X10534467Y-15845603D01*
X10534467Y-15845603D02*
X10534467Y-15836079D01*
X10534467Y-15836079D02*
X10543991Y-15817031D01*
X10543991Y-15817031D02*
X10553515Y-15807508D01*
X10553515Y-15807508D02*
X10572563Y-15797984D01*
X10572563Y-15797984D02*
X10610658Y-15797984D01*
X10610658Y-15797984D02*
X10629705Y-15807508D01*
X10629705Y-15807508D02*
X10639229Y-15817031D01*
X10639229Y-15817031D02*
X10648753Y-15836079D01*
X10648753Y-15836079D02*
X10648753Y-15845603D01*
X10648753Y-15845603D02*
X10639229Y-15864650D01*
X10639229Y-15864650D02*
X10629705Y-15874174D01*
X10629705Y-15874174D02*
X10610658Y-15883698D01*
X10610658Y-15883698D02*
X10572563Y-15883698D01*
X10572563Y-15883698D02*
X10553515Y-15893222D01*
X10553515Y-15893222D02*
X10543991Y-15902746D01*
X10543991Y-15902746D02*
X10534467Y-15921793D01*
X10534467Y-15921793D02*
X10534467Y-15959888D01*
X10534467Y-15959888D02*
X10543991Y-15978936D01*
X10543991Y-15978936D02*
X10553515Y-15988460D01*
X10553515Y-15988460D02*
X10572563Y-15997984D01*
X10572563Y-15997984D02*
X10610658Y-15997984D01*
X10610658Y-15997984D02*
X10629705Y-15988460D01*
X10629705Y-15988460D02*
X10639229Y-15978936D01*
X10639229Y-15978936D02*
X10648753Y-15959888D01*
X10648753Y-15959888D02*
X10648753Y-15921793D01*
X10648753Y-15921793D02*
X10639229Y-15902746D01*
X10639229Y-15902746D02*
X10629705Y-15893222D01*
X10629705Y-15893222D02*
X10610658Y-15883698D01*
X10772563Y-15797984D02*
X10791610Y-15797984D01*
X10791610Y-15797984D02*
X10810658Y-15807508D01*
X10810658Y-15807508D02*
X10820182Y-15817031D01*
X10820182Y-15817031D02*
X10829705Y-15836079D01*
X10829705Y-15836079D02*
X10839229Y-15874174D01*
X10839229Y-15874174D02*
X10839229Y-15921793D01*
X10839229Y-15921793D02*
X10829705Y-15959888D01*
X10829705Y-15959888D02*
X10820182Y-15978936D01*
X10820182Y-15978936D02*
X10810658Y-15988460D01*
X10810658Y-15988460D02*
X10791610Y-15997984D01*
X10791610Y-15997984D02*
X10772563Y-15997984D01*
X10772563Y-15997984D02*
X10753515Y-15988460D01*
X10753515Y-15988460D02*
X10743991Y-15978936D01*
X10743991Y-15978936D02*
X10734467Y-15959888D01*
X10734467Y-15959888D02*
X10724944Y-15921793D01*
X10724944Y-15921793D02*
X10724944Y-15874174D01*
X10724944Y-15874174D02*
X10734467Y-15836079D01*
X10734467Y-15836079D02*
X10743991Y-15817031D01*
X10743991Y-15817031D02*
X10753515Y-15807508D01*
X10753515Y-15807508D02*
X10772563Y-15797984D01*
X10963039Y-15797984D02*
X10982086Y-15797984D01*
X10982086Y-15797984D02*
X11001134Y-15807508D01*
X11001134Y-15807508D02*
X11010658Y-15817031D01*
X11010658Y-15817031D02*
X11020182Y-15836079D01*
X11020182Y-15836079D02*
X11029705Y-15874174D01*
X11029705Y-15874174D02*
X11029705Y-15921793D01*
X11029705Y-15921793D02*
X11020182Y-15959888D01*
X11020182Y-15959888D02*
X11010658Y-15978936D01*
X11010658Y-15978936D02*
X11001134Y-15988460D01*
X11001134Y-15988460D02*
X10982086Y-15997984D01*
X10982086Y-15997984D02*
X10963039Y-15997984D01*
X10963039Y-15997984D02*
X10943991Y-15988460D01*
X10943991Y-15988460D02*
X10934467Y-15978936D01*
X10934467Y-15978936D02*
X10924944Y-15959888D01*
X10924944Y-15959888D02*
X10915420Y-15921793D01*
X10915420Y-15921793D02*
X10915420Y-15874174D01*
X10915420Y-15874174D02*
X10924944Y-15836079D01*
X10924944Y-15836079D02*
X10934467Y-15817031D01*
X10934467Y-15817031D02*
X10943991Y-15807508D01*
X10943991Y-15807508D02*
X10963039Y-15797984D01*
X11115420Y-15997984D02*
X11115420Y-15864650D01*
X11115420Y-15883698D02*
X11124944Y-15874174D01*
X11124944Y-15874174D02*
X11143991Y-15864650D01*
X11143991Y-15864650D02*
X11172563Y-15864650D01*
X11172563Y-15864650D02*
X11191610Y-15874174D01*
X11191610Y-15874174D02*
X11201134Y-15893222D01*
X11201134Y-15893222D02*
X11201134Y-15997984D01*
X11201134Y-15893222D02*
X11210658Y-15874174D01*
X11210658Y-15874174D02*
X11229705Y-15864650D01*
X11229705Y-15864650D02*
X11258277Y-15864650D01*
X11258277Y-15864650D02*
X11277324Y-15874174D01*
X11277324Y-15874174D02*
X11286848Y-15893222D01*
X11286848Y-15893222D02*
X11286848Y-15997984D01*
X11382086Y-15997984D02*
X11382086Y-15864650D01*
X11382086Y-15883698D02*
X11391610Y-15874174D01*
X11391610Y-15874174D02*
X11410658Y-15864650D01*
X11410658Y-15864650D02*
X11439229Y-15864650D01*
X11439229Y-15864650D02*
X11458277Y-15874174D01*
X11458277Y-15874174D02*
X11467801Y-15893222D01*
X11467801Y-15893222D02*
X11467801Y-15997984D01*
X11467801Y-15893222D02*
X11477324Y-15874174D01*
X11477324Y-15874174D02*
X11496372Y-15864650D01*
X11496372Y-15864650D02*
X11524943Y-15864650D01*
X11524943Y-15864650D02*
X11543991Y-15874174D01*
X11543991Y-15874174D02*
X11553515Y-15893222D01*
X11553515Y-15893222D02*
X11553515Y-15997984D01*
X11943991Y-15788460D02*
X11772563Y-16045603D01*
X12201134Y-15797984D02*
X12220182Y-15797984D01*
X12220182Y-15797984D02*
X12239229Y-15807508D01*
X12239229Y-15807508D02*
X12248753Y-15817031D01*
X12248753Y-15817031D02*
X12258277Y-15836079D01*
X12258277Y-15836079D02*
X12267801Y-15874174D01*
X12267801Y-15874174D02*
X12267801Y-15921793D01*
X12267801Y-15921793D02*
X12258277Y-15959888D01*
X12258277Y-15959888D02*
X12248753Y-15978936D01*
X12248753Y-15978936D02*
X12239229Y-15988460D01*
X12239229Y-15988460D02*
X12220182Y-15997984D01*
X12220182Y-15997984D02*
X12201134Y-15997984D01*
X12201134Y-15997984D02*
X12182086Y-15988460D01*
X12182086Y-15988460D02*
X12172563Y-15978936D01*
X12172563Y-15978936D02*
X12163039Y-15959888D01*
X12163039Y-15959888D02*
X12153515Y-15921793D01*
X12153515Y-15921793D02*
X12153515Y-15874174D01*
X12153515Y-15874174D02*
X12163039Y-15836079D01*
X12163039Y-15836079D02*
X12172563Y-15817031D01*
X12172563Y-15817031D02*
X12182086Y-15807508D01*
X12182086Y-15807508D02*
X12201134Y-15797984D01*
X12353515Y-15978936D02*
X12363039Y-15988460D01*
X12363039Y-15988460D02*
X12353515Y-15997984D01*
X12353515Y-15997984D02*
X12343991Y-15988460D01*
X12343991Y-15988460D02*
X12353515Y-15978936D01*
X12353515Y-15978936D02*
X12353515Y-15997984D01*
X12486848Y-15797984D02*
X12505896Y-15797984D01*
X12505896Y-15797984D02*
X12524944Y-15807508D01*
X12524944Y-15807508D02*
X12534467Y-15817031D01*
X12534467Y-15817031D02*
X12543991Y-15836079D01*
X12543991Y-15836079D02*
X12553515Y-15874174D01*
X12553515Y-15874174D02*
X12553515Y-15921793D01*
X12553515Y-15921793D02*
X12543991Y-15959888D01*
X12543991Y-15959888D02*
X12534467Y-15978936D01*
X12534467Y-15978936D02*
X12524944Y-15988460D01*
X12524944Y-15988460D02*
X12505896Y-15997984D01*
X12505896Y-15997984D02*
X12486848Y-15997984D01*
X12486848Y-15997984D02*
X12467801Y-15988460D01*
X12467801Y-15988460D02*
X12458277Y-15978936D01*
X12458277Y-15978936D02*
X12448753Y-15959888D01*
X12448753Y-15959888D02*
X12439229Y-15921793D01*
X12439229Y-15921793D02*
X12439229Y-15874174D01*
X12439229Y-15874174D02*
X12448753Y-15836079D01*
X12448753Y-15836079D02*
X12458277Y-15817031D01*
X12458277Y-15817031D02*
X12467801Y-15807508D01*
X12467801Y-15807508D02*
X12486848Y-15797984D01*
X12620182Y-15797984D02*
X12743991Y-15797984D01*
X12743991Y-15797984D02*
X12677325Y-15874174D01*
X12677325Y-15874174D02*
X12705896Y-15874174D01*
X12705896Y-15874174D02*
X12724944Y-15883698D01*
X12724944Y-15883698D02*
X12734467Y-15893222D01*
X12734467Y-15893222D02*
X12743991Y-15912269D01*
X12743991Y-15912269D02*
X12743991Y-15959888D01*
X12743991Y-15959888D02*
X12734467Y-15978936D01*
X12734467Y-15978936D02*
X12724944Y-15988460D01*
X12724944Y-15988460D02*
X12705896Y-15997984D01*
X12705896Y-15997984D02*
X12648753Y-15997984D01*
X12648753Y-15997984D02*
X12629706Y-15988460D01*
X12629706Y-15988460D02*
X12620182Y-15978936D01*
X12934467Y-15997984D02*
X12820182Y-15997984D01*
X12877325Y-15997984D02*
X12877325Y-15797984D01*
X12877325Y-15797984D02*
X12858277Y-15826555D01*
X12858277Y-15826555D02*
X12839229Y-15845603D01*
X12839229Y-15845603D02*
X12820182Y-15855127D01*
X13115420Y-15797984D02*
X13020182Y-15797984D01*
X13020182Y-15797984D02*
X13010658Y-15893222D01*
X13010658Y-15893222D02*
X13020182Y-15883698D01*
X13020182Y-15883698D02*
X13039229Y-15874174D01*
X13039229Y-15874174D02*
X13086848Y-15874174D01*
X13086848Y-15874174D02*
X13105896Y-15883698D01*
X13105896Y-15883698D02*
X13115420Y-15893222D01*
X13115420Y-15893222D02*
X13124944Y-15912269D01*
X13124944Y-15912269D02*
X13124944Y-15959888D01*
X13124944Y-15959888D02*
X13115420Y-15978936D01*
X13115420Y-15978936D02*
X13105896Y-15988460D01*
X13105896Y-15988460D02*
X13086848Y-15997984D01*
X13086848Y-15997984D02*
X13039229Y-15997984D01*
X13039229Y-15997984D02*
X13020182Y-15988460D01*
X13020182Y-15988460D02*
X13010658Y-15978936D01*
X13201134Y-15797984D02*
X13201134Y-15836079D01*
X13277325Y-15797984D02*
X13277325Y-15836079D01*
X13572563Y-16074174D02*
X13563039Y-16064650D01*
X13563039Y-16064650D02*
X13543991Y-16036079D01*
X13543991Y-16036079D02*
X13534468Y-16017031D01*
X13534468Y-16017031D02*
X13524944Y-15988460D01*
X13524944Y-15988460D02*
X13515420Y-15940841D01*
X13515420Y-15940841D02*
X13515420Y-15902746D01*
X13515420Y-15902746D02*
X13524944Y-15855127D01*
X13524944Y-15855127D02*
X13534468Y-15826555D01*
X13534468Y-15826555D02*
X13543991Y-15807508D01*
X13543991Y-15807508D02*
X13563039Y-15778936D01*
X13563039Y-15778936D02*
X13572563Y-15769412D01*
X13686848Y-15797984D02*
X13705896Y-15797984D01*
X13705896Y-15797984D02*
X13724944Y-15807508D01*
X13724944Y-15807508D02*
X13734468Y-15817031D01*
X13734468Y-15817031D02*
X13743991Y-15836079D01*
X13743991Y-15836079D02*
X13753515Y-15874174D01*
X13753515Y-15874174D02*
X13753515Y-15921793D01*
X13753515Y-15921793D02*
X13743991Y-15959888D01*
X13743991Y-15959888D02*
X13734468Y-15978936D01*
X13734468Y-15978936D02*
X13724944Y-15988460D01*
X13724944Y-15988460D02*
X13705896Y-15997984D01*
X13705896Y-15997984D02*
X13686848Y-15997984D01*
X13686848Y-15997984D02*
X13667801Y-15988460D01*
X13667801Y-15988460D02*
X13658277Y-15978936D01*
X13658277Y-15978936D02*
X13648753Y-15959888D01*
X13648753Y-15959888D02*
X13639229Y-15921793D01*
X13639229Y-15921793D02*
X13639229Y-15874174D01*
X13639229Y-15874174D02*
X13648753Y-15836079D01*
X13648753Y-15836079D02*
X13658277Y-15817031D01*
X13658277Y-15817031D02*
X13667801Y-15807508D01*
X13667801Y-15807508D02*
X13686848Y-15797984D01*
X13991610Y-15997984D02*
X13991610Y-15797984D01*
X14077325Y-15997984D02*
X14077325Y-15893222D01*
X14077325Y-15893222D02*
X14067801Y-15874174D01*
X14067801Y-15874174D02*
X14048753Y-15864650D01*
X14048753Y-15864650D02*
X14020182Y-15864650D01*
X14020182Y-15864650D02*
X14001134Y-15874174D01*
X14001134Y-15874174D02*
X13991610Y-15883698D01*
X14201134Y-15997984D02*
X14182087Y-15988460D01*
X14182087Y-15988460D02*
X14172563Y-15978936D01*
X14172563Y-15978936D02*
X14163039Y-15959888D01*
X14163039Y-15959888D02*
X14163039Y-15902746D01*
X14163039Y-15902746D02*
X14172563Y-15883698D01*
X14172563Y-15883698D02*
X14182087Y-15874174D01*
X14182087Y-15874174D02*
X14201134Y-15864650D01*
X14201134Y-15864650D02*
X14229706Y-15864650D01*
X14229706Y-15864650D02*
X14248753Y-15874174D01*
X14248753Y-15874174D02*
X14258277Y-15883698D01*
X14258277Y-15883698D02*
X14267801Y-15902746D01*
X14267801Y-15902746D02*
X14267801Y-15959888D01*
X14267801Y-15959888D02*
X14258277Y-15978936D01*
X14258277Y-15978936D02*
X14248753Y-15988460D01*
X14248753Y-15988460D02*
X14229706Y-15997984D01*
X14229706Y-15997984D02*
X14201134Y-15997984D01*
X14382087Y-15997984D02*
X14363039Y-15988460D01*
X14363039Y-15988460D02*
X14353515Y-15969412D01*
X14353515Y-15969412D02*
X14353515Y-15797984D01*
X14534468Y-15988460D02*
X14515420Y-15997984D01*
X14515420Y-15997984D02*
X14477325Y-15997984D01*
X14477325Y-15997984D02*
X14458277Y-15988460D01*
X14458277Y-15988460D02*
X14448753Y-15969412D01*
X14448753Y-15969412D02*
X14448753Y-15893222D01*
X14448753Y-15893222D02*
X14458277Y-15874174D01*
X14458277Y-15874174D02*
X14477325Y-15864650D01*
X14477325Y-15864650D02*
X14515420Y-15864650D01*
X14515420Y-15864650D02*
X14534468Y-15874174D01*
X14534468Y-15874174D02*
X14543991Y-15893222D01*
X14543991Y-15893222D02*
X14543991Y-15912269D01*
X14543991Y-15912269D02*
X14448753Y-15931317D01*
X14620182Y-15988460D02*
X14639230Y-15997984D01*
X14639230Y-15997984D02*
X14677325Y-15997984D01*
X14677325Y-15997984D02*
X14696372Y-15988460D01*
X14696372Y-15988460D02*
X14705896Y-15969412D01*
X14705896Y-15969412D02*
X14705896Y-15959888D01*
X14705896Y-15959888D02*
X14696372Y-15940841D01*
X14696372Y-15940841D02*
X14677325Y-15931317D01*
X14677325Y-15931317D02*
X14648753Y-15931317D01*
X14648753Y-15931317D02*
X14629706Y-15921793D01*
X14629706Y-15921793D02*
X14620182Y-15902746D01*
X14620182Y-15902746D02*
X14620182Y-15893222D01*
X14620182Y-15893222D02*
X14629706Y-15874174D01*
X14629706Y-15874174D02*
X14648753Y-15864650D01*
X14648753Y-15864650D02*
X14677325Y-15864650D01*
X14677325Y-15864650D02*
X14696372Y-15874174D01*
X14943992Y-15921793D02*
X15096373Y-15921793D01*
X15020182Y-15997984D02*
X15020182Y-15845603D01*
X15439230Y-15797984D02*
X15343992Y-15797984D01*
X15343992Y-15797984D02*
X15334468Y-15893222D01*
X15334468Y-15893222D02*
X15343992Y-15883698D01*
X15343992Y-15883698D02*
X15363039Y-15874174D01*
X15363039Y-15874174D02*
X15410658Y-15874174D01*
X15410658Y-15874174D02*
X15429706Y-15883698D01*
X15429706Y-15883698D02*
X15439230Y-15893222D01*
X15439230Y-15893222D02*
X15448753Y-15912269D01*
X15448753Y-15912269D02*
X15448753Y-15959888D01*
X15448753Y-15959888D02*
X15439230Y-15978936D01*
X15439230Y-15978936D02*
X15429706Y-15988460D01*
X15429706Y-15988460D02*
X15410658Y-15997984D01*
X15410658Y-15997984D02*
X15363039Y-15997984D01*
X15363039Y-15997984D02*
X15343992Y-15988460D01*
X15343992Y-15988460D02*
X15334468Y-15978936D01*
X15677325Y-15988460D02*
X15696373Y-15997984D01*
X15696373Y-15997984D02*
X15734468Y-15997984D01*
X15734468Y-15997984D02*
X15753515Y-15988460D01*
X15753515Y-15988460D02*
X15763039Y-15969412D01*
X15763039Y-15969412D02*
X15763039Y-15959888D01*
X15763039Y-15959888D02*
X15753515Y-15940841D01*
X15753515Y-15940841D02*
X15734468Y-15931317D01*
X15734468Y-15931317D02*
X15705896Y-15931317D01*
X15705896Y-15931317D02*
X15686849Y-15921793D01*
X15686849Y-15921793D02*
X15677325Y-15902746D01*
X15677325Y-15902746D02*
X15677325Y-15893222D01*
X15677325Y-15893222D02*
X15686849Y-15874174D01*
X15686849Y-15874174D02*
X15705896Y-15864650D01*
X15705896Y-15864650D02*
X15734468Y-15864650D01*
X15734468Y-15864650D02*
X15753515Y-15874174D01*
X15877325Y-15997984D02*
X15858277Y-15988460D01*
X15858277Y-15988460D02*
X15848754Y-15969412D01*
X15848754Y-15969412D02*
X15848754Y-15797984D01*
X15982087Y-15997984D02*
X15963039Y-15988460D01*
X15963039Y-15988460D02*
X15953515Y-15978936D01*
X15953515Y-15978936D02*
X15943992Y-15959888D01*
X15943992Y-15959888D02*
X15943992Y-15902746D01*
X15943992Y-15902746D02*
X15953515Y-15883698D01*
X15953515Y-15883698D02*
X15963039Y-15874174D01*
X15963039Y-15874174D02*
X15982087Y-15864650D01*
X15982087Y-15864650D02*
X16010658Y-15864650D01*
X16010658Y-15864650D02*
X16029706Y-15874174D01*
X16029706Y-15874174D02*
X16039230Y-15883698D01*
X16039230Y-15883698D02*
X16048754Y-15902746D01*
X16048754Y-15902746D02*
X16048754Y-15959888D01*
X16048754Y-15959888D02*
X16039230Y-15978936D01*
X16039230Y-15978936D02*
X16029706Y-15988460D01*
X16029706Y-15988460D02*
X16010658Y-15997984D01*
X16010658Y-15997984D02*
X15982087Y-15997984D01*
X16105896Y-15864650D02*
X16182087Y-15864650D01*
X16134468Y-15797984D02*
X16134468Y-15969412D01*
X16134468Y-15969412D02*
X16143992Y-15988460D01*
X16143992Y-15988460D02*
X16163039Y-15997984D01*
X16163039Y-15997984D02*
X16182087Y-15997984D01*
X16239230Y-15988460D02*
X16258277Y-15997984D01*
X16258277Y-15997984D02*
X16296373Y-15997984D01*
X16296373Y-15997984D02*
X16315420Y-15988460D01*
X16315420Y-15988460D02*
X16324944Y-15969412D01*
X16324944Y-15969412D02*
X16324944Y-15959888D01*
X16324944Y-15959888D02*
X16315420Y-15940841D01*
X16315420Y-15940841D02*
X16296373Y-15931317D01*
X16296373Y-15931317D02*
X16267801Y-15931317D01*
X16267801Y-15931317D02*
X16248754Y-15921793D01*
X16248754Y-15921793D02*
X16239230Y-15902746D01*
X16239230Y-15902746D02*
X16239230Y-15893222D01*
X16239230Y-15893222D02*
X16248754Y-15874174D01*
X16248754Y-15874174D02*
X16267801Y-15864650D01*
X16267801Y-15864650D02*
X16296373Y-15864650D01*
X16296373Y-15864650D02*
X16315420Y-15874174D01*
X16391611Y-16074174D02*
X16401135Y-16064650D01*
X16401135Y-16064650D02*
X16420182Y-16036079D01*
X16420182Y-16036079D02*
X16429706Y-16017031D01*
X16429706Y-16017031D02*
X16439230Y-15988460D01*
X16439230Y-15988460D02*
X16448754Y-15940841D01*
X16448754Y-15940841D02*
X16448754Y-15902746D01*
X16448754Y-15902746D02*
X16439230Y-15855127D01*
X16439230Y-15855127D02*
X16429706Y-15826555D01*
X16429706Y-15826555D02*
X16420182Y-15807508D01*
X16420182Y-15807508D02*
X16401135Y-15778936D01*
X16401135Y-15778936D02*
X16391611Y-15769412D01*
D14*
X9944160Y-16117160D02*
X9944160Y-16223840D01*
X9890820Y-16170500D02*
X9997500Y-16170500D01*
D12*
X10363039Y-16261984D02*
X10248753Y-16261984D01*
X10305896Y-16261984D02*
X10305896Y-16061984D01*
X10305896Y-16061984D02*
X10286848Y-16090555D01*
X10286848Y-16090555D02*
X10267801Y-16109603D01*
X10267801Y-16109603D02*
X10248753Y-16119127D01*
X10448753Y-16242936D02*
X10458277Y-16252460D01*
X10458277Y-16252460D02*
X10448753Y-16261984D01*
X10448753Y-16261984D02*
X10439229Y-16252460D01*
X10439229Y-16252460D02*
X10448753Y-16242936D01*
X10448753Y-16242936D02*
X10448753Y-16261984D01*
X10582086Y-16061984D02*
X10601134Y-16061984D01*
X10601134Y-16061984D02*
X10620182Y-16071508D01*
X10620182Y-16071508D02*
X10629705Y-16081031D01*
X10629705Y-16081031D02*
X10639229Y-16100079D01*
X10639229Y-16100079D02*
X10648753Y-16138174D01*
X10648753Y-16138174D02*
X10648753Y-16185793D01*
X10648753Y-16185793D02*
X10639229Y-16223888D01*
X10639229Y-16223888D02*
X10629705Y-16242936D01*
X10629705Y-16242936D02*
X10620182Y-16252460D01*
X10620182Y-16252460D02*
X10601134Y-16261984D01*
X10601134Y-16261984D02*
X10582086Y-16261984D01*
X10582086Y-16261984D02*
X10563039Y-16252460D01*
X10563039Y-16252460D02*
X10553515Y-16242936D01*
X10553515Y-16242936D02*
X10543991Y-16223888D01*
X10543991Y-16223888D02*
X10534467Y-16185793D01*
X10534467Y-16185793D02*
X10534467Y-16138174D01*
X10534467Y-16138174D02*
X10543991Y-16100079D01*
X10543991Y-16100079D02*
X10553515Y-16081031D01*
X10553515Y-16081031D02*
X10563039Y-16071508D01*
X10563039Y-16071508D02*
X10582086Y-16061984D01*
X10820182Y-16061984D02*
X10782086Y-16061984D01*
X10782086Y-16061984D02*
X10763039Y-16071508D01*
X10763039Y-16071508D02*
X10753515Y-16081031D01*
X10753515Y-16081031D02*
X10734467Y-16109603D01*
X10734467Y-16109603D02*
X10724944Y-16147698D01*
X10724944Y-16147698D02*
X10724944Y-16223888D01*
X10724944Y-16223888D02*
X10734467Y-16242936D01*
X10734467Y-16242936D02*
X10743991Y-16252460D01*
X10743991Y-16252460D02*
X10763039Y-16261984D01*
X10763039Y-16261984D02*
X10801134Y-16261984D01*
X10801134Y-16261984D02*
X10820182Y-16252460D01*
X10820182Y-16252460D02*
X10829705Y-16242936D01*
X10829705Y-16242936D02*
X10839229Y-16223888D01*
X10839229Y-16223888D02*
X10839229Y-16176269D01*
X10839229Y-16176269D02*
X10829705Y-16157222D01*
X10829705Y-16157222D02*
X10820182Y-16147698D01*
X10820182Y-16147698D02*
X10801134Y-16138174D01*
X10801134Y-16138174D02*
X10763039Y-16138174D01*
X10763039Y-16138174D02*
X10743991Y-16147698D01*
X10743991Y-16147698D02*
X10734467Y-16157222D01*
X10734467Y-16157222D02*
X10724944Y-16176269D01*
X10905896Y-16061984D02*
X11039229Y-16061984D01*
X11039229Y-16061984D02*
X10953515Y-16261984D01*
X11115420Y-16261984D02*
X11115420Y-16128650D01*
X11115420Y-16147698D02*
X11124944Y-16138174D01*
X11124944Y-16138174D02*
X11143991Y-16128650D01*
X11143991Y-16128650D02*
X11172563Y-16128650D01*
X11172563Y-16128650D02*
X11191610Y-16138174D01*
X11191610Y-16138174D02*
X11201134Y-16157222D01*
X11201134Y-16157222D02*
X11201134Y-16261984D01*
X11201134Y-16157222D02*
X11210658Y-16138174D01*
X11210658Y-16138174D02*
X11229705Y-16128650D01*
X11229705Y-16128650D02*
X11258277Y-16128650D01*
X11258277Y-16128650D02*
X11277324Y-16138174D01*
X11277324Y-16138174D02*
X11286848Y-16157222D01*
X11286848Y-16157222D02*
X11286848Y-16261984D01*
X11382086Y-16261984D02*
X11382086Y-16128650D01*
X11382086Y-16147698D02*
X11391610Y-16138174D01*
X11391610Y-16138174D02*
X11410658Y-16128650D01*
X11410658Y-16128650D02*
X11439229Y-16128650D01*
X11439229Y-16128650D02*
X11458277Y-16138174D01*
X11458277Y-16138174D02*
X11467801Y-16157222D01*
X11467801Y-16157222D02*
X11467801Y-16261984D01*
X11467801Y-16157222D02*
X11477324Y-16138174D01*
X11477324Y-16138174D02*
X11496372Y-16128650D01*
X11496372Y-16128650D02*
X11524943Y-16128650D01*
X11524943Y-16128650D02*
X11543991Y-16138174D01*
X11543991Y-16138174D02*
X11553515Y-16157222D01*
X11553515Y-16157222D02*
X11553515Y-16261984D01*
X11943991Y-16052460D02*
X11772563Y-16309603D01*
X12201134Y-16061984D02*
X12220182Y-16061984D01*
X12220182Y-16061984D02*
X12239229Y-16071508D01*
X12239229Y-16071508D02*
X12248753Y-16081031D01*
X12248753Y-16081031D02*
X12258277Y-16100079D01*
X12258277Y-16100079D02*
X12267801Y-16138174D01*
X12267801Y-16138174D02*
X12267801Y-16185793D01*
X12267801Y-16185793D02*
X12258277Y-16223888D01*
X12258277Y-16223888D02*
X12248753Y-16242936D01*
X12248753Y-16242936D02*
X12239229Y-16252460D01*
X12239229Y-16252460D02*
X12220182Y-16261984D01*
X12220182Y-16261984D02*
X12201134Y-16261984D01*
X12201134Y-16261984D02*
X12182086Y-16252460D01*
X12182086Y-16252460D02*
X12172563Y-16242936D01*
X12172563Y-16242936D02*
X12163039Y-16223888D01*
X12163039Y-16223888D02*
X12153515Y-16185793D01*
X12153515Y-16185793D02*
X12153515Y-16138174D01*
X12153515Y-16138174D02*
X12163039Y-16100079D01*
X12163039Y-16100079D02*
X12172563Y-16081031D01*
X12172563Y-16081031D02*
X12182086Y-16071508D01*
X12182086Y-16071508D02*
X12201134Y-16061984D01*
X12353515Y-16242936D02*
X12363039Y-16252460D01*
X12363039Y-16252460D02*
X12353515Y-16261984D01*
X12353515Y-16261984D02*
X12343991Y-16252460D01*
X12343991Y-16252460D02*
X12353515Y-16242936D01*
X12353515Y-16242936D02*
X12353515Y-16261984D01*
X12486848Y-16061984D02*
X12505896Y-16061984D01*
X12505896Y-16061984D02*
X12524944Y-16071508D01*
X12524944Y-16071508D02*
X12534467Y-16081031D01*
X12534467Y-16081031D02*
X12543991Y-16100079D01*
X12543991Y-16100079D02*
X12553515Y-16138174D01*
X12553515Y-16138174D02*
X12553515Y-16185793D01*
X12553515Y-16185793D02*
X12543991Y-16223888D01*
X12543991Y-16223888D02*
X12534467Y-16242936D01*
X12534467Y-16242936D02*
X12524944Y-16252460D01*
X12524944Y-16252460D02*
X12505896Y-16261984D01*
X12505896Y-16261984D02*
X12486848Y-16261984D01*
X12486848Y-16261984D02*
X12467801Y-16252460D01*
X12467801Y-16252460D02*
X12458277Y-16242936D01*
X12458277Y-16242936D02*
X12448753Y-16223888D01*
X12448753Y-16223888D02*
X12439229Y-16185793D01*
X12439229Y-16185793D02*
X12439229Y-16138174D01*
X12439229Y-16138174D02*
X12448753Y-16100079D01*
X12448753Y-16100079D02*
X12458277Y-16081031D01*
X12458277Y-16081031D02*
X12467801Y-16071508D01*
X12467801Y-16071508D02*
X12486848Y-16061984D01*
X12724944Y-16128650D02*
X12724944Y-16261984D01*
X12677325Y-16052460D02*
X12629706Y-16195317D01*
X12629706Y-16195317D02*
X12753515Y-16195317D01*
X12820182Y-16081031D02*
X12829706Y-16071508D01*
X12829706Y-16071508D02*
X12848753Y-16061984D01*
X12848753Y-16061984D02*
X12896372Y-16061984D01*
X12896372Y-16061984D02*
X12915420Y-16071508D01*
X12915420Y-16071508D02*
X12924944Y-16081031D01*
X12924944Y-16081031D02*
X12934467Y-16100079D01*
X12934467Y-16100079D02*
X12934467Y-16119127D01*
X12934467Y-16119127D02*
X12924944Y-16147698D01*
X12924944Y-16147698D02*
X12810658Y-16261984D01*
X12810658Y-16261984D02*
X12934467Y-16261984D01*
X13058277Y-16061984D02*
X13077325Y-16061984D01*
X13077325Y-16061984D02*
X13096372Y-16071508D01*
X13096372Y-16071508D02*
X13105896Y-16081031D01*
X13105896Y-16081031D02*
X13115420Y-16100079D01*
X13115420Y-16100079D02*
X13124944Y-16138174D01*
X13124944Y-16138174D02*
X13124944Y-16185793D01*
X13124944Y-16185793D02*
X13115420Y-16223888D01*
X13115420Y-16223888D02*
X13105896Y-16242936D01*
X13105896Y-16242936D02*
X13096372Y-16252460D01*
X13096372Y-16252460D02*
X13077325Y-16261984D01*
X13077325Y-16261984D02*
X13058277Y-16261984D01*
X13058277Y-16261984D02*
X13039229Y-16252460D01*
X13039229Y-16252460D02*
X13029706Y-16242936D01*
X13029706Y-16242936D02*
X13020182Y-16223888D01*
X13020182Y-16223888D02*
X13010658Y-16185793D01*
X13010658Y-16185793D02*
X13010658Y-16138174D01*
X13010658Y-16138174D02*
X13020182Y-16100079D01*
X13020182Y-16100079D02*
X13029706Y-16081031D01*
X13029706Y-16081031D02*
X13039229Y-16071508D01*
X13039229Y-16071508D02*
X13058277Y-16061984D01*
X13201134Y-16061984D02*
X13201134Y-16100079D01*
X13277325Y-16061984D02*
X13277325Y-16100079D01*
X13572563Y-16338174D02*
X13563039Y-16328650D01*
X13563039Y-16328650D02*
X13543991Y-16300079D01*
X13543991Y-16300079D02*
X13534468Y-16281031D01*
X13534468Y-16281031D02*
X13524944Y-16252460D01*
X13524944Y-16252460D02*
X13515420Y-16204841D01*
X13515420Y-16204841D02*
X13515420Y-16166746D01*
X13515420Y-16166746D02*
X13524944Y-16119127D01*
X13524944Y-16119127D02*
X13534468Y-16090555D01*
X13534468Y-16090555D02*
X13543991Y-16071508D01*
X13543991Y-16071508D02*
X13563039Y-16042936D01*
X13563039Y-16042936D02*
X13572563Y-16033412D01*
X13629706Y-16061984D02*
X13753515Y-16061984D01*
X13753515Y-16061984D02*
X13686848Y-16138174D01*
X13686848Y-16138174D02*
X13715420Y-16138174D01*
X13715420Y-16138174D02*
X13734468Y-16147698D01*
X13734468Y-16147698D02*
X13743991Y-16157222D01*
X13743991Y-16157222D02*
X13753515Y-16176269D01*
X13753515Y-16176269D02*
X13753515Y-16223888D01*
X13753515Y-16223888D02*
X13743991Y-16242936D01*
X13743991Y-16242936D02*
X13734468Y-16252460D01*
X13734468Y-16252460D02*
X13715420Y-16261984D01*
X13715420Y-16261984D02*
X13658277Y-16261984D01*
X13658277Y-16261984D02*
X13639229Y-16252460D01*
X13639229Y-16252460D02*
X13629706Y-16242936D01*
X13867801Y-16147698D02*
X13848753Y-16138174D01*
X13848753Y-16138174D02*
X13839229Y-16128650D01*
X13839229Y-16128650D02*
X13829706Y-16109603D01*
X13829706Y-16109603D02*
X13829706Y-16100079D01*
X13829706Y-16100079D02*
X13839229Y-16081031D01*
X13839229Y-16081031D02*
X13848753Y-16071508D01*
X13848753Y-16071508D02*
X13867801Y-16061984D01*
X13867801Y-16061984D02*
X13905896Y-16061984D01*
X13905896Y-16061984D02*
X13924944Y-16071508D01*
X13924944Y-16071508D02*
X13934468Y-16081031D01*
X13934468Y-16081031D02*
X13943991Y-16100079D01*
X13943991Y-16100079D02*
X13943991Y-16109603D01*
X13943991Y-16109603D02*
X13934468Y-16128650D01*
X13934468Y-16128650D02*
X13924944Y-16138174D01*
X13924944Y-16138174D02*
X13905896Y-16147698D01*
X13905896Y-16147698D02*
X13867801Y-16147698D01*
X13867801Y-16147698D02*
X13848753Y-16157222D01*
X13848753Y-16157222D02*
X13839229Y-16166746D01*
X13839229Y-16166746D02*
X13829706Y-16185793D01*
X13829706Y-16185793D02*
X13829706Y-16223888D01*
X13829706Y-16223888D02*
X13839229Y-16242936D01*
X13839229Y-16242936D02*
X13848753Y-16252460D01*
X13848753Y-16252460D02*
X13867801Y-16261984D01*
X13867801Y-16261984D02*
X13905896Y-16261984D01*
X13905896Y-16261984D02*
X13924944Y-16252460D01*
X13924944Y-16252460D02*
X13934468Y-16242936D01*
X13934468Y-16242936D02*
X13943991Y-16223888D01*
X13943991Y-16223888D02*
X13943991Y-16185793D01*
X13943991Y-16185793D02*
X13934468Y-16166746D01*
X13934468Y-16166746D02*
X13924944Y-16157222D01*
X13924944Y-16157222D02*
X13905896Y-16147698D01*
X14182087Y-16261984D02*
X14182087Y-16061984D01*
X14267801Y-16261984D02*
X14267801Y-16157222D01*
X14267801Y-16157222D02*
X14258277Y-16138174D01*
X14258277Y-16138174D02*
X14239230Y-16128650D01*
X14239230Y-16128650D02*
X14210658Y-16128650D01*
X14210658Y-16128650D02*
X14191610Y-16138174D01*
X14191610Y-16138174D02*
X14182087Y-16147698D01*
X14391610Y-16261984D02*
X14372563Y-16252460D01*
X14372563Y-16252460D02*
X14363039Y-16242936D01*
X14363039Y-16242936D02*
X14353515Y-16223888D01*
X14353515Y-16223888D02*
X14353515Y-16166746D01*
X14353515Y-16166746D02*
X14363039Y-16147698D01*
X14363039Y-16147698D02*
X14372563Y-16138174D01*
X14372563Y-16138174D02*
X14391610Y-16128650D01*
X14391610Y-16128650D02*
X14420182Y-16128650D01*
X14420182Y-16128650D02*
X14439230Y-16138174D01*
X14439230Y-16138174D02*
X14448753Y-16147698D01*
X14448753Y-16147698D02*
X14458277Y-16166746D01*
X14458277Y-16166746D02*
X14458277Y-16223888D01*
X14458277Y-16223888D02*
X14448753Y-16242936D01*
X14448753Y-16242936D02*
X14439230Y-16252460D01*
X14439230Y-16252460D02*
X14420182Y-16261984D01*
X14420182Y-16261984D02*
X14391610Y-16261984D01*
X14572563Y-16261984D02*
X14553515Y-16252460D01*
X14553515Y-16252460D02*
X14543991Y-16233412D01*
X14543991Y-16233412D02*
X14543991Y-16061984D01*
X14724944Y-16252460D02*
X14705896Y-16261984D01*
X14705896Y-16261984D02*
X14667801Y-16261984D01*
X14667801Y-16261984D02*
X14648753Y-16252460D01*
X14648753Y-16252460D02*
X14639230Y-16233412D01*
X14639230Y-16233412D02*
X14639230Y-16157222D01*
X14639230Y-16157222D02*
X14648753Y-16138174D01*
X14648753Y-16138174D02*
X14667801Y-16128650D01*
X14667801Y-16128650D02*
X14705896Y-16128650D01*
X14705896Y-16128650D02*
X14724944Y-16138174D01*
X14724944Y-16138174D02*
X14734468Y-16157222D01*
X14734468Y-16157222D02*
X14734468Y-16176269D01*
X14734468Y-16176269D02*
X14639230Y-16195317D01*
X14810658Y-16252460D02*
X14829706Y-16261984D01*
X14829706Y-16261984D02*
X14867801Y-16261984D01*
X14867801Y-16261984D02*
X14886849Y-16252460D01*
X14886849Y-16252460D02*
X14896372Y-16233412D01*
X14896372Y-16233412D02*
X14896372Y-16223888D01*
X14896372Y-16223888D02*
X14886849Y-16204841D01*
X14886849Y-16204841D02*
X14867801Y-16195317D01*
X14867801Y-16195317D02*
X14839230Y-16195317D01*
X14839230Y-16195317D02*
X14820182Y-16185793D01*
X14820182Y-16185793D02*
X14810658Y-16166746D01*
X14810658Y-16166746D02*
X14810658Y-16157222D01*
X14810658Y-16157222D02*
X14820182Y-16138174D01*
X14820182Y-16138174D02*
X14839230Y-16128650D01*
X14839230Y-16128650D02*
X14867801Y-16128650D01*
X14867801Y-16128650D02*
X14886849Y-16138174D01*
X14963039Y-16338174D02*
X14972563Y-16328650D01*
X14972563Y-16328650D02*
X14991611Y-16300079D01*
X14991611Y-16300079D02*
X15001134Y-16281031D01*
X15001134Y-16281031D02*
X15010658Y-16252460D01*
X15010658Y-16252460D02*
X15020182Y-16204841D01*
X15020182Y-16204841D02*
X15020182Y-16166746D01*
X15020182Y-16166746D02*
X15010658Y-16119127D01*
X15010658Y-16119127D02*
X15001134Y-16090555D01*
X15001134Y-16090555D02*
X14991611Y-16071508D01*
X14991611Y-16071508D02*
X14972563Y-16042936D01*
X14972563Y-16042936D02*
X14963039Y-16033412D01*
X9968211Y-16505211D02*
X9968211Y-16363789D01*
X9826789Y-16363789D01*
X9826789Y-16505211D01*
X9968211Y-16505211D01*
X10248753Y-16345031D02*
X10258277Y-16335508D01*
X10258277Y-16335508D02*
X10277324Y-16325984D01*
X10277324Y-16325984D02*
X10324944Y-16325984D01*
X10324944Y-16325984D02*
X10343991Y-16335508D01*
X10343991Y-16335508D02*
X10353515Y-16345031D01*
X10353515Y-16345031D02*
X10363039Y-16364079D01*
X10363039Y-16364079D02*
X10363039Y-16383127D01*
X10363039Y-16383127D02*
X10353515Y-16411698D01*
X10353515Y-16411698D02*
X10239229Y-16525984D01*
X10239229Y-16525984D02*
X10363039Y-16525984D01*
X10448753Y-16506936D02*
X10458277Y-16516460D01*
X10458277Y-16516460D02*
X10448753Y-16525984D01*
X10448753Y-16525984D02*
X10439229Y-16516460D01*
X10439229Y-16516460D02*
X10448753Y-16506936D01*
X10448753Y-16506936D02*
X10448753Y-16525984D01*
X10524944Y-16325984D02*
X10648753Y-16325984D01*
X10648753Y-16325984D02*
X10582086Y-16402174D01*
X10582086Y-16402174D02*
X10610658Y-16402174D01*
X10610658Y-16402174D02*
X10629705Y-16411698D01*
X10629705Y-16411698D02*
X10639229Y-16421222D01*
X10639229Y-16421222D02*
X10648753Y-16440269D01*
X10648753Y-16440269D02*
X10648753Y-16487888D01*
X10648753Y-16487888D02*
X10639229Y-16506936D01*
X10639229Y-16506936D02*
X10629705Y-16516460D01*
X10629705Y-16516460D02*
X10610658Y-16525984D01*
X10610658Y-16525984D02*
X10553515Y-16525984D01*
X10553515Y-16525984D02*
X10534467Y-16516460D01*
X10534467Y-16516460D02*
X10524944Y-16506936D01*
X10820182Y-16325984D02*
X10782086Y-16325984D01*
X10782086Y-16325984D02*
X10763039Y-16335508D01*
X10763039Y-16335508D02*
X10753515Y-16345031D01*
X10753515Y-16345031D02*
X10734467Y-16373603D01*
X10734467Y-16373603D02*
X10724944Y-16411698D01*
X10724944Y-16411698D02*
X10724944Y-16487888D01*
X10724944Y-16487888D02*
X10734467Y-16506936D01*
X10734467Y-16506936D02*
X10743991Y-16516460D01*
X10743991Y-16516460D02*
X10763039Y-16525984D01*
X10763039Y-16525984D02*
X10801134Y-16525984D01*
X10801134Y-16525984D02*
X10820182Y-16516460D01*
X10820182Y-16516460D02*
X10829705Y-16506936D01*
X10829705Y-16506936D02*
X10839229Y-16487888D01*
X10839229Y-16487888D02*
X10839229Y-16440269D01*
X10839229Y-16440269D02*
X10829705Y-16421222D01*
X10829705Y-16421222D02*
X10820182Y-16411698D01*
X10820182Y-16411698D02*
X10801134Y-16402174D01*
X10801134Y-16402174D02*
X10763039Y-16402174D01*
X10763039Y-16402174D02*
X10743991Y-16411698D01*
X10743991Y-16411698D02*
X10734467Y-16421222D01*
X10734467Y-16421222D02*
X10724944Y-16440269D01*
X10963039Y-16325984D02*
X10982086Y-16325984D01*
X10982086Y-16325984D02*
X11001134Y-16335508D01*
X11001134Y-16335508D02*
X11010658Y-16345031D01*
X11010658Y-16345031D02*
X11020182Y-16364079D01*
X11020182Y-16364079D02*
X11029705Y-16402174D01*
X11029705Y-16402174D02*
X11029705Y-16449793D01*
X11029705Y-16449793D02*
X11020182Y-16487888D01*
X11020182Y-16487888D02*
X11010658Y-16506936D01*
X11010658Y-16506936D02*
X11001134Y-16516460D01*
X11001134Y-16516460D02*
X10982086Y-16525984D01*
X10982086Y-16525984D02*
X10963039Y-16525984D01*
X10963039Y-16525984D02*
X10943991Y-16516460D01*
X10943991Y-16516460D02*
X10934467Y-16506936D01*
X10934467Y-16506936D02*
X10924944Y-16487888D01*
X10924944Y-16487888D02*
X10915420Y-16449793D01*
X10915420Y-16449793D02*
X10915420Y-16402174D01*
X10915420Y-16402174D02*
X10924944Y-16364079D01*
X10924944Y-16364079D02*
X10934467Y-16345031D01*
X10934467Y-16345031D02*
X10943991Y-16335508D01*
X10943991Y-16335508D02*
X10963039Y-16325984D01*
X11115420Y-16525984D02*
X11115420Y-16392650D01*
X11115420Y-16411698D02*
X11124944Y-16402174D01*
X11124944Y-16402174D02*
X11143991Y-16392650D01*
X11143991Y-16392650D02*
X11172563Y-16392650D01*
X11172563Y-16392650D02*
X11191610Y-16402174D01*
X11191610Y-16402174D02*
X11201134Y-16421222D01*
X11201134Y-16421222D02*
X11201134Y-16525984D01*
X11201134Y-16421222D02*
X11210658Y-16402174D01*
X11210658Y-16402174D02*
X11229705Y-16392650D01*
X11229705Y-16392650D02*
X11258277Y-16392650D01*
X11258277Y-16392650D02*
X11277324Y-16402174D01*
X11277324Y-16402174D02*
X11286848Y-16421222D01*
X11286848Y-16421222D02*
X11286848Y-16525984D01*
X11382086Y-16525984D02*
X11382086Y-16392650D01*
X11382086Y-16411698D02*
X11391610Y-16402174D01*
X11391610Y-16402174D02*
X11410658Y-16392650D01*
X11410658Y-16392650D02*
X11439229Y-16392650D01*
X11439229Y-16392650D02*
X11458277Y-16402174D01*
X11458277Y-16402174D02*
X11467801Y-16421222D01*
X11467801Y-16421222D02*
X11467801Y-16525984D01*
X11467801Y-16421222D02*
X11477324Y-16402174D01*
X11477324Y-16402174D02*
X11496372Y-16392650D01*
X11496372Y-16392650D02*
X11524943Y-16392650D01*
X11524943Y-16392650D02*
X11543991Y-16402174D01*
X11543991Y-16402174D02*
X11553515Y-16421222D01*
X11553515Y-16421222D02*
X11553515Y-16525984D01*
X11943991Y-16316460D02*
X11772563Y-16573603D01*
X12201134Y-16325984D02*
X12220182Y-16325984D01*
X12220182Y-16325984D02*
X12239229Y-16335508D01*
X12239229Y-16335508D02*
X12248753Y-16345031D01*
X12248753Y-16345031D02*
X12258277Y-16364079D01*
X12258277Y-16364079D02*
X12267801Y-16402174D01*
X12267801Y-16402174D02*
X12267801Y-16449793D01*
X12267801Y-16449793D02*
X12258277Y-16487888D01*
X12258277Y-16487888D02*
X12248753Y-16506936D01*
X12248753Y-16506936D02*
X12239229Y-16516460D01*
X12239229Y-16516460D02*
X12220182Y-16525984D01*
X12220182Y-16525984D02*
X12201134Y-16525984D01*
X12201134Y-16525984D02*
X12182086Y-16516460D01*
X12182086Y-16516460D02*
X12172563Y-16506936D01*
X12172563Y-16506936D02*
X12163039Y-16487888D01*
X12163039Y-16487888D02*
X12153515Y-16449793D01*
X12153515Y-16449793D02*
X12153515Y-16402174D01*
X12153515Y-16402174D02*
X12163039Y-16364079D01*
X12163039Y-16364079D02*
X12172563Y-16345031D01*
X12172563Y-16345031D02*
X12182086Y-16335508D01*
X12182086Y-16335508D02*
X12201134Y-16325984D01*
X12353515Y-16506936D02*
X12363039Y-16516460D01*
X12363039Y-16516460D02*
X12353515Y-16525984D01*
X12353515Y-16525984D02*
X12343991Y-16516460D01*
X12343991Y-16516460D02*
X12353515Y-16506936D01*
X12353515Y-16506936D02*
X12353515Y-16525984D01*
X12486848Y-16325984D02*
X12505896Y-16325984D01*
X12505896Y-16325984D02*
X12524944Y-16335508D01*
X12524944Y-16335508D02*
X12534467Y-16345031D01*
X12534467Y-16345031D02*
X12543991Y-16364079D01*
X12543991Y-16364079D02*
X12553515Y-16402174D01*
X12553515Y-16402174D02*
X12553515Y-16449793D01*
X12553515Y-16449793D02*
X12543991Y-16487888D01*
X12543991Y-16487888D02*
X12534467Y-16506936D01*
X12534467Y-16506936D02*
X12524944Y-16516460D01*
X12524944Y-16516460D02*
X12505896Y-16525984D01*
X12505896Y-16525984D02*
X12486848Y-16525984D01*
X12486848Y-16525984D02*
X12467801Y-16516460D01*
X12467801Y-16516460D02*
X12458277Y-16506936D01*
X12458277Y-16506936D02*
X12448753Y-16487888D01*
X12448753Y-16487888D02*
X12439229Y-16449793D01*
X12439229Y-16449793D02*
X12439229Y-16402174D01*
X12439229Y-16402174D02*
X12448753Y-16364079D01*
X12448753Y-16364079D02*
X12458277Y-16345031D01*
X12458277Y-16345031D02*
X12467801Y-16335508D01*
X12467801Y-16335508D02*
X12486848Y-16325984D01*
X12648753Y-16525984D02*
X12686848Y-16525984D01*
X12686848Y-16525984D02*
X12705896Y-16516460D01*
X12705896Y-16516460D02*
X12715420Y-16506936D01*
X12715420Y-16506936D02*
X12734467Y-16478365D01*
X12734467Y-16478365D02*
X12743991Y-16440269D01*
X12743991Y-16440269D02*
X12743991Y-16364079D01*
X12743991Y-16364079D02*
X12734467Y-16345031D01*
X12734467Y-16345031D02*
X12724944Y-16335508D01*
X12724944Y-16335508D02*
X12705896Y-16325984D01*
X12705896Y-16325984D02*
X12667801Y-16325984D01*
X12667801Y-16325984D02*
X12648753Y-16335508D01*
X12648753Y-16335508D02*
X12639229Y-16345031D01*
X12639229Y-16345031D02*
X12629706Y-16364079D01*
X12629706Y-16364079D02*
X12629706Y-16411698D01*
X12629706Y-16411698D02*
X12639229Y-16430746D01*
X12639229Y-16430746D02*
X12648753Y-16440269D01*
X12648753Y-16440269D02*
X12667801Y-16449793D01*
X12667801Y-16449793D02*
X12705896Y-16449793D01*
X12705896Y-16449793D02*
X12724944Y-16440269D01*
X12724944Y-16440269D02*
X12734467Y-16430746D01*
X12734467Y-16430746D02*
X12743991Y-16411698D01*
X12820182Y-16345031D02*
X12829706Y-16335508D01*
X12829706Y-16335508D02*
X12848753Y-16325984D01*
X12848753Y-16325984D02*
X12896372Y-16325984D01*
X12896372Y-16325984D02*
X12915420Y-16335508D01*
X12915420Y-16335508D02*
X12924944Y-16345031D01*
X12924944Y-16345031D02*
X12934467Y-16364079D01*
X12934467Y-16364079D02*
X12934467Y-16383127D01*
X12934467Y-16383127D02*
X12924944Y-16411698D01*
X12924944Y-16411698D02*
X12810658Y-16525984D01*
X12810658Y-16525984D02*
X12934467Y-16525984D01*
X13029706Y-16525984D02*
X13067801Y-16525984D01*
X13067801Y-16525984D02*
X13086848Y-16516460D01*
X13086848Y-16516460D02*
X13096372Y-16506936D01*
X13096372Y-16506936D02*
X13115420Y-16478365D01*
X13115420Y-16478365D02*
X13124944Y-16440269D01*
X13124944Y-16440269D02*
X13124944Y-16364079D01*
X13124944Y-16364079D02*
X13115420Y-16345031D01*
X13115420Y-16345031D02*
X13105896Y-16335508D01*
X13105896Y-16335508D02*
X13086848Y-16325984D01*
X13086848Y-16325984D02*
X13048753Y-16325984D01*
X13048753Y-16325984D02*
X13029706Y-16335508D01*
X13029706Y-16335508D02*
X13020182Y-16345031D01*
X13020182Y-16345031D02*
X13010658Y-16364079D01*
X13010658Y-16364079D02*
X13010658Y-16411698D01*
X13010658Y-16411698D02*
X13020182Y-16430746D01*
X13020182Y-16430746D02*
X13029706Y-16440269D01*
X13029706Y-16440269D02*
X13048753Y-16449793D01*
X13048753Y-16449793D02*
X13086848Y-16449793D01*
X13086848Y-16449793D02*
X13105896Y-16440269D01*
X13105896Y-16440269D02*
X13115420Y-16430746D01*
X13115420Y-16430746D02*
X13124944Y-16411698D01*
X13201134Y-16325984D02*
X13201134Y-16364079D01*
X13277325Y-16325984D02*
X13277325Y-16364079D01*
X13572563Y-16602174D02*
X13563039Y-16592650D01*
X13563039Y-16592650D02*
X13543991Y-16564079D01*
X13543991Y-16564079D02*
X13534468Y-16545031D01*
X13534468Y-16545031D02*
X13524944Y-16516460D01*
X13524944Y-16516460D02*
X13515420Y-16468841D01*
X13515420Y-16468841D02*
X13515420Y-16430746D01*
X13515420Y-16430746D02*
X13524944Y-16383127D01*
X13524944Y-16383127D02*
X13534468Y-16354555D01*
X13534468Y-16354555D02*
X13543991Y-16335508D01*
X13543991Y-16335508D02*
X13563039Y-16306936D01*
X13563039Y-16306936D02*
X13572563Y-16297412D01*
X13639229Y-16345031D02*
X13648753Y-16335508D01*
X13648753Y-16335508D02*
X13667801Y-16325984D01*
X13667801Y-16325984D02*
X13715420Y-16325984D01*
X13715420Y-16325984D02*
X13734468Y-16335508D01*
X13734468Y-16335508D02*
X13743991Y-16345031D01*
X13743991Y-16345031D02*
X13753515Y-16364079D01*
X13753515Y-16364079D02*
X13753515Y-16383127D01*
X13753515Y-16383127D02*
X13743991Y-16411698D01*
X13743991Y-16411698D02*
X13629706Y-16525984D01*
X13629706Y-16525984D02*
X13753515Y-16525984D01*
X13991610Y-16525984D02*
X13991610Y-16325984D01*
X14077325Y-16525984D02*
X14077325Y-16421222D01*
X14077325Y-16421222D02*
X14067801Y-16402174D01*
X14067801Y-16402174D02*
X14048753Y-16392650D01*
X14048753Y-16392650D02*
X14020182Y-16392650D01*
X14020182Y-16392650D02*
X14001134Y-16402174D01*
X14001134Y-16402174D02*
X13991610Y-16411698D01*
X14201134Y-16525984D02*
X14182087Y-16516460D01*
X14182087Y-16516460D02*
X14172563Y-16506936D01*
X14172563Y-16506936D02*
X14163039Y-16487888D01*
X14163039Y-16487888D02*
X14163039Y-16430746D01*
X14163039Y-16430746D02*
X14172563Y-16411698D01*
X14172563Y-16411698D02*
X14182087Y-16402174D01*
X14182087Y-16402174D02*
X14201134Y-16392650D01*
X14201134Y-16392650D02*
X14229706Y-16392650D01*
X14229706Y-16392650D02*
X14248753Y-16402174D01*
X14248753Y-16402174D02*
X14258277Y-16411698D01*
X14258277Y-16411698D02*
X14267801Y-16430746D01*
X14267801Y-16430746D02*
X14267801Y-16487888D01*
X14267801Y-16487888D02*
X14258277Y-16506936D01*
X14258277Y-16506936D02*
X14248753Y-16516460D01*
X14248753Y-16516460D02*
X14229706Y-16525984D01*
X14229706Y-16525984D02*
X14201134Y-16525984D01*
X14382087Y-16525984D02*
X14363039Y-16516460D01*
X14363039Y-16516460D02*
X14353515Y-16497412D01*
X14353515Y-16497412D02*
X14353515Y-16325984D01*
X14534468Y-16516460D02*
X14515420Y-16525984D01*
X14515420Y-16525984D02*
X14477325Y-16525984D01*
X14477325Y-16525984D02*
X14458277Y-16516460D01*
X14458277Y-16516460D02*
X14448753Y-16497412D01*
X14448753Y-16497412D02*
X14448753Y-16421222D01*
X14448753Y-16421222D02*
X14458277Y-16402174D01*
X14458277Y-16402174D02*
X14477325Y-16392650D01*
X14477325Y-16392650D02*
X14515420Y-16392650D01*
X14515420Y-16392650D02*
X14534468Y-16402174D01*
X14534468Y-16402174D02*
X14543991Y-16421222D01*
X14543991Y-16421222D02*
X14543991Y-16440269D01*
X14543991Y-16440269D02*
X14448753Y-16459317D01*
X14620182Y-16516460D02*
X14639230Y-16525984D01*
X14639230Y-16525984D02*
X14677325Y-16525984D01*
X14677325Y-16525984D02*
X14696372Y-16516460D01*
X14696372Y-16516460D02*
X14705896Y-16497412D01*
X14705896Y-16497412D02*
X14705896Y-16487888D01*
X14705896Y-16487888D02*
X14696372Y-16468841D01*
X14696372Y-16468841D02*
X14677325Y-16459317D01*
X14677325Y-16459317D02*
X14648753Y-16459317D01*
X14648753Y-16459317D02*
X14629706Y-16449793D01*
X14629706Y-16449793D02*
X14620182Y-16430746D01*
X14620182Y-16430746D02*
X14620182Y-16421222D01*
X14620182Y-16421222D02*
X14629706Y-16402174D01*
X14629706Y-16402174D02*
X14648753Y-16392650D01*
X14648753Y-16392650D02*
X14677325Y-16392650D01*
X14677325Y-16392650D02*
X14696372Y-16402174D01*
X14772563Y-16602174D02*
X14782087Y-16592650D01*
X14782087Y-16592650D02*
X14801134Y-16564079D01*
X14801134Y-16564079D02*
X14810658Y-16545031D01*
X14810658Y-16545031D02*
X14820182Y-16516460D01*
X14820182Y-16516460D02*
X14829706Y-16468841D01*
X14829706Y-16468841D02*
X14829706Y-16430746D01*
X14829706Y-16430746D02*
X14820182Y-16383127D01*
X14820182Y-16383127D02*
X14810658Y-16354555D01*
X14810658Y-16354555D02*
X14801134Y-16335508D01*
X14801134Y-16335508D02*
X14782087Y-16306936D01*
X14782087Y-16306936D02*
X14772563Y-16297412D01*
M02*
