M48
; DRILL file {KiCad 8.0.3} date 2024-10-11T11:20:38-0400
; FORMAT={-:-/ absolute / metric / decimal}
; #@! TF.CreationDate,2024-10-11T11:20:38-04:00
; #@! TF.GenerationSoftware,Kicad,Pcbnew,8.0.3
; #@! TF.FileFunction,Plated,1,2,PTH
FMAT,2
METRIC
; #@! TA.AperFunction,Plated,PTH,ViaDrill
T1C0.300
; #@! TA.AperFunction,Plated,PTH,ComponentDrill
T2C0.800
; #@! TA.AperFunction,Plated,PTH,ComponentDrill
T3C1.067
; #@! TA.AperFunction,Plated,PTH,ComponentDrill
T4C2.360
%
G90
G05
T1
X113.0Y-74.0
X114.5Y-87.5
X117.0Y-115.5
X117.0Y-117.5
X118.0Y-81.5
X118.0Y-84.5
X118.5Y-118.5
X118.5Y-123.5
X120.0Y-84.5
X120.5Y-65.0
X121.0Y-73.0
X122.0Y-65.5
X123.5Y-66.5
X124.5Y-106.0
X125.0Y-60.5
X125.5Y-101.5
X125.5Y-105.0
X127.0Y-104.0
X127.0Y-108.5
X128.0Y-107.5
X128.5Y-66.5
X130.174Y-105.174
X130.5Y-80.0
X131.5Y-81.0
X131.5Y-97.0
X131.5Y-110.0
X131.5Y-111.0
X132.0Y-106.0
X133.0Y-69.0
X133.0Y-71.5
X133.0Y-115.0
X134.0Y-85.5
X134.0Y-102.5
X134.5Y-107.0
X135.5Y-118.0
X135.5Y-130.5
X136.0Y-82.0
X136.0Y-85.0
X136.25Y-78.0
X136.5Y-72.0
X137.0Y-60.5
X137.5Y-58.0
X137.5Y-64.5
X137.5Y-100.0
X138.0Y-82.5
X138.5Y-77.0
X139.0Y-85.5
X139.0Y-101.0
X139.0Y-103.0
X139.5Y-71.0
X139.5Y-98.5
X141.0Y-126.5
X141.0Y-132.0
X141.5Y-84.5
X141.5Y-98.0
X142.0Y-87.0
X142.5Y-71.0
X142.5Y-73.0
X142.5Y-81.5
X142.5Y-99.0
X143.0Y-84.5
X143.5Y-102.0
X144.0Y-58.5
X144.0Y-78.5
X144.5Y-74.0
X144.5Y-82.5
X145.0Y-62.0
X145.47Y-79.03
X145.5Y-71.5
X146.0Y-96.5
X146.5Y-80.5
X146.5Y-83.0
X147.47Y-81.03
X147.5Y-62.0
X147.5Y-69.0
X147.5Y-92.0
X147.5Y-104.5
X148.0Y-86.0
X148.0Y-88.5
X148.0Y-103.0
X148.0Y-134.0
X149.0Y-74.0
X149.0Y-97.5
X149.0Y-106.0
X149.5Y-88.0
X149.5Y-102.5
X150.0Y-90.5
X150.0Y-105.0
X150.5Y-131.0
X150.53Y-91.97
X151.0Y-62.0
X151.0Y-82.5
X151.0Y-88.0
X151.03Y-69.03
X152.0Y-81.5
X152.0Y-101.5
X152.5Y-69.0
X152.5Y-89.0
X154.0Y-87.5
X154.5Y-58.5
X154.5Y-62.5
X155.0Y-82.0
X155.5Y-59.0
X155.5Y-81.0
X156.0Y-68.0
X156.0Y-106.306
X156.0Y-107.5
X156.5Y-80.0
X157.0Y-99.0
X157.5Y-79.0
X158.5Y-78.0
X159.0Y-77.0
X159.0Y-128.0
X159.5Y-135.0
X159.93Y-69.43
X160.5Y-117.5
X161.0Y-72.5
X161.5Y-58.0
X161.5Y-71.5
X161.5Y-139.5
X162.0Y-80.0
X162.0Y-115.5
X162.0Y-134.5
X162.5Y-69.75
X162.5Y-71.5
X162.5Y-77.0
X163.0Y-78.0
X163.0Y-79.0
X164.0Y-128.5
X164.47Y-63.03
X164.5Y-131.0
X165.0Y-129.5
X166.5Y-73.5
X166.5Y-126.0
X167.0Y-63.0
X167.0Y-71.0
X171.0Y-86.5
X174.0Y-79.0
X174.0Y-92.0
X174.0Y-95.5
X174.5Y-56.5
X174.5Y-89.0
X175.0Y-59.0
X175.0Y-79.0
X175.0Y-95.061
X176.0Y-95.0
X176.0Y-102.5
X176.5Y-56.75
X176.5Y-91.5
X176.97Y-60.47
X177.0Y-70.5
X177.0Y-94.5
X177.5Y-62.0
X177.5Y-92.0
X178.0Y-72.5
X178.25Y-63.5
X178.5Y-92.0
X178.5Y-94.0
X178.5Y-121.5
X180.5Y-69.5
X182.0Y-66.0
X182.0Y-83.0
X182.0Y-95.5
X182.0Y-123.0
X182.0Y-125.0
X182.5Y-77.0
X182.5Y-82.0
X182.5Y-103.5
X182.5Y-120.0
X183.0Y-86.5
X183.0Y-124.0
X183.5Y-69.0
X183.5Y-88.0
X185.03Y-88.47
X186.0Y-124.5
X187.0Y-123.5
X188.0Y-90.5
X188.0Y-122.0
X188.5Y-106.0
X189.0Y-72.5
X189.0Y-120.5
X193.5Y-122.5
T3
X180.0Y-71.6
X180.0Y-74.14
X180.0Y-76.68
X180.0Y-79.22
X180.0Y-81.76
X180.0Y-84.3
X180.0Y-86.84
X180.0Y-89.38
X180.0Y-91.92
X180.0Y-94.46
X180.0Y-97.0
X180.0Y-99.54
X180.0Y-102.08
X180.0Y-104.62
X180.0Y-107.16
X180.0Y-109.7
X180.0Y-112.24
X180.0Y-114.78
X180.0Y-117.32
X191.0Y-71.64
X191.0Y-74.18
X191.0Y-76.72
X191.0Y-79.26
X191.0Y-81.8
X191.0Y-84.34
X191.0Y-86.88
X191.0Y-89.42
X191.0Y-91.96
X191.0Y-94.5
X191.0Y-97.04
X191.0Y-99.58
X191.0Y-102.12
X191.0Y-104.66
X191.0Y-107.2
X191.0Y-109.74
X191.0Y-112.28
X191.0Y-114.82
X191.0Y-117.36
T4
X110.792Y-109.93
X110.792Y-123.07
T2
G00X104.25Y-76.8
M15
G01X102.75Y-76.8
M16
G05
G00X104.25Y-86.7
M15
G01X102.75Y-86.7
M16
G05
G00X111.4Y-77.7
M15
G01X110.2Y-77.7
M16
G05
G00X111.4Y-82.9
M15
G01X110.2Y-82.9
M16
G05
G00X111.4Y-86.3
M15
G01X110.2Y-86.3
M16
G05
M30
