%TF.GenerationSoftware,KiCad,Pcbnew,8.0.3*%
%TF.CreationDate,2024-10-11T11:20:33-04:00*%
%TF.ProjectId,G7 Senior Design V2,47372053-656e-4696-9f72-204465736967,rev?*%
%TF.SameCoordinates,Original*%
%TF.FileFunction,Paste,Top*%
%TF.FilePolarity,Positive*%
%FSLAX46Y46*%
G04 Gerber Fmt 4.6, Leading zero omitted, Abs format (unit mm)*
G04 Created by KiCad (PCBNEW 8.0.3) date 2024-10-11 11:20:33*
%MOMM*%
%LPD*%
G01*
G04 APERTURE LIST*
G04 Aperture macros list*
%AMRoundRect*
0 Rectangle with rounded corners*
0 $1 Rounding radius*
0 $2 $3 $4 $5 $6 $7 $8 $9 X,Y pos of 4 corners*
0 Add a 4 corners polygon primitive as box body*
4,1,4,$2,$3,$4,$5,$6,$7,$8,$9,$2,$3,0*
0 Add four circle primitives for the rounded corners*
1,1,$1+$1,$2,$3*
1,1,$1+$1,$4,$5*
1,1,$1+$1,$6,$7*
1,1,$1+$1,$8,$9*
0 Add four rect primitives between the rounded corners*
20,1,$1+$1,$2,$3,$4,$5,0*
20,1,$1+$1,$4,$5,$6,$7,0*
20,1,$1+$1,$6,$7,$8,$9,0*
20,1,$1+$1,$8,$9,$2,$3,0*%
G04 Aperture macros list end*
%ADD10R,1.346200X1.117600*%
%ADD11R,0.812800X1.346200*%
%ADD12R,1.400000X0.950000*%
%ADD13R,1.550000X1.000000*%
%ADD14R,1.199998X1.005599*%
%ADD15R,1.219200X1.066800*%
%ADD16R,1.420000X1.000000*%
%ADD17R,1.016000X1.193800*%
%ADD18R,1.470000X1.130000*%
%ADD19R,2.438400X0.990600*%
%ADD20R,0.990600X2.438400*%
%ADD21R,2.880000X1.120000*%
%ADD22R,0.920000X1.380000*%
%ADD23R,0.950000X1.400000*%
%ADD24R,0.558800X1.219200*%
%ADD25R,1.380000X0.920000*%
%ADD26R,1.000000X1.420000*%
%ADD27R,1.390000X0.910000*%
%ADD28R,1.498600X0.889000*%
%ADD29R,0.889000X1.498600*%
%ADD30R,1.041400X1.041400*%
%ADD31RoundRect,0.069750X0.585250X0.395250X-0.585250X0.395250X-0.585250X-0.395250X0.585250X-0.395250X0*%
%ADD32RoundRect,0.098250X0.556750X1.521750X-0.556750X1.521750X-0.556750X-1.521750X0.556750X-1.521750X0*%
%ADD33R,1.193800X1.016000*%
%ADD34R,1.000000X0.300000*%
%ADD35R,0.300000X1.000000*%
%ADD36R,3.350000X3.350000*%
%ADD37R,1.346200X0.812800*%
G04 APERTURE END LIST*
D10*
%TO.C,C1*%
X116000000Y-83500000D03*
X116000000Y-85201800D03*
%TD*%
D11*
%TO.C,R26*%
X119696600Y-120000000D03*
X121500000Y-120000000D03*
%TD*%
D12*
%TO.C,D2*%
X155000000Y-113550000D03*
X155000000Y-115450000D03*
%TD*%
D13*
%TO.C,EN*%
X123250000Y-73800000D03*
X128500000Y-73800000D03*
X123250000Y-77000000D03*
X128500000Y-77000000D03*
%TD*%
D14*
%TO.C,R11*%
X116000000Y-68294402D03*
X116000000Y-70000000D03*
%TD*%
D11*
%TO.C,R25*%
X119696600Y-115000000D03*
X121500000Y-115000000D03*
%TD*%
D12*
%TO.C,D1*%
X165500000Y-113600000D03*
X165500000Y-115500000D03*
%TD*%
D15*
%TO.C,C14*%
X131000000Y-70000000D03*
X131000000Y-68349000D03*
%TD*%
%TO.C,C22*%
X136000000Y-68349000D03*
X136000000Y-70000000D03*
%TD*%
D16*
%TO.C,R6*%
X139000000Y-121370000D03*
X139000000Y-119500000D03*
%TD*%
D17*
%TO.C,R33*%
X163798200Y-139500000D03*
X165500000Y-139500000D03*
%TD*%
D18*
%TO.C,C19*%
X123500000Y-62218000D03*
X123500000Y-64000000D03*
%TD*%
D19*
%TO.C,U2*%
X156500000Y-139000000D03*
X156500000Y-137600001D03*
X156500000Y-136200001D03*
X156500000Y-134800001D03*
X156500000Y-133399999D03*
X156500000Y-131999999D03*
X156500000Y-130599999D03*
X156500000Y-129200000D03*
D20*
X155096101Y-126999998D03*
X153696102Y-126999998D03*
X152296102Y-126999998D03*
X150896102Y-126999998D03*
X149496100Y-126999998D03*
X148096100Y-126999998D03*
X146696100Y-126999998D03*
X145296101Y-126999998D03*
D19*
X143892202Y-129200000D03*
X143892202Y-130599999D03*
X143892202Y-131999999D03*
X143892202Y-133399999D03*
X143892202Y-134800001D03*
X143892202Y-136200001D03*
X143892202Y-137600001D03*
X143892202Y-139000000D03*
%TD*%
D10*
%TO.C,C31*%
X116000000Y-74798200D03*
X116000000Y-76500000D03*
%TD*%
D21*
%TO.C,J1*%
X114372500Y-113000000D03*
X114372500Y-115500000D03*
X114372500Y-117500000D03*
X114372500Y-120000000D03*
%TD*%
D22*
%TO.C,R2*%
X115000000Y-92500000D03*
X113090000Y-92500000D03*
%TD*%
D14*
%TO.C,R22*%
X156500000Y-91000000D03*
X156500000Y-89294402D03*
%TD*%
D12*
%TO.C,D3*%
X145000000Y-113600000D03*
X145000000Y-115500000D03*
%TD*%
D23*
%TO.C,D5*%
X104600000Y-128500000D03*
X106500000Y-128500000D03*
%TD*%
D12*
%TO.C,D6*%
X179500000Y-60000000D03*
X179500000Y-61900000D03*
%TD*%
D24*
%TO.C,Q1*%
X144549999Y-85520999D03*
X146450001Y-85520999D03*
X145500000Y-83479000D03*
%TD*%
D16*
%TO.C,R5*%
X161000000Y-121370000D03*
X161000000Y-119500000D03*
%TD*%
D14*
%TO.C,R15-1*%
X137000000Y-136294402D03*
X137000000Y-138000000D03*
%TD*%
D25*
%TO.C,R24*%
X141500000Y-104000000D03*
X141500000Y-105910000D03*
%TD*%
D15*
%TO.C,C3*%
X118500000Y-62349000D03*
X118500000Y-64000000D03*
%TD*%
D16*
%TO.C,R4*%
X154000000Y-121370000D03*
X154000000Y-119500000D03*
%TD*%
D26*
%TO.C,R1*%
X115870000Y-128500000D03*
X114000000Y-128500000D03*
%TD*%
D14*
%TO.C,R23*%
X158000000Y-104000000D03*
X158000000Y-105705598D03*
%TD*%
D15*
%TO.C,C15*%
X126000000Y-68349000D03*
X126000000Y-70000000D03*
%TD*%
D27*
%TO.C,C20*%
X128500000Y-62360000D03*
X128500000Y-64000000D03*
%TD*%
D16*
%TO.C,R7*%
X146000000Y-121370000D03*
X146000000Y-119500000D03*
%TD*%
D13*
%TO.C,IO0*%
X123250000Y-83000000D03*
X128500000Y-83000000D03*
X123250000Y-86200000D03*
X128500000Y-86200000D03*
%TD*%
D28*
%TO.C,U1*%
X140905000Y-58000000D03*
X140905000Y-59270000D03*
X140905000Y-60540000D03*
X140905000Y-61810000D03*
X140905000Y-63080000D03*
X140905000Y-64350000D03*
X140905000Y-65620000D03*
X140905000Y-66890000D03*
X140905000Y-68160000D03*
X140905000Y-69430000D03*
X140905000Y-70700000D03*
X140905000Y-71970000D03*
X140905000Y-73240000D03*
X140905000Y-74510000D03*
D29*
X143940000Y-75760000D03*
X145210000Y-75760000D03*
X146480000Y-75760000D03*
X147750000Y-75760000D03*
X149020000Y-75760000D03*
X150290000Y-75760000D03*
X151560000Y-75760000D03*
X152830000Y-75760000D03*
X154100000Y-75760000D03*
X155370000Y-75760000D03*
D28*
X158405000Y-74510000D03*
X158405000Y-73240000D03*
X158405000Y-71970000D03*
X158405000Y-70700000D03*
X158405000Y-69430000D03*
X158405000Y-68160000D03*
X158405000Y-66890000D03*
X158405000Y-65620000D03*
X158405000Y-64350000D03*
X158405000Y-63080000D03*
X158405000Y-61810000D03*
X158405000Y-60540000D03*
X158405000Y-59270000D03*
X158405000Y-58000000D03*
D30*
X148975000Y-65340000D03*
X147450000Y-63815000D03*
X147450000Y-65340000D03*
X147450000Y-66865000D03*
X148975000Y-66865000D03*
X150500000Y-66865000D03*
X150500000Y-65340000D03*
X150500000Y-63815000D03*
X148975000Y-63815000D03*
%TD*%
D14*
%TO.C,R21*%
X142500000Y-91000000D03*
X142500000Y-89294402D03*
%TD*%
D12*
%TO.C,D4*%
X135000000Y-113600000D03*
X135000000Y-115500000D03*
%TD*%
D31*
%TO.C,U3*%
X110000000Y-103000000D03*
X110000000Y-100710000D03*
X110000000Y-98420000D03*
D32*
X103310000Y-100710000D03*
%TD*%
D16*
%TO.C,R3*%
X179500000Y-67870000D03*
X179500000Y-66000000D03*
%TD*%
D23*
%TO.C,LED1*%
X105600000Y-92500000D03*
X107500000Y-92500000D03*
%TD*%
D33*
%TO.C,R32*%
X136000000Y-96500000D03*
X136000000Y-98201800D03*
%TD*%
D24*
%TO.C,Q2*%
X152549999Y-85520999D03*
X154450001Y-85520999D03*
X153500000Y-83479000D03*
%TD*%
D14*
%TO.C,R34*%
X121000000Y-68294402D03*
X121000000Y-70000000D03*
%TD*%
D34*
%TO.C,IC3*%
X147150000Y-95500000D03*
X147150000Y-96000000D03*
X147150000Y-96500000D03*
X147150000Y-97000000D03*
X147150000Y-97500000D03*
X147150000Y-98000000D03*
X147150000Y-98500000D03*
D35*
X148000000Y-99350000D03*
X148500000Y-99350000D03*
X149000000Y-99350000D03*
X149500000Y-99350000D03*
X150000000Y-99350000D03*
X150500000Y-99350000D03*
X151000000Y-99350000D03*
D34*
X151850000Y-98500000D03*
X151850000Y-98000000D03*
X151850000Y-97500000D03*
X151850000Y-97000000D03*
X151850000Y-96500000D03*
X151850000Y-96000000D03*
X151850000Y-95500000D03*
D35*
X151000000Y-94650000D03*
X150500000Y-94650000D03*
X150000000Y-94650000D03*
X149500000Y-94650000D03*
X149000000Y-94650000D03*
X148500000Y-94650000D03*
X148000000Y-94650000D03*
D36*
X149500000Y-97000000D03*
%TD*%
D37*
%TO.C,R0-1*%
X120500000Y-100696600D03*
X120500000Y-102500000D03*
%TD*%
D10*
%TO.C,C21*%
X134000000Y-62298200D03*
X134000000Y-64000000D03*
%TD*%
D17*
%TO.C,R31*%
X163798200Y-135500000D03*
X165500000Y-135500000D03*
%TD*%
D10*
%TO.C,C3-1*%
X115500000Y-100798200D03*
X115500000Y-102500000D03*
%TD*%
M02*
