%TF.GenerationSoftware,KiCad,Pcbnew,8.0.3*%
%TF.CreationDate,2024-09-12T15:56:22-04:00*%
%TF.ProjectId,G7 Senior Design V2,47372053-656e-4696-9f72-204465736967,rev?*%
%TF.SameCoordinates,Original*%
%TF.FileFunction,Legend,Bot*%
%TF.FilePolarity,Positive*%
%FSLAX46Y46*%
G04 Gerber Fmt 4.6, Leading zero omitted, Abs format (unit mm)*
G04 Created by KiCad (PCBNEW 8.0.3) date 2024-09-12 15:56:22*
%MOMM*%
%LPD*%
G01*
G04 APERTURE LIST*
%ADD10C,0.100000*%
%ADD11C,0.508000*%
%ADD12C,0.000000*%
%ADD13C,1.574800*%
%ADD14C,1.300000*%
%ADD15O,3.204000X1.704000*%
%ADD16O,3.404000X1.804000*%
%ADD17C,3.580000*%
G04 APERTURE END LIST*
D10*
X198762782Y-51984657D02*
X198762782Y-52156085D01*
X198419925Y-51984657D02*
X198419925Y-52156085D01*
X197648497Y-52284657D02*
X197648497Y-52884657D01*
X197862782Y-51941800D02*
X198077068Y-52584657D01*
X198077068Y-52584657D02*
X197519925Y-52584657D01*
X196577068Y-52284657D02*
X196362782Y-52884657D01*
X196148497Y-52284657D02*
X196362782Y-52884657D01*
X196362782Y-52884657D02*
X196448497Y-53098942D01*
X196448497Y-53098942D02*
X196491354Y-53141800D01*
X196491354Y-53141800D02*
X196577068Y-53184657D01*
X195462783Y-52841800D02*
X195548497Y-52884657D01*
X195548497Y-52884657D02*
X195719926Y-52884657D01*
X195719926Y-52884657D02*
X195805640Y-52841800D01*
X195805640Y-52841800D02*
X195848497Y-52756085D01*
X195848497Y-52756085D02*
X195848497Y-52413228D01*
X195848497Y-52413228D02*
X195805640Y-52327514D01*
X195805640Y-52327514D02*
X195719926Y-52284657D01*
X195719926Y-52284657D02*
X195548497Y-52284657D01*
X195548497Y-52284657D02*
X195462783Y-52327514D01*
X195462783Y-52327514D02*
X195419926Y-52413228D01*
X195419926Y-52413228D02*
X195419926Y-52498942D01*
X195419926Y-52498942D02*
X195848497Y-52584657D01*
X194648497Y-52884657D02*
X194648497Y-52413228D01*
X194648497Y-52413228D02*
X194691354Y-52327514D01*
X194691354Y-52327514D02*
X194777068Y-52284657D01*
X194777068Y-52284657D02*
X194948497Y-52284657D01*
X194948497Y-52284657D02*
X195034211Y-52327514D01*
X194648497Y-52841800D02*
X194734211Y-52884657D01*
X194734211Y-52884657D02*
X194948497Y-52884657D01*
X194948497Y-52884657D02*
X195034211Y-52841800D01*
X195034211Y-52841800D02*
X195077068Y-52756085D01*
X195077068Y-52756085D02*
X195077068Y-52670371D01*
X195077068Y-52670371D02*
X195034211Y-52584657D01*
X195034211Y-52584657D02*
X194948497Y-52541800D01*
X194948497Y-52541800D02*
X194734211Y-52541800D01*
X194734211Y-52541800D02*
X194648497Y-52498942D01*
X194219925Y-52884657D02*
X194219925Y-52284657D01*
X194219925Y-52456085D02*
X194177068Y-52370371D01*
X194177068Y-52370371D02*
X194134211Y-52327514D01*
X194134211Y-52327514D02*
X194048496Y-52284657D01*
X194048496Y-52284657D02*
X193962782Y-52284657D01*
X193705639Y-52841800D02*
X193619925Y-52884657D01*
X193619925Y-52884657D02*
X193448496Y-52884657D01*
X193448496Y-52884657D02*
X193362782Y-52841800D01*
X193362782Y-52841800D02*
X193319925Y-52756085D01*
X193319925Y-52756085D02*
X193319925Y-52713228D01*
X193319925Y-52713228D02*
X193362782Y-52627514D01*
X193362782Y-52627514D02*
X193448496Y-52584657D01*
X193448496Y-52584657D02*
X193577068Y-52584657D01*
X193577068Y-52584657D02*
X193662782Y-52541800D01*
X193662782Y-52541800D02*
X193705639Y-52456085D01*
X193705639Y-52456085D02*
X193705639Y-52413228D01*
X193705639Y-52413228D02*
X193662782Y-52327514D01*
X193662782Y-52327514D02*
X193577068Y-52284657D01*
X193577068Y-52284657D02*
X193448496Y-52284657D01*
X193448496Y-52284657D02*
X193362782Y-52327514D01*
X192377068Y-52284657D02*
X192034211Y-52284657D01*
X192248497Y-52884657D02*
X192248497Y-52113228D01*
X192248497Y-52113228D02*
X192205640Y-52027514D01*
X192205640Y-52027514D02*
X192119925Y-51984657D01*
X192119925Y-51984657D02*
X192034211Y-51984657D01*
X191605639Y-52884657D02*
X191691354Y-52841800D01*
X191691354Y-52841800D02*
X191734211Y-52798942D01*
X191734211Y-52798942D02*
X191777068Y-52713228D01*
X191777068Y-52713228D02*
X191777068Y-52456085D01*
X191777068Y-52456085D02*
X191734211Y-52370371D01*
X191734211Y-52370371D02*
X191691354Y-52327514D01*
X191691354Y-52327514D02*
X191605639Y-52284657D01*
X191605639Y-52284657D02*
X191477068Y-52284657D01*
X191477068Y-52284657D02*
X191391354Y-52327514D01*
X191391354Y-52327514D02*
X191348497Y-52370371D01*
X191348497Y-52370371D02*
X191305639Y-52456085D01*
X191305639Y-52456085D02*
X191305639Y-52713228D01*
X191305639Y-52713228D02*
X191348497Y-52798942D01*
X191348497Y-52798942D02*
X191391354Y-52841800D01*
X191391354Y-52841800D02*
X191477068Y-52884657D01*
X191477068Y-52884657D02*
X191605639Y-52884657D01*
X190919925Y-52884657D02*
X190919925Y-52284657D01*
X190919925Y-52456085D02*
X190877068Y-52370371D01*
X190877068Y-52370371D02*
X190834211Y-52327514D01*
X190834211Y-52327514D02*
X190748496Y-52284657D01*
X190748496Y-52284657D02*
X190662782Y-52284657D01*
X189805639Y-52284657D02*
X189462782Y-52284657D01*
X189677068Y-51984657D02*
X189677068Y-52756085D01*
X189677068Y-52756085D02*
X189634211Y-52841800D01*
X189634211Y-52841800D02*
X189548496Y-52884657D01*
X189548496Y-52884657D02*
X189462782Y-52884657D01*
X189162782Y-52884657D02*
X189162782Y-51984657D01*
X188777068Y-52884657D02*
X188777068Y-52413228D01*
X188777068Y-52413228D02*
X188819925Y-52327514D01*
X188819925Y-52327514D02*
X188905639Y-52284657D01*
X188905639Y-52284657D02*
X189034210Y-52284657D01*
X189034210Y-52284657D02*
X189119925Y-52327514D01*
X189119925Y-52327514D02*
X189162782Y-52370371D01*
X188348496Y-52884657D02*
X188348496Y-52284657D01*
X188348496Y-51984657D02*
X188391353Y-52027514D01*
X188391353Y-52027514D02*
X188348496Y-52070371D01*
X188348496Y-52070371D02*
X188305639Y-52027514D01*
X188305639Y-52027514D02*
X188348496Y-51984657D01*
X188348496Y-51984657D02*
X188348496Y-52070371D01*
X187962782Y-52841800D02*
X187877068Y-52884657D01*
X187877068Y-52884657D02*
X187705639Y-52884657D01*
X187705639Y-52884657D02*
X187619925Y-52841800D01*
X187619925Y-52841800D02*
X187577068Y-52756085D01*
X187577068Y-52756085D02*
X187577068Y-52713228D01*
X187577068Y-52713228D02*
X187619925Y-52627514D01*
X187619925Y-52627514D02*
X187705639Y-52584657D01*
X187705639Y-52584657D02*
X187834211Y-52584657D01*
X187834211Y-52584657D02*
X187919925Y-52541800D01*
X187919925Y-52541800D02*
X187962782Y-52456085D01*
X187962782Y-52456085D02*
X187962782Y-52413228D01*
X187962782Y-52413228D02*
X187919925Y-52327514D01*
X187919925Y-52327514D02*
X187834211Y-52284657D01*
X187834211Y-52284657D02*
X187705639Y-52284657D01*
X187705639Y-52284657D02*
X187619925Y-52327514D01*
X187062782Y-52798942D02*
X187019925Y-52841800D01*
X187019925Y-52841800D02*
X187062782Y-52884657D01*
X187062782Y-52884657D02*
X187105640Y-52841800D01*
X187105640Y-52841800D02*
X187062782Y-52798942D01*
X187062782Y-52798942D02*
X187062782Y-52884657D01*
X187234211Y-52027514D02*
X187148497Y-51984657D01*
X187148497Y-51984657D02*
X186934211Y-51984657D01*
X186934211Y-51984657D02*
X186848497Y-52027514D01*
X186848497Y-52027514D02*
X186805640Y-52113228D01*
X186805640Y-52113228D02*
X186805640Y-52198942D01*
X186805640Y-52198942D02*
X186848497Y-52284657D01*
X186848497Y-52284657D02*
X186891354Y-52327514D01*
X186891354Y-52327514D02*
X186977068Y-52370371D01*
X186977068Y-52370371D02*
X187019925Y-52413228D01*
X187019925Y-52413228D02*
X187062782Y-52498942D01*
X187062782Y-52498942D02*
X187062782Y-52541800D01*
X185262782Y-52884657D02*
X185777068Y-52884657D01*
X185519925Y-52884657D02*
X185519925Y-51984657D01*
X185519925Y-51984657D02*
X185605639Y-52113228D01*
X185605639Y-52113228D02*
X185691354Y-52198942D01*
X185691354Y-52198942D02*
X185777068Y-52241800D01*
X184919925Y-52070371D02*
X184877068Y-52027514D01*
X184877068Y-52027514D02*
X184791354Y-51984657D01*
X184791354Y-51984657D02*
X184577068Y-51984657D01*
X184577068Y-51984657D02*
X184491354Y-52027514D01*
X184491354Y-52027514D02*
X184448496Y-52070371D01*
X184448496Y-52070371D02*
X184405639Y-52156085D01*
X184405639Y-52156085D02*
X184405639Y-52241800D01*
X184405639Y-52241800D02*
X184448496Y-52370371D01*
X184448496Y-52370371D02*
X184962782Y-52884657D01*
X184962782Y-52884657D02*
X184405639Y-52884657D01*
X183891353Y-52370371D02*
X183977068Y-52327514D01*
X183977068Y-52327514D02*
X184019925Y-52284657D01*
X184019925Y-52284657D02*
X184062782Y-52198942D01*
X184062782Y-52198942D02*
X184062782Y-52156085D01*
X184062782Y-52156085D02*
X184019925Y-52070371D01*
X184019925Y-52070371D02*
X183977068Y-52027514D01*
X183977068Y-52027514D02*
X183891353Y-51984657D01*
X183891353Y-51984657D02*
X183719925Y-51984657D01*
X183719925Y-51984657D02*
X183634211Y-52027514D01*
X183634211Y-52027514D02*
X183591353Y-52070371D01*
X183591353Y-52070371D02*
X183548496Y-52156085D01*
X183548496Y-52156085D02*
X183548496Y-52198942D01*
X183548496Y-52198942D02*
X183591353Y-52284657D01*
X183591353Y-52284657D02*
X183634211Y-52327514D01*
X183634211Y-52327514D02*
X183719925Y-52370371D01*
X183719925Y-52370371D02*
X183891353Y-52370371D01*
X183891353Y-52370371D02*
X183977068Y-52413228D01*
X183977068Y-52413228D02*
X184019925Y-52456085D01*
X184019925Y-52456085D02*
X184062782Y-52541800D01*
X184062782Y-52541800D02*
X184062782Y-52713228D01*
X184062782Y-52713228D02*
X184019925Y-52798942D01*
X184019925Y-52798942D02*
X183977068Y-52841800D01*
X183977068Y-52841800D02*
X183891353Y-52884657D01*
X183891353Y-52884657D02*
X183719925Y-52884657D01*
X183719925Y-52884657D02*
X183634211Y-52841800D01*
X183634211Y-52841800D02*
X183591353Y-52798942D01*
X183591353Y-52798942D02*
X183548496Y-52713228D01*
X183548496Y-52713228D02*
X183548496Y-52541800D01*
X183548496Y-52541800D02*
X183591353Y-52456085D01*
X183591353Y-52456085D02*
X183634211Y-52413228D01*
X183634211Y-52413228D02*
X183719925Y-52370371D01*
X182477068Y-52884657D02*
X182477068Y-51984657D01*
X182091354Y-52884657D02*
X182091354Y-52413228D01*
X182091354Y-52413228D02*
X182134211Y-52327514D01*
X182134211Y-52327514D02*
X182219925Y-52284657D01*
X182219925Y-52284657D02*
X182348496Y-52284657D01*
X182348496Y-52284657D02*
X182434211Y-52327514D01*
X182434211Y-52327514D02*
X182477068Y-52370371D01*
X181534210Y-52884657D02*
X181619925Y-52841800D01*
X181619925Y-52841800D02*
X181662782Y-52798942D01*
X181662782Y-52798942D02*
X181705639Y-52713228D01*
X181705639Y-52713228D02*
X181705639Y-52456085D01*
X181705639Y-52456085D02*
X181662782Y-52370371D01*
X181662782Y-52370371D02*
X181619925Y-52327514D01*
X181619925Y-52327514D02*
X181534210Y-52284657D01*
X181534210Y-52284657D02*
X181405639Y-52284657D01*
X181405639Y-52284657D02*
X181319925Y-52327514D01*
X181319925Y-52327514D02*
X181277068Y-52370371D01*
X181277068Y-52370371D02*
X181234210Y-52456085D01*
X181234210Y-52456085D02*
X181234210Y-52713228D01*
X181234210Y-52713228D02*
X181277068Y-52798942D01*
X181277068Y-52798942D02*
X181319925Y-52841800D01*
X181319925Y-52841800D02*
X181405639Y-52884657D01*
X181405639Y-52884657D02*
X181534210Y-52884657D01*
X180462782Y-52284657D02*
X180462782Y-52884657D01*
X180848496Y-52284657D02*
X180848496Y-52756085D01*
X180848496Y-52756085D02*
X180805639Y-52841800D01*
X180805639Y-52841800D02*
X180719924Y-52884657D01*
X180719924Y-52884657D02*
X180591353Y-52884657D01*
X180591353Y-52884657D02*
X180505639Y-52841800D01*
X180505639Y-52841800D02*
X180462782Y-52798942D01*
X180034210Y-52884657D02*
X180034210Y-52284657D01*
X180034210Y-52456085D02*
X179991353Y-52370371D01*
X179991353Y-52370371D02*
X179948496Y-52327514D01*
X179948496Y-52327514D02*
X179862781Y-52284657D01*
X179862781Y-52284657D02*
X179777067Y-52284657D01*
X179519924Y-52841800D02*
X179434210Y-52884657D01*
X179434210Y-52884657D02*
X179262781Y-52884657D01*
X179262781Y-52884657D02*
X179177067Y-52841800D01*
X179177067Y-52841800D02*
X179134210Y-52756085D01*
X179134210Y-52756085D02*
X179134210Y-52713228D01*
X179134210Y-52713228D02*
X179177067Y-52627514D01*
X179177067Y-52627514D02*
X179262781Y-52584657D01*
X179262781Y-52584657D02*
X179391353Y-52584657D01*
X179391353Y-52584657D02*
X179477067Y-52541800D01*
X179477067Y-52541800D02*
X179519924Y-52456085D01*
X179519924Y-52456085D02*
X179519924Y-52413228D01*
X179519924Y-52413228D02*
X179477067Y-52327514D01*
X179477067Y-52327514D02*
X179391353Y-52284657D01*
X179391353Y-52284657D02*
X179262781Y-52284657D01*
X179262781Y-52284657D02*
X179177067Y-52327514D01*
X177677068Y-52884657D02*
X177677068Y-52413228D01*
X177677068Y-52413228D02*
X177719925Y-52327514D01*
X177719925Y-52327514D02*
X177805639Y-52284657D01*
X177805639Y-52284657D02*
X177977068Y-52284657D01*
X177977068Y-52284657D02*
X178062782Y-52327514D01*
X177677068Y-52841800D02*
X177762782Y-52884657D01*
X177762782Y-52884657D02*
X177977068Y-52884657D01*
X177977068Y-52884657D02*
X178062782Y-52841800D01*
X178062782Y-52841800D02*
X178105639Y-52756085D01*
X178105639Y-52756085D02*
X178105639Y-52670371D01*
X178105639Y-52670371D02*
X178062782Y-52584657D01*
X178062782Y-52584657D02*
X177977068Y-52541800D01*
X177977068Y-52541800D02*
X177762782Y-52541800D01*
X177762782Y-52541800D02*
X177677068Y-52498942D01*
X177248496Y-52284657D02*
X177248496Y-52884657D01*
X177248496Y-52370371D02*
X177205639Y-52327514D01*
X177205639Y-52327514D02*
X177119924Y-52284657D01*
X177119924Y-52284657D02*
X176991353Y-52284657D01*
X176991353Y-52284657D02*
X176905639Y-52327514D01*
X176905639Y-52327514D02*
X176862782Y-52413228D01*
X176862782Y-52413228D02*
X176862782Y-52884657D01*
X176048496Y-52884657D02*
X176048496Y-51984657D01*
X176048496Y-52841800D02*
X176134210Y-52884657D01*
X176134210Y-52884657D02*
X176305638Y-52884657D01*
X176305638Y-52884657D02*
X176391353Y-52841800D01*
X176391353Y-52841800D02*
X176434210Y-52798942D01*
X176434210Y-52798942D02*
X176477067Y-52713228D01*
X176477067Y-52713228D02*
X176477067Y-52456085D01*
X176477067Y-52456085D02*
X176434210Y-52370371D01*
X176434210Y-52370371D02*
X176391353Y-52327514D01*
X176391353Y-52327514D02*
X176305638Y-52284657D01*
X176305638Y-52284657D02*
X176134210Y-52284657D01*
X176134210Y-52284657D02*
X176048496Y-52327514D01*
X174977067Y-52841800D02*
X174848496Y-52884657D01*
X174848496Y-52884657D02*
X174634210Y-52884657D01*
X174634210Y-52884657D02*
X174548496Y-52841800D01*
X174548496Y-52841800D02*
X174505638Y-52798942D01*
X174505638Y-52798942D02*
X174462781Y-52713228D01*
X174462781Y-52713228D02*
X174462781Y-52627514D01*
X174462781Y-52627514D02*
X174505638Y-52541800D01*
X174505638Y-52541800D02*
X174548496Y-52498942D01*
X174548496Y-52498942D02*
X174634210Y-52456085D01*
X174634210Y-52456085D02*
X174805638Y-52413228D01*
X174805638Y-52413228D02*
X174891353Y-52370371D01*
X174891353Y-52370371D02*
X174934210Y-52327514D01*
X174934210Y-52327514D02*
X174977067Y-52241800D01*
X174977067Y-52241800D02*
X174977067Y-52156085D01*
X174977067Y-52156085D02*
X174934210Y-52070371D01*
X174934210Y-52070371D02*
X174891353Y-52027514D01*
X174891353Y-52027514D02*
X174805638Y-51984657D01*
X174805638Y-51984657D02*
X174591353Y-51984657D01*
X174591353Y-51984657D02*
X174462781Y-52027514D01*
X174719924Y-51856085D02*
X174719924Y-53013228D01*
X174119924Y-52070371D02*
X174077067Y-52027514D01*
X174077067Y-52027514D02*
X173991353Y-51984657D01*
X173991353Y-51984657D02*
X173777067Y-51984657D01*
X173777067Y-51984657D02*
X173691353Y-52027514D01*
X173691353Y-52027514D02*
X173648495Y-52070371D01*
X173648495Y-52070371D02*
X173605638Y-52156085D01*
X173605638Y-52156085D02*
X173605638Y-52241800D01*
X173605638Y-52241800D02*
X173648495Y-52370371D01*
X173648495Y-52370371D02*
X174162781Y-52884657D01*
X174162781Y-52884657D02*
X173605638Y-52884657D01*
X173305638Y-51984657D02*
X172705638Y-51984657D01*
X172705638Y-51984657D02*
X173091352Y-52884657D01*
X172319924Y-52841800D02*
X172319924Y-52884657D01*
X172319924Y-52884657D02*
X172362781Y-52970371D01*
X172362781Y-52970371D02*
X172405638Y-53013228D01*
X171462781Y-52884657D02*
X171977067Y-52884657D01*
X171719924Y-52884657D02*
X171719924Y-51984657D01*
X171719924Y-51984657D02*
X171805638Y-52113228D01*
X171805638Y-52113228D02*
X171891353Y-52198942D01*
X171891353Y-52198942D02*
X171977067Y-52241800D01*
X171162781Y-51984657D02*
X170562781Y-51984657D01*
X170562781Y-51984657D02*
X170948495Y-52884657D01*
X169748495Y-52884657D02*
X170262781Y-52884657D01*
X170005638Y-52884657D02*
X170005638Y-51984657D01*
X170005638Y-51984657D02*
X170091352Y-52113228D01*
X170091352Y-52113228D02*
X170177067Y-52198942D01*
X170177067Y-52198942D02*
X170262781Y-52241800D01*
X169362781Y-52798942D02*
X169319924Y-52841800D01*
X169319924Y-52841800D02*
X169362781Y-52884657D01*
X169362781Y-52884657D02*
X169405638Y-52841800D01*
X169405638Y-52841800D02*
X169362781Y-52798942D01*
X169362781Y-52798942D02*
X169362781Y-52884657D01*
X168805638Y-52370371D02*
X168891353Y-52327514D01*
X168891353Y-52327514D02*
X168934210Y-52284657D01*
X168934210Y-52284657D02*
X168977067Y-52198942D01*
X168977067Y-52198942D02*
X168977067Y-52156085D01*
X168977067Y-52156085D02*
X168934210Y-52070371D01*
X168934210Y-52070371D02*
X168891353Y-52027514D01*
X168891353Y-52027514D02*
X168805638Y-51984657D01*
X168805638Y-51984657D02*
X168634210Y-51984657D01*
X168634210Y-51984657D02*
X168548496Y-52027514D01*
X168548496Y-52027514D02*
X168505638Y-52070371D01*
X168505638Y-52070371D02*
X168462781Y-52156085D01*
X168462781Y-52156085D02*
X168462781Y-52198942D01*
X168462781Y-52198942D02*
X168505638Y-52284657D01*
X168505638Y-52284657D02*
X168548496Y-52327514D01*
X168548496Y-52327514D02*
X168634210Y-52370371D01*
X168634210Y-52370371D02*
X168805638Y-52370371D01*
X168805638Y-52370371D02*
X168891353Y-52413228D01*
X168891353Y-52413228D02*
X168934210Y-52456085D01*
X168934210Y-52456085D02*
X168977067Y-52541800D01*
X168977067Y-52541800D02*
X168977067Y-52713228D01*
X168977067Y-52713228D02*
X168934210Y-52798942D01*
X168934210Y-52798942D02*
X168891353Y-52841800D01*
X168891353Y-52841800D02*
X168805638Y-52884657D01*
X168805638Y-52884657D02*
X168634210Y-52884657D01*
X168634210Y-52884657D02*
X168548496Y-52841800D01*
X168548496Y-52841800D02*
X168505638Y-52798942D01*
X168505638Y-52798942D02*
X168462781Y-52713228D01*
X168462781Y-52713228D02*
X168462781Y-52541800D01*
X168462781Y-52541800D02*
X168505638Y-52456085D01*
X168505638Y-52456085D02*
X168548496Y-52413228D01*
X168548496Y-52413228D02*
X168634210Y-52370371D01*
X167691353Y-52284657D02*
X167691353Y-52884657D01*
X167905638Y-51941800D02*
X168119924Y-52584657D01*
X168119924Y-52584657D02*
X167562781Y-52584657D01*
X166662781Y-52284657D02*
X166319924Y-52284657D01*
X166534210Y-52884657D02*
X166534210Y-52113228D01*
X166534210Y-52113228D02*
X166491353Y-52027514D01*
X166491353Y-52027514D02*
X166405638Y-51984657D01*
X166405638Y-51984657D02*
X166319924Y-51984657D01*
X165891352Y-52884657D02*
X165977067Y-52841800D01*
X165977067Y-52841800D02*
X166019924Y-52798942D01*
X166019924Y-52798942D02*
X166062781Y-52713228D01*
X166062781Y-52713228D02*
X166062781Y-52456085D01*
X166062781Y-52456085D02*
X166019924Y-52370371D01*
X166019924Y-52370371D02*
X165977067Y-52327514D01*
X165977067Y-52327514D02*
X165891352Y-52284657D01*
X165891352Y-52284657D02*
X165762781Y-52284657D01*
X165762781Y-52284657D02*
X165677067Y-52327514D01*
X165677067Y-52327514D02*
X165634210Y-52370371D01*
X165634210Y-52370371D02*
X165591352Y-52456085D01*
X165591352Y-52456085D02*
X165591352Y-52713228D01*
X165591352Y-52713228D02*
X165634210Y-52798942D01*
X165634210Y-52798942D02*
X165677067Y-52841800D01*
X165677067Y-52841800D02*
X165762781Y-52884657D01*
X165762781Y-52884657D02*
X165891352Y-52884657D01*
X165205638Y-52884657D02*
X165205638Y-52284657D01*
X165205638Y-52456085D02*
X165162781Y-52370371D01*
X165162781Y-52370371D02*
X165119924Y-52327514D01*
X165119924Y-52327514D02*
X165034209Y-52284657D01*
X165034209Y-52284657D02*
X164948495Y-52284657D01*
X164091352Y-52284657D02*
X163748495Y-52284657D01*
X163962781Y-51984657D02*
X163962781Y-52756085D01*
X163962781Y-52756085D02*
X163919924Y-52841800D01*
X163919924Y-52841800D02*
X163834209Y-52884657D01*
X163834209Y-52884657D02*
X163748495Y-52884657D01*
X163448495Y-52884657D02*
X163448495Y-51984657D01*
X163062781Y-52884657D02*
X163062781Y-52413228D01*
X163062781Y-52413228D02*
X163105638Y-52327514D01*
X163105638Y-52327514D02*
X163191352Y-52284657D01*
X163191352Y-52284657D02*
X163319923Y-52284657D01*
X163319923Y-52284657D02*
X163405638Y-52327514D01*
X163405638Y-52327514D02*
X163448495Y-52370371D01*
X162634209Y-52884657D02*
X162634209Y-52284657D01*
X162634209Y-51984657D02*
X162677066Y-52027514D01*
X162677066Y-52027514D02*
X162634209Y-52070371D01*
X162634209Y-52070371D02*
X162591352Y-52027514D01*
X162591352Y-52027514D02*
X162634209Y-51984657D01*
X162634209Y-51984657D02*
X162634209Y-52070371D01*
X162248495Y-52841800D02*
X162162781Y-52884657D01*
X162162781Y-52884657D02*
X161991352Y-52884657D01*
X161991352Y-52884657D02*
X161905638Y-52841800D01*
X161905638Y-52841800D02*
X161862781Y-52756085D01*
X161862781Y-52756085D02*
X161862781Y-52713228D01*
X161862781Y-52713228D02*
X161905638Y-52627514D01*
X161905638Y-52627514D02*
X161991352Y-52584657D01*
X161991352Y-52584657D02*
X162119924Y-52584657D01*
X162119924Y-52584657D02*
X162205638Y-52541800D01*
X162205638Y-52541800D02*
X162248495Y-52456085D01*
X162248495Y-52456085D02*
X162248495Y-52413228D01*
X162248495Y-52413228D02*
X162205638Y-52327514D01*
X162205638Y-52327514D02*
X162119924Y-52284657D01*
X162119924Y-52284657D02*
X161991352Y-52284657D01*
X161991352Y-52284657D02*
X161905638Y-52327514D01*
X161477067Y-52798942D02*
X161434210Y-52841800D01*
X161434210Y-52841800D02*
X161477067Y-52884657D01*
X161477067Y-52884657D02*
X161519924Y-52841800D01*
X161519924Y-52841800D02*
X161477067Y-52798942D01*
X161477067Y-52798942D02*
X161477067Y-52884657D01*
X161477067Y-52541800D02*
X161519924Y-52027514D01*
X161519924Y-52027514D02*
X161477067Y-51984657D01*
X161477067Y-51984657D02*
X161434210Y-52027514D01*
X161434210Y-52027514D02*
X161477067Y-52541800D01*
X161477067Y-52541800D02*
X161477067Y-51984657D01*
X160919924Y-52798942D02*
X160877067Y-52841800D01*
X160877067Y-52841800D02*
X160919924Y-52884657D01*
X160919924Y-52884657D02*
X160962782Y-52841800D01*
X160962782Y-52841800D02*
X160919924Y-52798942D01*
X160919924Y-52798942D02*
X160919924Y-52884657D01*
X161091353Y-52027514D02*
X161005639Y-51984657D01*
X161005639Y-51984657D02*
X160791353Y-51984657D01*
X160791353Y-51984657D02*
X160705639Y-52027514D01*
X160705639Y-52027514D02*
X160662782Y-52113228D01*
X160662782Y-52113228D02*
X160662782Y-52198942D01*
X160662782Y-52198942D02*
X160705639Y-52284657D01*
X160705639Y-52284657D02*
X160748496Y-52327514D01*
X160748496Y-52327514D02*
X160834210Y-52370371D01*
X160834210Y-52370371D02*
X160877067Y-52413228D01*
X160877067Y-52413228D02*
X160919924Y-52498942D01*
X160919924Y-52498942D02*
X160919924Y-52541800D01*
X160319924Y-51984657D02*
X160319924Y-52156085D01*
X159977067Y-51984657D02*
X159977067Y-52156085D01*
D11*
%TO.C,J4*%
X184881000Y-119486000D02*
G75*
G02*
X184119000Y-119486000I-381000J0D01*
G01*
X184119000Y-119486000D02*
G75*
G02*
X184881000Y-119486000I381000J0D01*
G01*
%TO.C,J3*%
X192381000Y-119646000D02*
G75*
G02*
X191619000Y-119646000I-381000J0D01*
G01*
X191619000Y-119646000D02*
G75*
G02*
X192381000Y-119646000I381000J0D01*
G01*
D12*
%TO.C,G\u002A\u002A\u002A*%
G36*
X153836830Y-54883069D02*
G01*
X153965454Y-54970168D01*
X154222584Y-55153709D01*
X154457547Y-55337725D01*
X154688529Y-55537612D01*
X154933714Y-55768763D01*
X155211287Y-56046571D01*
X155631836Y-56509587D01*
X156102468Y-57129651D01*
X156502121Y-57786002D01*
X156831701Y-58480000D01*
X156884643Y-58622247D01*
X156964395Y-58880874D01*
X157044488Y-59185713D01*
X157120494Y-59517066D01*
X157187988Y-59855234D01*
X157242539Y-60180521D01*
X157279723Y-60473229D01*
X157287111Y-60555768D01*
X157302260Y-61011683D01*
X157300660Y-61050931D01*
X157281788Y-61513710D01*
X157228186Y-62041801D01*
X157143944Y-62575908D01*
X157031555Y-63095983D01*
X156893507Y-63581978D01*
X156810587Y-63828852D01*
X156536911Y-64537201D01*
X156225963Y-65190168D01*
X155870103Y-65802733D01*
X155461693Y-66389878D01*
X155117968Y-66824991D01*
X154775312Y-67213863D01*
X154453360Y-67530903D01*
X154153250Y-67775090D01*
X153876122Y-67945399D01*
X153623114Y-68040810D01*
X153457070Y-68066163D01*
X153251545Y-68073592D01*
X153042788Y-68062444D01*
X152858175Y-68034252D01*
X152725079Y-67990548D01*
X152723962Y-67989965D01*
X152633287Y-67930387D01*
X152511944Y-67835287D01*
X152385875Y-67724976D01*
X152333538Y-67676725D01*
X152238396Y-67594379D01*
X152176656Y-67556539D01*
X152131322Y-67555123D01*
X152085402Y-67582046D01*
X151662817Y-67873149D01*
X151097918Y-68199378D01*
X150526093Y-68461323D01*
X149956886Y-68654743D01*
X149399842Y-68775395D01*
X149358131Y-68778976D01*
X149236375Y-68782730D01*
X149061476Y-68783981D01*
X148850025Y-68782659D01*
X148618612Y-68778694D01*
X148182830Y-68758867D01*
X147760967Y-68713837D01*
X147375565Y-68641332D01*
X147005342Y-68538180D01*
X146923102Y-68509444D01*
X146707866Y-68422273D01*
X146454368Y-68307870D01*
X146182969Y-68176272D01*
X145914026Y-68037519D01*
X145667898Y-67901646D01*
X145464945Y-67778693D01*
X145392212Y-67730990D01*
X144885659Y-67367313D01*
X144398679Y-66964097D01*
X143938224Y-66529742D01*
X143511244Y-66072647D01*
X143124693Y-65601208D01*
X142785522Y-65123826D01*
X142500684Y-64648898D01*
X142277130Y-64184823D01*
X142121812Y-63740000D01*
X142073506Y-63516840D01*
X142038574Y-63230012D01*
X142032866Y-63096306D01*
X142532994Y-63096306D01*
X142595058Y-63497273D01*
X142726286Y-63909499D01*
X142927805Y-64335364D01*
X143200742Y-64777252D01*
X143546226Y-65237545D01*
X143965384Y-65718625D01*
X144459343Y-66222875D01*
X144702329Y-66456088D01*
X144917878Y-66654883D01*
X145111988Y-66822670D01*
X145301589Y-66973482D01*
X145503610Y-67121353D01*
X145734980Y-67280315D01*
X145994171Y-67446268D01*
X146514823Y-67727342D01*
X147046197Y-67942208D01*
X147606687Y-68098912D01*
X147968129Y-68165119D01*
X148502787Y-68217072D01*
X149052108Y-68222289D01*
X149595547Y-68181683D01*
X150112561Y-68096167D01*
X150582604Y-67966653D01*
X150844943Y-67863610D01*
X151150784Y-67711923D01*
X151434004Y-67538604D01*
X151680671Y-67353245D01*
X151876851Y-67165441D01*
X152008612Y-66984785D01*
X152046177Y-66901325D01*
X152047087Y-66827696D01*
X152010325Y-66724785D01*
X151916342Y-66473560D01*
X151890435Y-66384156D01*
X152134773Y-66384156D01*
X152236514Y-66584616D01*
X152314720Y-66714849D01*
X152409835Y-66827696D01*
X152466520Y-66894949D01*
X152639216Y-67035331D01*
X152812385Y-67117115D01*
X152997245Y-67149660D01*
X153239627Y-67156165D01*
X153479586Y-67131327D01*
X153680801Y-67076830D01*
X153920176Y-66953931D01*
X154193253Y-66763900D01*
X154476010Y-66522689D01*
X154756483Y-66241442D01*
X155022708Y-65931301D01*
X155262721Y-65603409D01*
X155307850Y-65535090D01*
X155675416Y-64897890D01*
X155976193Y-64216539D01*
X156210162Y-63491101D01*
X156377305Y-62721644D01*
X156477604Y-61908232D01*
X156511041Y-61050931D01*
X156505314Y-60717379D01*
X156451828Y-60025665D01*
X156339987Y-59380568D01*
X156167177Y-58773867D01*
X155930789Y-58197337D01*
X155628210Y-57642756D01*
X155256828Y-57101899D01*
X155108666Y-56919069D01*
X154903127Y-56688901D01*
X154670118Y-56445803D01*
X154425077Y-56204908D01*
X154183445Y-55981348D01*
X153960660Y-55790255D01*
X153772161Y-55646761D01*
X153463029Y-55433522D01*
X153466900Y-55437395D01*
X153935997Y-55906761D01*
X154442421Y-56455998D01*
X154884333Y-57031571D01*
X155251718Y-57626360D01*
X155547186Y-58245855D01*
X155773347Y-58895545D01*
X155932812Y-59580921D01*
X156028189Y-60307473D01*
X156047817Y-60953087D01*
X156000966Y-61628369D01*
X155952898Y-61930295D01*
X155891195Y-62317865D01*
X155722380Y-63009776D01*
X155498396Y-63692301D01*
X155223118Y-64353642D01*
X154900421Y-64981999D01*
X154534180Y-65565572D01*
X154128271Y-66092562D01*
X154119665Y-66102567D01*
X153833788Y-66402739D01*
X153560834Y-66624566D01*
X153299464Y-66768407D01*
X153048336Y-66834620D01*
X152806112Y-66823565D01*
X152571452Y-66735602D01*
X152343015Y-66571088D01*
X152134773Y-66384156D01*
X151890435Y-66384156D01*
X151831007Y-66179068D01*
X151752976Y-65832543D01*
X151678694Y-65420000D01*
X151547676Y-64776462D01*
X151349695Y-64107583D01*
X151085021Y-63440000D01*
X151072777Y-63412537D01*
X150885112Y-63011545D01*
X150701151Y-62662223D01*
X150506171Y-62340144D01*
X150285449Y-62020878D01*
X150024262Y-61680000D01*
X149476926Y-61047700D01*
X148863541Y-60449602D01*
X148208036Y-59912568D01*
X147515116Y-59439227D01*
X146789488Y-59032209D01*
X146035857Y-58694145D01*
X145258930Y-58427664D01*
X144463413Y-58235396D01*
X143654011Y-58119972D01*
X143555914Y-58111139D01*
X143378701Y-58098403D01*
X143262908Y-58096777D01*
X143195964Y-58106460D01*
X143165297Y-58127648D01*
X143151741Y-58156126D01*
X143113892Y-58251735D01*
X143062329Y-58392371D01*
X143004148Y-58559034D01*
X142974178Y-58647831D01*
X142933493Y-58778108D01*
X142905606Y-58892977D01*
X142888067Y-59011520D01*
X142878426Y-59152817D01*
X142874232Y-59335950D01*
X142873035Y-59580000D01*
X142877032Y-59902417D01*
X142893086Y-60170576D01*
X142924905Y-60396815D01*
X142976180Y-60600125D01*
X143050605Y-60799496D01*
X143151872Y-61013918D01*
X143290967Y-61287837D01*
X143095757Y-61473918D01*
X143021941Y-61547807D01*
X142847232Y-61766519D01*
X142715082Y-62015613D01*
X142611685Y-62319196D01*
X142538966Y-62704213D01*
X142532994Y-63096306D01*
X142032866Y-63096306D01*
X142025871Y-62932429D01*
X142035408Y-62645994D01*
X142067191Y-62392606D01*
X142121229Y-62194167D01*
X142186989Y-62049162D01*
X142321570Y-61808067D01*
X142481141Y-61567465D01*
X142645197Y-61360000D01*
X142682913Y-61315954D01*
X142744818Y-61235002D01*
X142769307Y-61189001D01*
X142768463Y-61183894D01*
X142744787Y-61122847D01*
X142695158Y-61014547D01*
X142628456Y-60878564D01*
X142529741Y-60653933D01*
X142408126Y-60262262D01*
X142326704Y-59837415D01*
X142288312Y-59402794D01*
X142295787Y-58981798D01*
X142351965Y-58597829D01*
X142368587Y-58523922D01*
X142391544Y-58403475D01*
X142393912Y-58323876D01*
X142374455Y-58259622D01*
X142331933Y-58185212D01*
X142323682Y-58171238D01*
X142270378Y-58042730D01*
X142248581Y-57919143D01*
X142247461Y-57891862D01*
X142224089Y-57803587D01*
X142161571Y-57705030D01*
X142048265Y-57576259D01*
X141923861Y-57428864D01*
X141856174Y-57295687D01*
X141854372Y-57260391D01*
X143389642Y-57260391D01*
X143435170Y-57283781D01*
X143492507Y-57298139D01*
X143615316Y-57321775D01*
X143781304Y-57350009D01*
X143971294Y-57379420D01*
X144006888Y-57384745D01*
X144820307Y-57547075D01*
X145614865Y-57784885D01*
X146392246Y-58098942D01*
X147154133Y-58490014D01*
X147902213Y-58958869D01*
X148638170Y-59506274D01*
X148708707Y-59563772D01*
X148962221Y-59780880D01*
X149242149Y-60033867D01*
X149535900Y-60310318D01*
X149830886Y-60597817D01*
X150114518Y-60883950D01*
X150374205Y-61156301D01*
X150597360Y-61402456D01*
X150771392Y-61610000D01*
X150809190Y-61657826D01*
X150928613Y-61807911D01*
X151026384Y-61929242D01*
X151093254Y-62010408D01*
X151119972Y-62040000D01*
X151125565Y-62039233D01*
X151164157Y-61999233D01*
X151182650Y-61930295D01*
X151155751Y-61859120D01*
X151077988Y-61739935D01*
X150956611Y-61581576D01*
X150798881Y-61392116D01*
X150612056Y-61179629D01*
X150403396Y-60952185D01*
X150180161Y-60717859D01*
X149949610Y-60484722D01*
X149719003Y-60260847D01*
X149495598Y-60054306D01*
X148923999Y-59561301D01*
X148209648Y-59004484D01*
X147504301Y-58522892D01*
X146804425Y-58114682D01*
X146106488Y-57778008D01*
X145406957Y-57511026D01*
X144702301Y-57311891D01*
X143988986Y-57178759D01*
X143956770Y-57174261D01*
X143776628Y-57150634D01*
X143655150Y-57139877D01*
X143574463Y-57142302D01*
X143516695Y-57158222D01*
X143463974Y-57187950D01*
X143402739Y-57231213D01*
X143389642Y-57260391D01*
X141854372Y-57260391D01*
X141849425Y-57163482D01*
X141902802Y-57013703D01*
X141959605Y-56920000D01*
X142683819Y-56920000D01*
X143058326Y-56920000D01*
X143194193Y-56921956D01*
X143652671Y-56951610D01*
X144146444Y-57013446D01*
X144648941Y-57102954D01*
X145133589Y-57215624D01*
X145573817Y-57346945D01*
X145674877Y-57381894D01*
X146522902Y-57721674D01*
X147355921Y-58139073D01*
X148172116Y-58632904D01*
X148969668Y-59201983D01*
X149746762Y-59845124D01*
X150501577Y-60561140D01*
X150625439Y-60687717D01*
X150798218Y-60868128D01*
X150954252Y-61035298D01*
X151080173Y-61174845D01*
X151162618Y-61272389D01*
X151243889Y-61371525D01*
X151314316Y-61448376D01*
X151352332Y-61478395D01*
X151354663Y-61478005D01*
X151397116Y-61442752D01*
X151471710Y-61361514D01*
X151563896Y-61250000D01*
X151672403Y-61095578D01*
X151807425Y-60868634D01*
X151945123Y-60607297D01*
X152074428Y-60333875D01*
X152184271Y-60070673D01*
X152263581Y-59840000D01*
X152264671Y-59836262D01*
X152315779Y-59661505D01*
X152365996Y-59490586D01*
X152404601Y-59360000D01*
X152434511Y-59254112D01*
X152517438Y-58903750D01*
X152598125Y-58478680D01*
X152675878Y-57982798D01*
X152750003Y-57420000D01*
X152770724Y-57220513D01*
X152791550Y-56959155D01*
X152810392Y-56661880D01*
X152826927Y-56340264D01*
X152840833Y-56005881D01*
X152851788Y-55670305D01*
X152859056Y-55362604D01*
X153355880Y-55362604D01*
X153366089Y-55400000D01*
X153374319Y-55411840D01*
X153410880Y-55440000D01*
X153416361Y-55437395D01*
X153406152Y-55400000D01*
X153397921Y-55388159D01*
X153361360Y-55360000D01*
X153355880Y-55362604D01*
X152859056Y-55362604D01*
X152859469Y-55345112D01*
X152863554Y-55041876D01*
X152863720Y-54772172D01*
X152859644Y-54547575D01*
X152851005Y-54379659D01*
X152837480Y-54280000D01*
X152802000Y-54190886D01*
X152729935Y-54111670D01*
X152602781Y-54030934D01*
X152518554Y-53985528D01*
X152427612Y-53939243D01*
X152384080Y-53920934D01*
X152382887Y-53921831D01*
X152378567Y-53969927D01*
X152379779Y-54080586D01*
X152386136Y-54238910D01*
X152397254Y-54430000D01*
X152408300Y-54662837D01*
X152414919Y-54981169D01*
X152415710Y-55341007D01*
X152411109Y-55725000D01*
X152409658Y-55784355D01*
X152401554Y-56115797D01*
X152387481Y-56496047D01*
X152369327Y-56848398D01*
X152347527Y-57155499D01*
X152322519Y-57400000D01*
X152260096Y-57836234D01*
X152137165Y-58484905D01*
X151985154Y-59069155D01*
X151801808Y-59596057D01*
X151584871Y-60072682D01*
X151332089Y-60506101D01*
X151170790Y-60752203D01*
X151010405Y-60546101D01*
X150907900Y-60422383D01*
X150718997Y-60215901D01*
X150493349Y-59986689D01*
X150246795Y-59749843D01*
X149995171Y-59520461D01*
X149754315Y-59313640D01*
X149540063Y-59144477D01*
X149022652Y-58772455D01*
X148266605Y-58273277D01*
X147523944Y-57835873D01*
X146797910Y-57461624D01*
X146091746Y-57151909D01*
X145408692Y-56908108D01*
X144751989Y-56731601D01*
X144124878Y-56623768D01*
X143530600Y-56585989D01*
X143309627Y-56587260D01*
X143130606Y-56596485D01*
X143002360Y-56618068D01*
X142909607Y-56656305D01*
X142837067Y-56715490D01*
X142769459Y-56799918D01*
X142683819Y-56920000D01*
X141959605Y-56920000D01*
X142015493Y-56827805D01*
X142158559Y-56619968D01*
X142331682Y-56382966D01*
X142475103Y-56207648D01*
X142539433Y-56143131D01*
X143561264Y-56143131D01*
X143562810Y-56167458D01*
X143597759Y-56184198D01*
X143677758Y-56196388D01*
X143814455Y-56207067D01*
X144019500Y-56219274D01*
X144574196Y-56272834D01*
X145216491Y-56390753D01*
X145862320Y-56570876D01*
X146519329Y-56815749D01*
X147195166Y-57127916D01*
X147897477Y-57509922D01*
X148044168Y-57596830D01*
X148582134Y-57939337D01*
X149134062Y-58324786D01*
X149675269Y-58735414D01*
X150181073Y-59153457D01*
X150182988Y-59155117D01*
X150331618Y-59287600D01*
X150513586Y-59455124D01*
X150706024Y-59636391D01*
X150886066Y-59810103D01*
X151290587Y-60206378D01*
X151453655Y-59893189D01*
X151462349Y-59876423D01*
X151635874Y-59507199D01*
X151782336Y-59120039D01*
X151903967Y-58704795D01*
X152003001Y-58251317D01*
X152081669Y-57749458D01*
X152142203Y-57189068D01*
X152186836Y-56560000D01*
X152195991Y-56353213D01*
X152202939Y-56080932D01*
X152206257Y-55784355D01*
X152206164Y-55476516D01*
X152202877Y-55170450D01*
X152196614Y-54879189D01*
X152187593Y-54615770D01*
X152176030Y-54393225D01*
X152162144Y-54224590D01*
X152146152Y-54122898D01*
X152143757Y-54114419D01*
X152116885Y-54061624D01*
X152061914Y-54019287D01*
X151962167Y-53978008D01*
X151800967Y-53928391D01*
X151617735Y-53877738D01*
X151011852Y-53741994D01*
X150393323Y-53653847D01*
X149743463Y-53611151D01*
X149043582Y-53611759D01*
X148999504Y-53613124D01*
X148440086Y-53644254D01*
X147936308Y-53701441D01*
X147468286Y-53788320D01*
X147016137Y-53908523D01*
X146559978Y-54065686D01*
X146321624Y-54162839D01*
X145937949Y-54341697D01*
X145547902Y-54547329D01*
X145172422Y-54767859D01*
X144832451Y-54991413D01*
X144548929Y-55206114D01*
X144479365Y-55264889D01*
X144334008Y-55391841D01*
X144173534Y-55535965D01*
X144010482Y-55685585D01*
X143857389Y-55829023D01*
X143726795Y-55954601D01*
X143631239Y-56050641D01*
X143583258Y-56105467D01*
X143581471Y-56108176D01*
X143561264Y-56143131D01*
X142539433Y-56143131D01*
X142593571Y-56088835D01*
X142691837Y-56021345D01*
X142774652Y-55999999D01*
X142777311Y-55999995D01*
X142872661Y-55991810D01*
X142965845Y-55962917D01*
X143068238Y-55905766D01*
X143191215Y-55812813D01*
X143346154Y-55676508D01*
X143544431Y-55489306D01*
X143588875Y-55446769D01*
X143984119Y-55088731D01*
X144373391Y-54776753D01*
X144777932Y-54495972D01*
X145218985Y-54231525D01*
X145717792Y-53968548D01*
X145719622Y-53967634D01*
X146256400Y-53721383D01*
X146789656Y-53523225D01*
X147334993Y-53369433D01*
X147908015Y-53256281D01*
X148524325Y-53180042D01*
X149199527Y-53136990D01*
X149431730Y-53132153D01*
X149906424Y-53144138D01*
X150397796Y-53181884D01*
X150881999Y-53242701D01*
X151335188Y-53323902D01*
X151733518Y-53422795D01*
X151734056Y-53422953D01*
X151793403Y-53431986D01*
X151818487Y-53398826D01*
X151823659Y-53304665D01*
X151824041Y-53282330D01*
X151834731Y-53195267D01*
X151855523Y-53160000D01*
X151876566Y-53166177D01*
X151961145Y-53199355D01*
X152096225Y-53255881D01*
X152267998Y-53329673D01*
X152462658Y-53414650D01*
X152666396Y-53504731D01*
X152865404Y-53593833D01*
X153045876Y-53675874D01*
X153194003Y-53744775D01*
X153295978Y-53794452D01*
X153466246Y-53881625D01*
X153466246Y-54258510D01*
X153466246Y-54635394D01*
X153670900Y-54772172D01*
X153836830Y-54883069D01*
G37*
G36*
X145350980Y-66455859D02*
G01*
X145405295Y-66537852D01*
X145479955Y-66658301D01*
X145607071Y-66806312D01*
X145757521Y-66945977D01*
X145906936Y-67052306D01*
X146122277Y-67150862D01*
X146444093Y-67222764D01*
X146801545Y-67225889D01*
X146860624Y-67221037D01*
X146988769Y-67213482D01*
X147059605Y-67218433D01*
X147089848Y-67238820D01*
X147096215Y-67277577D01*
X147084630Y-67322623D01*
X147026104Y-67372426D01*
X147017034Y-67374357D01*
X146931654Y-67383297D01*
X146796171Y-67390448D01*
X146635489Y-67394410D01*
X146310408Y-67367861D01*
X146003286Y-67272292D01*
X145723792Y-67104716D01*
X145645560Y-67038056D01*
X145531606Y-66921111D01*
X145424025Y-66791920D01*
X145335627Y-66667447D01*
X145279218Y-66564654D01*
X145267606Y-66500506D01*
X145300841Y-66449768D01*
X145350980Y-66455859D01*
G37*
G36*
X143823891Y-63912536D02*
G01*
X143922285Y-63947313D01*
X144070333Y-64011498D01*
X144278805Y-64108739D01*
X144301251Y-64119366D01*
X144545153Y-64232508D01*
X144826525Y-64359769D01*
X145112301Y-64486334D01*
X145369413Y-64597387D01*
X145514716Y-64658921D01*
X145756708Y-64760422D01*
X145972475Y-64849102D01*
X146187337Y-64935172D01*
X146426610Y-65028842D01*
X146715615Y-65140325D01*
X146820605Y-65178029D01*
X146989798Y-65235549D01*
X147208586Y-65308123D01*
X147463402Y-65391389D01*
X147740680Y-65480987D01*
X148026855Y-65572553D01*
X148308359Y-65661728D01*
X148571629Y-65744149D01*
X148803096Y-65815456D01*
X148989196Y-65871285D01*
X149118790Y-65906368D01*
X149220137Y-65920115D01*
X149256976Y-65894598D01*
X149234891Y-65824325D01*
X149159464Y-65703805D01*
X149154367Y-65696309D01*
X149089615Y-65598471D01*
X149066718Y-65544427D01*
X149083603Y-65512412D01*
X149138195Y-65480661D01*
X149173152Y-65466512D01*
X149216931Y-65475636D01*
X149266062Y-65531182D01*
X149335651Y-65645782D01*
X149339320Y-65652238D01*
X149448994Y-65913794D01*
X149488381Y-66192546D01*
X149459488Y-66502377D01*
X149458894Y-66505516D01*
X149429975Y-66643297D01*
X149402400Y-66719885D01*
X149365976Y-66752909D01*
X149310507Y-66760000D01*
X149275868Y-66758809D01*
X149229185Y-66736819D01*
X149236386Y-66670000D01*
X149246488Y-66627983D01*
X149267734Y-66509175D01*
X149286727Y-66370000D01*
X149310895Y-66160000D01*
X149031865Y-66160000D01*
X148918938Y-66165069D01*
X148614961Y-66217779D01*
X148284892Y-66322534D01*
X147946869Y-66472885D01*
X147619031Y-66662381D01*
X147544099Y-66707014D01*
X147323063Y-66809440D01*
X147069187Y-66896422D01*
X146815773Y-66955795D01*
X146591175Y-66979370D01*
X146295034Y-66954473D01*
X146034749Y-66858685D01*
X145809161Y-66691310D01*
X145617112Y-66451652D01*
X145457445Y-66139014D01*
X145349347Y-65890330D01*
X145203277Y-65603879D01*
X145036614Y-65337004D01*
X144829762Y-65055889D01*
X144558624Y-64736995D01*
X144268152Y-64457939D01*
X143929262Y-64191074D01*
X143815206Y-64107760D01*
X143736645Y-64044656D01*
X143703052Y-64002154D01*
X143703873Y-63966127D01*
X143728551Y-63922448D01*
X143732974Y-63916622D01*
X143764377Y-63903521D01*
X143823891Y-63912536D01*
G37*
G36*
X147199443Y-63459000D02*
G01*
X147533893Y-63508473D01*
X147904108Y-63608403D01*
X148225547Y-63746814D01*
X148228734Y-63748536D01*
X148412904Y-63868221D01*
X148610392Y-64028902D01*
X148800340Y-64210650D01*
X148961889Y-64393536D01*
X149074180Y-64557632D01*
X149075139Y-64559391D01*
X149140206Y-64685885D01*
X149162797Y-64746345D01*
X149144867Y-64741290D01*
X149088373Y-64671239D01*
X148995271Y-64536710D01*
X148932444Y-64449485D01*
X148692083Y-64200816D01*
X148392525Y-63991355D01*
X148044549Y-63826549D01*
X147658932Y-63711846D01*
X147246451Y-63652695D01*
X147083668Y-63640294D01*
X146978164Y-63626916D01*
X146922082Y-63607622D01*
X146899850Y-63576936D01*
X146895899Y-63529379D01*
X146895899Y-63430600D01*
X147199443Y-63459000D01*
G37*
G36*
X145543779Y-62404500D02*
G01*
X145824212Y-62477397D01*
X145838452Y-62482571D01*
X145968063Y-62534236D01*
X146059815Y-62578901D01*
X146094637Y-62607397D01*
X146094691Y-62618636D01*
X146089313Y-62632401D01*
X146064438Y-62635320D01*
X146005443Y-62625521D01*
X145897702Y-62601132D01*
X145726592Y-62560280D01*
X145515526Y-62515094D01*
X145288665Y-62485914D01*
X145095642Y-62489320D01*
X144914656Y-62524346D01*
X144889717Y-62531866D01*
X144719202Y-62619432D01*
X144585042Y-62749910D01*
X144497191Y-62906366D01*
X144465602Y-63071864D01*
X144500229Y-63229469D01*
X144503891Y-63236749D01*
X144600854Y-63346575D01*
X144761418Y-63445385D01*
X144970367Y-63529746D01*
X145212486Y-63596228D01*
X145472558Y-63641398D01*
X145735367Y-63661824D01*
X145985696Y-63654075D01*
X146208330Y-63614718D01*
X146243862Y-63606214D01*
X146288086Y-63616149D01*
X146288456Y-63684158D01*
X146251416Y-63762615D01*
X146154732Y-63805010D01*
X146099858Y-63814266D01*
X145928136Y-63828882D01*
X145716008Y-63834194D01*
X145490799Y-63830423D01*
X145279833Y-63817791D01*
X145110434Y-63796521D01*
X145101943Y-63794935D01*
X144869508Y-63728983D01*
X144639193Y-63626009D01*
X144436965Y-63499693D01*
X144288794Y-63363714D01*
X144230487Y-63278299D01*
X144173845Y-63102729D01*
X144188377Y-62923680D01*
X144269931Y-62752349D01*
X144414354Y-62599929D01*
X144617492Y-62477618D01*
X144695525Y-62447099D01*
X144953954Y-62389356D01*
X145245200Y-62375154D01*
X145543779Y-62404500D01*
G37*
G36*
X148324634Y-61459407D02*
G01*
X148326643Y-61796957D01*
X148268282Y-62185590D01*
X148141679Y-62535042D01*
X148086163Y-62644719D01*
X147991672Y-62802149D01*
X147894693Y-62916964D01*
X147778389Y-63011230D01*
X147760604Y-63022880D01*
X147604987Y-63076219D01*
X147440933Y-63058353D01*
X147283129Y-62973581D01*
X147146262Y-62826202D01*
X147109284Y-62760885D01*
X147045149Y-62597170D01*
X146990089Y-62398082D01*
X146951443Y-62192253D01*
X146936555Y-62008313D01*
X146936662Y-62003081D01*
X147136278Y-62003081D01*
X147144057Y-62150656D01*
X147177812Y-62367846D01*
X147232294Y-62576151D01*
X147300926Y-62751869D01*
X147377135Y-62871297D01*
X147438519Y-62921270D01*
X147569276Y-62956765D01*
X147706984Y-62916904D01*
X147746777Y-62889275D01*
X147749206Y-62853578D01*
X147696680Y-62790269D01*
X147604027Y-62645025D01*
X147548186Y-62442848D01*
X147536338Y-62212333D01*
X147564909Y-61970976D01*
X147630326Y-61736272D01*
X147729013Y-61525715D01*
X147857399Y-61356802D01*
X148011910Y-61247027D01*
X148165400Y-61178415D01*
X148111412Y-61019207D01*
X148067809Y-60922754D01*
X147982539Y-60801984D01*
X147885728Y-60714019D01*
X147796970Y-60680000D01*
X147786074Y-60680246D01*
X147648199Y-60724122D01*
X147515751Y-60835567D01*
X147394483Y-61003060D01*
X147290148Y-61215080D01*
X147208500Y-61460104D01*
X147155292Y-61726612D01*
X147136278Y-62003081D01*
X146936662Y-62003081D01*
X146937645Y-61955134D01*
X146964394Y-61714209D01*
X147020579Y-61449347D01*
X147097708Y-61195162D01*
X147187291Y-60986267D01*
X147330434Y-60769667D01*
X147487241Y-60624441D01*
X147648813Y-60551191D01*
X147808119Y-60546992D01*
X147958131Y-60608919D01*
X148091818Y-60734049D01*
X148202151Y-60919456D01*
X148282099Y-61162217D01*
X148284417Y-61178415D01*
X148324634Y-61459407D01*
G37*
G36*
X145273690Y-60234451D02*
G01*
X145303320Y-60465115D01*
X145311281Y-60760000D01*
X145300872Y-61040021D01*
X145263933Y-61299637D01*
X145194626Y-61515285D01*
X145087072Y-61704568D01*
X144935387Y-61885090D01*
X144934634Y-61885870D01*
X144827829Y-61991124D01*
X144747300Y-62049531D01*
X144667021Y-62074641D01*
X144560968Y-62080000D01*
X144476464Y-62073151D01*
X144295160Y-62003549D01*
X144141446Y-61860753D01*
X144018228Y-61647082D01*
X143940852Y-61402569D01*
X143904460Y-61115988D01*
X143910360Y-60924498D01*
X144099493Y-60924498D01*
X144102773Y-61203286D01*
X144140509Y-61461718D01*
X144213529Y-61682916D01*
X144322659Y-61850000D01*
X144421902Y-61928006D01*
X144559704Y-61960000D01*
X144620016Y-61957868D01*
X144678951Y-61937131D01*
X144681080Y-61881273D01*
X144632581Y-61774572D01*
X144621308Y-61751108D01*
X144575884Y-61576877D01*
X144567408Y-61361722D01*
X144591440Y-61122888D01*
X144643541Y-60877618D01*
X144719271Y-60643156D01*
X144814192Y-60436747D01*
X144923863Y-60275634D01*
X145043845Y-60177062D01*
X145131546Y-60133407D01*
X145032031Y-59996703D01*
X144997986Y-59955137D01*
X144872488Y-59852883D01*
X144732430Y-59793534D01*
X144605107Y-59790288D01*
X144585025Y-59798318D01*
X144504491Y-59854908D01*
X144416156Y-59941370D01*
X144414402Y-59943372D01*
X144288125Y-60134792D01*
X144192996Y-60373372D01*
X144129843Y-60642234D01*
X144099493Y-60924498D01*
X143910360Y-60924498D01*
X143913575Y-60820130D01*
X143964555Y-60529281D01*
X144053756Y-60257725D01*
X144177537Y-60019749D01*
X144332255Y-59829637D01*
X144514267Y-59701675D01*
X144527590Y-59695563D01*
X144697347Y-59655744D01*
X144863337Y-59691935D01*
X145033341Y-59805694D01*
X145133326Y-59910528D01*
X145218366Y-60054194D01*
X145242678Y-60133407D01*
X145273690Y-60234451D01*
G37*
%TD*%
%LPC*%
D13*
%TO.C,J4*%
X184500000Y-117200000D03*
X184500000Y-114660000D03*
X184500000Y-112120000D03*
X184500000Y-109580000D03*
X184500000Y-107040000D03*
X184500000Y-104500000D03*
X184500000Y-101960000D03*
X184500000Y-99420000D03*
X184500000Y-96880000D03*
X184500000Y-94340000D03*
X184500000Y-91800000D03*
X184500000Y-89260000D03*
X184500000Y-86720000D03*
X184500000Y-84180000D03*
X184500000Y-81640000D03*
X184500000Y-79100000D03*
X184500000Y-76560000D03*
X184500000Y-74020000D03*
X184500000Y-71480000D03*
%TD*%
%TO.C,J3*%
X192000000Y-117360000D03*
X192000000Y-114820000D03*
X192000000Y-112280000D03*
X192000000Y-109740000D03*
X192000000Y-107200000D03*
X192000000Y-104660000D03*
X192000000Y-102120000D03*
X192000000Y-99580000D03*
X192000000Y-97040000D03*
X192000000Y-94500000D03*
X192000000Y-91960000D03*
X192000000Y-89420000D03*
X192000000Y-86880000D03*
X192000000Y-84340000D03*
X192000000Y-81800000D03*
X192000000Y-79260000D03*
X192000000Y-76720000D03*
X192000000Y-74180000D03*
X192000000Y-71640000D03*
%TD*%
D14*
%TO.C,J2*%
X104500000Y-83000000D03*
D15*
X110800000Y-86300000D03*
X110800000Y-77700000D03*
X110800000Y-82900000D03*
D16*
X103500000Y-86700000D03*
X103500000Y-76800000D03*
%TD*%
D17*
%TO.C,J1*%
X110792500Y-109930000D03*
X110792500Y-123070000D03*
%TD*%
%LPD*%
M02*
