%TF.GenerationSoftware,KiCad,Pcbnew,8.0.3*%
%TF.CreationDate,2024-09-12T15:56:22-04:00*%
%TF.ProjectId,G7 Senior Design V2,47372053-656e-4696-9f72-204465736967,rev?*%
%TF.SameCoordinates,Original*%
%TF.FileFunction,Copper,L1,Top*%
%TF.FilePolarity,Positive*%
%FSLAX46Y46*%
G04 Gerber Fmt 4.6, Leading zero omitted, Abs format (unit mm)*
G04 Created by KiCad (PCBNEW 8.0.3) date 2024-09-12 15:56:22*
%MOMM*%
%LPD*%
G01*
G04 APERTURE LIST*
G04 Aperture macros list*
%AMRoundRect*
0 Rectangle with rounded corners*
0 $1 Rounding radius*
0 $2 $3 $4 $5 $6 $7 $8 $9 X,Y pos of 4 corners*
0 Add a 4 corners polygon primitive as box body*
4,1,4,$2,$3,$4,$5,$6,$7,$8,$9,$2,$3,0*
0 Add four circle primitives for the rounded corners*
1,1,$1+$1,$2,$3*
1,1,$1+$1,$4,$5*
1,1,$1+$1,$6,$7*
1,1,$1+$1,$8,$9*
0 Add four rect primitives between the rounded corners*
20,1,$1+$1,$2,$3,$4,$5,0*
20,1,$1+$1,$4,$5,$6,$7,0*
20,1,$1+$1,$6,$7,$8,$9,0*
20,1,$1+$1,$8,$9,$2,$3,0*%
G04 Aperture macros list end*
%TA.AperFunction,ComponentPad*%
%ADD10C,1.574800*%
%TD*%
%TA.AperFunction,SMDPad,CuDef*%
%ADD11R,1.346200X1.117600*%
%TD*%
%TA.AperFunction,SMDPad,CuDef*%
%ADD12R,0.812800X1.346200*%
%TD*%
%TA.AperFunction,SMDPad,CuDef*%
%ADD13R,0.950000X1.400000*%
%TD*%
%TA.AperFunction,SMDPad,CuDef*%
%ADD14R,1.550000X1.000000*%
%TD*%
%TA.AperFunction,SMDPad,CuDef*%
%ADD15R,1.005599X1.199998*%
%TD*%
%TA.AperFunction,SMDPad,CuDef*%
%ADD16R,1.066800X1.219200*%
%TD*%
%TA.AperFunction,SMDPad,CuDef*%
%ADD17R,1.420000X1.000000*%
%TD*%
%TA.AperFunction,ComponentPad*%
%ADD18O,3.000000X1.500000*%
%TD*%
%TA.AperFunction,ComponentPad*%
%ADD19O,3.200000X1.600000*%
%TD*%
%TA.AperFunction,SMDPad,CuDef*%
%ADD20R,2.438400X0.990600*%
%TD*%
%TA.AperFunction,SMDPad,CuDef*%
%ADD21R,0.990600X2.438400*%
%TD*%
%TA.AperFunction,SMDPad,CuDef*%
%ADD22R,0.910000X1.390000*%
%TD*%
%TA.AperFunction,SMDPad,CuDef*%
%ADD23R,0.803200X1.450000*%
%TD*%
%TA.AperFunction,SMDPad,CuDef*%
%ADD24R,1.117600X1.346200*%
%TD*%
%TA.AperFunction,SMDPad,CuDef*%
%ADD25R,2.880000X1.120000*%
%TD*%
%TA.AperFunction,ComponentPad*%
%ADD26C,3.376000*%
%TD*%
%TA.AperFunction,SMDPad,CuDef*%
%ADD27R,0.920000X1.380000*%
%TD*%
%TA.AperFunction,SMDPad,CuDef*%
%ADD28R,1.199998X1.005599*%
%TD*%
%TA.AperFunction,SMDPad,CuDef*%
%ADD29R,0.558800X1.219200*%
%TD*%
%TA.AperFunction,SMDPad,CuDef*%
%ADD30R,1.450000X0.803200*%
%TD*%
%TA.AperFunction,SMDPad,CuDef*%
%ADD31R,1.498600X0.889000*%
%TD*%
%TA.AperFunction,SMDPad,CuDef*%
%ADD32R,0.889000X1.498600*%
%TD*%
%TA.AperFunction,SMDPad,CuDef*%
%ADD33R,1.041400X1.041400*%
%TD*%
%TA.AperFunction,SMDPad,CuDef*%
%ADD34RoundRect,0.069750X0.585250X0.395250X-0.585250X0.395250X-0.585250X-0.395250X0.585250X-0.395250X0*%
%TD*%
%TA.AperFunction,SMDPad,CuDef*%
%ADD35RoundRect,0.098250X0.556750X1.521750X-0.556750X1.521750X-0.556750X-1.521750X0.556750X-1.521750X0*%
%TD*%
%TA.AperFunction,SMDPad,CuDef*%
%ADD36R,3.350000X3.350000*%
%TD*%
%TA.AperFunction,SMDPad,CuDef*%
%ADD37R,0.300000X1.000000*%
%TD*%
%TA.AperFunction,SMDPad,CuDef*%
%ADD38R,1.000000X0.300000*%
%TD*%
%TA.AperFunction,ViaPad*%
%ADD39C,0.600000*%
%TD*%
%TA.AperFunction,Conductor*%
%ADD40C,0.200000*%
%TD*%
G04 APERTURE END LIST*
D10*
%TO.P,J4,1,1*%
%TO.N,Net-(U1-CMD)*%
X184500000Y-117200000D03*
%TO.P,J4,2,2*%
%TO.N,Net-(U1-CLK)*%
X184500000Y-114660000D03*
%TO.P,J4,3,3*%
%TO.N,Net-(U2-GPIO7)*%
X184500000Y-112120000D03*
%TO.P,J4,4,4*%
%TO.N,Net-(U2-GPIO6{slash}EXTRXE{slash}SPIPHA)*%
X184500000Y-109580000D03*
%TO.P,J4,5,5*%
%TO.N,Net-(U2-GPIO5{slash}EXTTXE{slash}SPIPOL)*%
X184500000Y-107040000D03*
%TO.P,J4,6,6*%
%TO.N,Net-(U2-GPIO4{slash}EXTPA)*%
X184500000Y-104500000D03*
%TO.P,J4,7,7*%
%TO.N,unconnected-(J4-Pad7)*%
X184500000Y-101960000D03*
%TO.P,J4,8,8*%
%TO.N,unconnected-(J4-Pad8)*%
X184500000Y-99420000D03*
%TO.P,J4,9,9*%
%TO.N,unconnected-(J4-Pad9)*%
X184500000Y-96880000D03*
%TO.P,J4,10,10*%
%TO.N,unconnected-(J4-Pad10)*%
X184500000Y-94340000D03*
%TO.P,J4,11,11*%
%TO.N,unconnected-(J4-Pad11)*%
X184500000Y-91800000D03*
%TO.P,J4,12,12*%
%TO.N,unconnected-(J4-Pad12)*%
X184500000Y-89260000D03*
%TO.P,J4,13,13*%
%TO.N,unconnected-(J4-Pad13)*%
X184500000Y-86720000D03*
%TO.P,J4,14,14*%
%TO.N,unconnected-(J4-Pad14)*%
X184500000Y-84180000D03*
%TO.P,J4,15,15*%
%TO.N,unconnected-(J4-Pad15)*%
X184500000Y-81640000D03*
%TO.P,J4,16,16*%
%TO.N,unconnected-(J4-Pad16)*%
X184500000Y-79100000D03*
%TO.P,J4,17,17*%
%TO.N,unconnected-(J4-Pad17)*%
X184500000Y-76560000D03*
%TO.P,J4,18,18*%
%TO.N,unconnected-(J4-Pad18)*%
X184500000Y-74020000D03*
%TO.P,J4,19,19*%
%TO.N,unconnected-(J4-Pad19)*%
X184500000Y-71480000D03*
%TD*%
%TO.P,J3,1,1*%
%TO.N,Net-(U1-SENSOR_VP)*%
X192000000Y-117360000D03*
%TO.P,J3,2,2*%
%TO.N,Net-(U1-SENSOR_VN)*%
X192000000Y-114820000D03*
%TO.P,J3,3,3*%
%TO.N,Net-(U1-IO35)*%
X192000000Y-112280000D03*
%TO.P,J3,4,4*%
%TO.N,Net-(U1-IO25)*%
X192000000Y-109740000D03*
%TO.P,J3,5,5*%
%TO.N,Net-(U1-IO26)*%
X192000000Y-107200000D03*
%TO.P,J3,6,6*%
%TO.N,Net-(U1-IO14)*%
X192000000Y-104660000D03*
%TO.P,J3,7,7*%
%TO.N,/EN*%
X192000000Y-102120000D03*
%TO.P,J3,8,8*%
%TO.N,Net-(U1-IO13)*%
X192000000Y-99580000D03*
%TO.P,J3,9,9*%
%TO.N,Net-(U1-SD2)*%
X192000000Y-97040000D03*
%TO.P,J3,10,10*%
%TO.N,Net-(U1-SD3)*%
X192000000Y-94500000D03*
%TO.P,J3,11,11*%
%TO.N,Net-(U1-SD0)*%
X192000000Y-91960000D03*
%TO.P,J3,12,12*%
%TO.N,Net-(U1-SD1)*%
X192000000Y-89420000D03*
%TO.P,J3,13,13*%
%TO.N,Net-(U1-IO15)*%
X192000000Y-86880000D03*
%TO.P,J3,14,14*%
%TO.N,Net-(U1-IO22)*%
X192000000Y-84340000D03*
%TO.P,J3,15,15*%
%TO.N,Net-(U1-IO21)*%
X192000000Y-81800000D03*
%TO.P,J3,16,16*%
%TO.N,Net-(U1-IO5)*%
X192000000Y-79260000D03*
%TO.P,J3,17,17*%
%TO.N,Net-(U1-IO17)*%
X192000000Y-76720000D03*
%TO.P,J3,18,18*%
%TO.N,Net-(U1-IO16)*%
X192000000Y-74180000D03*
%TO.P,J3,19,19*%
%TO.N,Net-(U1-IO2)*%
X192000000Y-71640000D03*
%TD*%
D11*
%TO.P,C1,1*%
%TO.N,GND*%
X119000000Y-84149100D03*
%TO.P,C1,2*%
%TO.N,Net-(U3-VIN)*%
X119000000Y-85850900D03*
%TD*%
D12*
%TO.P,R26,1*%
%TO.N,Net-(IC3-VBUS)*%
X119696600Y-120000000D03*
%TO.P,R26,2*%
%TO.N,GND*%
X121500000Y-120000000D03*
%TD*%
D13*
%TO.P,D2,1,K*%
%TO.N,GND*%
X150100000Y-114500000D03*
%TO.P,D2,2,A*%
%TO.N,Net-(D2-A)*%
X152000000Y-114500000D03*
%TD*%
D14*
%TO.P,S2,1*%
%TO.N,GND*%
X120375000Y-59400000D03*
%TO.P,S2,2*%
%TO.N,N/C*%
X125625000Y-59400000D03*
%TO.P,S2,3*%
%TO.N,/EN*%
X120375000Y-62600000D03*
%TO.P,S2,4*%
%TO.N,N/C*%
X125625000Y-62600000D03*
%TD*%
D15*
%TO.P,R11,1*%
%TO.N,Net-(IC3-VDD)*%
X124794402Y-97500000D03*
%TO.P,R11,2*%
%TO.N,/EN*%
X126500000Y-97500000D03*
%TD*%
D12*
%TO.P,R25,1*%
%TO.N,Net-(J1-VCC)*%
X119696600Y-113500000D03*
%TO.P,R25,2*%
%TO.N,Net-(IC3-VBUS)*%
X121500000Y-113500000D03*
%TD*%
D13*
%TO.P,D1,1,K*%
%TO.N,GND*%
X155600000Y-114500000D03*
%TO.P,D1,2,A*%
%TO.N,Net-(D1-A)*%
X157500000Y-114500000D03*
%TD*%
D16*
%TO.P,C14,1*%
%TO.N,GND*%
X173349000Y-120000000D03*
%TO.P,C14,2*%
%TO.N,/EN*%
X175000000Y-120000000D03*
%TD*%
%TO.P,C22,1*%
%TO.N,Net-(IC3-VDD)*%
X124849000Y-102500000D03*
%TO.P,C22,2*%
%TO.N,GND*%
X126500000Y-102500000D03*
%TD*%
D17*
%TO.P,R6,1*%
%TO.N,Net-(U2-GPIO0{slash}RXOKLED)*%
X143500000Y-119935000D03*
%TO.P,R6,2*%
%TO.N,Net-(D4-A)*%
X143500000Y-118065000D03*
%TD*%
D18*
%TO.P,J2,1*%
%TO.N,Net-(U3-VIN)*%
X110800000Y-86300000D03*
%TO.P,J2,2*%
%TO.N,GND*%
X110800000Y-77700000D03*
%TO.P,J2,3*%
X110800000Y-82900000D03*
D19*
%TO.P,J2,S1,SHIELD*%
%TO.N,unconnected-(J2-SHIELD-PadS1)*%
X103500000Y-86700000D03*
%TO.P,J2,S2,SHIELD__1*%
%TO.N,unconnected-(J2-SHIELD__1-PadS2)*%
X103500000Y-76800000D03*
%TD*%
D20*
%TO.P,U2,1,EXTON*%
%TO.N,Net-(U2-EXTON)*%
X156500000Y-139000000D03*
%TO.P,U2,2,WAKEUP*%
%TO.N,Net-(U2-WAKEUP)*%
X156500000Y-137600001D03*
%TO.P,U2,3,RSTN*%
%TO.N,Net-(U2-RSTN)*%
X156500000Y-136200001D03*
%TO.P,U2,4,GPIO7*%
%TO.N,Net-(U2-GPIO7)*%
X156500000Y-134800001D03*
%TO.P,U2,5,VDDAON*%
%TO.N,Net-(IC3-VDD)*%
X156500000Y-133399999D03*
%TO.P,U2,6,VDD3V3*%
X156500000Y-131999999D03*
%TO.P,U2,7,VDD3V3*%
X156500000Y-130599999D03*
%TO.P,U2,8,VSS*%
%TO.N,GND*%
X156500000Y-129200000D03*
D21*
%TO.P,U2,9,GPIO6/EXTRXE/SPIPHA*%
%TO.N,Net-(U2-GPIO6{slash}EXTRXE{slash}SPIPHA)*%
X155096101Y-126999998D03*
%TO.P,U2,10,GPIO5/EXTTXE/SPIPOL*%
%TO.N,Net-(U2-GPIO5{slash}EXTTXE{slash}SPIPOL)*%
X153696102Y-126999998D03*
%TO.P,U2,11,GPIO4/EXTPA*%
%TO.N,Net-(U2-GPIO4{slash}EXTPA)*%
X152296102Y-126999998D03*
%TO.P,U2,12,GPIO3/TXLED*%
%TO.N,Net-(U2-GPIO3{slash}TXLED)*%
X150896102Y-126999998D03*
%TO.P,U2,13,GPIO2/RXLED*%
%TO.N,Net-(U2-GPIO2{slash}RXLED)*%
X149496100Y-126999998D03*
%TO.P,U2,14,GPIO1/SFDLED*%
%TO.N,Net-(U2-GPIO1{slash}SFDLED)*%
X148096100Y-126999998D03*
%TO.P,U2,15,GPIO0/RXOKLED*%
%TO.N,Net-(U2-GPIO0{slash}RXOKLED)*%
X146696100Y-126999998D03*
%TO.P,U2,16,VSS*%
%TO.N,GND*%
X145296101Y-126999998D03*
D20*
%TO.P,U2,17,SPICSN*%
%TO.N,Net-(U1-IO4)*%
X143892202Y-129200000D03*
%TO.P,U2,18,SPIMOSI*%
%TO.N,Net-(U1-IO23)*%
X143892202Y-130599999D03*
%TO.P,U2,19,SPIMISO*%
%TO.N,Net-(U1-IO19)*%
X143892202Y-131999999D03*
%TO.P,U2,20,SPICLK*%
%TO.N,Net-(U1-IO18)*%
X143892202Y-133399999D03*
%TO.P,U2,21,VSS*%
%TO.N,GND*%
X143892202Y-134800001D03*
%TO.P,U2,22,IRQ/GPIO8*%
%TO.N,Net-(U1-IO34)*%
X143892202Y-136200001D03*
%TO.P,U2,23,VSS*%
%TO.N,GND*%
X143892202Y-137600001D03*
%TO.P,U2,24,VSS*%
X143892202Y-139000000D03*
%TD*%
D22*
%TO.P,C19,1,1*%
%TO.N,Net-(IC3-VDD)*%
X129860000Y-59000000D03*
%TO.P,C19,2,2*%
%TO.N,GND*%
X131500000Y-59000000D03*
%TD*%
D23*
%TO.P,R32,1*%
%TO.N,Net-(U1-IO32)*%
X118598400Y-92500000D03*
%TO.P,R32,2*%
%TO.N,Net-(U2-WAKEUP)*%
X120401600Y-92500000D03*
%TD*%
D24*
%TO.P,C31,1*%
%TO.N,Net-(IC3-VDD)*%
X169174400Y-133894900D03*
%TO.P,C31,2*%
%TO.N,GND*%
X170876200Y-133894900D03*
%TD*%
D25*
%TO.P,J1,01,VCC*%
%TO.N,Net-(J1-VCC)*%
X114372500Y-113000000D03*
%TO.P,J1,02,D-*%
%TO.N,Net-(IC3-D-)*%
X114372500Y-115500000D03*
%TO.P,J1,03,D+*%
%TO.N,Net-(IC3-D+)*%
X114372500Y-117500000D03*
%TO.P,J1,04,GND*%
%TO.N,GND*%
X114372500Y-120000000D03*
D26*
%TO.P,J1,S1,SHIELD*%
%TO.N,unconnected-(J1-SHIELD-PadS1)*%
X110792500Y-109930000D03*
%TO.P,J1,S2,SHIELD__1*%
%TO.N,unconnected-(J1-SHIELD__1-PadS2)*%
X110792500Y-123070000D03*
%TD*%
D27*
%TO.P,R2,1*%
%TO.N,Net-(U3-VIN)*%
X119590000Y-102500000D03*
%TO.P,R2,2*%
%TO.N,Net-(LED1-A)*%
X121500000Y-102500000D03*
%TD*%
D28*
%TO.P,R22,1*%
%TO.N,Net-(IC3-RTS)*%
X185000000Y-123794402D03*
%TO.P,R22,2*%
%TO.N,Net-(Q2-Pad1)*%
X185000000Y-125500000D03*
%TD*%
D13*
%TO.P,D3,1,K*%
%TO.N,GND*%
X144600000Y-114500000D03*
%TO.P,D3,2,A*%
%TO.N,Net-(D3-A)*%
X146500000Y-114500000D03*
%TD*%
D29*
%TO.P,Q1,1,1*%
%TO.N,Net-(Q1-Pad1)*%
X178099998Y-125500000D03*
%TO.P,Q1,2,2*%
%TO.N,Net-(IC3-RTS)*%
X180000000Y-125500000D03*
%TO.P,Q1,3,3*%
%TO.N,/EN*%
X179049999Y-123458001D03*
%TD*%
D17*
%TO.P,R5,1*%
%TO.N,Net-(U2-GPIO3{slash}TXLED)*%
X153500000Y-120000000D03*
%TO.P,R5,2*%
%TO.N,Net-(D1-A)*%
X153500000Y-118130000D03*
%TD*%
D28*
%TO.P,R15-1,1*%
%TO.N,Net-(U1-IO34)*%
X137000000Y-136294402D03*
%TO.P,R15-1,2*%
%TO.N,GND*%
X137000000Y-138000000D03*
%TD*%
D27*
%TO.P,R24,1*%
%TO.N,Net-(IC3-VDD)*%
X173090000Y-138500000D03*
%TO.P,R24,2*%
%TO.N,Net-(IC3-RSTB)*%
X175000000Y-138500000D03*
%TD*%
D16*
%TO.P,C3,1*%
%TO.N,Net-(IC3-VDD)*%
X161849000Y-120000000D03*
%TO.P,C3,2*%
%TO.N,GND*%
X163500000Y-120000000D03*
%TD*%
D17*
%TO.P,R4,1*%
%TO.N,Net-(U2-GPIO2{slash}RXLED)*%
X150000000Y-119870000D03*
%TO.P,R4,2*%
%TO.N,Net-(D2-A)*%
X150000000Y-118000000D03*
%TD*%
D15*
%TO.P,R23,1*%
%TO.N,Net-(IC3-SUSPENDB)*%
X178294402Y-120000000D03*
%TO.P,R23,2*%
%TO.N,GND*%
X180000000Y-120000000D03*
%TD*%
D30*
%TO.P,R33,1*%
%TO.N,Net-(U1-IO33)*%
X161401600Y-113696800D03*
%TO.P,R33,2*%
%TO.N,Net-(U2-EXTON)*%
X161401600Y-115500000D03*
%TD*%
D16*
%TO.P,C15,1*%
%TO.N,GND*%
X167349000Y-120000000D03*
%TO.P,C15,2*%
%TO.N,/IO0*%
X169000000Y-120000000D03*
%TD*%
D22*
%TO.P,C20,1,1*%
%TO.N,Net-(IC3-VDD)*%
X129860000Y-62000000D03*
%TO.P,C20,2,2*%
%TO.N,GND*%
X131500000Y-62000000D03*
%TD*%
D17*
%TO.P,R7,1*%
%TO.N,Net-(U2-GPIO1{slash}SFDLED)*%
X147000000Y-120000000D03*
%TO.P,R7,2*%
%TO.N,Net-(D3-A)*%
X147000000Y-118130000D03*
%TD*%
D14*
%TO.P,S1,1*%
%TO.N,GND*%
X147375000Y-87400000D03*
%TO.P,S1,2*%
%TO.N,N/C*%
X152625000Y-87400000D03*
%TO.P,S1,3*%
%TO.N,/IO0*%
X147375000Y-90600000D03*
%TO.P,S1,4*%
%TO.N,N/C*%
X152625000Y-90600000D03*
%TD*%
D31*
%TO.P,U1,1,GND*%
%TO.N,GND*%
X140905000Y-58000000D03*
%TO.P,U1,2,3V3*%
%TO.N,Net-(IC3-VDD)*%
X140905000Y-59270000D03*
%TO.P,U1,3,EN*%
%TO.N,/EN*%
X140905000Y-60540000D03*
%TO.P,U1,4,SENSOR_VP*%
%TO.N,Net-(U1-SENSOR_VP)*%
X140905000Y-61810000D03*
%TO.P,U1,5,SENSOR_VN*%
%TO.N,Net-(U1-SENSOR_VN)*%
X140905000Y-63080000D03*
%TO.P,U1,6,IO34*%
%TO.N,Net-(U1-IO34)*%
X140905000Y-64350000D03*
%TO.P,U1,7,IO35*%
%TO.N,Net-(U1-IO35)*%
X140905000Y-65620000D03*
%TO.P,U1,8,IO32*%
%TO.N,Net-(U1-IO32)*%
X140905000Y-66890000D03*
%TO.P,U1,9,IO33*%
%TO.N,Net-(U1-IO33)*%
X140905000Y-68160000D03*
%TO.P,U1,10,IO25*%
%TO.N,Net-(U1-IO25)*%
X140905000Y-69430000D03*
%TO.P,U1,11,IO26*%
%TO.N,Net-(U1-IO26)*%
X140905000Y-70700000D03*
%TO.P,U1,12,IO27*%
%TO.N,Net-(U1-IO27)*%
X140905000Y-71970000D03*
%TO.P,U1,13,IO14*%
%TO.N,Net-(U1-IO14)*%
X140905000Y-73240000D03*
%TO.P,U1,14,IO12*%
%TO.N,/EN*%
X140905000Y-74510000D03*
D32*
%TO.P,U1,15,GND*%
%TO.N,GND*%
X143940000Y-75760000D03*
%TO.P,U1,16,IO13*%
%TO.N,Net-(U1-IO13)*%
X145210000Y-75760000D03*
%TO.P,U1,17,SD2*%
%TO.N,Net-(U1-SD2)*%
X146480000Y-75760000D03*
%TO.P,U1,18,SD3*%
%TO.N,Net-(U1-SD3)*%
X147750000Y-75760000D03*
%TO.P,U1,19,CMD*%
%TO.N,Net-(U1-CMD)*%
X149020000Y-75760000D03*
%TO.P,U1,20,CLK*%
%TO.N,Net-(U1-CLK)*%
X150290000Y-75760000D03*
%TO.P,U1,21,SD0*%
%TO.N,Net-(U1-SD0)*%
X151560000Y-75760000D03*
%TO.P,U1,22,SD1*%
%TO.N,Net-(U1-SD1)*%
X152830000Y-75760000D03*
%TO.P,U1,23,IO15*%
%TO.N,Net-(U1-IO15)*%
X154100000Y-75760000D03*
%TO.P,U1,24,IO2*%
%TO.N,Net-(U1-IO2)*%
X155370000Y-75760000D03*
D31*
%TO.P,U1,25,IO0*%
%TO.N,/IO0*%
X158405000Y-74510000D03*
%TO.P,U1,26,IO4*%
%TO.N,Net-(U1-IO4)*%
X158405000Y-73240000D03*
%TO.P,U1,27,IO16*%
%TO.N,Net-(U1-IO16)*%
X158405000Y-71970000D03*
%TO.P,U1,28,IO17*%
%TO.N,Net-(U1-IO17)*%
X158405000Y-70700000D03*
%TO.P,U1,29,IO5*%
%TO.N,Net-(U1-IO5)*%
X158405000Y-69430000D03*
%TO.P,U1,30,IO18*%
%TO.N,Net-(U1-IO18)*%
X158405000Y-68160000D03*
%TO.P,U1,31,IO19*%
%TO.N,Net-(U1-IO19)*%
X158405000Y-66890000D03*
%TO.P,U1,32,NC*%
%TO.N,unconnected-(U1-NC-Pad32)*%
X158405000Y-65620000D03*
%TO.P,U1,33,IO21*%
%TO.N,Net-(U1-IO21)*%
X158405000Y-64350000D03*
%TO.P,U1,34,RXD0*%
%TO.N,Net-(IC3-RXD)*%
X158405000Y-63080000D03*
%TO.P,U1,35,TXD0*%
%TO.N,Net-(IC3-TXD)*%
X158405000Y-61810000D03*
%TO.P,U1,36,IO22*%
%TO.N,Net-(U1-IO22)*%
X158405000Y-60540000D03*
%TO.P,U1,37,IO23*%
%TO.N,Net-(U1-IO23)*%
X158405000Y-59270000D03*
%TO.P,U1,38,GND*%
%TO.N,GND*%
X158405000Y-58000000D03*
D33*
%TO.P,U1,39,GND*%
X148975000Y-65340000D03*
%TO.P,U1,40,GND*%
X147450000Y-63815000D03*
%TO.P,U1,41,GND*%
X147450000Y-65340000D03*
%TO.P,U1,42,GND*%
X147450000Y-66865000D03*
%TO.P,U1,43,GND*%
X148975000Y-66865000D03*
%TO.P,U1,44,GND*%
X150500000Y-66865000D03*
%TO.P,U1,45,GND*%
X150500000Y-65340000D03*
%TO.P,U1,46,GND*%
X150500000Y-63815000D03*
%TO.P,U1,47,GND*%
X148975000Y-63815000D03*
%TD*%
D15*
%TO.P,R21,1*%
%TO.N,Net-(IC3-DTR)*%
X166000000Y-127500000D03*
%TO.P,R21,2*%
%TO.N,Net-(Q1-Pad1)*%
X167705598Y-127500000D03*
%TD*%
D13*
%TO.P,D4,1,K*%
%TO.N,GND*%
X139100000Y-114500000D03*
%TO.P,D4,2,A*%
%TO.N,Net-(D4-A)*%
X141000000Y-114500000D03*
%TD*%
D34*
%TO.P,U3,1,GND/ADJ*%
%TO.N,GND*%
X113000000Y-99790000D03*
%TO.P,U3,2,VOUT*%
%TO.N,Net-(U3-VOUT)*%
X113000000Y-97500000D03*
%TO.P,U3,3,VIN*%
%TO.N,Net-(U3-VIN)*%
X113000000Y-95210000D03*
D35*
%TO.P,U3,4*%
%TO.N,N/C*%
X106310000Y-97500000D03*
%TD*%
D13*
%TO.P,LED1,1,K*%
%TO.N,GND*%
X119600000Y-106500000D03*
%TO.P,LED1,2,A*%
%TO.N,Net-(LED1-A)*%
X121500000Y-106500000D03*
%TD*%
D29*
%TO.P,Q2,1,1*%
%TO.N,Net-(Q2-Pad1)*%
X172049999Y-125520999D03*
%TO.P,Q2,2,2*%
%TO.N,Net-(IC3-DTR)*%
X173950001Y-125520999D03*
%TO.P,Q2,3,3*%
%TO.N,/IO0*%
X173000000Y-123479000D03*
%TD*%
D15*
%TO.P,R34,1*%
%TO.N,Net-(IC3-VDD)*%
X167294402Y-138500000D03*
%TO.P,R34,2*%
%TO.N,/IO0*%
X169000000Y-138500000D03*
%TD*%
D36*
%TO.P,IC3,29,BGND*%
%TO.N,GND*%
X179000000Y-132000000D03*
D37*
%TO.P,IC3,28,DTR*%
%TO.N,Net-(IC3-DTR)*%
X177500000Y-129650000D03*
%TO.P,IC3,27,DSR*%
%TO.N,unconnected-(IC3-DSR-Pad27)*%
X178000000Y-129650000D03*
%TO.P,IC3,26,TXD*%
%TO.N,Net-(IC3-TXD)*%
X178500000Y-129650000D03*
%TO.P,IC3,25,RXD*%
%TO.N,Net-(IC3-RXD)*%
X179000000Y-129650000D03*
%TO.P,IC3,24,RTS*%
%TO.N,Net-(IC3-RTS)*%
X179500000Y-129650000D03*
%TO.P,IC3,23,CTS*%
%TO.N,unconnected-(IC3-CTS-Pad23)*%
X180000000Y-129650000D03*
%TO.P,IC3,22,GPIO.4*%
%TO.N,unconnected-(IC3-GPIO.4-Pad22)*%
X180500000Y-129650000D03*
D38*
%TO.P,IC3,21,GPIO.5*%
%TO.N,unconnected-(IC3-GPIO.5-Pad21)*%
X181350000Y-130500000D03*
%TO.P,IC3,20,GPIO.6*%
%TO.N,unconnected-(IC3-GPIO.6-Pad20)*%
X181350000Y-131000000D03*
%TO.P,IC3,19,GPIO.0/TXT*%
%TO.N,unconnected-(IC3-GPIO.0{slash}TXT-Pad19)*%
X181350000Y-131500000D03*
%TO.P,IC3,18,GPIO.1/RXT*%
%TO.N,unconnected-(IC3-GPIO.1{slash}RXT-Pad18)*%
X181350000Y-132000000D03*
%TO.P,IC3,17,GPIO.2/RS485*%
%TO.N,unconnected-(IC3-GPIO.2{slash}RS485-Pad17)*%
X181350000Y-132500000D03*
%TO.P,IC3,16,GPIO.3/WAKEUP*%
%TO.N,unconnected-(IC3-GPIO.3{slash}WAKEUP-Pad16)*%
X181350000Y-133000000D03*
%TO.P,IC3,15,CHR0*%
%TO.N,unconnected-(IC3-CHR0-Pad15)*%
X181350000Y-133500000D03*
D37*
%TO.P,IC3,14,CHR1*%
%TO.N,unconnected-(IC3-CHR1-Pad14)*%
X180500000Y-134350000D03*
%TO.P,IC3,13,CHREN*%
%TO.N,unconnected-(IC3-CHREN-Pad13)*%
X180000000Y-134350000D03*
%TO.P,IC3,12,SUSPEND*%
%TO.N,unconnected-(IC3-SUSPEND-Pad12)*%
X179500000Y-134350000D03*
%TO.P,IC3,11,SUSPENDB*%
%TO.N,Net-(IC3-SUSPENDB)*%
X179000000Y-134350000D03*
%TO.P,IC3,10,NC*%
%TO.N,unconnected-(IC3-NC-Pad10)*%
X178500000Y-134350000D03*
%TO.P,IC3,9,RSTB*%
%TO.N,Net-(IC3-RSTB)*%
X178000000Y-134350000D03*
%TO.P,IC3,8,VBUS*%
%TO.N,Net-(IC3-VBUS)*%
X177500000Y-134350000D03*
D38*
%TO.P,IC3,7,VREGIN*%
%TO.N,Net-(IC3-VDD)*%
X176650000Y-133500000D03*
%TO.P,IC3,6,VDD*%
X176650000Y-133000000D03*
%TO.P,IC3,5,D-*%
%TO.N,Net-(IC3-D-)*%
X176650000Y-132500000D03*
%TO.P,IC3,4,D+*%
%TO.N,Net-(IC3-D+)*%
X176650000Y-132000000D03*
%TO.P,IC3,3,GND*%
%TO.N,GND*%
X176650000Y-131500000D03*
%TO.P,IC3,2,RI/CLK*%
%TO.N,unconnected-(IC3-RI{slash}CLK-Pad2)*%
X176650000Y-131000000D03*
%TO.P,IC3,1,DCD*%
%TO.N,unconnected-(IC3-DCD-Pad1)*%
X176650000Y-130500000D03*
%TD*%
D12*
%TO.P,R0-1,1*%
%TO.N,Net-(U3-VOUT)*%
X119196600Y-97500000D03*
%TO.P,R0-1,2*%
%TO.N,Net-(IC3-VDD)*%
X121000000Y-97500000D03*
%TD*%
D24*
%TO.P,C21,1*%
%TO.N,Net-(IC3-VDD)*%
X169174400Y-130888300D03*
%TO.P,C21,2*%
%TO.N,GND*%
X170876200Y-130888300D03*
%TD*%
%TO.P,C3-22uF1,1*%
%TO.N,Net-(U3-VOUT)*%
X124798200Y-92500000D03*
%TO.P,C3-22uF1,2*%
%TO.N,GND*%
X126500000Y-92500000D03*
%TD*%
D30*
%TO.P,R31,1*%
%TO.N,Net-(U1-IO27)*%
X164500000Y-113696800D03*
%TO.P,R31,2*%
%TO.N,Net-(U2-RSTN)*%
X164500000Y-115500000D03*
%TD*%
D39*
%TO.N,/EN*%
X141000000Y-86500000D03*
X164000000Y-109000000D03*
X167500000Y-112000000D03*
X170000000Y-116000000D03*
%TO.N,Net-(Q2-Pad1)*%
X177242547Y-127894017D03*
X172000000Y-126500000D03*
%TO.N,GND*%
X174000000Y-129500000D03*
X174500000Y-122500000D03*
X118500000Y-62000000D03*
X119000000Y-82000000D03*
X160325735Y-117325735D03*
X154000000Y-116500000D03*
%TO.N,Net-(IC3-VDD)*%
X159000000Y-119000000D03*
X133500000Y-59500000D03*
X161500000Y-125000000D03*
X160500000Y-122000000D03*
X124500000Y-81000000D03*
X128000000Y-63000000D03*
X125000000Y-95000000D03*
X127500000Y-68000000D03*
X128000000Y-60000000D03*
X124000000Y-104000000D03*
%TO.N,/EN*%
X138000000Y-74000000D03*
X134500000Y-68000000D03*
X126500000Y-96000000D03*
X135000000Y-70000000D03*
X133000000Y-65500000D03*
X128500000Y-95000000D03*
%TO.N,/IO0*%
X138500000Y-82400000D03*
X171000000Y-120500000D03*
X138500000Y-83600000D03*
X160500000Y-104500000D03*
X172000000Y-117000000D03*
X170500000Y-124000000D03*
X161000000Y-74500000D03*
X166500000Y-114000000D03*
X172500000Y-132100000D03*
X144500000Y-84500000D03*
X140000000Y-78000000D03*
X160500000Y-98000000D03*
%TO.N,Net-(IC3-SUSPENDB)*%
X180500000Y-137500000D03*
X177000000Y-120500000D03*
%TO.N,Net-(IC3-RXD)*%
X168000000Y-108000000D03*
X178900000Y-127500000D03*
X167000000Y-84600000D03*
X180000000Y-121500000D03*
X166000000Y-93500000D03*
X166500000Y-63000000D03*
X177500000Y-122500000D03*
X176500000Y-113900000D03*
X164500000Y-98500000D03*
X162500000Y-102500000D03*
%TO.N,Net-(IC3-D+)*%
X118000000Y-117500000D03*
X173500000Y-134500000D03*
%TO.N,Net-(IC3-D-)*%
X154500000Y-131500000D03*
X158270674Y-133600000D03*
X147000000Y-131500000D03*
X174325735Y-134674265D03*
X158500000Y-131500000D03*
X119000000Y-115500000D03*
%TO.N,Net-(IC3-TXD)*%
X159500000Y-105000000D03*
X160000000Y-94000000D03*
X176000000Y-115100000D03*
X166000000Y-85000000D03*
X163500000Y-61500000D03*
X161000000Y-106500000D03*
X163000000Y-91000000D03*
X178400000Y-128124697D03*
%TO.N,Net-(IC3-DTR)*%
X174000000Y-126900000D03*
X174000000Y-128100000D03*
%TO.N,Net-(IC3-VBUS)*%
X176000000Y-135500000D03*
X123500000Y-115500000D03*
%TO.N,Net-(U3-VIN)*%
X116000000Y-96000000D03*
X116000000Y-98500000D03*
%TO.N,Net-(U1-IO27)*%
X160500000Y-110000000D03*
X148500000Y-98500000D03*
%TO.N,Net-(U2-RSTN)*%
X165000000Y-117500000D03*
X161500000Y-131500000D03*
%TO.N,Net-(U1-IO32)*%
X121500000Y-88673400D03*
X137500000Y-67000000D03*
%TO.N,Net-(U2-WAKEUP)*%
X162500000Y-132000000D03*
X117500000Y-96500000D03*
%TO.N,Net-(U2-EXTON)*%
X158000000Y-123000000D03*
X153000000Y-131500000D03*
%TO.N,Net-(U1-IO33)*%
X161500000Y-111500000D03*
X148000000Y-95000000D03*
%TO.N,Net-(U1-IO34)*%
X128500000Y-111500000D03*
X126000000Y-79500000D03*
X146500000Y-129500000D03*
X135000000Y-90500000D03*
X135000000Y-64000000D03*
X132500000Y-105000000D03*
X138000000Y-64000000D03*
X129500000Y-107000000D03*
%TO.N,Net-(U1-IO23)*%
X141000000Y-121000000D03*
X149500000Y-83500000D03*
X157000000Y-75500000D03*
X137500000Y-112500000D03*
%TO.N,Net-(U1-IO18)*%
X162000000Y-94000000D03*
X155000000Y-113000000D03*
X147500000Y-134000000D03*
X151010000Y-120990000D03*
X164000000Y-85500000D03*
X163500000Y-68500000D03*
X140500000Y-134000000D03*
X161500000Y-95500000D03*
X149500000Y-129000000D03*
X153500000Y-115000000D03*
%TO.N,Net-(U1-IO4)*%
X159000000Y-90500000D03*
X141000000Y-112400000D03*
X162500000Y-74000000D03*
X163000000Y-84600000D03*
X142500000Y-122500000D03*
X158000000Y-92000000D03*
%TO.N,Net-(U1-IO19)*%
X159000000Y-93000000D03*
X162500000Y-85500000D03*
X160390000Y-66890000D03*
X143000000Y-113000000D03*
X140000000Y-118500000D03*
X160500000Y-92000000D03*
%TO.N,Net-(U1-IO35)*%
X189000000Y-110500000D03*
X131000000Y-77500000D03*
%TO.N,Net-(U1-IO21)*%
X173500000Y-68500000D03*
X177500000Y-75000000D03*
%TO.N,Net-(U1-SENSOR_VP)*%
X127000000Y-77500000D03*
X188000000Y-114500000D03*
%TO.N,Net-(U1-IO22)*%
X172500000Y-66500000D03*
X176500000Y-76000000D03*
%TO.N,Net-(U1-IO17)*%
X177500000Y-71000000D03*
X188000000Y-70000000D03*
%TO.N,Net-(U1-IO25)*%
X133000000Y-77500000D03*
X189500000Y-109000000D03*
%TO.N,Net-(U1-IO5)*%
X174500000Y-69500000D03*
X178500000Y-74000000D03*
%TO.N,Net-(U1-IO26)*%
X189500000Y-107000000D03*
X134500000Y-77500000D03*
%TO.N,Net-(U1-IO16)*%
X186500000Y-67500000D03*
X178000000Y-72000000D03*
%TO.N,Net-(U1-SENSOR_VN)*%
X188500000Y-112500000D03*
X129000000Y-77500000D03*
%TO.N,Net-(U1-IO14)*%
X136000000Y-77500000D03*
X146500000Y-79500000D03*
%TO.N,Net-(U1-CMD)*%
X153000000Y-81000000D03*
X187000000Y-119000000D03*
%TO.N,Net-(U2-GPIO7)*%
X180000000Y-114500000D03*
X160000000Y-131500000D03*
X166000000Y-121000000D03*
X163500000Y-127000000D03*
%TO.N,Net-(U1-CLK)*%
X154500000Y-81000000D03*
X188000000Y-116000000D03*
%TO.N,Net-(U2-GPIO6{slash}EXTRXE{slash}SPIPHA)*%
X159000000Y-124000000D03*
X166500000Y-125500000D03*
X161000000Y-128500000D03*
X178000000Y-116000000D03*
%TO.N,Net-(U2-GPIO5{slash}EXTTXE{slash}SPIPOL)*%
X157000000Y-121500000D03*
X163000000Y-108500000D03*
%TD*%
D40*
%TO.N,/EN*%
X141000000Y-84500000D02*
X140000000Y-83500000D01*
X141000000Y-86500000D02*
X141000000Y-84500000D01*
X140905000Y-82595000D02*
X140000000Y-83500000D01*
X140000000Y-83500000D02*
X128500000Y-95000000D01*
X140905000Y-74510000D02*
X140905000Y-82500000D01*
X166500000Y-111500000D02*
X164000000Y-109000000D01*
X167000000Y-111500000D02*
X166500000Y-111500000D01*
X167500000Y-112000000D02*
X167000000Y-111500000D01*
X175000000Y-117542184D02*
X173457816Y-116000000D01*
X173457816Y-116000000D02*
X170000000Y-116000000D01*
X184049584Y-108492600D02*
X185627400Y-108492600D01*
X185627400Y-108492600D02*
X192000000Y-102120000D01*
X175000000Y-117542184D02*
X184049584Y-108492600D01*
X175000000Y-120000000D02*
X175000000Y-117542184D01*
%TO.N,Net-(IC3-DTR)*%
X166700001Y-129000000D02*
X166000000Y-128299999D01*
X174000000Y-128100000D02*
X173100000Y-129000000D01*
X173100000Y-129000000D02*
X166700001Y-129000000D01*
X166000000Y-128299999D02*
X166000000Y-127500000D01*
%TO.N,GND*%
X175900000Y-131500000D02*
X176650000Y-131500000D01*
X174900000Y-130500000D02*
X175900000Y-131500000D01*
X173000000Y-130500000D02*
X174900000Y-130500000D01*
X172611700Y-130888300D02*
X173000000Y-130500000D01*
%TO.N,/IO0*%
X170500000Y-122500000D02*
X169500000Y-121500000D01*
X170500000Y-124000000D02*
X170500000Y-122500000D01*
X169000000Y-120000000D02*
X170500000Y-120000000D01*
X170500000Y-120000000D02*
X171000000Y-120500000D01*
X169000000Y-121000000D02*
X169000000Y-120000000D01*
X169500000Y-121500000D02*
X169000000Y-121000000D01*
X172000000Y-121500000D02*
X169500000Y-121500000D01*
X172500000Y-122000000D02*
X172000000Y-121500000D01*
X173000000Y-122500000D02*
X173000000Y-123479000D01*
X172500000Y-122000000D02*
X173000000Y-122500000D01*
%TO.N,Net-(IC3-DTR)*%
X174000000Y-126900000D02*
X174000000Y-125570998D01*
X174000000Y-125570998D02*
X173950001Y-125520999D01*
%TO.N,Net-(U3-VOUT)*%
X119196600Y-96303400D02*
X119196600Y-97500000D01*
X123000000Y-92500000D02*
X119196600Y-96303400D01*
X124798200Y-92500000D02*
X123000000Y-92500000D01*
%TO.N,Net-(U1-IO35)*%
X131000000Y-70500000D02*
X135880000Y-65620000D01*
X131000000Y-77500000D02*
X131000000Y-70500000D01*
X135880000Y-65620000D02*
X140905000Y-65620000D01*
%TO.N,/EN*%
X134500000Y-69500000D02*
X134500000Y-68000000D01*
X135000000Y-70000000D02*
X134500000Y-69500000D01*
%TO.N,/IO0*%
X139000000Y-78000000D02*
X140000000Y-78000000D01*
X138500000Y-78500000D02*
X139000000Y-78000000D01*
X138500000Y-82400000D02*
X138500000Y-78500000D01*
%TO.N,Net-(U1-IO2)*%
X156000000Y-77500000D02*
X155370000Y-76870000D01*
X155370000Y-76870000D02*
X155370000Y-75760000D01*
X184500000Y-66500000D02*
X173500000Y-77500000D01*
X186860000Y-66500000D02*
X184500000Y-66500000D01*
X192000000Y-71640000D02*
X186860000Y-66500000D01*
X173500000Y-77500000D02*
X156000000Y-77500000D01*
%TO.N,Net-(U1-IO18)*%
X163160000Y-68160000D02*
X163500000Y-68500000D01*
X158405000Y-68160000D02*
X163160000Y-68160000D01*
%TO.N,Net-(U1-IO17)*%
X176500000Y-70700000D02*
X158405000Y-70700000D01*
X176800000Y-71000000D02*
X176500000Y-70700000D01*
X177500000Y-71000000D02*
X176800000Y-71000000D01*
%TO.N,Net-(U1-IO21)*%
X169350000Y-64350000D02*
X158405000Y-64350000D01*
X173500000Y-68500000D02*
X169350000Y-64350000D01*
%TO.N,/EN*%
X133000000Y-61500000D02*
X133960000Y-60540000D01*
X133000000Y-63500000D02*
X133000000Y-61500000D01*
X133960000Y-60540000D02*
X140905000Y-60540000D01*
X132500000Y-64000000D02*
X133000000Y-63500000D01*
%TO.N,Net-(IC3-VBUS)*%
X122000000Y-114000000D02*
X121500000Y-113500000D01*
X121500000Y-115640700D02*
X122000000Y-115140700D01*
X122000000Y-115140700D02*
X122000000Y-114000000D01*
%TO.N,GND*%
X125500000Y-116000000D02*
X125500000Y-111500000D01*
X121500000Y-120000000D02*
X125500000Y-116000000D01*
X125500000Y-111500000D02*
X122000000Y-108000000D01*
X122000000Y-107809600D02*
X122000000Y-108000000D01*
X126500000Y-102500000D02*
X126500000Y-103309600D01*
X126500000Y-103309600D02*
X122000000Y-107809600D01*
X121100000Y-108000000D02*
X119600000Y-106500000D01*
X122000000Y-108000000D02*
X121100000Y-108000000D01*
%TO.N,Net-(IC3-VDD)*%
X124000000Y-104000000D02*
X124000000Y-103349000D01*
X124000000Y-103349000D02*
X124849000Y-102500000D01*
%TO.N,Net-(U1-IO34)*%
X128500000Y-111500000D02*
X128500000Y-108000000D01*
X128500000Y-108000000D02*
X129500000Y-107000000D01*
%TO.N,Net-(Q2-Pad1)*%
X186500000Y-125500000D02*
X185000000Y-125500000D01*
X186000000Y-122000000D02*
X187500000Y-123500000D01*
X182000000Y-122000000D02*
X186000000Y-122000000D01*
X179000000Y-125000000D02*
X182000000Y-122000000D01*
X179000000Y-126136564D02*
X179000000Y-125000000D01*
X187500000Y-123500000D02*
X187500000Y-124500000D01*
X177242547Y-127894017D02*
X179000000Y-126136564D01*
X187500000Y-124500000D02*
X186500000Y-125500000D01*
X172049999Y-126450001D02*
X172000000Y-126500000D01*
X172049999Y-125520999D02*
X172049999Y-126450001D01*
%TO.N,Net-(IC3-VDD)*%
X168000000Y-140000000D02*
X167294402Y-139294402D01*
X170000000Y-140000000D02*
X168000000Y-140000000D01*
X171500000Y-138500000D02*
X170000000Y-140000000D01*
X173090000Y-138500000D02*
X171500000Y-138500000D01*
X167294402Y-139294402D02*
X167294402Y-138500000D01*
%TO.N,Net-(IC3-VBUS)*%
X177500000Y-135434314D02*
X177500000Y-134350000D01*
X176500000Y-136000000D02*
X176934314Y-136000000D01*
X176934314Y-136000000D02*
X177500000Y-135434314D01*
X176000000Y-135500000D02*
X176500000Y-136000000D01*
%TO.N,Net-(IC3-D-)*%
X175565686Y-132500000D02*
X176650000Y-132500000D01*
X175000000Y-133065686D02*
X175565686Y-132500000D01*
X174325735Y-134674265D02*
X175000000Y-134000000D01*
X175000000Y-134000000D02*
X175000000Y-133065686D01*
%TO.N,Net-(U2-WAKEUP)*%
X162899999Y-137600001D02*
X156500000Y-137600001D01*
X163500000Y-137000000D02*
X162899999Y-137600001D01*
X163500000Y-133000000D02*
X163500000Y-137000000D01*
X162500000Y-132000000D02*
X163500000Y-133000000D01*
%TO.N,Net-(IC3-D-)*%
X153000000Y-130000000D02*
X154500000Y-131500000D01*
X152000000Y-130000000D02*
X153000000Y-130000000D01*
X150500000Y-131500000D02*
X152000000Y-130000000D01*
X147000000Y-131500000D02*
X150500000Y-131500000D01*
%TO.N,GND*%
X155100000Y-115000000D02*
X155600000Y-114500000D01*
X154000000Y-115500000D02*
X154500000Y-115000000D01*
X154000000Y-116500000D02*
X154000000Y-115500000D01*
X154500000Y-115000000D02*
X155100000Y-115000000D01*
X135000000Y-137500000D02*
X135500000Y-138000000D01*
X135000000Y-135500000D02*
X135000000Y-137500000D01*
X135699999Y-134800001D02*
X135000000Y-135500000D01*
X143892202Y-134800001D02*
X135699999Y-134800001D01*
X135500000Y-138000000D02*
X137000000Y-138000000D01*
%TO.N,Net-(IC3-DTR)*%
X176600000Y-128100000D02*
X174000000Y-128100000D01*
X177500000Y-129000000D02*
X176600000Y-128100000D01*
X177500000Y-129650000D02*
X177500000Y-129000000D01*
%TO.N,Net-(U1-SD1)*%
X152830000Y-76709300D02*
X152830000Y-75760000D01*
X155620700Y-79500000D02*
X152830000Y-76709300D01*
X176000000Y-79500000D02*
X155620700Y-79500000D01*
X181767400Y-85267400D02*
X176000000Y-79500000D01*
X185732600Y-85267400D02*
X181767400Y-85267400D01*
X189885200Y-89420000D02*
X185732600Y-85267400D01*
X192000000Y-89420000D02*
X189885200Y-89420000D01*
%TO.N,Net-(U1-IO15)*%
X154100000Y-76709300D02*
X154100000Y-75760000D01*
X155890700Y-78500000D02*
X154100000Y-76709300D01*
X177000000Y-78500000D02*
X155890700Y-78500000D01*
X186272600Y-82727400D02*
X181227400Y-82727400D01*
X190425200Y-86880000D02*
X186272600Y-82727400D01*
X181227400Y-82727400D02*
X177000000Y-78500000D01*
X192000000Y-86880000D02*
X190425200Y-86880000D01*
%TO.N,*%
X152625000Y-87400000D02*
X152625000Y-90600000D01*
%TO.N,GND*%
X154000000Y-113000000D02*
X151500000Y-113000000D01*
X147375000Y-87400000D02*
X147375000Y-86375000D01*
X170000000Y-118500000D02*
X168500000Y-118500000D01*
X137399999Y-137600001D02*
X137000000Y-138000000D01*
X150500000Y-65340000D02*
X150500000Y-66865000D01*
X127302799Y-93302799D02*
X127302799Y-101697201D01*
X110800000Y-82900000D02*
X110800000Y-77700000D01*
X119000000Y-82000000D02*
X119000000Y-84149100D01*
X141635000Y-58000000D02*
X147450000Y-63815000D01*
X178500000Y-131500000D02*
X176650000Y-131500000D01*
X147450000Y-65340000D02*
X147450000Y-63815000D01*
X143940000Y-82440000D02*
X143940000Y-75760000D01*
X151000000Y-113500000D02*
X151000000Y-113600000D01*
X145411402Y-134700001D02*
X145311402Y-134800001D01*
X147450000Y-63815000D02*
X148975000Y-63815000D01*
X151000000Y-113600000D02*
X150100000Y-114500000D01*
X143000000Y-114500000D02*
X144600000Y-114500000D01*
X163500000Y-120000000D02*
X163500000Y-119190400D01*
X131500000Y-62000000D02*
X131500000Y-59000000D01*
X179000000Y-132000000D02*
X178500000Y-131500000D01*
X167500000Y-119849000D02*
X167349000Y-120000000D01*
X167349000Y-119651000D02*
X167349000Y-120000000D01*
X174500000Y-122500000D02*
X174500000Y-121960600D01*
X155600000Y-114500000D02*
X155500000Y-114500000D01*
X120375000Y-58125000D02*
X121000000Y-57500000D01*
X163500000Y-121000000D02*
X156500000Y-128000000D01*
X144000000Y-70315000D02*
X147450000Y-66865000D01*
X148975000Y-65340000D02*
X148975000Y-63815000D01*
X118500000Y-62000000D02*
X120375000Y-60125000D01*
X147450000Y-66865000D02*
X147450000Y-65340000D01*
X150500000Y-63815000D02*
X150500000Y-65340000D01*
X145411402Y-128319200D02*
X145411402Y-134700001D01*
X171500000Y-120000000D02*
X170000000Y-118500000D01*
X155500000Y-114500000D02*
X154000000Y-113000000D01*
X174500000Y-121960600D02*
X174039400Y-121500000D01*
X148600000Y-113000000D02*
X145000000Y-113000000D01*
X144600000Y-113400000D02*
X144600000Y-114500000D01*
X167349000Y-120000000D02*
X163500000Y-120000000D01*
X120500000Y-122000000D02*
X121500000Y-121000000D01*
X119873100Y-84149100D02*
X119000000Y-84149100D01*
X145296101Y-126999998D02*
X145296101Y-128203899D01*
X163500000Y-119190400D02*
X161809600Y-117500000D01*
X145296101Y-128203899D02*
X145411402Y-128319200D01*
X119600000Y-106390000D02*
X119600000Y-106500000D01*
X147375000Y-87400000D02*
X146925000Y-87400000D01*
X126500000Y-92500000D02*
X126500000Y-90776000D01*
X160500000Y-117500000D02*
X160325735Y-117325735D01*
X138500000Y-114500000D02*
X126500000Y-102500000D01*
X145000000Y-113000000D02*
X144600000Y-113400000D01*
X126500000Y-90776000D02*
X119873100Y-84149100D01*
X143940000Y-75940000D02*
X144000000Y-76000000D01*
X121000000Y-57500000D02*
X130240000Y-57500000D01*
X147375000Y-86375000D02*
X144000000Y-83000000D01*
X131500000Y-59000000D02*
X132000000Y-59000000D01*
X139100000Y-114500000D02*
X138500000Y-114500000D01*
X179000000Y-121500000D02*
X174039400Y-121500000D01*
X143892202Y-139000000D02*
X143892202Y-137600001D01*
X119500000Y-122000000D02*
X120500000Y-122000000D01*
X150500000Y-63815000D02*
X156315000Y-58000000D01*
X150100000Y-114500000D02*
X148600000Y-113000000D01*
X144000000Y-83000000D02*
X144000000Y-82500000D01*
X143940000Y-75760000D02*
X143940000Y-75940000D01*
X140600000Y-113000000D02*
X141500000Y-113000000D01*
X156500000Y-128000000D02*
X156500000Y-129200000D01*
X117500000Y-120000000D02*
X119500000Y-122000000D01*
X144000000Y-82500000D02*
X143940000Y-82440000D01*
X174039400Y-121500000D02*
X173349000Y-120809600D01*
X145311402Y-134800001D02*
X143892202Y-134800001D01*
X163500000Y-120000000D02*
X163500000Y-121000000D01*
X148975000Y-66865000D02*
X147450000Y-66865000D01*
X180000000Y-120000000D02*
X180000000Y-120500000D01*
X132000000Y-59000000D02*
X133000000Y-58000000D01*
X148975000Y-63815000D02*
X150500000Y-63815000D01*
X114372500Y-120000000D02*
X117500000Y-120000000D01*
X140905000Y-58000000D02*
X141635000Y-58000000D01*
X173349000Y-120809600D02*
X173349000Y-120000000D01*
X173349000Y-120000000D02*
X171500000Y-120000000D01*
X139100000Y-114500000D02*
X140600000Y-113000000D01*
X141500000Y-113000000D02*
X143000000Y-114500000D01*
X150500000Y-66865000D02*
X148975000Y-66865000D01*
X120375000Y-60125000D02*
X120375000Y-59400000D01*
X121500000Y-121000000D02*
X121500000Y-120000000D01*
X133000000Y-58000000D02*
X140905000Y-58000000D01*
X127302799Y-101697201D02*
X126500000Y-102500000D01*
X144000000Y-76000000D02*
X144000000Y-70315000D01*
X143892202Y-137600001D02*
X137399999Y-137600001D01*
X130240000Y-57500000D02*
X131500000Y-58760000D01*
X120375000Y-59400000D02*
X120375000Y-58125000D01*
X168500000Y-118500000D02*
X167349000Y-119651000D01*
X113000000Y-99790000D02*
X119600000Y-106390000D01*
X180000000Y-120500000D02*
X179000000Y-121500000D01*
X126500000Y-92500000D02*
X127302799Y-93302799D01*
X151500000Y-113000000D02*
X151000000Y-113500000D01*
X170876200Y-130888300D02*
X170876200Y-133894900D01*
X156315000Y-58000000D02*
X158405000Y-58000000D01*
X131500000Y-58760000D02*
X131500000Y-59000000D01*
X161809600Y-117500000D02*
X160500000Y-117500000D01*
%TO.N,Net-(IC3-VDD)*%
X128000000Y-63000000D02*
X129000000Y-62000000D01*
X161500000Y-127019199D02*
X161500000Y-125000000D01*
X169174400Y-133894900D02*
X169174400Y-130888300D01*
X176650000Y-133500000D02*
X176650000Y-133000000D01*
X160500000Y-120500000D02*
X159000000Y-119000000D01*
X160500000Y-121349000D02*
X161849000Y-120000000D01*
X167294402Y-138500000D02*
X167294402Y-135774898D01*
X133730000Y-59270000D02*
X140905000Y-59270000D01*
X173090000Y-138500000D02*
X173090000Y-137060000D01*
X156500000Y-131999999D02*
X156500000Y-133399999D01*
X160500000Y-121500000D02*
X160500000Y-120500000D01*
X129860000Y-59000000D02*
X129000000Y-59000000D01*
X124794402Y-97500000D02*
X124794402Y-102445402D01*
X160500000Y-122000000D02*
X160500000Y-121500000D01*
X133500000Y-59500000D02*
X133730000Y-59270000D01*
X169174400Y-130888300D02*
X156788301Y-130888300D01*
X125000000Y-95500000D02*
X125000000Y-95000000D01*
X124794402Y-95705598D02*
X125000000Y-95500000D01*
X124500000Y-71000000D02*
X127500000Y-68000000D01*
X129000000Y-62000000D02*
X129860000Y-62000000D01*
X156500000Y-130599999D02*
X157919200Y-130599999D01*
X124794402Y-97500000D02*
X121000000Y-97500000D01*
X167294402Y-135774898D02*
X169174400Y-133894900D01*
X124794402Y-97500000D02*
X124794402Y-95705598D01*
X173090000Y-137060000D02*
X176650000Y-133500000D01*
X157919200Y-130599999D02*
X161500000Y-127019199D01*
X156788301Y-130888300D02*
X156500000Y-130599999D01*
X124794402Y-102445402D02*
X124849000Y-102500000D01*
X156500000Y-130599999D02*
X156500000Y-131999999D01*
X124500000Y-81000000D02*
X124500000Y-71000000D01*
X160500000Y-121500000D02*
X160500000Y-121349000D01*
X129000000Y-59000000D02*
X128000000Y-60000000D01*
X129860000Y-62000000D02*
X129860000Y-59000000D01*
%TO.N,/EN*%
X120375000Y-62600000D02*
X121775000Y-64000000D01*
X121775000Y-64000000D02*
X132500000Y-64000000D01*
X133000000Y-64500000D02*
X132500000Y-64000000D01*
X133000000Y-65500000D02*
X133000000Y-64500000D01*
X138510000Y-74510000D02*
X138000000Y-74000000D01*
X126500000Y-96000000D02*
X126500000Y-97500000D01*
X140905000Y-74510000D02*
X138510000Y-74510000D01*
%TO.N,/IO0*%
X169000000Y-138500000D02*
X172500000Y-135000000D01*
X172500000Y-135000000D02*
X172500000Y-132000000D01*
X160500000Y-104500000D02*
X160500000Y-98000000D01*
X172500000Y-132000000D02*
X172500000Y-132100000D01*
X160500000Y-75000000D02*
X160000000Y-75000000D01*
X138500000Y-83600000D02*
X138500000Y-82400000D01*
X169500000Y-117000000D02*
X166500000Y-114000000D01*
X147375000Y-90600000D02*
X144500000Y-87725000D01*
X144500000Y-87725000D02*
X144500000Y-84500000D01*
X160000000Y-75000000D02*
X159510000Y-74510000D01*
X159510000Y-74510000D02*
X158405000Y-74510000D01*
X161000000Y-74500000D02*
X160500000Y-75000000D01*
X172000000Y-117000000D02*
X169500000Y-117000000D01*
%TO.N,Net-(IC3-RTS)*%
X180000000Y-125500000D02*
X181705598Y-123794402D01*
X180000000Y-125500000D02*
X180000000Y-126500000D01*
X179500000Y-127000000D02*
X179500000Y-129650000D01*
X180000000Y-126500000D02*
X179500000Y-127000000D01*
X181705598Y-123794402D02*
X185000000Y-123794402D01*
%TO.N,Net-(IC3-SUSPENDB)*%
X178294402Y-120000000D02*
X177500000Y-120000000D01*
X179000000Y-136000000D02*
X179000000Y-134350000D01*
X177500000Y-120000000D02*
X177000000Y-120500000D01*
X180500000Y-137500000D02*
X179000000Y-136000000D01*
%TO.N,Net-(IC3-RXD)*%
X167000000Y-92500000D02*
X167000000Y-84600000D01*
X176500000Y-113900000D02*
X173900000Y-113900000D01*
X177500000Y-122500000D02*
X179000000Y-122500000D01*
X164500000Y-100500000D02*
X164500000Y-98500000D01*
X166500000Y-63000000D02*
X166420000Y-63080000D01*
X173900000Y-113900000D02*
X168000000Y-108000000D01*
X179000000Y-129650000D02*
X179000000Y-127500000D01*
X166420000Y-63080000D02*
X158405000Y-63080000D01*
X162500000Y-102500000D02*
X164500000Y-100500000D01*
X179000000Y-122500000D02*
X180000000Y-121500000D01*
X179000000Y-127500000D02*
X178900000Y-127500000D01*
X166000000Y-93500000D02*
X167000000Y-92500000D01*
%TO.N,Net-(IC3-D+)*%
X175500000Y-132000000D02*
X173500000Y-134000000D01*
X173500000Y-134000000D02*
X173500000Y-134500000D01*
X176650000Y-132000000D02*
X175500000Y-132000000D01*
X118000000Y-117500000D02*
X114372500Y-117500000D01*
%TO.N,Net-(IC3-D-)*%
X158500000Y-133500000D02*
X158370674Y-133500000D01*
X158500000Y-131500000D02*
X158500000Y-133500000D01*
X114372500Y-115500000D02*
X119000000Y-115500000D01*
X158370674Y-133500000D02*
X158270674Y-133600000D01*
%TO.N,Net-(IC3-TXD)*%
X168751471Y-115100000D02*
X161000000Y-107348529D01*
X163500000Y-87500000D02*
X166000000Y-85000000D01*
X163000000Y-91000000D02*
X163500000Y-90500000D01*
X178500000Y-129650000D02*
X178500000Y-128000000D01*
X163500000Y-61500000D02*
X163190000Y-61810000D01*
X163500000Y-90500000D02*
X163500000Y-87500000D01*
X161000000Y-107348529D02*
X161000000Y-106500000D01*
X176000000Y-115100000D02*
X168751471Y-115100000D01*
X178500000Y-128000000D02*
X178500000Y-128024697D01*
X163190000Y-61810000D02*
X158405000Y-61810000D01*
X178500000Y-128024697D02*
X178400000Y-128124697D01*
X159500000Y-105000000D02*
X159500000Y-94500000D01*
X159500000Y-94500000D02*
X160000000Y-94000000D01*
%TO.N,Net-(IC3-VBUS)*%
X119696600Y-120000000D02*
X119696600Y-117444100D01*
X121500000Y-115640700D02*
X123359300Y-115640700D01*
X123359300Y-115640700D02*
X123500000Y-115500000D01*
X119696600Y-117444100D02*
X121500000Y-115640700D01*
%TO.N,Net-(IC3-RSTB)*%
X175000000Y-138500000D02*
X178000000Y-135500000D01*
X178000000Y-135500000D02*
X178000000Y-134350000D01*
%TO.N,Net-(J1-VCC)*%
X114372500Y-113000000D02*
X119196600Y-113000000D01*
X119196600Y-113000000D02*
X119696600Y-113500000D01*
%TO.N,Net-(U3-VIN)*%
X118550900Y-86300000D02*
X119000000Y-85850900D01*
X113000000Y-94500000D02*
X110800000Y-92300000D01*
X116000000Y-96000000D02*
X115210000Y-95210000D01*
X119590000Y-102500000D02*
X119590000Y-102090000D01*
X110800000Y-86300000D02*
X118550900Y-86300000D01*
X113000000Y-95210000D02*
X113000000Y-94500000D01*
X115210000Y-95210000D02*
X113000000Y-95210000D01*
X119590000Y-102090000D02*
X116000000Y-98500000D01*
X110800000Y-92300000D02*
X110800000Y-86300000D01*
%TO.N,Net-(LED1-A)*%
X121500000Y-102500000D02*
X121500000Y-106500000D01*
%TO.N,Net-(D1-A)*%
X153500000Y-118130000D02*
X153870000Y-118130000D01*
X153870000Y-118130000D02*
X157500000Y-114500000D01*
%TO.N,Net-(D2-A)*%
X150000000Y-116500000D02*
X152000000Y-114500000D01*
X150000000Y-118000000D02*
X150000000Y-116500000D01*
%TO.N,Net-(D3-A)*%
X147000000Y-115000000D02*
X146500000Y-114500000D01*
X147000000Y-118130000D02*
X147000000Y-115000000D01*
%TO.N,Net-(D4-A)*%
X143500000Y-117000000D02*
X141000000Y-114500000D01*
X143500000Y-118065000D02*
X143500000Y-117000000D01*
%TO.N,Net-(Q1-Pad1)*%
X177500000Y-125500000D02*
X175500000Y-127500000D01*
X178099998Y-125500000D02*
X177500000Y-125500000D01*
X175500000Y-127500000D02*
X167705598Y-127500000D01*
%TO.N,Net-(U2-GPIO2{slash}RXLED)*%
X150000000Y-126496098D02*
X149496100Y-126999998D01*
X150000000Y-119870000D02*
X150000000Y-126496098D01*
%TO.N,Net-(U2-GPIO3{slash}TXLED)*%
X150896102Y-122603898D02*
X150896102Y-126999998D01*
X153500000Y-120000000D02*
X150896102Y-122603898D01*
%TO.N,Net-(U2-GPIO0{slash}RXOKLED)*%
X143500000Y-119935000D02*
X146696100Y-123131100D01*
X146696100Y-123131100D02*
X146696100Y-126999998D01*
%TO.N,Net-(U2-GPIO1{slash}SFDLED)*%
X147000000Y-120000000D02*
X148096100Y-121096100D01*
X148096100Y-121096100D02*
X148096100Y-126999998D01*
%TO.N,Net-(U1-IO27)*%
X160500000Y-110000000D02*
X161404800Y-110000000D01*
X142000000Y-72115700D02*
X142000000Y-92000000D01*
X141854300Y-71970000D02*
X142000000Y-72115700D01*
X142000000Y-92000000D02*
X148500000Y-98500000D01*
X164500000Y-113095200D02*
X164500000Y-113696800D01*
X140905000Y-71970000D02*
X141854300Y-71970000D01*
X161404800Y-110000000D02*
X164500000Y-113095200D01*
%TO.N,Net-(U2-RSTN)*%
X157919200Y-136200001D02*
X161500000Y-132619201D01*
X156500000Y-136200001D02*
X157919200Y-136200001D01*
X164500000Y-116500000D02*
X164500000Y-115500000D01*
X165000000Y-117000000D02*
X164500000Y-116500000D01*
X161500000Y-132619201D02*
X161500000Y-131500000D01*
X165000000Y-117500000D02*
X165000000Y-117000000D01*
%TO.N,Net-(U1-IO32)*%
X137610000Y-66890000D02*
X140905000Y-66890000D01*
X118598400Y-92500000D02*
X118598400Y-91575000D01*
X121500000Y-88500000D02*
X121500000Y-88673400D01*
X137500000Y-67000000D02*
X137610000Y-66890000D01*
X118598400Y-91575000D02*
X121500000Y-88673400D01*
%TO.N,Net-(U2-WAKEUP)*%
X120401600Y-93598400D02*
X117500000Y-96500000D01*
X120401600Y-92500000D02*
X120401600Y-93598400D01*
%TO.N,Net-(U2-EXTON)*%
X153000000Y-137500000D02*
X154500000Y-139000000D01*
X160450800Y-116450800D02*
X159549200Y-116450800D01*
X159400000Y-116600000D02*
X159400000Y-117501600D01*
X154500000Y-139000000D02*
X156500000Y-139000000D01*
X158000000Y-118901600D02*
X158000000Y-123000000D01*
X159549200Y-116450800D02*
X159400000Y-116600000D01*
X159400000Y-117501600D02*
X159165685Y-117735914D01*
X153000000Y-131500000D02*
X153000000Y-137500000D01*
X159165685Y-117735914D02*
X158000000Y-118901600D01*
X161401600Y-115500000D02*
X160450800Y-116450800D01*
%TO.N,Net-(U1-IO33)*%
X161500000Y-111500000D02*
X161500000Y-112000000D01*
X143000000Y-69305700D02*
X143000000Y-90000000D01*
X141854300Y-68160000D02*
X143000000Y-69305700D01*
X161401600Y-112098400D02*
X161401600Y-113696800D01*
X143000000Y-90000000D02*
X148000000Y-95000000D01*
X161500000Y-112000000D02*
X161401600Y-112098400D01*
X140905000Y-68160000D02*
X141854300Y-68160000D01*
%TO.N,Net-(U1-IO34)*%
X143892202Y-136200001D02*
X145311402Y-136200001D01*
X146000000Y-130000000D02*
X146500000Y-129500000D01*
X145311402Y-136200001D02*
X146000000Y-135511403D01*
X127900000Y-97600000D02*
X135000000Y-90500000D01*
X146000000Y-135511403D02*
X146000000Y-130000000D01*
X126000000Y-79500000D02*
X126000000Y-73348529D01*
X138000000Y-64000000D02*
X138350000Y-64350000D01*
X135000000Y-64348529D02*
X135000000Y-64000000D01*
X143892202Y-136200001D02*
X137094401Y-136200001D01*
X127900000Y-100400000D02*
X127900000Y-97600000D01*
X138350000Y-64350000D02*
X140905000Y-64350000D01*
X126000000Y-73348529D02*
X135000000Y-64348529D01*
X132500000Y-105000000D02*
X127900000Y-100400000D01*
X137094401Y-136200001D02*
X137000000Y-136294402D01*
%TO.N,Net-(U1-IO23)*%
X141000000Y-121000000D02*
X141000000Y-130000000D01*
X141599999Y-130599999D02*
X143892202Y-130599999D01*
X141000000Y-130000000D02*
X141599999Y-130599999D01*
X149500000Y-83500000D02*
X149500000Y-100500000D01*
X149500000Y-100500000D02*
X137500000Y-112500000D01*
X157455700Y-59270000D02*
X157000000Y-59725700D01*
X158405000Y-59270000D02*
X157455700Y-59270000D01*
X157000000Y-59725700D02*
X157000000Y-75500000D01*
%TO.N,Net-(U1-IO18)*%
X153500000Y-115000000D02*
X151010000Y-117490000D01*
X151000000Y-121000000D02*
X151010000Y-120990000D01*
X151010000Y-117490000D02*
X151010000Y-120990000D01*
X140500000Y-134000000D02*
X141100001Y-133399999D01*
X146400000Y-132900000D02*
X147500000Y-134000000D01*
X148500000Y-129000000D02*
X146400000Y-131100000D01*
X141100001Y-133399999D02*
X143892202Y-133399999D01*
X161500000Y-104348529D02*
X155000000Y-110848529D01*
X149500000Y-129000000D02*
X148500000Y-129000000D01*
X155000000Y-110848529D02*
X155000000Y-113000000D01*
X164000000Y-85500000D02*
X162900000Y-86600000D01*
X162000000Y-91065686D02*
X162000000Y-94000000D01*
X162900000Y-90165686D02*
X162000000Y-91065686D01*
X161500000Y-95500000D02*
X161500000Y-104348529D01*
X146400000Y-131100000D02*
X146400000Y-132900000D01*
X162900000Y-86600000D02*
X162900000Y-90165686D01*
%TO.N,Net-(U1-IO4)*%
X163000000Y-84600000D02*
X162551471Y-84600000D01*
X142500000Y-122500000D02*
X142500000Y-127000000D01*
X141700000Y-129200000D02*
X143892202Y-129200000D01*
X158405000Y-73240000D02*
X162240000Y-73240000D01*
X141500000Y-129000000D02*
X141700000Y-129200000D01*
X141500000Y-128000000D02*
X141500000Y-129000000D01*
X162551471Y-84600000D02*
X159000000Y-88151471D01*
X141000000Y-112500000D02*
X141000000Y-112400000D01*
X159000000Y-88151471D02*
X159000000Y-90500000D01*
X162500000Y-73500000D02*
X162500000Y-74000000D01*
X142500000Y-127000000D02*
X141500000Y-128000000D01*
X158000000Y-95500000D02*
X141000000Y-112500000D01*
X158000000Y-92000000D02*
X158000000Y-95500000D01*
X162500000Y-73500000D02*
X162240000Y-73240000D01*
%TO.N,Net-(U1-IO19)*%
X162500000Y-85500000D02*
X162500000Y-90000000D01*
X158405000Y-66890000D02*
X160390000Y-66890000D01*
X162500000Y-90000000D02*
X160500000Y-92000000D01*
X143500000Y-112500000D02*
X143000000Y-113000000D01*
X140000000Y-130500000D02*
X141499999Y-131999999D01*
X159000000Y-101500000D02*
X148000000Y-112500000D01*
X141499999Y-131999999D02*
X143892202Y-131999999D01*
X160500000Y-67000000D02*
X160390000Y-66890000D01*
X148000000Y-112500000D02*
X143500000Y-112500000D01*
X140000000Y-118500000D02*
X140000000Y-130500000D01*
X159000000Y-93000000D02*
X159000000Y-101500000D01*
%TO.N,Net-(U3-VOUT)*%
X113000000Y-97500000D02*
X119196600Y-97500000D01*
%TO.N,Net-(U1-IO35)*%
X190780000Y-112280000D02*
X189000000Y-110500000D01*
X192000000Y-112280000D02*
X190780000Y-112280000D01*
%TO.N,Net-(U1-SD0)*%
X151560000Y-76709300D02*
X151560000Y-75760000D01*
X175000000Y-81000000D02*
X155850700Y-81000000D01*
X155850700Y-81000000D02*
X151560000Y-76709300D01*
X189103016Y-91960000D02*
X192000000Y-91960000D01*
X181807400Y-87807400D02*
X175000000Y-81000000D01*
X184950416Y-87807400D02*
X181807400Y-87807400D01*
X184950416Y-87807400D02*
X189103016Y-91960000D01*
%TO.N,Net-(U1-IO21)*%
X177887400Y-75387400D02*
X177500000Y-75000000D01*
X185587400Y-75387400D02*
X177887400Y-75387400D01*
X192000000Y-81800000D02*
X185587400Y-75387400D01*
%TO.N,Net-(U1-SENSOR_VP)*%
X138558629Y-61810000D02*
X140905000Y-61810000D01*
X127000000Y-73368629D02*
X138558629Y-61810000D01*
X192000000Y-117360000D02*
X190860000Y-117360000D01*
X190860000Y-117360000D02*
X188000000Y-114500000D01*
X127000000Y-77500000D02*
X127000000Y-73368629D01*
%TO.N,Net-(U1-SD3)*%
X187387400Y-92887400D02*
X185000000Y-90500000D01*
X174000000Y-82000000D02*
X153040700Y-82000000D01*
X147750000Y-76709300D02*
X147750000Y-75760000D01*
X190387400Y-92887400D02*
X187387400Y-92887400D01*
X182500000Y-90500000D02*
X174000000Y-82000000D01*
X185000000Y-90500000D02*
X182500000Y-90500000D01*
X192000000Y-94500000D02*
X190387400Y-92887400D01*
X153040700Y-82000000D02*
X147750000Y-76709300D01*
%TO.N,Net-(U1-IO22)*%
X172500000Y-66500000D02*
X166540000Y-60540000D01*
X181052600Y-80552600D02*
X176500000Y-76000000D01*
X192000000Y-84340000D02*
X188212600Y-80552600D01*
X188212600Y-80552600D02*
X181052600Y-80552600D01*
X166540000Y-60540000D02*
X158405000Y-60540000D01*
%TO.N,Net-(U1-SD2)*%
X189103016Y-97040000D02*
X184950416Y-92887400D01*
X146480000Y-76709300D02*
X146480000Y-75760000D01*
X184950416Y-92887400D02*
X182887400Y-92887400D01*
X192000000Y-97040000D02*
X189103016Y-97040000D01*
X152770700Y-83000000D02*
X146480000Y-76709300D01*
X182887400Y-92887400D02*
X173000000Y-83000000D01*
X173000000Y-83000000D02*
X152770700Y-83000000D01*
%TO.N,Net-(U1-IO17)*%
X189000000Y-73720000D02*
X189000000Y-71000000D01*
X192000000Y-76720000D02*
X189000000Y-73720000D01*
X188500000Y-70500000D02*
X188000000Y-70000000D01*
X189000000Y-71000000D02*
X188000000Y-70000000D01*
X188500000Y-70500000D02*
X189000000Y-71000000D01*
%TO.N,Net-(U1-IO25)*%
X138504314Y-69430000D02*
X140905000Y-69430000D01*
X190240000Y-109740000D02*
X189500000Y-109000000D01*
X133000000Y-74934314D02*
X138504314Y-69430000D01*
X192000000Y-109740000D02*
X190240000Y-109740000D01*
X133000000Y-77500000D02*
X133000000Y-74934314D01*
%TO.N,Net-(U1-IO5)*%
X192000000Y-79260000D02*
X188000000Y-75260000D01*
X184000000Y-68500000D02*
X178500000Y-74000000D01*
X185000000Y-68500000D02*
X184000000Y-68500000D01*
X188000000Y-75260000D02*
X188000000Y-71500000D01*
X174500000Y-69500000D02*
X174430000Y-69430000D01*
X188000000Y-71500000D02*
X185000000Y-68500000D01*
X174430000Y-69430000D02*
X158405000Y-69430000D01*
%TO.N,Net-(U1-IO26)*%
X134500000Y-77500000D02*
X134500000Y-74000000D01*
X192000000Y-107200000D02*
X189700000Y-107200000D01*
X189700000Y-107200000D02*
X189500000Y-107000000D01*
X137800000Y-70700000D02*
X140905000Y-70700000D01*
X134500000Y-74000000D02*
X137800000Y-70700000D01*
%TO.N,Net-(U1-IO16)*%
X190000000Y-72180000D02*
X190000000Y-71000000D01*
X178000000Y-72000000D02*
X177970000Y-71970000D01*
X190000000Y-71000000D02*
X186500000Y-67500000D01*
X177970000Y-71970000D02*
X158405000Y-71970000D01*
X192000000Y-74180000D02*
X190000000Y-72180000D01*
%TO.N,Net-(U1-SENSOR_VN)*%
X192000000Y-114820000D02*
X190820000Y-114820000D01*
X137854314Y-63080000D02*
X140905000Y-63080000D01*
X190820000Y-114820000D02*
X188500000Y-112500000D01*
X129000000Y-77500000D02*
X129000000Y-71934314D01*
X129000000Y-71934314D02*
X137854314Y-63080000D01*
%TO.N,Net-(U1-IO13)*%
X145210000Y-76709300D02*
X145210000Y-75760000D01*
X152500700Y-84000000D02*
X145210000Y-76709300D01*
X171500000Y-84000000D02*
X152500700Y-84000000D01*
X183000000Y-95500000D02*
X171500000Y-84000000D01*
X184657816Y-95500000D02*
X183000000Y-95500000D01*
X192000000Y-99580000D02*
X188737816Y-99580000D01*
X188737816Y-99580000D02*
X184657816Y-95500000D01*
%TO.N,Net-(U1-IO14)*%
X192290416Y-100872600D02*
X167872600Y-100872600D01*
X137760000Y-73240000D02*
X140905000Y-73240000D01*
X167872600Y-100872600D02*
X146500000Y-79500000D01*
X192000000Y-104660000D02*
X193087400Y-103572600D01*
X136000000Y-77500000D02*
X136000000Y-75000000D01*
X193087400Y-103572600D02*
X193087400Y-101669584D01*
X193087400Y-101669584D02*
X192290416Y-100872600D01*
X136000000Y-75000000D02*
X137760000Y-73240000D01*
%TO.N,Net-(U2-GPIO4{slash}EXTPA)*%
X152296102Y-124039812D02*
X159000000Y-117335914D01*
X152296102Y-126999998D02*
X152296102Y-124039812D01*
X162000000Y-104500000D02*
X184500000Y-104500000D01*
X159000000Y-107500000D02*
X162000000Y-104500000D01*
X159000000Y-117335914D02*
X159000000Y-107500000D01*
%TO.N,Net-(U1-CMD)*%
X149020000Y-77020000D02*
X153000000Y-81000000D01*
X149020000Y-75760000D02*
X149020000Y-77020000D01*
X186300000Y-119000000D02*
X184500000Y-117200000D01*
X187000000Y-119000000D02*
X186300000Y-119000000D01*
%TO.N,Net-(U2-GPIO7)*%
X180000000Y-114500000D02*
X182380000Y-112120000D01*
X163500000Y-127000000D02*
X166000000Y-124500000D01*
X156500000Y-134800001D02*
X157919200Y-134800001D01*
X182380000Y-112120000D02*
X184500000Y-112120000D01*
X160000000Y-132719201D02*
X160000000Y-131500000D01*
X166000000Y-124500000D02*
X166000000Y-121000000D01*
X157919200Y-134800001D02*
X160000000Y-132719201D01*
%TO.N,Net-(U1-CLK)*%
X186660000Y-114660000D02*
X184500000Y-114660000D01*
X188000000Y-116000000D02*
X186660000Y-114660000D01*
X150290000Y-75760000D02*
X150290000Y-76790000D01*
X150290000Y-76790000D02*
X154500000Y-81000000D01*
%TO.N,Net-(U2-GPIO6{slash}EXTRXE{slash}SPIPHA)*%
X184500000Y-109580000D02*
X184071471Y-109580000D01*
X155096101Y-125903899D02*
X155096101Y-126999998D01*
X166297202Y-125500000D02*
X163500000Y-128297202D01*
X178000000Y-115651471D02*
X178000000Y-116000000D01*
X157000000Y-124000000D02*
X155096101Y-125903899D01*
X163500000Y-128297202D02*
X161202798Y-128297202D01*
X166500000Y-125500000D02*
X166297202Y-125500000D01*
X161202798Y-128297202D02*
X161000000Y-128500000D01*
X159000000Y-124000000D02*
X157000000Y-124000000D01*
X184071471Y-109580000D02*
X178000000Y-115651471D01*
%TO.N,Net-(U2-GPIO5{slash}EXTTXE{slash}SPIPOL)*%
X153696102Y-126999998D02*
X153696102Y-125580798D01*
X153696102Y-125580798D02*
X157000000Y-122276900D01*
X164960000Y-107040000D02*
X184500000Y-107040000D01*
X163500000Y-108500000D02*
X164960000Y-107040000D01*
X163000000Y-108500000D02*
X163500000Y-108500000D01*
X157000000Y-122276900D02*
X157000000Y-121500000D01*
%TO.N,/EN*%
X182000000Y-119500000D02*
X182000000Y-120508000D01*
X182000000Y-120508000D02*
X179049999Y-123458001D01*
X177591604Y-119000000D02*
X181500000Y-119000000D01*
X175000000Y-120000000D02*
X176591604Y-120000000D01*
X176591604Y-120000000D02*
X177591604Y-119000000D01*
X181500000Y-119000000D02*
X182000000Y-119500000D01*
%TO.N,GND*%
X172611700Y-130888300D02*
X174000000Y-129500000D01*
X170876200Y-130888300D02*
X172611700Y-130888300D01*
%TD*%
M02*
